<?xml version="1.0" encoding="UTF-8" standalone="no"?>
<!-- Created with Inkscape (http://www.inkscape.org/) -->

<svg
   width="83.934082mm"
   height="24.361614mm"
   viewBox="0 0 83.934082 24.361614"
   version="1.1"
   id="svg5"
   sodipodi:docname="1p2p.svg"
   inkscape:version="1.1 (c68e22c387, 2021-05-23)"
   xmlns:inkscape="http://www.inkscape.org/namespaces/inkscape"
   xmlns:sodipodi="http://sodipodi.sourceforge.net/DTD/sodipodi-0.dtd"
   xmlns="http://www.w3.org/2000/svg"
   xmlns:svg="http://www.w3.org/2000/svg">
  <sodipodi:namedview
     id="namedview7"
     pagecolor="#ffffff"
     bordercolor="#666666"
     borderopacity="1.0"
     inkscape:pageshadow="2"
     inkscape:pageopacity="0.0"
     inkscape:pagecheckerboard="0"
     inkscape:document-units="mm"
     showgrid="false"
     inkscape:zoom="1.8973437"
     inkscape:cx="232.16669"
     inkscape:cy="146.25711"
     inkscape:window-width="1920"
     inkscape:window-height="1001"
     inkscape:window-x="-9"
     inkscape:window-y="1341"
     inkscape:window-maximized="1"
     inkscape:current-layer="layer1"
     fit-margin-top="0"
     fit-margin-left="0"
     fit-margin-right="0"
     fit-margin-bottom="0" />
  <defs
     id="defs2">
    <pattern
       id="EMFhbasepattern"
       patternUnits="userSpaceOnUse"
       width="6"
       height="6"
       x="0"
       y="0" />
  </defs>
  <g
     inkscape:label="Layer 1"
     inkscape:groupmode="layer"
     id="layer1"
     transform="translate(-57.8218,-87.213618)">
    <path
       style="fill:none;stroke:#000000;stroke-width:0.179px;stroke-linecap:round;stroke-linejoin:round;stroke-miterlimit:4;stroke-dasharray:none;stroke-opacity:1"
       d="M 61.71505,97.960037 V 95.420474"
       id="path827" />
    <path
       style="fill:none;stroke:#000000;stroke-width:0.179px;stroke-linecap:round;stroke-linejoin:round;stroke-miterlimit:4;stroke-dasharray:none;stroke-opacity:1"
       d="m 61.71505,100.48841 v 2.53956"
       id="path829" />
    <path
       style="fill:none;stroke:#0000ff;stroke-width:0.179px;stroke-linecap:round;stroke-linejoin:round;stroke-miterlimit:4;stroke-dasharray:none;stroke-opacity:1"
       d="M 64.254612,98.340412 H 59.175487"
       id="path831" />
    <path
       style="fill:none;stroke:#0000ff;stroke-width:0.179px;stroke-linecap:round;stroke-linejoin:round;stroke-miterlimit:4;stroke-dasharray:none;stroke-opacity:1"
       d="M 63.23655,100.10804 H 60.193549"
       id="path833" />
    <path
       style="fill:none;stroke:#0000ff;stroke-width:0.179px;stroke-linecap:round;stroke-linejoin:round;stroke-miterlimit:4;stroke-dasharray:none;stroke-opacity:1"
       d="M 59.175487,97.065037 H 57.9113"
       id="path835" />
    <path
       style="fill:none;stroke:#0000ff;stroke-width:0.179px;stroke-linecap:round;stroke-linejoin:round;stroke-miterlimit:4;stroke-dasharray:none;stroke-opacity:1"
       d="M 58.548987,97.702724 V 96.438537"
       id="path837" />
    <path
       style="fill:none;stroke:#0000ff;stroke-width:0.179px;stroke-linecap:round;stroke-linejoin:round;stroke-miterlimit:4;stroke-dasharray:none;stroke-opacity:1"
       d="m 61.71505,97.960037 v 0.380375"
       id="path839" />
    <path
       style="fill:none;stroke:#0000ff;stroke-width:0.179px;stroke-linecap:round;stroke-linejoin:round;stroke-miterlimit:4;stroke-dasharray:none;stroke-opacity:1"
       d="m 61.71505,100.48841 v -0.38037"
       id="path841" />
    <text
       xml:space="preserve"
       style="font-style:normal;font-variant:normal;font-weight:400;font-size:2.14974px;line-height:125%;font-family:Cambria;text-align:start;letter-spacing:0px;word-spacing:0px;text-anchor:start;fill:#000000;fill-opacity:1;stroke:none;stroke-width:0.264583"
       x="64.646172"
       y="98.329224"
       id="text847"><tspan
         sodipodi:role="line"
         x="64.646172"
         y="98.329224"
         id="tspan845"
         style="stroke-width:0.264583"><tspan
           dx="0"
           dy="0"
           style="font-style:normal;font-variant:normal;font-weight:400;font-size:2.14974px;font-family:Cambria;fill:#000080;stroke-width:0.264583"
           id="tspan843">BT3</tspan></tspan></text>
    <path
       style="fill:#000080;fill-opacity:1;fill-rule:evenodd;stroke:none;stroke-width:0.264583"
       d="m 73.898238,95.420474 c 0,-0.279687 0.22375,-0.514625 0.503437,-0.514625 v 0 c 0.279687,0 0.514625,0.234938 0.514625,0.514625 0,0 0,0 0,0 v 0 c 0,0.279688 -0.234938,0.503438 -0.514625,0.503438 -0.279687,0 -0.503437,-0.22375 -0.503437,-0.503438 z"
       id="path849" />
    <path
       style="fill:none;stroke:#000080;stroke-width:0.179px;stroke-linecap:round;stroke-linejoin:round;stroke-miterlimit:4;stroke-dasharray:none;stroke-opacity:1"
       d="m 73.898238,95.420474 c 0,-0.279687 0.22375,-0.514625 0.503437,-0.514625 v 0 c 0.279687,0 0.514625,0.234938 0.514625,0.514625 0,0 0,0 0,0 v 0 c 0,0.279688 -0.234938,0.503438 -0.514625,0.503438 -0.279687,0 -0.503437,-0.22375 -0.503437,-0.503438 z"
       id="path851" />
    <path
       style="fill:#000080;fill-opacity:1;fill-rule:evenodd;stroke:none;stroke-width:0.264583"
       d="m 73.898238,103.02797 c 0,-0.27968 0.22375,-0.50343 0.503437,-0.50343 v 0 c 0.279687,0 0.514625,0.22375 0.514625,0.50343 0,0 0,0 0,0 v 0 c 0,0.27969 -0.234938,0.51463 -0.514625,0.51463 -0.279687,0 -0.503437,-0.23494 -0.503437,-0.51463 z"
       id="path853" />
    <path
       style="fill:none;stroke:#000080;stroke-width:0.179px;stroke-linecap:round;stroke-linejoin:round;stroke-miterlimit:4;stroke-dasharray:none;stroke-opacity:1"
       d="m 73.898238,103.02797 c 0,-0.27968 0.22375,-0.50343 0.503437,-0.50343 v 0 c 0.279687,0 0.514625,0.22375 0.514625,0.50343 0,0 0,0 0,0 v 0 c 0,0.27969 -0.234938,0.51463 -0.514625,0.51463 -0.279687,0 -0.503437,-0.23494 -0.503437,-0.51463 z"
       id="path855" />
    <path
       style="fill:none;stroke:#000000;stroke-width:0.179px;stroke-linecap:round;stroke-linejoin:round;stroke-miterlimit:4;stroke-dasharray:none;stroke-opacity:1"
       d="M 74.401675,97.960037 V 95.420474"
       id="path857" />
    <path
       style="fill:#000080;fill-opacity:1;fill-rule:evenodd;stroke:none;stroke-width:0.264583"
       d="m 73.898238,95.420474 c 0,-0.279687 0.22375,-0.514625 0.503437,-0.514625 v 0 c 0.279687,0 0.514625,0.234938 0.514625,0.514625 0,0 0,0 0,0 v 0 c 0,0.279688 -0.234938,0.503438 -0.514625,0.503438 -0.279687,0 -0.503437,-0.22375 -0.503437,-0.503438 z"
       id="path859" />
    <path
       style="fill:none;stroke:#000080;stroke-width:0.179px;stroke-linecap:round;stroke-linejoin:round;stroke-miterlimit:4;stroke-dasharray:none;stroke-opacity:1"
       d="m 73.898238,95.420474 c 0,-0.279687 0.22375,-0.514625 0.503437,-0.514625 v 0 c 0.279687,0 0.514625,0.234938 0.514625,0.514625 0,0 0,0 0,0 v 0 c 0,0.279688 -0.234938,0.503438 -0.514625,0.503438 -0.279687,0 -0.503437,-0.22375 -0.503437,-0.503438 z"
       id="path861" />
    <path
       style="fill:none;stroke:#000000;stroke-width:0.179px;stroke-linecap:round;stroke-linejoin:round;stroke-miterlimit:4;stroke-dasharray:none;stroke-opacity:1"
       d="m 74.401675,100.48841 v 2.53956"
       id="path863" />
    <path
       style="fill:#000080;fill-opacity:1;fill-rule:evenodd;stroke:none;stroke-width:0.264583"
       d="m 73.898238,103.02797 c 0,-0.27968 0.22375,-0.50343 0.503437,-0.50343 v 0 c 0.279687,0 0.514625,0.22375 0.514625,0.50343 0,0 0,0 0,0 v 0 c 0,0.27969 -0.234938,0.51463 -0.514625,0.51463 -0.279687,0 -0.503437,-0.23494 -0.503437,-0.51463 z"
       id="path865" />
    <path
       style="fill:none;stroke:#000080;stroke-width:0.179px;stroke-linecap:round;stroke-linejoin:round;stroke-miterlimit:4;stroke-dasharray:none;stroke-opacity:1"
       d="m 73.898238,103.02797 c 0,-0.27968 0.22375,-0.50343 0.503437,-0.50343 v 0 c 0.279687,0 0.514625,0.22375 0.514625,0.50343 0,0 0,0 0,0 v 0 c 0,0.27969 -0.234938,0.51463 -0.514625,0.51463 -0.279687,0 -0.503437,-0.23494 -0.503437,-0.51463 z"
       id="path867" />
    <path
       style="fill:none;stroke:#0000ff;stroke-width:0.179px;stroke-linecap:round;stroke-linejoin:round;stroke-miterlimit:4;stroke-dasharray:none;stroke-opacity:1"
       d="M 76.941238,98.340412 H 71.862113"
       id="path869" />
    <path
       style="fill:none;stroke:#0000ff;stroke-width:0.179px;stroke-linecap:round;stroke-linejoin:round;stroke-miterlimit:4;stroke-dasharray:none;stroke-opacity:1"
       d="m 75.923175,100.10804 h -3.043"
       id="path871" />
    <path
       style="fill:none;stroke:#0000ff;stroke-width:0.179px;stroke-linecap:round;stroke-linejoin:round;stroke-miterlimit:4;stroke-dasharray:none;stroke-opacity:1"
       d="M 71.862113,97.065037 H 70.597925"
       id="path873" />
    <path
       style="fill:none;stroke:#0000ff;stroke-width:0.179px;stroke-linecap:round;stroke-linejoin:round;stroke-miterlimit:4;stroke-dasharray:none;stroke-opacity:1"
       d="M 71.235613,97.702724 V 96.438537"
       id="path875" />
    <path
       style="fill:none;stroke:#0000ff;stroke-width:0.179px;stroke-linecap:round;stroke-linejoin:round;stroke-miterlimit:4;stroke-dasharray:none;stroke-opacity:1"
       d="m 74.401675,97.960037 v 0.380375"
       id="path877" />
    <path
       style="fill:none;stroke:#0000ff;stroke-width:0.179px;stroke-linecap:round;stroke-linejoin:round;stroke-miterlimit:4;stroke-dasharray:none;stroke-opacity:1"
       d="m 74.401675,100.48841 v -0.38037"
       id="path879" />
    <text
       xml:space="preserve"
       style="font-style:normal;font-variant:normal;font-weight:400;font-size:2.14974px;line-height:125%;font-family:Cambria;text-align:start;letter-spacing:0px;word-spacing:0px;text-anchor:start;fill:#000000;fill-opacity:1;stroke:none;stroke-width:0.264583"
       x="77.355171"
       y="98.329224"
       id="text885"><tspan
         sodipodi:role="line"
         x="77.355171"
         y="98.329224"
         id="tspan883"
         style="stroke-width:0.264583"><tspan
           dx="0"
           dy="0"
           style="font-style:normal;font-variant:normal;font-weight:400;font-size:2.14974px;font-family:Cambria;fill:#000080;stroke-width:0.264583"
           id="tspan881">BT4</tspan></tspan></text>
    <path
       style="fill:#000080;fill-opacity:1;fill-rule:evenodd;stroke:none;stroke-width:0.264583"
       d="m 86.584862,95.420474 c 0,-0.279687 0.22375,-0.514625 0.503439,-0.514625 v 0 c 0.290875,0 0.514625,0.234938 0.514625,0.514625 0,0 0,0 0,0 v 0 c 0,0.279688 -0.22375,0.503438 -0.514625,0.503438 -0.279689,0 -0.503439,-0.22375 -0.503439,-0.503438 z"
       id="path887" />
    <path
       style="fill:none;stroke:#000080;stroke-width:0.179px;stroke-linecap:round;stroke-linejoin:round;stroke-miterlimit:4;stroke-dasharray:none;stroke-opacity:1"
       d="m 86.584862,95.420474 c 0,-0.279687 0.22375,-0.514625 0.503439,-0.514625 v 0 c 0.290875,0 0.514625,0.234938 0.514625,0.514625 0,0 0,0 0,0 v 0 c 0,0.279688 -0.22375,0.503438 -0.514625,0.503438 -0.279689,0 -0.503439,-0.22375 -0.503439,-0.503438 z"
       id="path889" />
    <path
       style="fill:#000080;fill-opacity:1;fill-rule:evenodd;stroke:none;stroke-width:0.264583"
       d="m 86.584862,103.02797 c 0,-0.27968 0.22375,-0.50343 0.503439,-0.50343 v 0 c 0.290875,0 0.514625,0.22375 0.514625,0.50343 0,0 0,0 0,0 v 0 c 0,0.27969 -0.22375,0.51463 -0.514625,0.51463 -0.279689,0 -0.503439,-0.23494 -0.503439,-0.51463 z"
       id="path891" />
    <path
       style="fill:none;stroke:#000080;stroke-width:0.179px;stroke-linecap:round;stroke-linejoin:round;stroke-miterlimit:4;stroke-dasharray:none;stroke-opacity:1"
       d="m 86.584862,103.02797 c 0,-0.27968 0.22375,-0.50343 0.503439,-0.50343 v 0 c 0.290875,0 0.514625,0.22375 0.514625,0.50343 0,0 0,0 0,0 v 0 c 0,0.27969 -0.22375,0.51463 -0.514625,0.51463 -0.279689,0 -0.503439,-0.23494 -0.503439,-0.51463 z"
       id="path893" />
    <path
       style="fill:none;stroke:#000000;stroke-width:0.179px;stroke-linecap:round;stroke-linejoin:round;stroke-miterlimit:4;stroke-dasharray:none;stroke-opacity:1"
       d="M 87.088301,97.960037 V 95.420474"
       id="path895" />
    <path
       style="fill:#000080;fill-opacity:1;fill-rule:evenodd;stroke:none;stroke-width:0.264583"
       d="m 86.584862,95.420474 c 0,-0.279687 0.22375,-0.514625 0.503439,-0.514625 v 0 c 0.290875,0 0.514625,0.234938 0.514625,0.514625 0,0 0,0 0,0 v 0 c 0,0.279688 -0.22375,0.503438 -0.514625,0.503438 -0.279689,0 -0.503439,-0.22375 -0.503439,-0.503438 z"
       id="path897" />
    <path
       style="fill:none;stroke:#000080;stroke-width:0.179px;stroke-linecap:round;stroke-linejoin:round;stroke-miterlimit:4;stroke-dasharray:none;stroke-opacity:1"
       d="m 86.584862,95.420474 c 0,-0.279687 0.22375,-0.514625 0.503439,-0.514625 v 0 c 0.290875,0 0.514625,0.234938 0.514625,0.514625 0,0 0,0 0,0 v 0 c 0,0.279688 -0.22375,0.503438 -0.514625,0.503438 -0.279689,0 -0.503439,-0.22375 -0.503439,-0.503438 z"
       id="path899" />
    <path
       style="fill:none;stroke:#000000;stroke-width:0.179px;stroke-linecap:round;stroke-linejoin:round;stroke-miterlimit:4;stroke-dasharray:none;stroke-opacity:1"
       d="m 87.088301,100.48841 v 2.53956"
       id="path901" />
    <path
       style="fill:#000080;fill-opacity:1;fill-rule:evenodd;stroke:none;stroke-width:0.264583"
       d="m 86.584862,103.02797 c 0,-0.27968 0.22375,-0.50343 0.503439,-0.50343 v 0 c 0.290875,0 0.514625,0.22375 0.514625,0.50343 0,0 0,0 0,0 v 0 c 0,0.27969 -0.22375,0.51463 -0.514625,0.51463 -0.279689,0 -0.503439,-0.23494 -0.503439,-0.51463 z"
       id="path903" />
    <path
       style="fill:none;stroke:#000080;stroke-width:0.179px;stroke-linecap:round;stroke-linejoin:round;stroke-miterlimit:4;stroke-dasharray:none;stroke-opacity:1"
       d="m 86.584862,103.02797 c 0,-0.27968 0.22375,-0.50343 0.503439,-0.50343 v 0 c 0.290875,0 0.514625,0.22375 0.514625,0.50343 0,0 0,0 0,0 v 0 c 0,0.27969 -0.22375,0.51463 -0.514625,0.51463 -0.279689,0 -0.503439,-0.23494 -0.503439,-0.51463 z"
       id="path905" />
    <path
       style="fill:none;stroke:#0000ff;stroke-width:0.179px;stroke-linecap:round;stroke-linejoin:round;stroke-miterlimit:4;stroke-dasharray:none;stroke-opacity:1"
       d="M 89.627862,98.340412 H 84.559924"
       id="path907" />
    <path
       style="fill:none;stroke:#0000ff;stroke-width:0.179px;stroke-linecap:round;stroke-linejoin:round;stroke-miterlimit:4;stroke-dasharray:none;stroke-opacity:1"
       d="M 88.620987,100.10804 H 85.566801"
       id="path909" />
    <path
       style="fill:none;stroke:#0000ff;stroke-width:0.179px;stroke-linecap:round;stroke-linejoin:round;stroke-miterlimit:4;stroke-dasharray:none;stroke-opacity:1"
       d="M 84.559924,97.065037 H 83.28455"
       id="path911" />
    <path
       style="fill:none;stroke:#0000ff;stroke-width:0.179px;stroke-linecap:round;stroke-linejoin:round;stroke-miterlimit:4;stroke-dasharray:none;stroke-opacity:1"
       d="M 83.922238,97.702724 V 96.438537"
       id="path913" />
    <path
       style="fill:none;stroke:#0000ff;stroke-width:0.179px;stroke-linecap:round;stroke-linejoin:round;stroke-miterlimit:4;stroke-dasharray:none;stroke-opacity:1"
       d="m 87.088301,97.960037 v 0.380375"
       id="path915" />
    <path
       style="fill:none;stroke:#0000ff;stroke-width:0.179px;stroke-linecap:round;stroke-linejoin:round;stroke-miterlimit:4;stroke-dasharray:none;stroke-opacity:1"
       d="m 87.088301,100.48841 v -0.38037"
       id="path917" />
    <text
       xml:space="preserve"
       style="font-style:normal;font-variant:normal;font-weight:400;font-size:2.14974px;line-height:125%;font-family:Cambria;text-align:start;letter-spacing:0px;word-spacing:0px;text-anchor:start;fill:#000000;fill-opacity:1;stroke:none;stroke-width:0.264583"
       x="89.88517"
       y="98.329224"
       id="text923"><tspan
         sodipodi:role="line"
         x="89.88517"
         y="98.329224"
         id="tspan921"
         style="stroke-width:0.264583"><tspan
           dx="0"
           dy="0"
           style="font-style:normal;font-variant:normal;font-weight:400;font-size:2.14974px;font-family:Cambria;fill:#000080;stroke-width:0.264583"
           id="tspan919">BT5</tspan></tspan></text>
    <path
       style="fill:none;stroke:#800000;stroke-width:0.179px;stroke-linecap:round;stroke-linejoin:round;stroke-miterlimit:4;stroke-dasharray:none;stroke-opacity:1"
       d="M 98.510736,92.880912 H 101.0503"
       id="path925" />
    <text
       xml:space="preserve"
       style="font-style:normal;font-variant:normal;font-weight:400;font-size:2.14974px;line-height:125%;font-family:Cambria;text-align:start;letter-spacing:0px;word-spacing:0px;text-anchor:start;fill:#000000;fill-opacity:1;stroke:none;stroke-width:0.264583"
       x="97.403175"
       y="92.422226"
       id="text931"><tspan
         sodipodi:role="line"
         x="97.403175"
         y="92.422226"
         id="tspan929"
         style="stroke-width:0.264583"><tspan
           dx="0"
           dy="0"
           style="font-style:normal;font-variant:normal;font-weight:400;font-size:2.14974px;font-family:Cambria;fill:#800000;stroke-width:0.264583"
           id="tspan927">+BAT</tspan></tspan></text>
    <path
       style="fill:none;stroke:#800000;stroke-width:0.179px;stroke-linecap:round;stroke-linejoin:round;stroke-miterlimit:4;stroke-dasharray:none;stroke-opacity:1"
       d="M 99.786113,95.420474 V 92.880912"
       id="path933" />
    <path
       style="fill:#000080;fill-opacity:1;fill-rule:evenodd;stroke:none;stroke-width:0.264583"
       d="m 99.271487,95.420474 c 0,-0.279687 0.234937,-0.514625 0.514626,-0.514625 v 0 c 0.279687,0 0.503437,0.234938 0.503437,0.514625 0,0 0,0 0,0 v 0 c 0,0.279688 -0.22375,0.503438 -0.503437,0.503438 -0.279689,0 -0.514626,-0.22375 -0.514626,-0.503438 z"
       id="path935" />
    <path
       style="fill:none;stroke:#000080;stroke-width:0.179px;stroke-linecap:round;stroke-linejoin:round;stroke-miterlimit:4;stroke-dasharray:none;stroke-opacity:1"
       d="m 99.271487,95.420474 c 0,-0.279687 0.234937,-0.514625 0.514626,-0.514625 v 0 c 0.279687,0 0.503437,0.234938 0.503437,0.514625 0,0 0,0 0,0 v 0 c 0,0.279688 -0.22375,0.503438 -0.503437,0.503438 -0.279689,0 -0.514626,-0.22375 -0.514626,-0.503438 z"
       id="path937" />
    <path
       style="fill:none;stroke:#800000;stroke-width:0.179px;stroke-linecap:round;stroke-linejoin:round;stroke-miterlimit:4;stroke-dasharray:none;stroke-opacity:1"
       d="M 98.510736,105.56754 H 101.0503"
       id="path939" />
    <text
       xml:space="preserve"
       style="font-style:normal;font-variant:normal;font-weight:400;font-size:2.14974px;line-height:125%;font-family:Cambria;text-align:start;letter-spacing:0px;word-spacing:0px;text-anchor:start;fill:#000000;fill-opacity:1;stroke:none;stroke-width:0.264583"
       x="97.582176"
       y="107.63722"
       id="text945"><tspan
         sodipodi:role="line"
         x="97.582176"
         y="107.63722"
         id="tspan943"
         style="stroke-width:0.264583"><tspan
           dx="0"
           dy="0"
           style="font-style:normal;font-variant:normal;font-weight:400;font-size:2.14974px;font-family:Cambria;fill:#800000;stroke-width:0.264583"
           id="tspan941">-BAT</tspan></tspan></text>
    <path
       style="fill:none;stroke:#800000;stroke-width:0.179px;stroke-linecap:round;stroke-linejoin:round;stroke-miterlimit:4;stroke-dasharray:none;stroke-opacity:1"
       d="m 99.786113,103.02797 v 2.53957"
       id="path947" />
    <path
       style="fill:#000080;fill-opacity:1;fill-rule:evenodd;stroke:none;stroke-width:0.264583"
       d="m 99.271487,103.02797 c 0,-0.27968 0.234937,-0.50343 0.514626,-0.50343 v 0 c 0.279687,0 0.503437,0.22375 0.503437,0.50343 0,0 0,0 0,0 v 0 c 0,0.27969 -0.22375,0.51463 -0.503437,0.51463 -0.279689,0 -0.514626,-0.23494 -0.514626,-0.51463 z"
       id="path949" />
    <path
       style="fill:none;stroke:#000080;stroke-width:0.179px;stroke-linecap:round;stroke-linejoin:round;stroke-miterlimit:4;stroke-dasharray:none;stroke-opacity:1"
       d="m 99.271487,103.02797 c 0,-0.27968 0.234937,-0.50343 0.514626,-0.50343 v 0 c 0.279687,0 0.503437,0.22375 0.503437,0.50343 0,0 0,0 0,0 v 0 c 0,0.27969 -0.22375,0.51463 -0.503437,0.51463 -0.279689,0 -0.514626,-0.23494 -0.514626,-0.51463 z"
       id="path951" />
    <path
       style="fill:#000080;fill-opacity:1;fill-rule:evenodd;stroke:none;stroke-width:0.264583"
       d="m 99.271487,95.420474 c 0,-0.279687 0.234937,-0.514625 0.514626,-0.514625 v 0 c 0.279687,0 0.503437,0.234938 0.503437,0.514625 0,0 0,0 0,0 v 0 c 0,0.279688 -0.22375,0.503438 -0.503437,0.503438 -0.279689,0 -0.514626,-0.22375 -0.514626,-0.503438 z"
       id="path953" />
    <path
       style="fill:none;stroke:#000080;stroke-width:0.179px;stroke-linecap:round;stroke-linejoin:round;stroke-miterlimit:4;stroke-dasharray:none;stroke-opacity:1"
       d="m 99.271487,95.420474 c 0,-0.279687 0.234937,-0.514625 0.514626,-0.514625 v 0 c 0.279687,0 0.503437,0.234938 0.503437,0.514625 0,0 0,0 0,0 v 0 c 0,0.279688 -0.22375,0.503438 -0.503437,0.503438 -0.279689,0 -0.514626,-0.22375 -0.514626,-0.503438 z"
       id="path955" />
    <path
       style="fill:#000080;fill-opacity:1;fill-rule:evenodd;stroke:none;stroke-width:0.264583"
       d="m 99.271487,103.02797 c 0,-0.27968 0.234937,-0.50343 0.514626,-0.50343 v 0 c 0.279687,0 0.503437,0.22375 0.503437,0.50343 0,0 0,0 0,0 v 0 c 0,0.27969 -0.22375,0.51463 -0.503437,0.51463 -0.279689,0 -0.514626,-0.23494 -0.514626,-0.51463 z"
       id="path957" />
    <path
       style="fill:none;stroke:#000080;stroke-width:0.179px;stroke-linecap:round;stroke-linejoin:round;stroke-miterlimit:4;stroke-dasharray:none;stroke-opacity:1"
       d="m 99.271487,103.02797 c 0,-0.27968 0.234937,-0.50343 0.514626,-0.50343 v 0 c 0.279687,0 0.503437,0.22375 0.503437,0.50343 0,0 0,0 0,0 v 0 c 0,0.27969 -0.22375,0.51463 -0.503437,0.51463 -0.279689,0 -0.514626,-0.23494 -0.514626,-0.51463 z"
       id="path959" />
    <path
       style="fill:none;stroke:#000000;stroke-width:0.179px;stroke-linecap:round;stroke-linejoin:round;stroke-miterlimit:4;stroke-dasharray:none;stroke-opacity:1"
       d="M 99.786113,97.960037 V 95.420474"
       id="path961" />
    <path
       style="fill:#000080;fill-opacity:1;fill-rule:evenodd;stroke:none;stroke-width:0.264583"
       d="m 99.271487,95.420474 c 0,-0.279687 0.234937,-0.514625 0.514626,-0.514625 v 0 c 0.279687,0 0.503437,0.234938 0.503437,0.514625 0,0 0,0 0,0 v 0 c 0,0.279688 -0.22375,0.503438 -0.503437,0.503438 -0.279689,0 -0.514626,-0.22375 -0.514626,-0.503438 z"
       id="path963" />
    <path
       style="fill:none;stroke:#000080;stroke-width:0.179px;stroke-linecap:round;stroke-linejoin:round;stroke-miterlimit:4;stroke-dasharray:none;stroke-opacity:1"
       d="m 99.271487,95.420474 c 0,-0.279687 0.234937,-0.514625 0.514626,-0.514625 v 0 c 0.279687,0 0.503437,0.234938 0.503437,0.514625 0,0 0,0 0,0 v 0 c 0,0.279688 -0.22375,0.503438 -0.503437,0.503438 -0.279689,0 -0.514626,-0.22375 -0.514626,-0.503438 z"
       id="path965" />
    <path
       style="fill:none;stroke:#000000;stroke-width:0.179px;stroke-linecap:round;stroke-linejoin:round;stroke-miterlimit:4;stroke-dasharray:none;stroke-opacity:1"
       d="m 99.786113,100.48841 v 2.53956"
       id="path967" />
    <path
       style="fill:#000080;fill-opacity:1;fill-rule:evenodd;stroke:none;stroke-width:0.264583"
       d="m 99.271487,103.02797 c 0,-0.27968 0.234937,-0.50343 0.514626,-0.50343 v 0 c 0.279687,0 0.503437,0.22375 0.503437,0.50343 0,0 0,0 0,0 v 0 c 0,0.27969 -0.22375,0.51463 -0.503437,0.51463 -0.279689,0 -0.514626,-0.23494 -0.514626,-0.51463 z"
       id="path969" />
    <path
       style="fill:none;stroke:#000080;stroke-width:0.179px;stroke-linecap:round;stroke-linejoin:round;stroke-miterlimit:4;stroke-dasharray:none;stroke-opacity:1"
       d="m 99.271487,103.02797 c 0,-0.27968 0.234937,-0.50343 0.514626,-0.50343 v 0 c 0.279687,0 0.503437,0.22375 0.503437,0.50343 0,0 0,0 0,0 v 0 c 0,0.27969 -0.22375,0.51463 -0.503437,0.51463 -0.279689,0 -0.514626,-0.23494 -0.514626,-0.51463 z"
       id="path971" />
    <path
       style="fill:none;stroke:#0000ff;stroke-width:0.179px;stroke-linecap:round;stroke-linejoin:round;stroke-miterlimit:4;stroke-dasharray:none;stroke-opacity:1"
       d="M 102.31449,98.340412 H 97.246549"
       id="path973" />
    <path
       style="fill:none;stroke:#0000ff;stroke-width:0.179px;stroke-linecap:round;stroke-linejoin:round;stroke-miterlimit:4;stroke-dasharray:none;stroke-opacity:1"
       d="M 101.30761,100.10804 H 98.253424"
       id="path975" />
    <path
       style="fill:none;stroke:#0000ff;stroke-width:0.179px;stroke-linecap:round;stroke-linejoin:round;stroke-miterlimit:4;stroke-dasharray:none;stroke-opacity:1"
       d="M 97.246549,97.065037 H 95.971175"
       id="path977" />
    <path
       style="fill:none;stroke:#0000ff;stroke-width:0.179px;stroke-linecap:round;stroke-linejoin:round;stroke-miterlimit:4;stroke-dasharray:none;stroke-opacity:1"
       d="M 96.608864,97.702724 V 96.438537"
       id="path979" />
    <path
       style="fill:none;stroke:#0000ff;stroke-width:0.179px;stroke-linecap:round;stroke-linejoin:round;stroke-miterlimit:4;stroke-dasharray:none;stroke-opacity:1"
       d="m 99.786113,97.960037 v 0.380375"
       id="path981" />
    <path
       style="fill:none;stroke:#0000ff;stroke-width:0.179px;stroke-linecap:round;stroke-linejoin:round;stroke-miterlimit:4;stroke-dasharray:none;stroke-opacity:1"
       d="m 99.786113,100.48841 v -0.38037"
       id="path983" />
    <text
       xml:space="preserve"
       style="font-style:normal;font-variant:normal;font-weight:400;font-size:2.14974px;line-height:125%;font-family:Cambria;text-align:start;letter-spacing:0px;word-spacing:0px;text-anchor:start;fill:#000000;fill-opacity:1;stroke:none;stroke-width:0.264583"
       x="102.59418"
       y="98.329224"
       id="text989"><tspan
         sodipodi:role="line"
         x="102.59418"
         y="98.329224"
         id="tspan987"
         style="stroke-width:0.264583"><tspan
           dx="0"
           dy="0"
           style="font-style:normal;font-variant:normal;font-weight:400;font-size:2.14974px;font-family:Cambria;fill:#000080;stroke-width:0.264583"
           id="tspan985">BT6</tspan></tspan></text>
    <path
       style="fill:#000080;fill-opacity:1;fill-rule:evenodd;stroke:none;stroke-width:0.264583"
       d="m 111.95811,99.224224 c 0,-0.279687 0.23494,-0.503438 0.51463,-0.503438 v 0 c 0.27968,0 0.50343,0.223751 0.50343,0.503438 0,0 0,0 0,0 v 0 c 0,0.279688 -0.22375,0.503437 -0.50343,0.503437 -0.27969,0 -0.51463,-0.223749 -0.51463,-0.503437 z"
       id="path991" />
    <path
       style="fill:none;stroke:#000080;stroke-width:0.179px;stroke-linecap:round;stroke-linejoin:round;stroke-miterlimit:4;stroke-dasharray:none;stroke-opacity:1"
       d="m 111.95811,99.224224 c 0,-0.279687 0.23494,-0.503438 0.51463,-0.503438 v 0 c 0.27968,0 0.50343,0.223751 0.50343,0.503438 0,0 0,0 0,0 v 0 c 0,0.279688 -0.22375,0.503437 -0.50343,0.503437 -0.27969,0 -0.51463,-0.223749 -0.51463,-0.503437 z"
       id="path993" />
    <path
       style="fill:#000080;fill-opacity:1;fill-rule:evenodd;stroke:none;stroke-width:0.264583"
       d="m 111.95811,106.84291 c 0,-0.29087 0.23494,-0.51462 0.51463,-0.51462 v 0 c 0.27968,0 0.50343,0.22375 0.50343,0.51462 0,0 0,0 0,0 v 0 c 0,0.27969 -0.22375,0.50344 -0.50343,0.50344 -0.27969,0 -0.51463,-0.22375 -0.51463,-0.50344 z"
       id="path995" />
    <path
       style="fill:none;stroke:#000080;stroke-width:0.179px;stroke-linecap:round;stroke-linejoin:round;stroke-miterlimit:4;stroke-dasharray:none;stroke-opacity:1"
       d="m 111.95811,106.84291 c 0,-0.29087 0.23494,-0.51462 0.51463,-0.51462 v 0 c 0.27968,0 0.50343,0.22375 0.50343,0.51462 0,0 0,0 0,0 v 0 c 0,0.27969 -0.22375,0.50344 -0.50343,0.50344 -0.27969,0 -0.51463,-0.22375 -0.51463,-0.50344 z"
       id="path997" />
    <path
       style="fill:none;stroke:#000000;stroke-width:0.179px;stroke-linecap:round;stroke-linejoin:round;stroke-miterlimit:4;stroke-dasharray:none;stroke-opacity:1"
       d="M 112.47274,101.76379 V 99.224224"
       id="path999" />
    <path
       style="fill:#000080;fill-opacity:1;fill-rule:evenodd;stroke:none;stroke-width:0.264583"
       d="m 111.95811,99.224224 c 0,-0.279687 0.23494,-0.503438 0.51463,-0.503438 v 0 c 0.27968,0 0.50343,0.223751 0.50343,0.503438 0,0 0,0 0,0 v 0 c 0,0.279688 -0.22375,0.503437 -0.50343,0.503437 -0.27969,0 -0.51463,-0.223749 -0.51463,-0.503437 z"
       id="path1001" />
    <path
       style="fill:none;stroke:#000080;stroke-width:0.179px;stroke-linecap:round;stroke-linejoin:round;stroke-miterlimit:4;stroke-dasharray:none;stroke-opacity:1"
       d="m 111.95811,99.224224 c 0,-0.279687 0.23494,-0.503438 0.51463,-0.503438 v 0 c 0.27968,0 0.50343,0.223751 0.50343,0.503438 0,0 0,0 0,0 v 0 c 0,0.279688 -0.22375,0.503437 -0.50343,0.503437 -0.27969,0 -0.51463,-0.223749 -0.51463,-0.503437 z"
       id="path1003" />
    <path
       style="fill:none;stroke:#000000;stroke-width:0.179px;stroke-linecap:round;stroke-linejoin:round;stroke-miterlimit:4;stroke-dasharray:none;stroke-opacity:1"
       d="m 112.47274,104.30335 v 2.53956"
       id="path1005" />
    <path
       style="fill:#000080;fill-opacity:1;fill-rule:evenodd;stroke:none;stroke-width:0.264583"
       d="m 111.95811,106.84291 c 0,-0.29087 0.23494,-0.51462 0.51463,-0.51462 v 0 c 0.27968,0 0.50343,0.22375 0.50343,0.51462 0,0 0,0 0,0 v 0 c 0,0.27969 -0.22375,0.50344 -0.50343,0.50344 -0.27969,0 -0.51463,-0.22375 -0.51463,-0.50344 z"
       id="path1007" />
    <path
       style="fill:none;stroke:#000080;stroke-width:0.179px;stroke-linecap:round;stroke-linejoin:round;stroke-miterlimit:4;stroke-dasharray:none;stroke-opacity:1"
       d="m 111.95811,106.84291 c 0,-0.29087 0.23494,-0.51462 0.51463,-0.51462 v 0 c 0.27968,0 0.50343,0.22375 0.50343,0.51462 0,0 0,0 0,0 v 0 c 0,0.27969 -0.22375,0.50344 -0.50343,0.50344 -0.27969,0 -0.51463,-0.22375 -0.51463,-0.50344 z"
       id="path1009" />
    <path
       style="fill:none;stroke:#0000ff;stroke-width:0.179px;stroke-linecap:round;stroke-linejoin:round;stroke-miterlimit:4;stroke-dasharray:none;stroke-opacity:1"
       d="m 115.0123,102.14416 h -5.07913"
       id="path1011" />
    <path
       style="fill:none;stroke:#0000ff;stroke-width:0.179px;stroke-linecap:round;stroke-linejoin:round;stroke-miterlimit:4;stroke-dasharray:none;stroke-opacity:1"
       d="m 113.99424,103.92297 h -3.043"
       id="path1013" />
    <path
       style="fill:none;stroke:#0000ff;stroke-width:0.179px;stroke-linecap:round;stroke-linejoin:round;stroke-miterlimit:4;stroke-dasharray:none;stroke-opacity:1"
       d="M 109.93317,100.86879 H 108.6578"
       id="path1015" />
    <path
       style="fill:none;stroke:#0000ff;stroke-width:0.179px;stroke-linecap:round;stroke-linejoin:round;stroke-miterlimit:4;stroke-dasharray:none;stroke-opacity:1"
       d="m 109.29549,101.50647 v -1.26418"
       id="path1017" />
    <path
       style="fill:none;stroke:#0000ff;stroke-width:0.179px;stroke-linecap:round;stroke-linejoin:round;stroke-miterlimit:4;stroke-dasharray:none;stroke-opacity:1"
       d="m 112.47274,101.76379 v 0.38037"
       id="path1019" />
    <path
       style="fill:none;stroke:#0000ff;stroke-width:0.179px;stroke-linecap:round;stroke-linejoin:round;stroke-miterlimit:4;stroke-dasharray:none;stroke-opacity:1"
       d="m 112.47274,104.30335 v -0.38038"
       id="path1021" />
    <text
       xml:space="preserve"
       style="font-style:normal;font-variant:normal;font-weight:400;font-size:2.14974px;line-height:125%;font-family:Cambria;text-align:start;letter-spacing:0px;word-spacing:0px;text-anchor:start;fill:#000000;fill-opacity:1;stroke:none;stroke-width:0.264583"
       x="115.30318"
       y="102.08823"
       id="text1027"><tspan
         sodipodi:role="line"
         x="115.30318"
         y="102.08823"
         id="tspan1025"
         style="stroke-width:0.264583"><tspan
           dx="0"
           dy="0"
           style="font-style:normal;font-variant:normal;font-weight:400;font-size:2.14974px;font-family:Cambria;fill:#000080;stroke-width:0.264583"
           id="tspan1023">BT7</tspan></tspan></text>
    <path
       style="fill:none;stroke:#800000;stroke-width:0.179px;stroke-linecap:round;stroke-linejoin:round;stroke-miterlimit:4;stroke-dasharray:none;stroke-opacity:1"
       d="m 111.19736,89.077162 h 2.53956"
       id="path1029" />
    <text
       xml:space="preserve"
       style="font-style:normal;font-variant:normal;font-weight:400;font-size:2.14974px;line-height:125%;font-family:Cambria;text-align:start;letter-spacing:0px;word-spacing:0px;text-anchor:start;fill:#000000;fill-opacity:1;stroke:none;stroke-width:0.264583"
       x="109.93317"
       y="88.663223"
       id="text1035"><tspan
         sodipodi:role="line"
         x="109.93317"
         y="88.663223"
         id="tspan1033"
         style="stroke-width:0.264583"><tspan
           dx="0"
           dy="0"
           style="font-style:normal;font-variant:normal;font-weight:400;font-size:2.14974px;font-family:Cambria;fill:#800000;stroke-width:0.264583"
           id="tspan1031">+BAT</tspan></tspan></text>
    <path
       style="fill:none;stroke:#800000;stroke-width:0.179px;stroke-linecap:round;stroke-linejoin:round;stroke-miterlimit:4;stroke-dasharray:none;stroke-opacity:1"
       d="M 112.47274,91.616724 V 89.077162"
       id="path1037" />
    <path
       style="fill:#000080;fill-opacity:1;fill-rule:evenodd;stroke:none;stroke-width:0.264583"
       d="m 111.95811,91.616724 c 0,-0.290875 0.23494,-0.514625 0.51463,-0.514625 v 0 c 0.27968,0 0.50343,0.22375 0.50343,0.514625 0,0 0,0 0,0 v 0 c 0,0.279688 -0.22375,0.503438 -0.50343,0.503438 -0.27969,0 -0.51463,-0.22375 -0.51463,-0.503438 z"
       id="path1039" />
    <path
       style="fill:none;stroke:#000080;stroke-width:0.179px;stroke-linecap:round;stroke-linejoin:round;stroke-miterlimit:4;stroke-dasharray:none;stroke-opacity:1"
       d="m 111.95811,91.616724 c 0,-0.290875 0.23494,-0.514625 0.51463,-0.514625 v 0 c 0.27968,0 0.50343,0.22375 0.50343,0.514625 0,0 0,0 0,0 v 0 c 0,0.279688 -0.22375,0.503438 -0.50343,0.503438 -0.27969,0 -0.51463,-0.22375 -0.51463,-0.503438 z"
       id="path1041" />
    <path
       style="fill:none;stroke:#800000;stroke-width:0.179px;stroke-linecap:round;stroke-linejoin:round;stroke-miterlimit:4;stroke-dasharray:none;stroke-opacity:1"
       d="m 111.19736,109.37129 h 2.53956"
       id="path1043" />
    <text
       xml:space="preserve"
       style="font-style:normal;font-variant:normal;font-weight:400;font-size:2.14974px;line-height:125%;font-family:Cambria;text-align:start;letter-spacing:0px;word-spacing:0px;text-anchor:start;fill:#000000;fill-opacity:1;stroke:none;stroke-width:0.264583"
       x="110.29118"
       y="111.57523"
       id="text1049"><tspan
         sodipodi:role="line"
         x="110.29118"
         y="111.57523"
         id="tspan1047"
         style="stroke-width:0.264583"><tspan
           dx="0"
           dy="0"
           style="font-style:normal;font-variant:normal;font-weight:400;font-size:2.14974px;font-family:Cambria;fill:#800000;stroke-width:0.264583"
           id="tspan1045">-BAT</tspan></tspan></text>
    <path
       style="fill:none;stroke:#800000;stroke-width:0.179px;stroke-linecap:round;stroke-linejoin:round;stroke-miterlimit:4;stroke-dasharray:none;stroke-opacity:1"
       d="m 112.47274,106.84291 v 2.52838"
       id="path1051" />
    <path
       style="fill:#000080;fill-opacity:1;fill-rule:evenodd;stroke:none;stroke-width:0.264583"
       d="m 111.95811,106.84291 c 0,-0.29087 0.23494,-0.51462 0.51463,-0.51462 v 0 c 0.27968,0 0.50343,0.22375 0.50343,0.51462 0,0 0,0 0,0 v 0 c 0,0.27969 -0.22375,0.50344 -0.50343,0.50344 -0.27969,0 -0.51463,-0.22375 -0.51463,-0.50344 z"
       id="path1053" />
    <path
       style="fill:none;stroke:#000080;stroke-width:0.179px;stroke-linecap:round;stroke-linejoin:round;stroke-miterlimit:4;stroke-dasharray:none;stroke-opacity:1"
       d="m 111.95811,106.84291 c 0,-0.29087 0.23494,-0.51462 0.51463,-0.51462 v 0 c 0.27968,0 0.50343,0.22375 0.50343,0.51462 0,0 0,0 0,0 v 0 c 0,0.27969 -0.22375,0.50344 -0.50343,0.50344 -0.27969,0 -0.51463,-0.22375 -0.51463,-0.50344 z"
       id="path1055" />
    <path
       style="fill:#000080;fill-opacity:1;fill-rule:evenodd;stroke:none;stroke-width:0.264583"
       d="m 124.65592,99.224224 c 0,-0.279687 0.22375,-0.503438 0.50344,-0.503438 v 0 c 0.27969,0 0.50344,0.223751 0.50344,0.503438 0,0 0,0 0,0 v 0 c 0,0.279688 -0.22375,0.503437 -0.50344,0.503437 -0.27969,0 -0.50344,-0.223749 -0.50344,-0.503437 z"
       id="path1057" />
    <path
       style="fill:none;stroke:#000080;stroke-width:0.179px;stroke-linecap:round;stroke-linejoin:round;stroke-miterlimit:4;stroke-dasharray:none;stroke-opacity:1"
       d="m 124.65592,99.224224 c 0,-0.279687 0.22375,-0.503438 0.50344,-0.503438 v 0 c 0.27969,0 0.50344,0.223751 0.50344,0.503438 0,0 0,0 0,0 v 0 c 0,0.279688 -0.22375,0.503437 -0.50344,0.503437 -0.27969,0 -0.50344,-0.223749 -0.50344,-0.503437 z"
       id="path1059" />
    <path
       style="fill:none;stroke:#000000;stroke-width:0.179px;stroke-linecap:round;stroke-linejoin:round;stroke-miterlimit:4;stroke-dasharray:none;stroke-opacity:1"
       d="M 125.15936,101.76379 V 99.224224"
       id="path1061" />
    <path
       style="fill:#000080;fill-opacity:1;fill-rule:evenodd;stroke:none;stroke-width:0.264583"
       d="m 124.65592,99.224224 c 0,-0.279687 0.22375,-0.503438 0.50344,-0.503438 v 0 c 0.27969,0 0.50344,0.223751 0.50344,0.503438 0,0 0,0 0,0 v 0 c 0,0.279688 -0.22375,0.503437 -0.50344,0.503437 -0.27969,0 -0.50344,-0.223749 -0.50344,-0.503437 z"
       id="path1063" />
    <path
       style="fill:none;stroke:#000080;stroke-width:0.179px;stroke-linecap:round;stroke-linejoin:round;stroke-miterlimit:4;stroke-dasharray:none;stroke-opacity:1"
       d="m 124.65592,99.224224 c 0,-0.279687 0.22375,-0.503438 0.50344,-0.503438 v 0 c 0.27969,0 0.50344,0.223751 0.50344,0.503438 0,0 0,0 0,0 v 0 c 0,0.279688 -0.22375,0.503437 -0.50344,0.503437 -0.27969,0 -0.50344,-0.223749 -0.50344,-0.503437 z"
       id="path1065" />
    <path
       style="fill:none;stroke:#000000;stroke-width:0.179px;stroke-linecap:round;stroke-linejoin:round;stroke-miterlimit:4;stroke-dasharray:none;stroke-opacity:1"
       d="m 125.15936,104.30335 v 2.53956"
       id="path1067" />
    <path
       style="fill:none;stroke:#0000ff;stroke-width:0.179px;stroke-linecap:round;stroke-linejoin:round;stroke-miterlimit:4;stroke-dasharray:none;stroke-opacity:1"
       d="M 127.69892,102.14416 H 122.6198"
       id="path1069" />
    <path
       style="fill:none;stroke:#0000ff;stroke-width:0.179px;stroke-linecap:round;stroke-linejoin:round;stroke-miterlimit:4;stroke-dasharray:none;stroke-opacity:1"
       d="m 126.68086,103.92297 h -3.043"
       id="path1071" />
    <path
       style="fill:none;stroke:#0000ff;stroke-width:0.179px;stroke-linecap:round;stroke-linejoin:round;stroke-miterlimit:4;stroke-dasharray:none;stroke-opacity:1"
       d="m 122.6198,100.86879 h -1.26419"
       id="path1073" />
    <path
       style="fill:none;stroke:#0000ff;stroke-width:0.179px;stroke-linecap:round;stroke-linejoin:round;stroke-miterlimit:4;stroke-dasharray:none;stroke-opacity:1"
       d="m 121.98211,101.50647 v -1.26418"
       id="path1075" />
    <path
       style="fill:none;stroke:#0000ff;stroke-width:0.179px;stroke-linecap:round;stroke-linejoin:round;stroke-miterlimit:4;stroke-dasharray:none;stroke-opacity:1"
       d="m 125.15936,101.76379 v 0.38037"
       id="path1077" />
    <path
       style="fill:none;stroke:#0000ff;stroke-width:0.179px;stroke-linecap:round;stroke-linejoin:round;stroke-miterlimit:4;stroke-dasharray:none;stroke-opacity:1"
       d="m 125.15936,104.30335 v -0.38038"
       id="path1079" />
    <text
       xml:space="preserve"
       style="font-style:normal;font-variant:normal;font-weight:400;font-size:2.14974px;line-height:125%;font-family:Cambria;text-align:start;letter-spacing:0px;word-spacing:0px;text-anchor:start;fill:#000000;fill-opacity:1;stroke:none;stroke-width:0.264583"
       x="128.01218"
       y="102.08823"
       id="text1085"><tspan
         sodipodi:role="line"
         x="128.01218"
         y="102.08823"
         id="tspan1083"
         style="stroke-width:0.264583"><tspan
           dx="0"
           dy="0"
           style="font-style:normal;font-variant:normal;font-weight:400;font-size:2.14974px;font-family:Cambria;fill:#000080;stroke-width:0.264583"
           id="tspan1081">BT8</tspan></tspan></text>
    <path
       style="fill:#000080;fill-opacity:1;fill-rule:evenodd;stroke:none;stroke-width:0.264583"
       d="m 111.95811,91.616724 c 0,-0.290875 0.23494,-0.514625 0.51463,-0.514625 v 0 c 0.27968,0 0.50343,0.22375 0.50343,0.514625 0,0 0,0 0,0 v 0 c 0,0.279688 -0.22375,0.503438 -0.50343,0.503438 -0.27969,0 -0.51463,-0.22375 -0.51463,-0.503438 z"
       id="path1087" />
    <path
       style="fill:none;stroke:#000080;stroke-width:0.179px;stroke-linecap:round;stroke-linejoin:round;stroke-miterlimit:4;stroke-dasharray:none;stroke-opacity:1"
       d="m 111.95811,91.616724 c 0,-0.290875 0.23494,-0.514625 0.51463,-0.514625 v 0 c 0.27968,0 0.50343,0.22375 0.50343,0.514625 0,0 0,0 0,0 v 0 c 0,0.279688 -0.22375,0.503438 -0.50343,0.503438 -0.27969,0 -0.51463,-0.22375 -0.51463,-0.503438 z"
       id="path1089" />
    <path
       style="fill:#000080;fill-opacity:1;fill-rule:evenodd;stroke:none;stroke-width:0.264583"
       d="m 111.95811,99.224224 c 0,-0.279687 0.23494,-0.503438 0.51463,-0.503438 v 0 c 0.27968,0 0.50343,0.223751 0.50343,0.503438 0,0 0,0 0,0 v 0 c 0,0.279688 -0.22375,0.503437 -0.50343,0.503437 -0.27969,0 -0.51463,-0.223749 -0.51463,-0.503437 z"
       id="path1091" />
    <path
       style="fill:none;stroke:#000080;stroke-width:0.179px;stroke-linecap:round;stroke-linejoin:round;stroke-miterlimit:4;stroke-dasharray:none;stroke-opacity:1"
       d="m 111.95811,99.224224 c 0,-0.279687 0.23494,-0.503438 0.51463,-0.503438 v 0 c 0.27968,0 0.50343,0.223751 0.50343,0.503438 0,0 0,0 0,0 v 0 c 0,0.279688 -0.22375,0.503437 -0.50343,0.503437 -0.27969,0 -0.51463,-0.223749 -0.51463,-0.503437 z"
       id="path1093" />
    <path
       style="fill:none;stroke:#000000;stroke-width:0.179px;stroke-linecap:round;stroke-linejoin:round;stroke-miterlimit:4;stroke-dasharray:none;stroke-opacity:1"
       d="M 112.47274,94.145099 V 91.616724"
       id="path1095" />
    <path
       style="fill:#000080;fill-opacity:1;fill-rule:evenodd;stroke:none;stroke-width:0.264583"
       d="m 111.95811,91.616724 c 0,-0.290875 0.23494,-0.514625 0.51463,-0.514625 v 0 c 0.27968,0 0.50343,0.22375 0.50343,0.514625 0,0 0,0 0,0 v 0 c 0,0.279688 -0.22375,0.503438 -0.50343,0.503438 -0.27969,0 -0.51463,-0.22375 -0.51463,-0.503438 z"
       id="path1097" />
    <path
       style="fill:none;stroke:#000080;stroke-width:0.179px;stroke-linecap:round;stroke-linejoin:round;stroke-miterlimit:4;stroke-dasharray:none;stroke-opacity:1"
       d="m 111.95811,91.616724 c 0,-0.290875 0.23494,-0.514625 0.51463,-0.514625 v 0 c 0.27968,0 0.50343,0.22375 0.50343,0.514625 0,0 0,0 0,0 v 0 c 0,0.279688 -0.22375,0.503438 -0.50343,0.503438 -0.27969,0 -0.51463,-0.22375 -0.51463,-0.503438 z"
       id="path1099" />
    <path
       style="fill:none;stroke:#000000;stroke-width:0.179px;stroke-linecap:round;stroke-linejoin:round;stroke-miterlimit:4;stroke-dasharray:none;stroke-opacity:1"
       d="m 112.47274,96.684662 v 2.539562"
       id="path1101" />
    <path
       style="fill:#000080;fill-opacity:1;fill-rule:evenodd;stroke:none;stroke-width:0.264583"
       d="m 111.95811,99.224224 c 0,-0.279687 0.23494,-0.503438 0.51463,-0.503438 v 0 c 0.27968,0 0.50343,0.223751 0.50343,0.503438 0,0 0,0 0,0 v 0 c 0,0.279688 -0.22375,0.503437 -0.50343,0.503437 -0.27969,0 -0.51463,-0.223749 -0.51463,-0.503437 z"
       id="path1103" />
    <path
       style="fill:none;stroke:#000080;stroke-width:0.179px;stroke-linecap:round;stroke-linejoin:round;stroke-miterlimit:4;stroke-dasharray:none;stroke-opacity:1"
       d="m 111.95811,99.224224 c 0,-0.279687 0.23494,-0.503438 0.51463,-0.503438 v 0 c 0.27968,0 0.50343,0.223751 0.50343,0.503438 0,0 0,0 0,0 v 0 c 0,0.279688 -0.22375,0.503437 -0.50343,0.503437 -0.27969,0 -0.51463,-0.223749 -0.51463,-0.503437 z"
       id="path1105" />
    <path
       style="fill:none;stroke:#0000ff;stroke-width:0.179px;stroke-linecap:round;stroke-linejoin:round;stroke-miterlimit:4;stroke-dasharray:none;stroke-opacity:1"
       d="m 115.0123,94.525474 h -5.07913"
       id="path1107" />
    <path
       style="fill:none;stroke:#0000ff;stroke-width:0.179px;stroke-linecap:round;stroke-linejoin:round;stroke-miterlimit:4;stroke-dasharray:none;stroke-opacity:1"
       d="m 113.99424,96.304287 h -3.043"
       id="path1109" />
    <path
       style="fill:none;stroke:#0000ff;stroke-width:0.179px;stroke-linecap:round;stroke-linejoin:round;stroke-miterlimit:4;stroke-dasharray:none;stroke-opacity:1"
       d="M 109.93317,93.261287 H 108.6578"
       id="path1111" />
    <path
       style="fill:none;stroke:#0000ff;stroke-width:0.179px;stroke-linecap:round;stroke-linejoin:round;stroke-miterlimit:4;stroke-dasharray:none;stroke-opacity:1"
       d="M 109.29549,93.898974 V 92.623599"
       id="path1113" />
    <path
       style="fill:none;stroke:#0000ff;stroke-width:0.179px;stroke-linecap:round;stroke-linejoin:round;stroke-miterlimit:4;stroke-dasharray:none;stroke-opacity:1"
       d="m 112.47274,94.145099 v 0.380375"
       id="path1115" />
    <path
       style="fill:none;stroke:#0000ff;stroke-width:0.179px;stroke-linecap:round;stroke-linejoin:round;stroke-miterlimit:4;stroke-dasharray:none;stroke-opacity:1"
       d="M 112.47274,96.684662 V 96.304287"
       id="path1117" />
    <text
       xml:space="preserve"
       style="font-style:normal;font-variant:normal;font-weight:400;font-size:2.14974px;line-height:125%;font-family:Cambria;text-align:start;letter-spacing:0px;word-spacing:0px;text-anchor:start;fill:#000000;fill-opacity:1;stroke:none;stroke-width:0.264583"
       x="115.30318"
       y="94.570221"
       id="text1123"><tspan
         sodipodi:role="line"
         x="115.30318"
         y="94.570221"
         id="tspan1121"
         style="stroke-width:0.264583"><tspan
           dx="0"
           dy="0"
           style="font-style:normal;font-variant:normal;font-weight:400;font-size:2.14974px;font-family:Cambria;fill:#000080;stroke-width:0.264583"
           id="tspan1119">BT1</tspan></tspan></text>
    <path
       style="fill:#000080;fill-opacity:1;fill-rule:evenodd;stroke:none;stroke-width:0.264583"
       d="m 124.65592,99.224224 c 0,-0.279687 0.22375,-0.503438 0.50344,-0.503438 v 0 c 0.27969,0 0.50344,0.223751 0.50344,0.503438 0,0 0,0 0,0 v 0 c 0,0.279688 -0.22375,0.503437 -0.50344,0.503437 -0.27969,0 -0.50344,-0.223749 -0.50344,-0.503437 z"
       id="path1125" />
    <path
       style="fill:none;stroke:#000080;stroke-width:0.179px;stroke-linecap:round;stroke-linejoin:round;stroke-miterlimit:4;stroke-dasharray:none;stroke-opacity:1"
       d="m 124.65592,99.224224 c 0,-0.279687 0.22375,-0.503438 0.50344,-0.503438 v 0 c 0.27969,0 0.50344,0.223751 0.50344,0.503438 0,0 0,0 0,0 v 0 c 0,0.279688 -0.22375,0.503437 -0.50344,0.503437 -0.27969,0 -0.50344,-0.223749 -0.50344,-0.503437 z"
       id="path1127" />
    <path
       style="fill:none;stroke:#000000;stroke-width:0.179px;stroke-linecap:round;stroke-linejoin:round;stroke-miterlimit:4;stroke-dasharray:none;stroke-opacity:1"
       d="M 125.15936,94.145099 V 91.616724"
       id="path1129" />
    <path
       style="fill:none;stroke:#000000;stroke-width:0.179px;stroke-linecap:round;stroke-linejoin:round;stroke-miterlimit:4;stroke-dasharray:none;stroke-opacity:1"
       d="m 125.15936,96.684662 v 2.539562"
       id="path1131" />
    <path
       style="fill:#000080;fill-opacity:1;fill-rule:evenodd;stroke:none;stroke-width:0.264583"
       d="m 124.65592,99.224224 c 0,-0.279687 0.22375,-0.503438 0.50344,-0.503438 v 0 c 0.27969,0 0.50344,0.223751 0.50344,0.503438 0,0 0,0 0,0 v 0 c 0,0.279688 -0.22375,0.503437 -0.50344,0.503437 -0.27969,0 -0.50344,-0.223749 -0.50344,-0.503437 z"
       id="path1133" />
    <path
       style="fill:none;stroke:#000080;stroke-width:0.179px;stroke-linecap:round;stroke-linejoin:round;stroke-miterlimit:4;stroke-dasharray:none;stroke-opacity:1"
       d="m 124.65592,99.224224 c 0,-0.279687 0.22375,-0.503438 0.50344,-0.503438 v 0 c 0.27969,0 0.50344,0.223751 0.50344,0.503438 0,0 0,0 0,0 v 0 c 0,0.279688 -0.22375,0.503437 -0.50344,0.503437 -0.27969,0 -0.50344,-0.223749 -0.50344,-0.503437 z"
       id="path1135" />
    <path
       style="fill:none;stroke:#0000ff;stroke-width:0.179px;stroke-linecap:round;stroke-linejoin:round;stroke-miterlimit:4;stroke-dasharray:none;stroke-opacity:1"
       d="M 127.69892,94.525474 H 122.6198"
       id="path1137" />
    <path
       style="fill:none;stroke:#0000ff;stroke-width:0.179px;stroke-linecap:round;stroke-linejoin:round;stroke-miterlimit:4;stroke-dasharray:none;stroke-opacity:1"
       d="m 126.68086,96.304287 h -3.043"
       id="path1139" />
    <path
       style="fill:none;stroke:#0000ff;stroke-width:0.179px;stroke-linecap:round;stroke-linejoin:round;stroke-miterlimit:4;stroke-dasharray:none;stroke-opacity:1"
       d="m 122.6198,93.261287 h -1.26419"
       id="path1141" />
    <path
       style="fill:none;stroke:#0000ff;stroke-width:0.179px;stroke-linecap:round;stroke-linejoin:round;stroke-miterlimit:4;stroke-dasharray:none;stroke-opacity:1"
       d="M 121.98211,93.898974 V 92.623599"
       id="path1143" />
    <path
       style="fill:none;stroke:#0000ff;stroke-width:0.179px;stroke-linecap:round;stroke-linejoin:round;stroke-miterlimit:4;stroke-dasharray:none;stroke-opacity:1"
       d="m 125.15936,94.145099 v 0.380375"
       id="path1145" />
    <path
       style="fill:none;stroke:#0000ff;stroke-width:0.179px;stroke-linecap:round;stroke-linejoin:round;stroke-miterlimit:4;stroke-dasharray:none;stroke-opacity:1"
       d="M 125.15936,96.684662 V 96.304287"
       id="path1147" />
    <text
       xml:space="preserve"
       style="font-style:normal;font-variant:normal;font-weight:400;font-size:2.14974px;line-height:125%;font-family:Cambria;text-align:start;letter-spacing:0px;word-spacing:0px;text-anchor:start;fill:#000000;fill-opacity:1;stroke:none;stroke-width:0.264583"
       x="128.01218"
       y="94.570221"
       id="text1153"><tspan
         sodipodi:role="line"
         x="128.01218"
         y="94.570221"
         id="tspan1151"
         style="stroke-width:0.264583"><tspan
           dx="0"
           dy="0"
           style="font-style:normal;font-variant:normal;font-weight:400;font-size:2.14974px;font-family:Cambria;fill:#000080;stroke-width:0.264583"
           id="tspan1149">BT2</tspan></tspan></text>
    <text
       xml:space="preserve"
       style="font-style:normal;font-variant:normal;font-weight:400;font-size:2.14974px;line-height:125%;font-family:Cambria;text-align:start;letter-spacing:0px;word-spacing:0px;text-anchor:start;fill:#000000;fill-opacity:1;stroke:none;stroke-width:0.264583"
       x="132.84517"
       y="100.11922"
       id="text1159"><tspan
         sodipodi:role="line"
         x="132.84517"
         y="100.11922"
         id="tspan1157"
         style="stroke-width:0.264583"><tspan
           dx="0"
           dy="0"
           style="font-style:normal;font-variant:normal;font-weight:400;font-size:2.14974px;font-family:Cambria;fill:#800000;stroke-width:0.264583"
           id="tspan1155">BALANCE</tspan></tspan></text>
    <path
       style="fill:none;stroke:#000080;stroke-width:0.179px;stroke-linecap:round;stroke-linejoin:round;stroke-miterlimit:4;stroke-dasharray:none;stroke-opacity:1"
       d="M 61.71505,103.02797 H 74.401675 87.088301 99.786113"
       id="path1161" />
    <path
       style="fill:#000080;fill-opacity:1;fill-rule:evenodd;stroke:none;stroke-width:0.264583"
       d="m 73.898238,103.02797 c 0,-0.27968 0.22375,-0.50343 0.503437,-0.50343 v 0 c 0.279687,0 0.514625,0.22375 0.514625,0.50343 0,0 0,0 0,0 v 0 c 0,0.27969 -0.234938,0.51463 -0.514625,0.51463 -0.279687,0 -0.503437,-0.23494 -0.503437,-0.51463 z"
       id="path1163" />
    <path
       style="fill:none;stroke:#000080;stroke-width:0.179px;stroke-linecap:round;stroke-linejoin:round;stroke-miterlimit:4;stroke-dasharray:none;stroke-opacity:1"
       d="m 73.898238,103.02797 c 0,-0.27968 0.22375,-0.50343 0.503437,-0.50343 v 0 c 0.279687,0 0.514625,0.22375 0.514625,0.50343 0,0 0,0 0,0 v 0 c 0,0.27969 -0.234938,0.51463 -0.514625,0.51463 -0.279687,0 -0.503437,-0.23494 -0.503437,-0.51463 z"
       id="path1165" />
    <path
       style="fill:#000080;fill-opacity:1;fill-rule:evenodd;stroke:none;stroke-width:0.264583"
       d="m 86.584862,103.02797 c 0,-0.27968 0.22375,-0.50343 0.503439,-0.50343 v 0 c 0.290875,0 0.514625,0.22375 0.514625,0.50343 0,0 0,0 0,0 v 0 c 0,0.27969 -0.22375,0.51463 -0.514625,0.51463 -0.279689,0 -0.503439,-0.23494 -0.503439,-0.51463 z"
       id="path1167" />
    <path
       style="fill:none;stroke:#000080;stroke-width:0.179px;stroke-linecap:round;stroke-linejoin:round;stroke-miterlimit:4;stroke-dasharray:none;stroke-opacity:1"
       d="m 86.584862,103.02797 c 0,-0.27968 0.22375,-0.50343 0.503439,-0.50343 v 0 c 0.290875,0 0.514625,0.22375 0.514625,0.50343 0,0 0,0 0,0 v 0 c 0,0.27969 -0.22375,0.51463 -0.514625,0.51463 -0.279689,0 -0.503439,-0.23494 -0.503439,-0.51463 z"
       id="path1169" />
    <path
       style="fill:#000080;fill-opacity:1;fill-rule:evenodd;stroke:none;stroke-width:0.264583"
       d="m 99.271487,103.02797 c 0,-0.27968 0.234937,-0.50343 0.514626,-0.50343 v 0 c 0.279687,0 0.503437,0.22375 0.503437,0.50343 0,0 0,0 0,0 v 0 c 0,0.27969 -0.22375,0.51463 -0.503437,0.51463 -0.279689,0 -0.514626,-0.23494 -0.514626,-0.51463 z"
       id="path1171" />
    <path
       style="fill:none;stroke:#000080;stroke-width:0.179px;stroke-linecap:round;stroke-linejoin:round;stroke-miterlimit:4;stroke-dasharray:none;stroke-opacity:1"
       d="m 99.271487,103.02797 c 0,-0.27968 0.234937,-0.50343 0.514626,-0.50343 v 0 c 0.279687,0 0.503437,0.22375 0.503437,0.50343 0,0 0,0 0,0 v 0 c 0,0.27969 -0.22375,0.51463 -0.503437,0.51463 -0.279689,0 -0.514626,-0.23494 -0.514626,-0.51463 z"
       id="path1173" />
    <path
       style="fill:none;stroke:#000080;stroke-width:0.179px;stroke-linecap:round;stroke-linejoin:round;stroke-miterlimit:4;stroke-dasharray:none;stroke-opacity:1"
       d="M 61.71505,95.420474 H 74.401675 87.088301 99.786113"
       id="path1175" />
    <path
       style="fill:#000080;fill-opacity:1;fill-rule:evenodd;stroke:none;stroke-width:0.264583"
       d="m 73.898238,95.420474 c 0,-0.279687 0.22375,-0.514625 0.503437,-0.514625 v 0 c 0.279687,0 0.514625,0.234938 0.514625,0.514625 0,0 0,0 0,0 v 0 c 0,0.279688 -0.234938,0.503438 -0.514625,0.503438 -0.279687,0 -0.503437,-0.22375 -0.503437,-0.503438 z"
       id="path1177" />
    <path
       style="fill:none;stroke:#000080;stroke-width:0.179px;stroke-linecap:round;stroke-linejoin:round;stroke-miterlimit:4;stroke-dasharray:none;stroke-opacity:1"
       d="m 73.898238,95.420474 c 0,-0.279687 0.22375,-0.514625 0.503437,-0.514625 v 0 c 0.279687,0 0.514625,0.234938 0.514625,0.514625 0,0 0,0 0,0 v 0 c 0,0.279688 -0.234938,0.503438 -0.514625,0.503438 -0.279687,0 -0.503437,-0.22375 -0.503437,-0.503438 z"
       id="path1179" />
    <path
       style="fill:#000080;fill-opacity:1;fill-rule:evenodd;stroke:none;stroke-width:0.264583"
       d="m 86.584862,95.420474 c 0,-0.279687 0.22375,-0.514625 0.503439,-0.514625 v 0 c 0.290875,0 0.514625,0.234938 0.514625,0.514625 0,0 0,0 0,0 v 0 c 0,0.279688 -0.22375,0.503438 -0.514625,0.503438 -0.279689,0 -0.503439,-0.22375 -0.503439,-0.503438 z"
       id="path1181" />
    <path
       style="fill:none;stroke:#000080;stroke-width:0.179px;stroke-linecap:round;stroke-linejoin:round;stroke-miterlimit:4;stroke-dasharray:none;stroke-opacity:1"
       d="m 86.584862,95.420474 c 0,-0.279687 0.22375,-0.514625 0.503439,-0.514625 v 0 c 0.290875,0 0.514625,0.234938 0.514625,0.514625 0,0 0,0 0,0 v 0 c 0,0.279688 -0.22375,0.503438 -0.514625,0.503438 -0.279689,0 -0.503439,-0.22375 -0.503439,-0.503438 z"
       id="path1183" />
    <path
       style="fill:#000080;fill-opacity:1;fill-rule:evenodd;stroke:none;stroke-width:0.264583"
       d="m 99.271487,95.420474 c 0,-0.279687 0.234937,-0.514625 0.514626,-0.514625 v 0 c 0.279687,0 0.503437,0.234938 0.503437,0.514625 0,0 0,0 0,0 v 0 c 0,0.279688 -0.22375,0.503438 -0.503437,0.503438 -0.279689,0 -0.514626,-0.22375 -0.514626,-0.503438 z"
       id="path1185" />
    <path
       style="fill:none;stroke:#000080;stroke-width:0.179px;stroke-linecap:round;stroke-linejoin:round;stroke-miterlimit:4;stroke-dasharray:none;stroke-opacity:1"
       d="m 99.271487,95.420474 c 0,-0.279687 0.234937,-0.514625 0.514626,-0.514625 v 0 c 0.279687,0 0.503437,0.234938 0.503437,0.514625 0,0 0,0 0,0 v 0 c 0,0.279688 -0.22375,0.503438 -0.503437,0.503438 -0.279689,0 -0.514626,-0.22375 -0.514626,-0.503438 z"
       id="path1187" />
    <path
       style="fill:none;stroke:#000080;stroke-width:0.179px;stroke-linecap:round;stroke-linejoin:round;stroke-miterlimit:4;stroke-dasharray:none;stroke-opacity:1"
       d="M 125.15936,99.224224 H 112.47274"
       id="path1189" />
    <path
       style="fill:#000080;fill-opacity:1;fill-rule:evenodd;stroke:none;stroke-width:0.264583"
       d="m 124.65592,99.224224 c 0,-0.279687 0.22375,-0.503438 0.50344,-0.503438 v 0 c 0.27969,0 0.50344,0.223751 0.50344,0.503438 0,0 0,0 0,0 v 0 c 0,0.279688 -0.22375,0.503437 -0.50344,0.503437 -0.27969,0 -0.50344,-0.223749 -0.50344,-0.503437 z"
       id="path1191" />
    <path
       style="fill:none;stroke:#000080;stroke-width:0.179px;stroke-linecap:round;stroke-linejoin:round;stroke-miterlimit:4;stroke-dasharray:none;stroke-opacity:1"
       d="m 124.65592,99.224224 c 0,-0.279687 0.22375,-0.503438 0.50344,-0.503438 v 0 c 0.27969,0 0.50344,0.223751 0.50344,0.503438 0,0 0,0 0,0 v 0 c 0,0.279688 -0.22375,0.503437 -0.50344,0.503437 -0.27969,0 -0.50344,-0.223749 -0.50344,-0.503437 z"
       id="path1193" />
    <path
       style="fill:#000080;fill-opacity:1;fill-rule:evenodd;stroke:none;stroke-width:0.264583"
       d="m 111.95811,99.224224 c 0,-0.279687 0.23494,-0.503438 0.51463,-0.503438 v 0 c 0.27968,0 0.50343,0.223751 0.50343,0.503438 0,0 0,0 0,0 v 0 c 0,0.279688 -0.22375,0.503437 -0.50343,0.503437 -0.27969,0 -0.51463,-0.223749 -0.51463,-0.503437 z"
       id="path1195" />
    <path
       style="fill:none;stroke:#000080;stroke-width:0.179px;stroke-linecap:round;stroke-linejoin:round;stroke-miterlimit:4;stroke-dasharray:none;stroke-opacity:1"
       d="m 111.95811,99.224224 c 0,-0.279687 0.23494,-0.503438 0.51463,-0.503438 v 0 c 0.27968,0 0.50343,0.223751 0.50343,0.503438 0,0 0,0 0,0 v 0 c 0,0.279688 -0.22375,0.503437 -0.50343,0.503437 -0.27969,0 -0.51463,-0.223749 -0.51463,-0.503437 z"
       id="path1197" />
    <path
       style="fill:none;stroke:#000080;stroke-width:0.179px;stroke-linecap:round;stroke-linejoin:round;stroke-miterlimit:4;stroke-dasharray:none;stroke-opacity:1"
       d="m 132.76686,99.224224 h -7.6075"
       id="path1199" />
    <path
       style="fill:#000080;fill-opacity:1;fill-rule:evenodd;stroke:none;stroke-width:0.264583"
       d="m 124.65592,99.224224 c 0,-0.279687 0.22375,-0.503438 0.50344,-0.503438 v 0 c 0.27969,0 0.50344,0.223751 0.50344,0.503438 0,0 0,0 0,0 v 0 c 0,0.279688 -0.22375,0.503437 -0.50344,0.503437 -0.27969,0 -0.50344,-0.223749 -0.50344,-0.503437 z"
       id="path1201" />
    <path
       style="fill:none;stroke:#000080;stroke-width:0.179px;stroke-linecap:round;stroke-linejoin:round;stroke-miterlimit:4;stroke-dasharray:none;stroke-opacity:1"
       d="m 124.65592,99.224224 c 0,-0.279687 0.22375,-0.503438 0.50344,-0.503438 v 0 c 0.27969,0 0.50344,0.223751 0.50344,0.503438 0,0 0,0 0,0 v 0 c 0,0.279688 -0.22375,0.503437 -0.50344,0.503437 -0.27969,0 -0.50344,-0.223749 -0.50344,-0.503437 z"
       id="path1203" />
    <path
       style="fill:none;stroke:#000080;stroke-width:0.179px;stroke-linecap:round;stroke-linejoin:round;stroke-miterlimit:4;stroke-dasharray:none;stroke-opacity:1"
       d="m 112.47274,106.84291 h 12.68662"
       id="path1205" />
    <path
       style="fill:#000080;fill-opacity:1;fill-rule:evenodd;stroke:none;stroke-width:0.264583"
       d="m 111.95811,106.84291 c 0,-0.29087 0.23494,-0.51462 0.51463,-0.51462 v 0 c 0.27968,0 0.50343,0.22375 0.50343,0.51462 0,0 0,0 0,0 v 0 c 0,0.27969 -0.22375,0.50344 -0.50343,0.50344 -0.27969,0 -0.51463,-0.22375 -0.51463,-0.50344 z"
       id="path1207" />
    <path
       style="fill:none;stroke:#000080;stroke-width:0.179px;stroke-linecap:round;stroke-linejoin:round;stroke-miterlimit:4;stroke-dasharray:none;stroke-opacity:1"
       d="m 111.95811,106.84291 c 0,-0.29087 0.23494,-0.51462 0.51463,-0.51462 v 0 c 0.27968,0 0.50343,0.22375 0.50343,0.51462 0,0 0,0 0,0 v 0 c 0,0.27969 -0.22375,0.50344 -0.50343,0.50344 -0.27969,0 -0.51463,-0.22375 -0.51463,-0.50344 z"
       id="path1209" />
    <path
       style="fill:none;stroke:#000080;stroke-width:0.179px;stroke-linecap:round;stroke-linejoin:round;stroke-miterlimit:4;stroke-dasharray:none;stroke-opacity:1"
       d="m 112.47274,91.616724 h 12.68662"
       id="path1211" />
    <path
       style="fill:#000080;fill-opacity:1;fill-rule:evenodd;stroke:none;stroke-width:0.264583"
       d="m 111.95811,91.616724 c 0,-0.290875 0.23494,-0.514625 0.51463,-0.514625 v 0 c 0.27968,0 0.50343,0.22375 0.50343,0.514625 0,0 0,0 0,0 v 0 c 0,0.279688 -0.22375,0.503438 -0.50343,0.503438 -0.27969,0 -0.51463,-0.22375 -0.51463,-0.503438 z"
       id="path1213" />
    <path
       style="fill:none;stroke:#000080;stroke-width:0.179px;stroke-linecap:round;stroke-linejoin:round;stroke-miterlimit:4;stroke-dasharray:none;stroke-opacity:1"
       d="m 111.95811,91.616724 c 0,-0.290875 0.23494,-0.514625 0.51463,-0.514625 v 0 c 0.27968,0 0.50343,0.22375 0.50343,0.514625 0,0 0,0 0,0 v 0 c 0,0.279688 -0.22375,0.503438 -0.50343,0.503438 -0.27969,0 -0.51463,-0.22375 -0.51463,-0.503438 z"
       id="path1215" />
    <path
       style="fill:#000080;fill-opacity:1;fill-rule:evenodd;stroke:none;stroke-width:0.264583"
       d="m 73.898238,95.420474 c 0,-0.279687 0.22375,-0.514625 0.503437,-0.514625 v 0 c 0.279687,0 0.514625,0.234938 0.514625,0.514625 0,0 0,0 0,0 v 0 c 0,0.279688 -0.234938,0.503438 -0.514625,0.503438 -0.279687,0 -0.503437,-0.22375 -0.503437,-0.503438 z"
       id="path1217" />
    <path
       style="fill:none;stroke:#000080;stroke-width:0.179px;stroke-linecap:round;stroke-linejoin:round;stroke-miterlimit:4;stroke-dasharray:none;stroke-opacity:1"
       d="m 73.898238,95.420474 c 0,-0.279687 0.22375,-0.514625 0.503437,-0.514625 v 0 c 0.279687,0 0.514625,0.234938 0.514625,0.514625 0,0 0,0 0,0 v 0 c 0,0.279688 -0.234938,0.503438 -0.514625,0.503438 -0.279687,0 -0.503437,-0.22375 -0.503437,-0.503438 z"
       id="path1219" />
    <path
       style="fill:#000080;fill-opacity:1;fill-rule:evenodd;stroke:none;stroke-width:0.264583"
       d="m 73.898238,103.02797 c 0,-0.27968 0.22375,-0.50343 0.503437,-0.50343 v 0 c 0.279687,0 0.514625,0.22375 0.514625,0.50343 0,0 0,0 0,0 v 0 c 0,0.27969 -0.234938,0.51463 -0.514625,0.51463 -0.279687,0 -0.503437,-0.23494 -0.503437,-0.51463 z"
       id="path1221" />
    <path
       style="fill:none;stroke:#000080;stroke-width:0.179px;stroke-linecap:round;stroke-linejoin:round;stroke-miterlimit:4;stroke-dasharray:none;stroke-opacity:1"
       d="m 73.898238,103.02797 c 0,-0.27968 0.22375,-0.50343 0.503437,-0.50343 v 0 c 0.279687,0 0.514625,0.22375 0.514625,0.50343 0,0 0,0 0,0 v 0 c 0,0.27969 -0.234938,0.51463 -0.514625,0.51463 -0.279687,0 -0.503437,-0.23494 -0.503437,-0.51463 z"
       id="path1223" />
    <path
       style="fill:#000080;fill-opacity:1;fill-rule:evenodd;stroke:none;stroke-width:0.264583"
       d="m 86.584862,95.420474 c 0,-0.279687 0.22375,-0.514625 0.503439,-0.514625 v 0 c 0.290875,0 0.514625,0.234938 0.514625,0.514625 0,0 0,0 0,0 v 0 c 0,0.279688 -0.22375,0.503438 -0.514625,0.503438 -0.279689,0 -0.503439,-0.22375 -0.503439,-0.503438 z"
       id="path1225" />
    <path
       style="fill:none;stroke:#000080;stroke-width:0.179px;stroke-linecap:round;stroke-linejoin:round;stroke-miterlimit:4;stroke-dasharray:none;stroke-opacity:1"
       d="m 86.584862,95.420474 c 0,-0.279687 0.22375,-0.514625 0.503439,-0.514625 v 0 c 0.290875,0 0.514625,0.234938 0.514625,0.514625 0,0 0,0 0,0 v 0 c 0,0.279688 -0.22375,0.503438 -0.514625,0.503438 -0.279689,0 -0.503439,-0.22375 -0.503439,-0.503438 z"
       id="path1227" />
    <path
       style="fill:#000080;fill-opacity:1;fill-rule:evenodd;stroke:none;stroke-width:0.264583"
       d="m 86.584862,103.02797 c 0,-0.27968 0.22375,-0.50343 0.503439,-0.50343 v 0 c 0.290875,0 0.514625,0.22375 0.514625,0.50343 0,0 0,0 0,0 v 0 c 0,0.27969 -0.22375,0.51463 -0.514625,0.51463 -0.279689,0 -0.503439,-0.23494 -0.503439,-0.51463 z"
       id="path1229" />
    <path
       style="fill:none;stroke:#000080;stroke-width:0.179px;stroke-linecap:round;stroke-linejoin:round;stroke-miterlimit:4;stroke-dasharray:none;stroke-opacity:1"
       d="m 86.584862,103.02797 c 0,-0.27968 0.22375,-0.50343 0.503439,-0.50343 v 0 c 0.290875,0 0.514625,0.22375 0.514625,0.50343 0,0 0,0 0,0 v 0 c 0,0.27969 -0.22375,0.51463 -0.514625,0.51463 -0.279689,0 -0.503439,-0.23494 -0.503439,-0.51463 z"
       id="path1231" />
    <path
       style="fill:#000080;fill-opacity:1;fill-rule:evenodd;stroke:none;stroke-width:0.264583"
       d="m 99.271487,95.420474 c 0,-0.279687 0.234937,-0.514625 0.514626,-0.514625 v 0 c 0.279687,0 0.503437,0.234938 0.503437,0.514625 0,0 0,0 0,0 v 0 c 0,0.279688 -0.22375,0.503438 -0.503437,0.503438 -0.279689,0 -0.514626,-0.22375 -0.514626,-0.503438 z"
       id="path1233" />
    <path
       style="fill:none;stroke:#000080;stroke-width:0.179px;stroke-linecap:round;stroke-linejoin:round;stroke-miterlimit:4;stroke-dasharray:none;stroke-opacity:1"
       d="m 99.271487,95.420474 c 0,-0.279687 0.234937,-0.514625 0.514626,-0.514625 v 0 c 0.279687,0 0.503437,0.234938 0.503437,0.514625 0,0 0,0 0,0 v 0 c 0,0.279688 -0.22375,0.503438 -0.503437,0.503438 -0.279689,0 -0.514626,-0.22375 -0.514626,-0.503438 z"
       id="path1235" />
    <path
       style="fill:#000080;fill-opacity:1;fill-rule:evenodd;stroke:none;stroke-width:0.264583"
       d="m 99.271487,103.02797 c 0,-0.27968 0.234937,-0.50343 0.514626,-0.50343 v 0 c 0.279687,0 0.503437,0.22375 0.503437,0.50343 0,0 0,0 0,0 v 0 c 0,0.27969 -0.22375,0.51463 -0.503437,0.51463 -0.279689,0 -0.514626,-0.23494 -0.514626,-0.51463 z"
       id="path1237" />
    <path
       style="fill:none;stroke:#000080;stroke-width:0.179px;stroke-linecap:round;stroke-linejoin:round;stroke-miterlimit:4;stroke-dasharray:none;stroke-opacity:1"
       d="m 99.271487,103.02797 c 0,-0.27968 0.234937,-0.50343 0.514626,-0.50343 v 0 c 0.279687,0 0.503437,0.22375 0.503437,0.50343 0,0 0,0 0,0 v 0 c 0,0.27969 -0.22375,0.51463 -0.503437,0.51463 -0.279689,0 -0.514626,-0.23494 -0.514626,-0.51463 z"
       id="path1239" />
    <path
       style="fill:#000080;fill-opacity:1;fill-rule:evenodd;stroke:none;stroke-width:0.264583"
       d="m 99.271487,95.420474 c 0,-0.279687 0.234937,-0.514625 0.514626,-0.514625 v 0 c 0.279687,0 0.503437,0.234938 0.503437,0.514625 0,0 0,0 0,0 v 0 c 0,0.279688 -0.22375,0.503438 -0.503437,0.503438 -0.279689,0 -0.514626,-0.22375 -0.514626,-0.503438 z"
       id="path1241" />
    <path
       style="fill:none;stroke:#000080;stroke-width:0.179px;stroke-linecap:round;stroke-linejoin:round;stroke-miterlimit:4;stroke-dasharray:none;stroke-opacity:1"
       d="m 99.271487,95.420474 c 0,-0.279687 0.234937,-0.514625 0.514626,-0.514625 v 0 c 0.279687,0 0.503437,0.234938 0.503437,0.514625 0,0 0,0 0,0 v 0 c 0,0.279688 -0.22375,0.503438 -0.503437,0.503438 -0.279689,0 -0.514626,-0.22375 -0.514626,-0.503438 z"
       id="path1243" />
    <path
       style="fill:#000080;fill-opacity:1;fill-rule:evenodd;stroke:none;stroke-width:0.264583"
       d="m 99.271487,103.02797 c 0,-0.27968 0.234937,-0.50343 0.514626,-0.50343 v 0 c 0.279687,0 0.503437,0.22375 0.503437,0.50343 0,0 0,0 0,0 v 0 c 0,0.27969 -0.22375,0.51463 -0.503437,0.51463 -0.279689,0 -0.514626,-0.23494 -0.514626,-0.51463 z"
       id="path1245" />
    <path
       style="fill:none;stroke:#000080;stroke-width:0.179px;stroke-linecap:round;stroke-linejoin:round;stroke-miterlimit:4;stroke-dasharray:none;stroke-opacity:1"
       d="m 99.271487,103.02797 c 0,-0.27968 0.234937,-0.50343 0.514626,-0.50343 v 0 c 0.279687,0 0.503437,0.22375 0.503437,0.50343 0,0 0,0 0,0 v 0 c 0,0.27969 -0.22375,0.51463 -0.503437,0.51463 -0.279689,0 -0.514626,-0.23494 -0.514626,-0.51463 z"
       id="path1247" />
    <path
       style="fill:#000080;fill-opacity:1;fill-rule:evenodd;stroke:none;stroke-width:0.264583"
       d="m 111.95811,99.224224 c 0,-0.279687 0.23494,-0.503438 0.51463,-0.503438 v 0 c 0.27968,0 0.50343,0.223751 0.50343,0.503438 0,0 0,0 0,0 v 0 c 0,0.279688 -0.22375,0.503437 -0.50343,0.503437 -0.27969,0 -0.51463,-0.223749 -0.51463,-0.503437 z"
       id="path1249" />
    <path
       style="fill:none;stroke:#000080;stroke-width:0.179px;stroke-linecap:round;stroke-linejoin:round;stroke-miterlimit:4;stroke-dasharray:none;stroke-opacity:1"
       d="m 111.95811,99.224224 c 0,-0.279687 0.23494,-0.503438 0.51463,-0.503438 v 0 c 0.27968,0 0.50343,0.223751 0.50343,0.503438 0,0 0,0 0,0 v 0 c 0,0.279688 -0.22375,0.503437 -0.50343,0.503437 -0.27969,0 -0.51463,-0.223749 -0.51463,-0.503437 z"
       id="path1251" />
    <path
       style="fill:#000080;fill-opacity:1;fill-rule:evenodd;stroke:none;stroke-width:0.264583"
       d="m 111.95811,106.84291 c 0,-0.29087 0.23494,-0.51462 0.51463,-0.51462 v 0 c 0.27968,0 0.50343,0.22375 0.50343,0.51462 0,0 0,0 0,0 v 0 c 0,0.27969 -0.22375,0.50344 -0.50343,0.50344 -0.27969,0 -0.51463,-0.22375 -0.51463,-0.50344 z"
       id="path1253" />
    <path
       style="fill:none;stroke:#000080;stroke-width:0.179px;stroke-linecap:round;stroke-linejoin:round;stroke-miterlimit:4;stroke-dasharray:none;stroke-opacity:1"
       d="m 111.95811,106.84291 c 0,-0.29087 0.23494,-0.51462 0.51463,-0.51462 v 0 c 0.27968,0 0.50343,0.22375 0.50343,0.51462 0,0 0,0 0,0 v 0 c 0,0.27969 -0.22375,0.50344 -0.50343,0.50344 -0.27969,0 -0.51463,-0.22375 -0.51463,-0.50344 z"
       id="path1255" />
    <path
       style="fill:#000080;fill-opacity:1;fill-rule:evenodd;stroke:none;stroke-width:0.264583"
       d="m 111.95811,91.616724 c 0,-0.290875 0.23494,-0.514625 0.51463,-0.514625 v 0 c 0.27968,0 0.50343,0.22375 0.50343,0.514625 0,0 0,0 0,0 v 0 c 0,0.279688 -0.22375,0.503438 -0.50343,0.503438 -0.27969,0 -0.51463,-0.22375 -0.51463,-0.503438 z"
       id="path1257" />
    <path
       style="fill:none;stroke:#000080;stroke-width:0.179px;stroke-linecap:round;stroke-linejoin:round;stroke-miterlimit:4;stroke-dasharray:none;stroke-opacity:1"
       d="m 111.95811,91.616724 c 0,-0.290875 0.23494,-0.514625 0.51463,-0.514625 v 0 c 0.27968,0 0.50343,0.22375 0.50343,0.514625 0,0 0,0 0,0 v 0 c 0,0.279688 -0.22375,0.503438 -0.50343,0.503438 -0.27969,0 -0.51463,-0.22375 -0.51463,-0.503438 z"
       id="path1259" />
    <path
       style="fill:#000080;fill-opacity:1;fill-rule:evenodd;stroke:none;stroke-width:0.264583"
       d="m 111.95811,106.84291 c 0,-0.29087 0.23494,-0.51462 0.51463,-0.51462 v 0 c 0.27968,0 0.50343,0.22375 0.50343,0.51462 0,0 0,0 0,0 v 0 c 0,0.27969 -0.22375,0.50344 -0.50343,0.50344 -0.27969,0 -0.51463,-0.22375 -0.51463,-0.50344 z"
       id="path1261" />
    <path
       style="fill:none;stroke:#000080;stroke-width:0.179px;stroke-linecap:round;stroke-linejoin:round;stroke-miterlimit:4;stroke-dasharray:none;stroke-opacity:1"
       d="m 111.95811,106.84291 c 0,-0.29087 0.23494,-0.51462 0.51463,-0.51462 v 0 c 0.27968,0 0.50343,0.22375 0.50343,0.51462 0,0 0,0 0,0 v 0 c 0,0.27969 -0.22375,0.50344 -0.50343,0.50344 -0.27969,0 -0.51463,-0.22375 -0.51463,-0.50344 z"
       id="path1263" />
    <path
       style="fill:#000080;fill-opacity:1;fill-rule:evenodd;stroke:none;stroke-width:0.264583"
       d="m 124.65592,99.224224 c 0,-0.279687 0.22375,-0.503438 0.50344,-0.503438 v 0 c 0.27969,0 0.50344,0.223751 0.50344,0.503438 0,0 0,0 0,0 v 0 c 0,0.279688 -0.22375,0.503437 -0.50344,0.503437 -0.27969,0 -0.50344,-0.223749 -0.50344,-0.503437 z"
       id="path1265" />
    <path
       style="fill:none;stroke:#000080;stroke-width:0.179px;stroke-linecap:round;stroke-linejoin:round;stroke-miterlimit:4;stroke-dasharray:none;stroke-opacity:1"
       d="m 124.65592,99.224224 c 0,-0.279687 0.22375,-0.503438 0.50344,-0.503438 v 0 c 0.27969,0 0.50344,0.223751 0.50344,0.503438 0,0 0,0 0,0 v 0 c 0,0.279688 -0.22375,0.503437 -0.50344,0.503437 -0.27969,0 -0.50344,-0.223749 -0.50344,-0.503437 z"
       id="path1267" />
    <path
       style="fill:#000080;fill-opacity:1;fill-rule:evenodd;stroke:none;stroke-width:0.264583"
       d="m 111.95811,91.616724 c 0,-0.290875 0.23494,-0.514625 0.51463,-0.514625 v 0 c 0.27968,0 0.50343,0.22375 0.50343,0.514625 0,0 0,0 0,0 v 0 c 0,0.279688 -0.22375,0.503438 -0.50343,0.503438 -0.27969,0 -0.51463,-0.22375 -0.51463,-0.503438 z"
       id="path1269" />
    <path
       style="fill:none;stroke:#000080;stroke-width:0.179px;stroke-linecap:round;stroke-linejoin:round;stroke-miterlimit:4;stroke-dasharray:none;stroke-opacity:1"
       d="m 111.95811,91.616724 c 0,-0.290875 0.23494,-0.514625 0.51463,-0.514625 v 0 c 0.27968,0 0.50343,0.22375 0.50343,0.514625 0,0 0,0 0,0 v 0 c 0,0.279688 -0.22375,0.503438 -0.50343,0.503438 -0.27969,0 -0.51463,-0.22375 -0.51463,-0.503438 z"
       id="path1271" />
    <path
       style="fill:#000080;fill-opacity:1;fill-rule:evenodd;stroke:none;stroke-width:0.264583"
       d="m 111.95811,99.224224 c 0,-0.279687 0.23494,-0.503438 0.51463,-0.503438 v 0 c 0.27968,0 0.50343,0.223751 0.50343,0.503438 0,0 0,0 0,0 v 0 c 0,0.279688 -0.22375,0.503437 -0.50343,0.503437 -0.27969,0 -0.51463,-0.223749 -0.51463,-0.503437 z"
       id="path1273" />
    <path
       style="fill:none;stroke:#000080;stroke-width:0.179px;stroke-linecap:round;stroke-linejoin:round;stroke-miterlimit:4;stroke-dasharray:none;stroke-opacity:1"
       d="m 111.95811,99.224224 c 0,-0.279687 0.23494,-0.503438 0.51463,-0.503438 v 0 c 0.27968,0 0.50343,0.223751 0.50343,0.503438 0,0 0,0 0,0 v 0 c 0,0.279688 -0.22375,0.503437 -0.50343,0.503437 -0.27969,0 -0.51463,-0.223749 -0.51463,-0.503437 z"
       id="path1275" />
    <path
       style="fill:#000080;fill-opacity:1;fill-rule:evenodd;stroke:none;stroke-width:0.264583"
       d="m 124.65592,99.224224 c 0,-0.279687 0.22375,-0.503438 0.50344,-0.503438 v 0 c 0.27969,0 0.50344,0.223751 0.50344,0.503438 0,0 0,0 0,0 v 0 c 0,0.279688 -0.22375,0.503437 -0.50344,0.503437 -0.27969,0 -0.50344,-0.223749 -0.50344,-0.503437 z"
       id="path1277" />
    <path
       style="fill:none;stroke:#000080;stroke-width:0.179px;stroke-linecap:round;stroke-linejoin:round;stroke-miterlimit:4;stroke-dasharray:none;stroke-opacity:1"
       d="m 124.65592,99.224224 c 0,-0.279687 0.22375,-0.503438 0.50344,-0.503438 v 0 c 0.27969,0 0.50344,0.223751 0.50344,0.503438 0,0 0,0 0,0 v 0 c 0,0.279688 -0.22375,0.503437 -0.50344,0.503437 -0.27969,0 -0.50344,-0.223749 -0.50344,-0.503437 z"
       id="path1279" />
    <path
       style="fill:#000080;fill-opacity:1;fill-rule:evenodd;stroke:none;stroke-width:0.264583"
       d="m 73.898238,103.02797 c 0,-0.27968 0.22375,-0.50343 0.503437,-0.50343 v 0 c 0.279687,0 0.514625,0.22375 0.514625,0.50343 0,0 0,0 0,0 v 0 c 0,0.27969 -0.234938,0.51463 -0.514625,0.51463 -0.279687,0 -0.503437,-0.23494 -0.503437,-0.51463 z"
       id="path1281" />
    <path
       style="fill:none;stroke:#000080;stroke-width:0.179px;stroke-linecap:round;stroke-linejoin:round;stroke-miterlimit:4;stroke-dasharray:none;stroke-opacity:1"
       d="m 73.898238,103.02797 c 0,-0.27968 0.22375,-0.50343 0.503437,-0.50343 v 0 c 0.279687,0 0.514625,0.22375 0.514625,0.50343 0,0 0,0 0,0 v 0 c 0,0.27969 -0.234938,0.51463 -0.514625,0.51463 -0.279687,0 -0.503437,-0.23494 -0.503437,-0.51463 z"
       id="path1283" />
    <path
       style="fill:#000080;fill-opacity:1;fill-rule:evenodd;stroke:none;stroke-width:0.264583"
       d="m 86.584862,103.02797 c 0,-0.27968 0.22375,-0.50343 0.503439,-0.50343 v 0 c 0.290875,0 0.514625,0.22375 0.514625,0.50343 0,0 0,0 0,0 v 0 c 0,0.27969 -0.22375,0.51463 -0.514625,0.51463 -0.279689,0 -0.503439,-0.23494 -0.503439,-0.51463 z"
       id="path1285" />
    <path
       style="fill:none;stroke:#000080;stroke-width:0.179px;stroke-linecap:round;stroke-linejoin:round;stroke-miterlimit:4;stroke-dasharray:none;stroke-opacity:1"
       d="m 86.584862,103.02797 c 0,-0.27968 0.22375,-0.50343 0.503439,-0.50343 v 0 c 0.290875,0 0.514625,0.22375 0.514625,0.50343 0,0 0,0 0,0 v 0 c 0,0.27969 -0.22375,0.51463 -0.514625,0.51463 -0.279689,0 -0.503439,-0.23494 -0.503439,-0.51463 z"
       id="path1287" />
    <path
       style="fill:#000080;fill-opacity:1;fill-rule:evenodd;stroke:none;stroke-width:0.264583"
       d="m 99.271487,103.02797 c 0,-0.27968 0.234937,-0.50343 0.514626,-0.50343 v 0 c 0.279687,0 0.503437,0.22375 0.503437,0.50343 0,0 0,0 0,0 v 0 c 0,0.27969 -0.22375,0.51463 -0.503437,0.51463 -0.279689,0 -0.514626,-0.23494 -0.514626,-0.51463 z"
       id="path1289" />
    <path
       style="fill:none;stroke:#000080;stroke-width:0.179px;stroke-linecap:round;stroke-linejoin:round;stroke-miterlimit:4;stroke-dasharray:none;stroke-opacity:1"
       d="m 99.271487,103.02797 c 0,-0.27968 0.234937,-0.50343 0.514626,-0.50343 v 0 c 0.279687,0 0.503437,0.22375 0.503437,0.50343 0,0 0,0 0,0 v 0 c 0,0.27969 -0.22375,0.51463 -0.503437,0.51463 -0.279689,0 -0.514626,-0.23494 -0.514626,-0.51463 z"
       id="path1291" />
    <path
       style="fill:#000080;fill-opacity:1;fill-rule:evenodd;stroke:none;stroke-width:0.264583"
       d="m 73.898238,95.420474 c 0,-0.279687 0.22375,-0.514625 0.503437,-0.514625 v 0 c 0.279687,0 0.514625,0.234938 0.514625,0.514625 0,0 0,0 0,0 v 0 c 0,0.279688 -0.234938,0.503438 -0.514625,0.503438 -0.279687,0 -0.503437,-0.22375 -0.503437,-0.503438 z"
       id="path1293" />
    <path
       style="fill:none;stroke:#000080;stroke-width:0.179px;stroke-linecap:round;stroke-linejoin:round;stroke-miterlimit:4;stroke-dasharray:none;stroke-opacity:1"
       d="m 73.898238,95.420474 c 0,-0.279687 0.22375,-0.514625 0.503437,-0.514625 v 0 c 0.279687,0 0.514625,0.234938 0.514625,0.514625 0,0 0,0 0,0 v 0 c 0,0.279688 -0.234938,0.503438 -0.514625,0.503438 -0.279687,0 -0.503437,-0.22375 -0.503437,-0.503438 z"
       id="path1295" />
    <path
       style="fill:#000080;fill-opacity:1;fill-rule:evenodd;stroke:none;stroke-width:0.264583"
       d="m 86.584862,95.420474 c 0,-0.279687 0.22375,-0.514625 0.503439,-0.514625 v 0 c 0.290875,0 0.514625,0.234938 0.514625,0.514625 0,0 0,0 0,0 v 0 c 0,0.279688 -0.22375,0.503438 -0.514625,0.503438 -0.279689,0 -0.503439,-0.22375 -0.503439,-0.503438 z"
       id="path1297" />
    <path
       style="fill:none;stroke:#000080;stroke-width:0.179px;stroke-linecap:round;stroke-linejoin:round;stroke-miterlimit:4;stroke-dasharray:none;stroke-opacity:1"
       d="m 86.584862,95.420474 c 0,-0.279687 0.22375,-0.514625 0.503439,-0.514625 v 0 c 0.290875,0 0.514625,0.234938 0.514625,0.514625 0,0 0,0 0,0 v 0 c 0,0.279688 -0.22375,0.503438 -0.514625,0.503438 -0.279689,0 -0.503439,-0.22375 -0.503439,-0.503438 z"
       id="path1299" />
    <path
       style="fill:#000080;fill-opacity:1;fill-rule:evenodd;stroke:none;stroke-width:0.264583"
       d="m 99.271487,95.420474 c 0,-0.279687 0.234937,-0.514625 0.514626,-0.514625 v 0 c 0.279687,0 0.503437,0.234938 0.503437,0.514625 0,0 0,0 0,0 v 0 c 0,0.279688 -0.22375,0.503438 -0.503437,0.503438 -0.279689,0 -0.514626,-0.22375 -0.514626,-0.503438 z"
       id="path1301" />
    <path
       style="fill:none;stroke:#000080;stroke-width:0.179px;stroke-linecap:round;stroke-linejoin:round;stroke-miterlimit:4;stroke-dasharray:none;stroke-opacity:1"
       d="m 99.271487,95.420474 c 0,-0.279687 0.234937,-0.514625 0.514626,-0.514625 v 0 c 0.279687,0 0.503437,0.234938 0.503437,0.514625 0,0 0,0 0,0 v 0 c 0,0.279688 -0.22375,0.503438 -0.503437,0.503438 -0.279689,0 -0.514626,-0.22375 -0.514626,-0.503438 z"
       id="path1303" />
    <path
       style="fill:#000080;fill-opacity:1;fill-rule:evenodd;stroke:none;stroke-width:0.264583"
       d="m 124.65592,99.224224 c 0,-0.279687 0.22375,-0.503438 0.50344,-0.503438 v 0 c 0.27969,0 0.50344,0.223751 0.50344,0.503438 0,0 0,0 0,0 v 0 c 0,0.279688 -0.22375,0.503437 -0.50344,0.503437 -0.27969,0 -0.50344,-0.223749 -0.50344,-0.503437 z"
       id="path1305" />
    <path
       style="fill:none;stroke:#000080;stroke-width:0.179px;stroke-linecap:round;stroke-linejoin:round;stroke-miterlimit:4;stroke-dasharray:none;stroke-opacity:1"
       d="m 124.65592,99.224224 c 0,-0.279687 0.22375,-0.503438 0.50344,-0.503438 v 0 c 0.27969,0 0.50344,0.223751 0.50344,0.503438 0,0 0,0 0,0 v 0 c 0,0.279688 -0.22375,0.503437 -0.50344,0.503437 -0.27969,0 -0.50344,-0.223749 -0.50344,-0.503437 z"
       id="path1307" />
    <path
       style="fill:#000080;fill-opacity:1;fill-rule:evenodd;stroke:none;stroke-width:0.264583"
       d="m 111.95811,99.224224 c 0,-0.279687 0.23494,-0.503438 0.51463,-0.503438 v 0 c 0.27968,0 0.50343,0.223751 0.50343,0.503438 0,0 0,0 0,0 v 0 c 0,0.279688 -0.22375,0.503437 -0.50343,0.503437 -0.27969,0 -0.51463,-0.223749 -0.51463,-0.503437 z"
       id="path1309" />
    <path
       style="fill:none;stroke:#000080;stroke-width:0.179px;stroke-linecap:round;stroke-linejoin:round;stroke-miterlimit:4;stroke-dasharray:none;stroke-opacity:1"
       d="m 111.95811,99.224224 c 0,-0.279687 0.23494,-0.503438 0.51463,-0.503438 v 0 c 0.27968,0 0.50343,0.223751 0.50343,0.503438 0,0 0,0 0,0 v 0 c 0,0.279688 -0.22375,0.503437 -0.50343,0.503437 -0.27969,0 -0.51463,-0.223749 -0.51463,-0.503437 z"
       id="path1311" />
    <path
       style="fill:#000080;fill-opacity:1;fill-rule:evenodd;stroke:none;stroke-width:0.264583"
       d="m 124.65592,99.224224 c 0,-0.279687 0.22375,-0.503438 0.50344,-0.503438 v 0 c 0.27969,0 0.50344,0.223751 0.50344,0.503438 0,0 0,0 0,0 v 0 c 0,0.279688 -0.22375,0.503437 -0.50344,0.503437 -0.27969,0 -0.50344,-0.223749 -0.50344,-0.503437 z"
       id="path1313" />
    <path
       style="fill:none;stroke:#000080;stroke-width:0.179px;stroke-linecap:round;stroke-linejoin:round;stroke-miterlimit:4;stroke-dasharray:none;stroke-opacity:1"
       d="m 124.65592,99.224224 c 0,-0.279687 0.22375,-0.503438 0.50344,-0.503438 v 0 c 0.27969,0 0.50344,0.223751 0.50344,0.503438 0,0 0,0 0,0 v 0 c 0,0.279688 -0.22375,0.503437 -0.50344,0.503437 -0.27969,0 -0.50344,-0.223749 -0.50344,-0.503437 z"
       id="path1315" />
    <path
       style="fill:#000080;fill-opacity:1;fill-rule:evenodd;stroke:none;stroke-width:0.264583"
       d="m 111.95811,106.84291 c 0,-0.29087 0.23494,-0.51462 0.51463,-0.51462 v 0 c 0.27968,0 0.50343,0.22375 0.50343,0.51462 0,0 0,0 0,0 v 0 c 0,0.27969 -0.22375,0.50344 -0.50343,0.50344 -0.27969,0 -0.51463,-0.22375 -0.51463,-0.50344 z"
       id="path1317" />
    <path
       style="fill:none;stroke:#000080;stroke-width:0.179px;stroke-linecap:round;stroke-linejoin:round;stroke-miterlimit:4;stroke-dasharray:none;stroke-opacity:1"
       d="m 111.95811,106.84291 c 0,-0.29087 0.23494,-0.51462 0.51463,-0.51462 v 0 c 0.27968,0 0.50343,0.22375 0.50343,0.51462 0,0 0,0 0,0 v 0 c 0,0.27969 -0.22375,0.50344 -0.50343,0.50344 -0.27969,0 -0.51463,-0.22375 -0.51463,-0.50344 z"
       id="path1319" />
    <path
       style="fill:#000080;fill-opacity:1;fill-rule:evenodd;stroke:none;stroke-width:0.264583"
       d="m 111.95811,91.616724 c 0,-0.290875 0.23494,-0.514625 0.51463,-0.514625 v 0 c 0.27968,0 0.50343,0.22375 0.50343,0.514625 0,0 0,0 0,0 v 0 c 0,0.279688 -0.22375,0.503438 -0.50343,0.503438 -0.27969,0 -0.51463,-0.22375 -0.51463,-0.503438 z"
       id="path1321" />
    <path
       style="fill:none;stroke:#000080;stroke-width:0.179px;stroke-linecap:round;stroke-linejoin:round;stroke-miterlimit:4;stroke-dasharray:none;stroke-opacity:1"
       d="m 111.95811,91.616724 c 0,-0.290875 0.23494,-0.514625 0.51463,-0.514625 v 0 c 0.27968,0 0.50343,0.22375 0.50343,0.514625 0,0 0,0 0,0 v 0 c 0,0.279688 -0.22375,0.503438 -0.50343,0.503438 -0.27969,0 -0.51463,-0.22375 -0.51463,-0.503438 z"
       id="path1323" />
  </g>
</svg>
