<?xml version="1.0" encoding="UTF-8" standalone="no"?>
<svg
   version="1.0"
   width="210mm"
   height="298mm"
   id="svg1398"
   sodipodi:docname="honors-openrocket2.svg"
   inkscape:version="1.1 (c68e22c387, 2021-05-23)"
   xmlns:inkscape="http://www.inkscape.org/namespaces/inkscape"
   xmlns:sodipodi="http://sodipodi.sourceforge.net/DTD/sodipodi-0.dtd"
   xmlns="http://www.w3.org/2000/svg"
   xmlns:svg="http://www.w3.org/2000/svg">
  <sodipodi:namedview
     id="namedview1400"
     pagecolor="#ffffff"
     bordercolor="#666666"
     borderopacity="1.0"
     inkscape:pageshadow="2"
     inkscape:pageopacity="0.0"
     inkscape:pagecheckerboard="0"
     inkscape:document-units="mm"
     showgrid="false"
     inkscape:zoom="2.8837808"
     inkscape:cx="681.22377"
     inkscape:cy="36.237151"
     inkscape:window-width="1920"
     inkscape:window-height="1001"
     inkscape:window-x="-9"
     inkscape:window-y="-9"
     inkscape:window-maximized="1"
     inkscape:current-layer="svg1398" />
  <defs
     id="defs6">
    <inkscape:path-effect
       effect="powerstroke"
       id="path-effect9659"
       is_visible="true"
       lpeversion="1"
       offset_points="0,18.8679"
       not_jump="false"
       sort_points="true"
       interpolator_type="CubicBezierJohan"
       interpolator_beta="0.2"
       start_linecap_type="zerowidth"
       linejoin_type="extrp_arc"
       miter_limit="4"
       scale_width="1"
       end_linecap_type="zerowidth" />
    <clipPath
       clipPathUnits="userSpaceOnUse"
       id="clipEmfPath1">
      <path
         d="  M 0,-2.6399804   L 0,1122.6317   L 795.9941,1122.6317   L 795.9941,-2.6399804   z"
         id="path2" />
    </clipPath>
    <pattern
       id="EMFhbasepattern"
       patternUnits="userSpaceOnUse"
       width="6"
       height="6"
       x="0"
       y="0" />
  </defs>
  <path
     style="fill:none;stroke:#000000;stroke-width:0.559996px;stroke-linecap:butt;stroke-linejoin:bevel;stroke-miterlimit:10;stroke-dasharray:3.19998, 2.15998;stroke-dashoffset:0;stroke-opacity:1"
     clip-path="url(#clipEmfPath1)"
     d="m 43.599677,207.11847 v -2.47999 c 0,-1.67998 1.279991,-2.95997 2.959978,-2.95997 h 9.759928 c 1.599988,0 2.959978,1.27999 2.959978,2.95997 v 2.47999 c 0,1.67998 -1.35999,2.95997 -2.959978,2.95997 h -9.759928 c -1.679987,0 -2.959978,-1.27999 -2.959978,-2.95997 z"
     id="path82"
     transform="translate(-23.43652,-145.41137)" />
  <path
     style="fill:none;stroke:#aa0064;stroke-width:0.559996px;stroke-linecap:butt;stroke-linejoin:bevel;stroke-miterlimit:10;stroke-dasharray:5.35996, 0.0799994;stroke-dashoffset:0;stroke-opacity:1"
     clip-path="url(#clipEmfPath1)"
     d="m 558.07587,218.07838 h 2.23998 v -24.39981 h -2.23998 z"
     id="path84"
     transform="translate(-23.43652,-145.41137)" />
  <path
     style="fill:none;stroke:#aa0064;stroke-width:0.559996px;stroke-linecap:butt;stroke-linejoin:bevel;stroke-miterlimit:10;stroke-dasharray:5.35996, 0.0799994;stroke-dashoffset:0;stroke-opacity:1"
     clip-path="url(#clipEmfPath1)"
     d="m 560.31585,218.07838 h 2.15998 v -24.39981 h -2.15998 z"
     id="path86"
     transform="translate(-23.43652,-145.41137)" />
  <path
     style="fill:none;stroke:#aa0064;stroke-width:0.559996px;stroke-linecap:butt;stroke-linejoin:bevel;stroke-miterlimit:10;stroke-dasharray:5.35996, 0.0799994;stroke-dashoffset:0;stroke-opacity:1"
     clip-path="url(#clipEmfPath1)"
     d="m 684.15493,225.19833 h 2.15999 v -38.63971 h -2.15999 z"
     id="path88"
     transform="translate(-23.43652,-145.41137)" />
  <path
     style="fill:none;stroke:#aa0064;stroke-width:0.559996px;stroke-linecap:butt;stroke-linejoin:bevel;stroke-miterlimit:10;stroke-dasharray:5.35996, 0.0799994;stroke-dashoffset:0;stroke-opacity:1"
     clip-path="url(#clipEmfPath1)"
     d="m 684.15493,218.07838 h 2.15999 v -24.39981 h -2.15999 z"
     id="path90"
     transform="translate(-23.43652,-145.41137)" />
  <path
     style="fill:none;stroke:#aa0064;stroke-width:0.559996px;stroke-linecap:butt;stroke-linejoin:bevel;stroke-miterlimit:10;stroke-dasharray:5.35996, 0.0799994;stroke-dashoffset:0;stroke-opacity:1"
     clip-path="url(#clipEmfPath1)"
     d="m 720.15467,225.19833 h 2.15998 v -38.63971 h -2.15998 z"
     id="path92"
     transform="translate(-23.43652,-145.41137)" />
  <path
     style="fill:none;stroke:#aa0064;stroke-width:0.559996px;stroke-linecap:butt;stroke-linejoin:bevel;stroke-miterlimit:10;stroke-dasharray:5.35996, 0.0799994;stroke-dashoffset:0;stroke-opacity:1"
     clip-path="url(#clipEmfPath1)"
     d="m 720.15467,218.07838 h 2.15998 v -24.39981 h -2.15998 z"
     id="path94"
     transform="translate(-23.43652,-145.41137)" />
  <path
     style="fill:none;stroke:#aa0064;stroke-width:0.559996px;stroke-linecap:butt;stroke-linejoin:bevel;stroke-miterlimit:10;stroke-dasharray:5.35996, 0.0799994;stroke-dashoffset:0;stroke-opacity:1"
     clip-path="url(#clipEmfPath1)"
     d="m 558.07587,225.19833 h 2.23998 v -38.63971 h -2.23998 z"
     id="path96"
     transform="translate(-23.43652,-145.41137)" />
  <path
     style="fill:none;stroke:#aa0064;stroke-width:0.559996px;stroke-linecap:butt;stroke-linejoin:bevel;stroke-miterlimit:10;stroke-dasharray:5.35996, 0.0799994;stroke-dashoffset:0;stroke-opacity:1"
     clip-path="url(#clipEmfPath1)"
     d="m 650.31518,225.19833 h 2.15999 v -38.63971 h -2.15999 z"
     id="path98"
     transform="translate(-23.43652,-145.41137)" />
  <path
     style="fill:none;stroke:#aa0064;stroke-width:0.559996px;stroke-linecap:butt;stroke-linejoin:bevel;stroke-miterlimit:10;stroke-dasharray:5.35996, 0.0799994;stroke-dashoffset:0;stroke-opacity:1"
     clip-path="url(#clipEmfPath1)"
     d="m 650.31518,218.07838 h 2.15999 v -24.39981 h -2.15999 z"
     id="path100"
     transform="translate(-23.43652,-145.41137)" />
  <path
     style="fill:none;stroke:#aa0064;stroke-width:0.559996px;stroke-linecap:butt;stroke-linejoin:bevel;stroke-miterlimit:10;stroke-dasharray:5.35996, 0.0799994;stroke-dashoffset:0;stroke-opacity:1"
     clip-path="url(#clipEmfPath1)"
     d="m 560.31585,225.19833 h 2.15998 v -38.63971 h -2.15998 z"
     id="path102"
     transform="translate(-23.43652,-145.41137)" />
  <path
     style="fill:none;stroke:#aa0064;stroke-width:0.559996px;stroke-linecap:butt;stroke-linejoin:bevel;stroke-miterlimit:10;stroke-dasharray:5.35996, 0.0799994;stroke-dashoffset:0;stroke-opacity:1"
     clip-path="url(#clipEmfPath1)"
     d="M 322.55761,225.19833 H 455.43663 V 186.55862 H 322.55761 Z"
     id="path104"
     transform="translate(-23.43652,-145.41137)" />
  <path
     style="fill:none;stroke:#aa0064;stroke-width:0.559996px;stroke-linecap:butt;stroke-linejoin:bevel;stroke-miterlimit:10;stroke-dasharray:5.35996, 0.0799994;stroke-dashoffset:0;stroke-opacity:1"
     clip-path="url(#clipEmfPath1)"
     d="m 183.67864,225.19833 h 54.3196 v -38.63971 h -54.3196 z"
     id="path106"
     transform="translate(-23.43652,-145.41137)" />
  <path
     style="fill:none;stroke:#aa0064;stroke-width:0.559996px;stroke-linecap:butt;stroke-linejoin:bevel;stroke-miterlimit:10;stroke-dasharray:5.35996, 0.0799994;stroke-dashoffset:0;stroke-opacity:1"
     clip-path="url(#clipEmfPath1)"
     d="M 558.07587,218.07838 H 727.11461 V 193.67857 H 558.07587 Z"
     id="path108"
     transform="translate(-23.43652,-145.41137)" />
  <path
     style="fill:none;stroke:#aa0064;stroke-width:0.559996px;stroke-linecap:butt;stroke-linejoin:bevel;stroke-miterlimit:10;stroke-dasharray:5.35996, 0.0799994;stroke-dashoffset:0;stroke-opacity:1"
     clip-path="url(#clipEmfPath1)"
     d="M 558.07587,217.75839 H 727.11461 V 193.99856 H 558.07587 Z"
     id="path110"
     transform="translate(-23.43652,-145.41137)" />
  <path
     style="fill:none;stroke:#0000c8;stroke-width:0.559996px;stroke-linecap:butt;stroke-linejoin:bevel;stroke-miterlimit:10;stroke-dasharray:5.35996, 0.0799994;stroke-dashoffset:0;stroke-opacity:1"
     clip-path="url(#clipEmfPath1)"
     d="m 652.47517,225.59833 h 67.6795"
     id="path112"
     transform="translate(-23.43652,-145.41137)" />
  <path
     style="fill:none;stroke:#0000c8;stroke-width:0.559996px;stroke-linecap:butt;stroke-linejoin:bevel;stroke-miterlimit:10;stroke-dasharray:5.35996, 0.0799994;stroke-dashoffset:0;stroke-opacity:1"
     clip-path="url(#clipEmfPath1)"
     d="m 652.47517,186.15862 v 7.51995 h 67.6795 v -7.51995 z"
     id="path114"
     transform="translate(-23.43652,-145.41137)" />
  <path
     style="fill:none;stroke:#0000c8;stroke-width:0.559996px;stroke-linecap:butt;stroke-linejoin:bevel;stroke-miterlimit:10;stroke-dasharray:5.35996, 0.0799994;stroke-dashoffset:0;stroke-opacity:1"
     clip-path="url(#clipEmfPath1)"
     d="m 652.47517,186.15862 h 67.6795"
     id="path116"
     transform="translate(-23.43652,-145.41137)" />
  <path
     style="fill:none;stroke:#0000c8;stroke-width:0.559996px;stroke-linecap:butt;stroke-linejoin:bevel;stroke-miterlimit:10;stroke-dasharray:5.35996, 0.0799994;stroke-dashoffset:0;stroke-opacity:1"
     clip-path="url(#clipEmfPath1)"
     d="m 652.47517,205.83848 h 24.15982 38.63971 4.87997"
     id="path118"
     transform="translate(-23.43652,-145.41137)" />
  <path
     style="fill:none;stroke:#0000c8;stroke-width:0.559996px;stroke-linecap:butt;stroke-linejoin:bevel;stroke-miterlimit:10;stroke-dasharray:5.35996, 0.0799994;stroke-dashoffset:0;stroke-opacity:1"
     clip-path="url(#clipEmfPath1)"
     d="m 652.47517,205.83848 v 0 h 67.6795 v 0 z"
     id="path120"
     transform="translate(-23.43652,-145.41137)" />
  <path
     style="fill:none;stroke:#0000c8;stroke-width:0.559996px;stroke-linecap:butt;stroke-linejoin:bevel;stroke-miterlimit:10;stroke-dasharray:5.35996, 0.0799994;stroke-dashoffset:0;stroke-opacity:1"
     clip-path="url(#clipEmfPath1)"
     d="m 652.47517,205.83848 h 24.15982 38.63971 4.87997"
     id="path122"
     transform="translate(-23.43652,-145.41137)" />
  <path
     style="fill:none;stroke:#0000c8;stroke-width:0.559996px;stroke-linecap:butt;stroke-linejoin:bevel;stroke-miterlimit:10;stroke-dasharray:5.35996, 0.0799994;stroke-dashoffset:0;stroke-opacity:1"
     clip-path="url(#clipEmfPath1)"
     d="m 652.47517,225.59833 24.15982,39.8397 h 38.63971 l 4.87997,-39.8397"
     id="path124"
     transform="translate(-23.43652,-145.41137)" />
  <path
     style="fill:none;stroke:#0000c8;stroke-width:0.559996px;stroke-linecap:butt;stroke-linejoin:bevel;stroke-miterlimit:10;stroke-dasharray:5.35996, 0.0799994;stroke-dashoffset:0;stroke-opacity:1"
     clip-path="url(#clipEmfPath1)"
     d="m 652.47517,225.59833 v -7.51995 h 67.6795 v 7.51995 z"
     id="path126"
     transform="translate(-23.43652,-145.41137)" />
  <path
     style="fill:none;stroke:#0000c8;stroke-width:0.559996px;stroke-linecap:butt;stroke-linejoin:bevel;stroke-miterlimit:10;stroke-dasharray:5.35996, 0.0799994;stroke-dashoffset:0;stroke-opacity:1"
     clip-path="url(#clipEmfPath1)"
     d="m 652.47517,186.15862 24.15982,-39.8397 h 38.63971 l 4.87997,39.8397"
     id="path128"
     transform="translate(-23.43652,-145.41137)" />
  <path
     style="fill:none;stroke:#0000c8;stroke-width:0.559996px;stroke-linecap:butt;stroke-linejoin:bevel;stroke-miterlimit:10;stroke-dasharray:5.35996, 0.0799994;stroke-dashoffset:0;stroke-opacity:1"
     clip-path="url(#clipEmfPath1)"
     d="m 652.47517,205.83848 h 67.6795"
     id="path130"
     transform="translate(-23.43652,-145.41137)" />
  <path
     style="fill:none;stroke:#0000c8;stroke-width:0.559996px;stroke-linecap:butt;stroke-linejoin:bevel;stroke-miterlimit:10;stroke-dasharray:5.35996, 0.0799994;stroke-dashoffset:0;stroke-opacity:1"
     clip-path="url(#clipEmfPath1)"
     d="m 652.47517,205.83848 v 0 h 67.6795 v 0 z"
     id="path132"
     transform="translate(-23.43652,-145.41137)" />
  <path
     style="fill:none;stroke:#0000c8;stroke-width:0.559996px;stroke-linecap:butt;stroke-linejoin:bevel;stroke-miterlimit:10;stroke-dasharray:5.35996, 0.0799994;stroke-dashoffset:0;stroke-opacity:1"
     clip-path="url(#clipEmfPath1)"
     d="m 652.47517,205.83848 h 67.6795"
     id="path134"
     transform="translate(-23.43652,-145.41137)" />
  <path
     style="fill:none;stroke:#0000f0;stroke-width:0.559996px;stroke-linecap:butt;stroke-linejoin:bevel;stroke-miterlimit:10;stroke-dasharray:5.35996, 0.0799994;stroke-dashoffset:0;stroke-opacity:1"
     clip-path="url(#clipEmfPath1)"
     d="m 171.59873,186.15862 h -1.59999 l -1.59999,0.08 h -1.67998 l -1.59999,0.08 -1.59999,0.08 -1.59999,0.08 -1.59999,0.08 h -1.59999 l -1.59998,0.16 -1.59999,0.08 -1.67999,0.08 -1.59999,0.08 -1.59999,0.08 -1.59998,0.16 -1.59999,0.08 -1.59999,0.08 -1.59999,0.16 -1.59999,0.08 -1.67998,0.16 -1.59999,0.08 -1.59999,0.16 -1.59999,0.16 -1.59999,0.08 -1.59998,0.15999 -1.59999,0.16 -1.67999,0.16 -1.59999,0.08 -1.59999,0.16 -1.59999,0.16 -1.59998,0.16 -1.59999,0.16 -1.59999,0.16 -1.59999,0.15999 -1.67999,0.16 -1.59998,0.16 -1.59999,0.16 -1.59999,0.24 -1.59999,0.16 -1.59999,0.16 -1.59998,0.16 -1.59999,0.23999 -1.67999,0.16 -1.59999,0.16 -1.59999,0.24 -1.599984,0.16 -1.599988,0.24 -1.599989,0.16 -1.599988,0.23999 -1.599988,0.16 -1.679987,0.24 -1.599989,0.24 -1.599988,0.16 -1.599988,0.24 -1.599988,0.23999 -1.599988,0.24 -1.599988,0.24 -1.679988,0.16 -1.599988,0.24 -1.599988,0.24 -1.599988,0.23999 -1.599988,0.24 -1.599989,0.32 -1.599988,0.24 -1.599988,0.24 -1.679987,0.23999 -1.599989,0.24 -1.599988,0.32 -1.599988,0.24 -1.599988,0.32 -1.599988,0.23999 -1.599988,0.32 -1.599988,0.24 -1.679988,0.32 -1.599988,0.32 -1.599988,0.31999 -1.599988,0.32 -1.599989,0.32 -1.599988,0.32 -1.599988,0.31999 -1.599988,0.4 -1.679988,0.32 -1.599988,0.4 -1.599988,0.39999 -1.599988,0.4 -1.599988,0.4 -1.599988,0.47999 -1.599988,0.48 -1.599989,0.48 -0.879993,0.31999 -0.799994,0.24 -0.799994,0.4 -0.159999,0.08 -0.239998,0.16 -0.159999,0.08 -0.239998,0.16 v 0 l 0.239998,0.23999 0.159999,0.08 0.239998,0.16 0.159999,0.08 0.799994,0.32 0.799994,0.32 0.879993,0.31999 1.599989,0.48 1.599988,0.48 1.599988,0.47999 1.599988,0.4 1.599988,0.4 1.599988,0.39999 1.599988,0.4 1.679988,0.32 1.599988,0.4 1.599988,0.31999 1.599988,0.32 1.599989,0.32 1.599988,0.32 1.599988,0.31999 1.599988,0.32 1.679988,0.24 1.599988,0.32 1.599988,0.32 1.599988,0.23999 1.599988,0.32 1.599988,0.24 1.599988,0.24 1.599989,0.32 1.679987,0.23999 1.599988,0.24 1.599988,0.24 1.599989,0.24 1.599988,0.32 1.599988,0.23999 1.599988,0.16 1.599988,0.24 1.679988,0.24 1.599988,0.24 1.599988,0.24 1.599988,0.23999 1.599988,0.24 1.599988,0.16 1.599989,0.24 1.679987,0.16 1.599988,0.24 1.599988,0.23999 1.599989,0.16 1.599988,0.24 1.599984,0.16 1.59999,0.16 1.59999,0.24 1.67999,0.16 1.59999,0.23999 1.59998,0.16 1.59999,0.16 1.59999,0.16 1.59999,0.16 1.59999,0.24 1.59998,0.16 1.67999,0.16 1.59999,0.15999 1.59999,0.16 1.59999,0.16 1.59998,0.16 1.59999,0.16 1.59999,0.08 1.59999,0.16 1.67999,0.16 1.59999,0.16 1.59998,0.15999 1.59999,0.08 1.59999,0.16 1.59999,0.08 1.59999,0.16 1.67998,0.16 1.59999,0.08 1.59999,0.16 1.59999,0.08 1.59999,0.08 1.59998,0.16 1.59999,0.08 1.59999,0.08 1.67999,0.08 1.59999,0.08 1.59998,0.08 1.59999,0.08 1.59999,0.08 1.59999,0.08 1.59999,0.08 1.59999,0.08 h 1.67998 l 1.59999,0.08 h 1.59999 z"
     id="path136"
     transform="translate(-23.43652,-145.41137)" />
  <path
     style="fill:none;stroke:#0000f0;stroke-width:0.559996px;stroke-linecap:butt;stroke-linejoin:bevel;stroke-miterlimit:10;stroke-dasharray:5.35996, 0.0799994;stroke-dashoffset:0;stroke-opacity:1"
     clip-path="url(#clipEmfPath1)"
     d="m 352.71739,225.59833 h 72.47946 v -39.43971 h -72.47946 z"
     id="path138"
     transform="translate(-23.43652,-145.41137)" />
  <path
     style="fill:none;stroke:#0000f0;stroke-width:0.559996px;stroke-linecap:butt;stroke-linejoin:bevel;stroke-miterlimit:10;stroke-dasharray:5.35996, 0.0799994;stroke-dashoffset:0;stroke-opacity:1"
     clip-path="url(#clipEmfPath1)"
     d="M 425.19685,225.59833 H 727.11461 V 186.15862 H 425.19685 Z"
     id="path140"
     transform="translate(-23.43652,-145.41137)" />
  <path
     style="fill:none;stroke:#0000f0;stroke-width:0.559996px;stroke-linecap:butt;stroke-linejoin:bevel;stroke-miterlimit:10;stroke-dasharray:5.35996, 0.0799994;stroke-dashoffset:0;stroke-opacity:1"
     clip-path="url(#clipEmfPath1)"
     d="m 171.59873,225.59833 h 36.23973 v -39.43971 h -36.23973 z"
     id="path142"
     transform="translate(-23.43652,-145.41137)" />
  <path
     style="fill:none;stroke:#0000f0;stroke-width:0.559996px;stroke-linecap:butt;stroke-linejoin:bevel;stroke-miterlimit:10;stroke-dasharray:5.35996, 0.0799994;stroke-dashoffset:0;stroke-opacity:1"
     clip-path="url(#clipEmfPath1)"
     d="M 207.83846,225.59833 H 352.71739 V 186.15862 H 207.83846 Z"
     id="path144"
     transform="translate(-23.43652,-145.41137)" />
  <path
     style="fill:#000000;fill-opacity:1;fill-rule:nonzero;stroke:none"
     clip-path="url(#clipEmfPath1)"
     d="M 582.71568,217.67839 H 727.11461 V 193.99856 H 582.71568 Z"
     id="path146"
     transform="translate(-23.43652,-145.41137)" />
  <path
     style="fill:none;stroke:#000000;stroke-width:0.559996px;stroke-linecap:butt;stroke-linejoin:bevel;stroke-miterlimit:10;stroke-dasharray:none;stroke-opacity:1"
     clip-path="url(#clipEmfPath1)"
     d="M 582.71568,217.67839 H 727.11461 V 193.99856 H 582.71568 Z"
     id="path148"
     transform="translate(-23.43652,-145.41137)" />
  <path
     style="fill:#ff0000;fill-opacity:1;fill-rule:nonzero;stroke:none"
     clip-path="url(#clipEmfPath1)"
     d="m 578.31572,208.63845 c -1.51999,0 -2.79998,-1.19999 -2.79998,-2.79997 0,-1.51999 1.27999,-2.79998 2.79998,-2.79998 1.59998,0 2.79998,1.27999 2.79998,2.79998 0,1.59998 -1.2,2.79997 -2.79998,2.79997 z m 0,0.56 c 1.91998,0 3.35997,-1.43999 3.35997,-3.35997 0,-1.83999 -1.43999,-3.35998 -3.35997,-3.35998 -1.83999,0 -3.35998,1.51999 -3.35998,3.35998 0,1.91998 1.51999,3.35997 3.35998,3.35997 z m 0,0.4 c -1.99999,0 -3.67998,-1.67999 -3.67998,-3.75997 0,-1.99999 1.67999,-3.67998 3.67998,-3.67998 2.07998,0 3.75997,1.67999 3.75997,3.67998 0,2.07998 -1.67999,3.75997 -3.75997,3.75997 z"
     id="path150"
     transform="translate(-23.43652,-145.41137)" />
  <path
     style="fill:#0000ff;fill-opacity:1;fill-rule:nonzero;stroke:none"
     clip-path="url(#clipEmfPath1)"
     d="m 500.47629,209.19845 v -3.35997 h 3.35998 c 0,-1.83999 -1.51999,-3.35998 -3.35998,-3.35998 v 3.35998 h -3.35997 c 0,1.91998 1.51999,3.35997 3.35997,3.35997 z m 0,0.4 c -2.07998,0 -3.75997,-1.67999 -3.75997,-3.75997 0,-1.99999 1.67999,-3.67998 3.75997,-3.67998 1.99999,0 3.67998,1.67999 3.67998,3.67998 0,2.07998 -1.67999,3.75997 -3.67998,3.75997 z"
     id="path152"
     transform="translate(-23.43652,-145.41137)" />
</svg>
