<?xml version="1.0" encoding="utf-8" standalone="no"?>
<!DOCTYPE svg PUBLIC "-//W3C//DTD SVG 1.1//EN"
  "http://www.w3.org/Graphics/SVG/1.1/DTD/svg11.dtd">
<svg xmlns:xlink="http://www.w3.org/1999/xlink" width="720pt" height="432pt" viewBox="0 0 720 432" xmlns="http://www.w3.org/2000/svg" version="1.1">
 <metadata>
  <rdf:RDF xmlns:dc="http://purl.org/dc/elements/1.1/" xmlns:cc="http://creativecommons.org/ns#" xmlns:rdf="http://www.w3.org/1999/02/22-rdf-syntax-ns#">
   <cc:Work>
    <dc:type rdf:resource="http://purl.org/dc/dcmitype/StillImage"/>
    <dc:date>2024-10-10T04:01:59.403174</dc:date>
    <dc:format>image/svg+xml</dc:format>
    <dc:creator>
     <cc:Agent>
      <dc:title>Matplotlib v3.9.2, https://matplotlib.org/</dc:title>
     </cc:Agent>
    </dc:creator>
   </cc:Work>
  </rdf:RDF>
 </metadata>
 <defs>
  <style type="text/css">*{stroke-linejoin: round; stroke-linecap: butt}</style>
 </defs>
 <g id="figure_1">
  <g id="patch_1">
   <path d="M 0 432 
L 720 432 
L 720 0 
L 0 0 
z
" style="fill: #ffffff"/>
  </g>
  <g id="axes_1">
   <g id="patch_2">
    <path d="M 90 384.48 
L 648 384.48 
L 648 51.84 
L 90 51.84 
z
" style="fill: #ffffff"/>
   </g>
   <g id="matplotlib.axis_1">
    <g id="xtick_1">
     <g id="line2d_1">
      <path d="M 111.438081 384.48 
L 111.438081 51.84 
" clip-path="url(#p45682caa9b)" style="fill: none; stroke: #b0b0b0; stroke-width: 0.8; stroke-linecap: square"/>
     </g>
     <g id="line2d_2">
      <defs>
       <path id="m8f18e95eb8" d="M 0 0 
L 0 3.5 
" style="stroke: #000000; stroke-width: 0.8"/>
      </defs>
      <g>
       <use xlink:href="#m8f18e95eb8" x="111.438081" y="384.48" style="stroke: #000000; stroke-width: 0.8"/>
      </g>
     </g>
     <g id="text_1">
      <!-- 0 -->
      <g transform="translate(108.256831 399.078438) scale(0.1 -0.1)">
       <defs>
        <path id="DejaVuSans-30" d="M 2034 4250 
Q 1547 4250 1301 3770 
Q 1056 3291 1056 2328 
Q 1056 1369 1301 889 
Q 1547 409 2034 409 
Q 2525 409 2770 889 
Q 3016 1369 3016 2328 
Q 3016 3291 2770 3770 
Q 2525 4250 2034 4250 
z
M 2034 4750 
Q 2819 4750 3233 4129 
Q 3647 3509 3647 2328 
Q 3647 1150 3233 529 
Q 2819 -91 2034 -91 
Q 1250 -91 836 529 
Q 422 1150 422 2328 
Q 422 3509 836 4129 
Q 1250 4750 2034 4750 
z
" transform="scale(0.015625)"/>
       </defs>
       <use xlink:href="#DejaVuSans-30"/>
      </g>
     </g>
    </g>
    <g id="xtick_2">
     <g id="line2d_3">
      <path d="M 195.677466 384.48 
L 195.677466 51.84 
" clip-path="url(#p45682caa9b)" style="fill: none; stroke: #b0b0b0; stroke-width: 0.8; stroke-linecap: square"/>
     </g>
     <g id="line2d_4">
      <g>
       <use xlink:href="#m8f18e95eb8" x="195.677466" y="384.48" style="stroke: #000000; stroke-width: 0.8"/>
      </g>
     </g>
     <g id="text_2">
      <!-- 5 -->
      <g transform="translate(192.496216 399.078438) scale(0.1 -0.1)">
       <defs>
        <path id="DejaVuSans-35" d="M 691 4666 
L 3169 4666 
L 3169 4134 
L 1269 4134 
L 1269 2991 
Q 1406 3038 1543 3061 
Q 1681 3084 1819 3084 
Q 2600 3084 3056 2656 
Q 3513 2228 3513 1497 
Q 3513 744 3044 326 
Q 2575 -91 1722 -91 
Q 1428 -91 1123 -41 
Q 819 9 494 109 
L 494 744 
Q 775 591 1075 516 
Q 1375 441 1709 441 
Q 2250 441 2565 725 
Q 2881 1009 2881 1497 
Q 2881 1984 2565 2268 
Q 2250 2553 1709 2553 
Q 1456 2553 1204 2497 
Q 953 2441 691 2322 
L 691 4666 
z
" transform="scale(0.015625)"/>
       </defs>
       <use xlink:href="#DejaVuSans-35"/>
      </g>
     </g>
    </g>
    <g id="xtick_3">
     <g id="line2d_5">
      <path d="M 279.916851 384.48 
L 279.916851 51.84 
" clip-path="url(#p45682caa9b)" style="fill: none; stroke: #b0b0b0; stroke-width: 0.8; stroke-linecap: square"/>
     </g>
     <g id="line2d_6">
      <g>
       <use xlink:href="#m8f18e95eb8" x="279.916851" y="384.48" style="stroke: #000000; stroke-width: 0.8"/>
      </g>
     </g>
     <g id="text_3">
      <!-- 10 -->
      <g transform="translate(273.554351 399.078438) scale(0.1 -0.1)">
       <defs>
        <path id="DejaVuSans-31" d="M 794 531 
L 1825 531 
L 1825 4091 
L 703 3866 
L 703 4441 
L 1819 4666 
L 2450 4666 
L 2450 531 
L 3481 531 
L 3481 0 
L 794 0 
L 794 531 
z
" transform="scale(0.015625)"/>
       </defs>
       <use xlink:href="#DejaVuSans-31"/>
       <use xlink:href="#DejaVuSans-30" x="63.623047"/>
      </g>
     </g>
    </g>
    <g id="xtick_4">
     <g id="line2d_7">
      <path d="M 364.156235 384.48 
L 364.156235 51.84 
" clip-path="url(#p45682caa9b)" style="fill: none; stroke: #b0b0b0; stroke-width: 0.8; stroke-linecap: square"/>
     </g>
     <g id="line2d_8">
      <g>
       <use xlink:href="#m8f18e95eb8" x="364.156235" y="384.48" style="stroke: #000000; stroke-width: 0.8"/>
      </g>
     </g>
     <g id="text_4">
      <!-- 15 -->
      <g transform="translate(357.793735 399.078438) scale(0.1 -0.1)">
       <use xlink:href="#DejaVuSans-31"/>
       <use xlink:href="#DejaVuSans-35" x="63.623047"/>
      </g>
     </g>
    </g>
    <g id="xtick_5">
     <g id="line2d_9">
      <path d="M 448.39562 384.48 
L 448.39562 51.84 
" clip-path="url(#p45682caa9b)" style="fill: none; stroke: #b0b0b0; stroke-width: 0.8; stroke-linecap: square"/>
     </g>
     <g id="line2d_10">
      <g>
       <use xlink:href="#m8f18e95eb8" x="448.39562" y="384.48" style="stroke: #000000; stroke-width: 0.8"/>
      </g>
     </g>
     <g id="text_5">
      <!-- 20 -->
      <g transform="translate(442.03312 399.078438) scale(0.1 -0.1)">
       <defs>
        <path id="DejaVuSans-32" d="M 1228 531 
L 3431 531 
L 3431 0 
L 469 0 
L 469 531 
Q 828 903 1448 1529 
Q 2069 2156 2228 2338 
Q 2531 2678 2651 2914 
Q 2772 3150 2772 3378 
Q 2772 3750 2511 3984 
Q 2250 4219 1831 4219 
Q 1534 4219 1204 4116 
Q 875 4013 500 3803 
L 500 4441 
Q 881 4594 1212 4672 
Q 1544 4750 1819 4750 
Q 2544 4750 2975 4387 
Q 3406 4025 3406 3419 
Q 3406 3131 3298 2873 
Q 3191 2616 2906 2266 
Q 2828 2175 2409 1742 
Q 1991 1309 1228 531 
z
" transform="scale(0.015625)"/>
       </defs>
       <use xlink:href="#DejaVuSans-32"/>
       <use xlink:href="#DejaVuSans-30" x="63.623047"/>
      </g>
     </g>
    </g>
    <g id="xtick_6">
     <g id="line2d_11">
      <path d="M 532.635005 384.48 
L 532.635005 51.84 
" clip-path="url(#p45682caa9b)" style="fill: none; stroke: #b0b0b0; stroke-width: 0.8; stroke-linecap: square"/>
     </g>
     <g id="line2d_12">
      <g>
       <use xlink:href="#m8f18e95eb8" x="532.635005" y="384.48" style="stroke: #000000; stroke-width: 0.8"/>
      </g>
     </g>
     <g id="text_6">
      <!-- 25 -->
      <g transform="translate(526.272505 399.078438) scale(0.1 -0.1)">
       <use xlink:href="#DejaVuSans-32"/>
       <use xlink:href="#DejaVuSans-35" x="63.623047"/>
      </g>
     </g>
    </g>
    <g id="xtick_7">
     <g id="line2d_13">
      <path d="M 616.87439 384.48 
L 616.87439 51.84 
" clip-path="url(#p45682caa9b)" style="fill: none; stroke: #b0b0b0; stroke-width: 0.8; stroke-linecap: square"/>
     </g>
     <g id="line2d_14">
      <g>
       <use xlink:href="#m8f18e95eb8" x="616.87439" y="384.48" style="stroke: #000000; stroke-width: 0.8"/>
      </g>
     </g>
     <g id="text_7">
      <!-- 30 -->
      <g transform="translate(610.51189 399.078438) scale(0.1 -0.1)">
       <defs>
        <path id="DejaVuSans-33" d="M 2597 2516 
Q 3050 2419 3304 2112 
Q 3559 1806 3559 1356 
Q 3559 666 3084 287 
Q 2609 -91 1734 -91 
Q 1441 -91 1130 -33 
Q 819 25 488 141 
L 488 750 
Q 750 597 1062 519 
Q 1375 441 1716 441 
Q 2309 441 2620 675 
Q 2931 909 2931 1356 
Q 2931 1769 2642 2001 
Q 2353 2234 1838 2234 
L 1294 2234 
L 1294 2753 
L 1863 2753 
Q 2328 2753 2575 2939 
Q 2822 3125 2822 3475 
Q 2822 3834 2567 4026 
Q 2313 4219 1838 4219 
Q 1578 4219 1281 4162 
Q 984 4106 628 3988 
L 628 4550 
Q 988 4650 1302 4700 
Q 1616 4750 1894 4750 
Q 2613 4750 3031 4423 
Q 3450 4097 3450 3541 
Q 3450 3153 3228 2886 
Q 3006 2619 2597 2516 
z
" transform="scale(0.015625)"/>
       </defs>
       <use xlink:href="#DejaVuSans-33"/>
       <use xlink:href="#DejaVuSans-30" x="63.623047"/>
      </g>
     </g>
    </g>
    <g id="text_8">
     <!-- Time (s) -->
     <g transform="translate(348.671094 412.756563) scale(0.1 -0.1)">
      <defs>
       <path id="DejaVuSans-54" d="M -19 4666 
L 3928 4666 
L 3928 4134 
L 2272 4134 
L 2272 0 
L 1638 0 
L 1638 4134 
L -19 4134 
L -19 4666 
z
" transform="scale(0.015625)"/>
       <path id="DejaVuSans-69" d="M 603 3500 
L 1178 3500 
L 1178 0 
L 603 0 
L 603 3500 
z
M 603 4863 
L 1178 4863 
L 1178 4134 
L 603 4134 
L 603 4863 
z
" transform="scale(0.015625)"/>
       <path id="DejaVuSans-6d" d="M 3328 2828 
Q 3544 3216 3844 3400 
Q 4144 3584 4550 3584 
Q 5097 3584 5394 3201 
Q 5691 2819 5691 2113 
L 5691 0 
L 5113 0 
L 5113 2094 
Q 5113 2597 4934 2840 
Q 4756 3084 4391 3084 
Q 3944 3084 3684 2787 
Q 3425 2491 3425 1978 
L 3425 0 
L 2847 0 
L 2847 2094 
Q 2847 2600 2669 2842 
Q 2491 3084 2119 3084 
Q 1678 3084 1418 2786 
Q 1159 2488 1159 1978 
L 1159 0 
L 581 0 
L 581 3500 
L 1159 3500 
L 1159 2956 
Q 1356 3278 1631 3431 
Q 1906 3584 2284 3584 
Q 2666 3584 2933 3390 
Q 3200 3197 3328 2828 
z
" transform="scale(0.015625)"/>
       <path id="DejaVuSans-65" d="M 3597 1894 
L 3597 1613 
L 953 1613 
Q 991 1019 1311 708 
Q 1631 397 2203 397 
Q 2534 397 2845 478 
Q 3156 559 3463 722 
L 3463 178 
Q 3153 47 2828 -22 
Q 2503 -91 2169 -91 
Q 1331 -91 842 396 
Q 353 884 353 1716 
Q 353 2575 817 3079 
Q 1281 3584 2069 3584 
Q 2775 3584 3186 3129 
Q 3597 2675 3597 1894 
z
M 3022 2063 
Q 3016 2534 2758 2815 
Q 2500 3097 2075 3097 
Q 1594 3097 1305 2825 
Q 1016 2553 972 2059 
L 3022 2063 
z
" transform="scale(0.015625)"/>
       <path id="DejaVuSans-20" transform="scale(0.015625)"/>
       <path id="DejaVuSans-28" d="M 1984 4856 
Q 1566 4138 1362 3434 
Q 1159 2731 1159 2009 
Q 1159 1288 1364 580 
Q 1569 -128 1984 -844 
L 1484 -844 
Q 1016 -109 783 600 
Q 550 1309 550 2009 
Q 550 2706 781 3412 
Q 1013 4119 1484 4856 
L 1984 4856 
z
" transform="scale(0.015625)"/>
       <path id="DejaVuSans-73" d="M 2834 3397 
L 2834 2853 
Q 2591 2978 2328 3040 
Q 2066 3103 1784 3103 
Q 1356 3103 1142 2972 
Q 928 2841 928 2578 
Q 928 2378 1081 2264 
Q 1234 2150 1697 2047 
L 1894 2003 
Q 2506 1872 2764 1633 
Q 3022 1394 3022 966 
Q 3022 478 2636 193 
Q 2250 -91 1575 -91 
Q 1294 -91 989 -36 
Q 684 19 347 128 
L 347 722 
Q 666 556 975 473 
Q 1284 391 1588 391 
Q 1994 391 2212 530 
Q 2431 669 2431 922 
Q 2431 1156 2273 1281 
Q 2116 1406 1581 1522 
L 1381 1569 
Q 847 1681 609 1914 
Q 372 2147 372 2553 
Q 372 3047 722 3315 
Q 1072 3584 1716 3584 
Q 2034 3584 2315 3537 
Q 2597 3491 2834 3397 
z
" transform="scale(0.015625)"/>
       <path id="DejaVuSans-29" d="M 513 4856 
L 1013 4856 
Q 1481 4119 1714 3412 
Q 1947 2706 1947 2009 
Q 1947 1309 1714 600 
Q 1481 -109 1013 -844 
L 513 -844 
Q 928 -128 1133 580 
Q 1338 1288 1338 2009 
Q 1338 2731 1133 3434 
Q 928 4138 513 4856 
z
" transform="scale(0.015625)"/>
      </defs>
      <use xlink:href="#DejaVuSans-54"/>
      <use xlink:href="#DejaVuSans-69" x="57.958984"/>
      <use xlink:href="#DejaVuSans-6d" x="85.742188"/>
      <use xlink:href="#DejaVuSans-65" x="183.154297"/>
      <use xlink:href="#DejaVuSans-20" x="244.677734"/>
      <use xlink:href="#DejaVuSans-28" x="276.464844"/>
      <use xlink:href="#DejaVuSans-73" x="315.478516"/>
      <use xlink:href="#DejaVuSans-29" x="367.578125"/>
     </g>
    </g>
   </g>
   <g id="matplotlib.axis_2">
    <g id="ytick_1">
     <g id="line2d_15">
      <path d="M 90 340.69872 
L 648 340.69872 
" clip-path="url(#p45682caa9b)" style="fill: none; stroke: #b0b0b0; stroke-width: 0.8; stroke-linecap: square"/>
     </g>
     <g id="line2d_16">
      <defs>
       <path id="m054c36a713" d="M 0 0 
L -3.5 0 
" style="stroke: #000000; stroke-width: 0.8"/>
      </defs>
      <g>
       <use xlink:href="#m054c36a713" x="90" y="340.69872" style="stroke: #000000; stroke-width: 0.8"/>
      </g>
     </g>
     <g id="text_9">
      <!-- 1.5 -->
      <g transform="translate(67.096875 344.497938) scale(0.1 -0.1)">
       <defs>
        <path id="DejaVuSans-2e" d="M 684 794 
L 1344 794 
L 1344 0 
L 684 0 
L 684 794 
z
" transform="scale(0.015625)"/>
       </defs>
       <use xlink:href="#DejaVuSans-31"/>
       <use xlink:href="#DejaVuSans-2e" x="63.623047"/>
       <use xlink:href="#DejaVuSans-35" x="95.410156"/>
      </g>
     </g>
    </g>
    <g id="ytick_2">
     <g id="line2d_17">
      <path d="M 90 293.713014 
L 648 293.713014 
" clip-path="url(#p45682caa9b)" style="fill: none; stroke: #b0b0b0; stroke-width: 0.8; stroke-linecap: square"/>
     </g>
     <g id="line2d_18">
      <g>
       <use xlink:href="#m054c36a713" x="90" y="293.713014" style="stroke: #000000; stroke-width: 0.8"/>
      </g>
     </g>
     <g id="text_10">
      <!-- 2.0 -->
      <g transform="translate(67.096875 297.512233) scale(0.1 -0.1)">
       <use xlink:href="#DejaVuSans-32"/>
       <use xlink:href="#DejaVuSans-2e" x="63.623047"/>
       <use xlink:href="#DejaVuSans-30" x="95.410156"/>
      </g>
     </g>
    </g>
    <g id="ytick_3">
     <g id="line2d_19">
      <path d="M 90 246.727309 
L 648 246.727309 
" clip-path="url(#p45682caa9b)" style="fill: none; stroke: #b0b0b0; stroke-width: 0.8; stroke-linecap: square"/>
     </g>
     <g id="line2d_20">
      <g>
       <use xlink:href="#m054c36a713" x="90" y="246.727309" style="stroke: #000000; stroke-width: 0.8"/>
      </g>
     </g>
     <g id="text_11">
      <!-- 2.5 -->
      <g transform="translate(67.096875 250.526528) scale(0.1 -0.1)">
       <use xlink:href="#DejaVuSans-32"/>
       <use xlink:href="#DejaVuSans-2e" x="63.623047"/>
       <use xlink:href="#DejaVuSans-35" x="95.410156"/>
      </g>
     </g>
    </g>
    <g id="ytick_4">
     <g id="line2d_21">
      <path d="M 90 199.741603 
L 648 199.741603 
" clip-path="url(#p45682caa9b)" style="fill: none; stroke: #b0b0b0; stroke-width: 0.8; stroke-linecap: square"/>
     </g>
     <g id="line2d_22">
      <g>
       <use xlink:href="#m054c36a713" x="90" y="199.741603" style="stroke: #000000; stroke-width: 0.8"/>
      </g>
     </g>
     <g id="text_12">
      <!-- 3.0 -->
      <g transform="translate(67.096875 203.540822) scale(0.1 -0.1)">
       <use xlink:href="#DejaVuSans-33"/>
       <use xlink:href="#DejaVuSans-2e" x="63.623047"/>
       <use xlink:href="#DejaVuSans-30" x="95.410156"/>
      </g>
     </g>
    </g>
    <g id="ytick_5">
     <g id="line2d_23">
      <path d="M 90 152.755898 
L 648 152.755898 
" clip-path="url(#p45682caa9b)" style="fill: none; stroke: #b0b0b0; stroke-width: 0.8; stroke-linecap: square"/>
     </g>
     <g id="line2d_24">
      <g>
       <use xlink:href="#m054c36a713" x="90" y="152.755898" style="stroke: #000000; stroke-width: 0.8"/>
      </g>
     </g>
     <g id="text_13">
      <!-- 3.5 -->
      <g transform="translate(67.096875 156.555117) scale(0.1 -0.1)">
       <use xlink:href="#DejaVuSans-33"/>
       <use xlink:href="#DejaVuSans-2e" x="63.623047"/>
       <use xlink:href="#DejaVuSans-35" x="95.410156"/>
      </g>
     </g>
    </g>
    <g id="ytick_6">
     <g id="line2d_25">
      <path d="M 90 105.770193 
L 648 105.770193 
" clip-path="url(#p45682caa9b)" style="fill: none; stroke: #b0b0b0; stroke-width: 0.8; stroke-linecap: square"/>
     </g>
     <g id="line2d_26">
      <g>
       <use xlink:href="#m054c36a713" x="90" y="105.770193" style="stroke: #000000; stroke-width: 0.8"/>
      </g>
     </g>
     <g id="text_14">
      <!-- 4.0 -->
      <g transform="translate(67.096875 109.569411) scale(0.1 -0.1)">
       <defs>
        <path id="DejaVuSans-34" d="M 2419 4116 
L 825 1625 
L 2419 1625 
L 2419 4116 
z
M 2253 4666 
L 3047 4666 
L 3047 1625 
L 3713 1625 
L 3713 1100 
L 3047 1100 
L 3047 0 
L 2419 0 
L 2419 1100 
L 313 1100 
L 313 1709 
L 2253 4666 
z
" transform="scale(0.015625)"/>
       </defs>
       <use xlink:href="#DejaVuSans-34"/>
       <use xlink:href="#DejaVuSans-2e" x="63.623047"/>
       <use xlink:href="#DejaVuSans-30" x="95.410156"/>
      </g>
     </g>
    </g>
    <g id="ytick_7">
     <g id="line2d_27">
      <path d="M 90 58.784487 
L 648 58.784487 
" clip-path="url(#p45682caa9b)" style="fill: none; stroke: #b0b0b0; stroke-width: 0.8; stroke-linecap: square"/>
     </g>
     <g id="line2d_28">
      <g>
       <use xlink:href="#m054c36a713" x="90" y="58.784487" style="stroke: #000000; stroke-width: 0.8"/>
      </g>
     </g>
     <g id="text_15">
      <!-- 4.5 -->
      <g transform="translate(67.096875 62.583706) scale(0.1 -0.1)">
       <use xlink:href="#DejaVuSans-34"/>
       <use xlink:href="#DejaVuSans-2e" x="63.623047"/>
       <use xlink:href="#DejaVuSans-35" x="95.410156"/>
      </g>
     </g>
    </g>
    <g id="text_16">
     <!-- Stability Margin (calibers) -->
     <g transform="translate(61.017187 282.279531) rotate(-90) scale(0.1 -0.1)">
      <defs>
       <path id="DejaVuSans-53" d="M 3425 4513 
L 3425 3897 
Q 3066 4069 2747 4153 
Q 2428 4238 2131 4238 
Q 1616 4238 1336 4038 
Q 1056 3838 1056 3469 
Q 1056 3159 1242 3001 
Q 1428 2844 1947 2747 
L 2328 2669 
Q 3034 2534 3370 2195 
Q 3706 1856 3706 1288 
Q 3706 609 3251 259 
Q 2797 -91 1919 -91 
Q 1588 -91 1214 -16 
Q 841 59 441 206 
L 441 856 
Q 825 641 1194 531 
Q 1563 422 1919 422 
Q 2459 422 2753 634 
Q 3047 847 3047 1241 
Q 3047 1584 2836 1778 
Q 2625 1972 2144 2069 
L 1759 2144 
Q 1053 2284 737 2584 
Q 422 2884 422 3419 
Q 422 4038 858 4394 
Q 1294 4750 2059 4750 
Q 2388 4750 2728 4690 
Q 3069 4631 3425 4513 
z
" transform="scale(0.015625)"/>
       <path id="DejaVuSans-74" d="M 1172 4494 
L 1172 3500 
L 2356 3500 
L 2356 3053 
L 1172 3053 
L 1172 1153 
Q 1172 725 1289 603 
Q 1406 481 1766 481 
L 2356 481 
L 2356 0 
L 1766 0 
Q 1100 0 847 248 
Q 594 497 594 1153 
L 594 3053 
L 172 3053 
L 172 3500 
L 594 3500 
L 594 4494 
L 1172 4494 
z
" transform="scale(0.015625)"/>
       <path id="DejaVuSans-61" d="M 2194 1759 
Q 1497 1759 1228 1600 
Q 959 1441 959 1056 
Q 959 750 1161 570 
Q 1363 391 1709 391 
Q 2188 391 2477 730 
Q 2766 1069 2766 1631 
L 2766 1759 
L 2194 1759 
z
M 3341 1997 
L 3341 0 
L 2766 0 
L 2766 531 
Q 2569 213 2275 61 
Q 1981 -91 1556 -91 
Q 1019 -91 701 211 
Q 384 513 384 1019 
Q 384 1609 779 1909 
Q 1175 2209 1959 2209 
L 2766 2209 
L 2766 2266 
Q 2766 2663 2505 2880 
Q 2244 3097 1772 3097 
Q 1472 3097 1187 3025 
Q 903 2953 641 2809 
L 641 3341 
Q 956 3463 1253 3523 
Q 1550 3584 1831 3584 
Q 2591 3584 2966 3190 
Q 3341 2797 3341 1997 
z
" transform="scale(0.015625)"/>
       <path id="DejaVuSans-62" d="M 3116 1747 
Q 3116 2381 2855 2742 
Q 2594 3103 2138 3103 
Q 1681 3103 1420 2742 
Q 1159 2381 1159 1747 
Q 1159 1113 1420 752 
Q 1681 391 2138 391 
Q 2594 391 2855 752 
Q 3116 1113 3116 1747 
z
M 1159 2969 
Q 1341 3281 1617 3432 
Q 1894 3584 2278 3584 
Q 2916 3584 3314 3078 
Q 3713 2572 3713 1747 
Q 3713 922 3314 415 
Q 2916 -91 2278 -91 
Q 1894 -91 1617 61 
Q 1341 213 1159 525 
L 1159 0 
L 581 0 
L 581 4863 
L 1159 4863 
L 1159 2969 
z
" transform="scale(0.015625)"/>
       <path id="DejaVuSans-6c" d="M 603 4863 
L 1178 4863 
L 1178 0 
L 603 0 
L 603 4863 
z
" transform="scale(0.015625)"/>
       <path id="DejaVuSans-79" d="M 2059 -325 
Q 1816 -950 1584 -1140 
Q 1353 -1331 966 -1331 
L 506 -1331 
L 506 -850 
L 844 -850 
Q 1081 -850 1212 -737 
Q 1344 -625 1503 -206 
L 1606 56 
L 191 3500 
L 800 3500 
L 1894 763 
L 2988 3500 
L 3597 3500 
L 2059 -325 
z
" transform="scale(0.015625)"/>
       <path id="DejaVuSans-4d" d="M 628 4666 
L 1569 4666 
L 2759 1491 
L 3956 4666 
L 4897 4666 
L 4897 0 
L 4281 0 
L 4281 4097 
L 3078 897 
L 2444 897 
L 1241 4097 
L 1241 0 
L 628 0 
L 628 4666 
z
" transform="scale(0.015625)"/>
       <path id="DejaVuSans-72" d="M 2631 2963 
Q 2534 3019 2420 3045 
Q 2306 3072 2169 3072 
Q 1681 3072 1420 2755 
Q 1159 2438 1159 1844 
L 1159 0 
L 581 0 
L 581 3500 
L 1159 3500 
L 1159 2956 
Q 1341 3275 1631 3429 
Q 1922 3584 2338 3584 
Q 2397 3584 2469 3576 
Q 2541 3569 2628 3553 
L 2631 2963 
z
" transform="scale(0.015625)"/>
       <path id="DejaVuSans-67" d="M 2906 1791 
Q 2906 2416 2648 2759 
Q 2391 3103 1925 3103 
Q 1463 3103 1205 2759 
Q 947 2416 947 1791 
Q 947 1169 1205 825 
Q 1463 481 1925 481 
Q 2391 481 2648 825 
Q 2906 1169 2906 1791 
z
M 3481 434 
Q 3481 -459 3084 -895 
Q 2688 -1331 1869 -1331 
Q 1566 -1331 1297 -1286 
Q 1028 -1241 775 -1147 
L 775 -588 
Q 1028 -725 1275 -790 
Q 1522 -856 1778 -856 
Q 2344 -856 2625 -561 
Q 2906 -266 2906 331 
L 2906 616 
Q 2728 306 2450 153 
Q 2172 0 1784 0 
Q 1141 0 747 490 
Q 353 981 353 1791 
Q 353 2603 747 3093 
Q 1141 3584 1784 3584 
Q 2172 3584 2450 3431 
Q 2728 3278 2906 2969 
L 2906 3500 
L 3481 3500 
L 3481 434 
z
" transform="scale(0.015625)"/>
       <path id="DejaVuSans-6e" d="M 3513 2113 
L 3513 0 
L 2938 0 
L 2938 2094 
Q 2938 2591 2744 2837 
Q 2550 3084 2163 3084 
Q 1697 3084 1428 2787 
Q 1159 2491 1159 1978 
L 1159 0 
L 581 0 
L 581 3500 
L 1159 3500 
L 1159 2956 
Q 1366 3272 1645 3428 
Q 1925 3584 2291 3584 
Q 2894 3584 3203 3211 
Q 3513 2838 3513 2113 
z
" transform="scale(0.015625)"/>
       <path id="DejaVuSans-63" d="M 3122 3366 
L 3122 2828 
Q 2878 2963 2633 3030 
Q 2388 3097 2138 3097 
Q 1578 3097 1268 2742 
Q 959 2388 959 1747 
Q 959 1106 1268 751 
Q 1578 397 2138 397 
Q 2388 397 2633 464 
Q 2878 531 3122 666 
L 3122 134 
Q 2881 22 2623 -34 
Q 2366 -91 2075 -91 
Q 1284 -91 818 406 
Q 353 903 353 1747 
Q 353 2603 823 3093 
Q 1294 3584 2113 3584 
Q 2378 3584 2631 3529 
Q 2884 3475 3122 3366 
z
" transform="scale(0.015625)"/>
      </defs>
      <use xlink:href="#DejaVuSans-53"/>
      <use xlink:href="#DejaVuSans-74" x="63.476562"/>
      <use xlink:href="#DejaVuSans-61" x="102.685547"/>
      <use xlink:href="#DejaVuSans-62" x="163.964844"/>
      <use xlink:href="#DejaVuSans-69" x="227.441406"/>
      <use xlink:href="#DejaVuSans-6c" x="255.224609"/>
      <use xlink:href="#DejaVuSans-69" x="283.007812"/>
      <use xlink:href="#DejaVuSans-74" x="310.791016"/>
      <use xlink:href="#DejaVuSans-79" x="350"/>
      <use xlink:href="#DejaVuSans-20" x="409.179688"/>
      <use xlink:href="#DejaVuSans-4d" x="440.966797"/>
      <use xlink:href="#DejaVuSans-61" x="527.246094"/>
      <use xlink:href="#DejaVuSans-72" x="588.525391"/>
      <use xlink:href="#DejaVuSans-67" x="627.888672"/>
      <use xlink:href="#DejaVuSans-69" x="691.365234"/>
      <use xlink:href="#DejaVuSans-6e" x="719.148438"/>
      <use xlink:href="#DejaVuSans-20" x="782.527344"/>
      <use xlink:href="#DejaVuSans-28" x="814.314453"/>
      <use xlink:href="#DejaVuSans-63" x="853.328125"/>
      <use xlink:href="#DejaVuSans-61" x="908.308594"/>
      <use xlink:href="#DejaVuSans-6c" x="969.587891"/>
      <use xlink:href="#DejaVuSans-69" x="997.371094"/>
      <use xlink:href="#DejaVuSans-62" x="1025.154297"/>
      <use xlink:href="#DejaVuSans-65" x="1088.630859"/>
      <use xlink:href="#DejaVuSans-72" x="1150.154297"/>
      <use xlink:href="#DejaVuSans-73" x="1191.267578"/>
      <use xlink:href="#DejaVuSans-29" x="1243.367188"/>
     </g>
    </g>
   </g>
   <g id="line2d_29">
    <path d="M 115.363636 250.11028 
L 115.885921 241.276967 
L 116.896793 230.282312 
L 117.570708 220.979142 
L 118.244623 210.83023 
L 121.44572 181.605121 
L 123.130508 163.092753 
L 123.804423 155.387098 
L 123.972901 155.387098 
L 124.478338 158.770068 
L 124.983774 161.213325 
L 125.48921 161.683182 
L 125.657689 161.777154 
L 125.994647 162.998782 
L 126.668562 165.53601 
L 127.342477 166.19381 
L 128.016392 166.475724 
L 128.858786 166.381753 
L 129.027265 166.19381 
L 129.364222 165.254096 
L 130.712052 159.615811 
L 131.217489 155.856955 
L 132.565319 145.144214 
L 133.576191 149.654842 
L 134.418585 152.098098 
L 134.924022 152.849869 
L 135.260979 152.755898 
L 135.597937 152.286041 
L 136.777288 149.466899 
L 138.125118 143.170814 
L 138.967512 140.2577 
L 139.135991 140.163729 
L 139.641427 143.264786 
L 140.146863 146.177899 
L 140.6523 147.305556 
L 140.955561 147.775413 
L 141.460998 148.90307 
L 141.797955 149.184984 
L 142.134913 148.715127 
L 142.808828 147.399528 
L 143.314264 146.177899 
L 143.988179 143.5467 
L 144.662094 140.069758 
L 145.336009 143.452728 
L 146.346882 145.989956 
L 146.852318 146.741728 
L 147.863191 146.647756 
L 148.874064 146.177899 
L 149.042542 146.177899 
L 149.716457 145.332157 
L 150.053415 144.674357 
L 150.390373 143.452728 
L 151.064288 140.2577 
L 151.401245 141.385357 
L 152.243639 144.298471 
L 152.749075 145.614071 
L 153.42299 148.339242 
L 153.759948 148.90307 
L 154.433863 148.809099 
L 154.770821 148.339242 
L 155.107778 147.681442 
L 155.444736 146.553785 
L 156.118651 143.5467 
L 156.792566 140.351672 
L 157.129523 141.5733 
L 157.971917 144.2045 
L 158.645832 147.211585 
L 159.319747 149.278956 
L 159.488226 149.56087 
L 159.825184 149.278956 
L 160.33062 148.433213 
L 162.015408 142.794929 
L 162.857802 142.2311 
L 163.194759 141.761243 
L 163.868674 140.727557 
L 164.542589 143.922585 
L 166.564334 147.117613 
L 167.069771 147.305556 
L 167.406728 147.211585 
L 167.743686 146.929671 
L 167.912165 146.741728 
L 168.417601 145.426128 
L 168.754558 144.580385 
L 169.091516 144.8623 
L 169.596952 145.050242 
L 169.93391 144.768328 
L 170.439346 144.110528 
L 171.28174 142.2311 
L 171.787176 140.633586 
L 172.124134 141.855214 
L 172.966528 143.264786 
L 174.145879 146.835699 
L 174.651315 148.057328 
L 175.32523 148.339242 
L 176.167624 147.775413 
L 176.336103 147.58747 
L 177.010018 147.493499 
L 177.178497 147.305556 
L 179.5372 140.727557 
L 180.716551 144.392443 
L 181.895902 146.177899 
L 182.23286 146.647756 
L 183.075254 149.184984 
L 183.58069 149.091013 
L 183.917648 148.90307 
L 185.096999 146.083928 
L 185.939393 144.016557 
L 186.444829 142.794929 
L 186.781787 141.103443 
L 186.950266 141.103443 
L 187.455702 143.264786 
L 188.466574 147.023642 
L 188.972011 149.091013 
L 189.477447 149.56087 
L 190.656798 150.312641 
L 190.993756 150.594556 
L 191.499192 150.594556 
L 191.83615 150.124699 
L 193.18398 148.057328 
L 193.689416 147.681442 
L 193.857895 147.493499 
L 194.026374 147.023642 
L 194.700289 141.385357 
L 194.868768 141.479329 
L 196.553555 146.741728 
L 197.22747 147.023642 
L 197.564428 147.117613 
L 198.238343 147.493499 
L 198.912258 149.56087 
L 199.080737 149.842784 
L 199.923131 148.433213 
L 200.597046 149.091013 
L 200.765525 148.997042 
L 201.776397 144.768328 
L 203.124227 141.009472 
L 203.292706 141.385357 
L 203.966621 141.103443 
L 204.1351 141.103443 
L 204.640536 141.5733 
L 204.977494 141.855214 
L 205.819888 144.392443 
L 206.662282 148.433213 
L 208.347069 150.21867 
L 208.684027 149.936756 
L 210.031857 148.339242 
L 211.716645 141.667272 
L 212.222081 141.5733 
L 212.727517 141.291386 
L 213.401432 144.110528 
L 214.243826 145.802014 
L 214.749263 145.144214 
L 215.08622 144.580385 
L 215.423178 144.486414 
L 215.760135 144.298471 
L 215.928614 144.392443 
L 216.771008 147.493499 
L 218.455795 141.855214 
L 219.298189 143.640671 
L 219.972104 141.291386 
L 220.140583 141.197415 
L 220.309062 141.291386 
L 221.825371 144.486414 
L 223.004722 141.009472 
L 223.510159 142.606986 
L 224.184074 141.291386 
L 224.352552 141.197415 
L 225.194946 144.956271 
L 226.374298 141.385357 
L 226.879734 143.358757 
L 227.722128 148.527185 
L 229.406915 144.8623 
L 231.091703 154.165469 
L 231.765618 153.413698 
L 231.934097 153.037812 
L 232.94497 148.90307 
L 233.618885 148.24527 
L 234.461279 148.809099 
L 235.64063 153.131784 
L 236.146066 155.57504 
L 236.98846 155.199155 
L 237.662375 155.669012 
L 238.33629 156.514755 
L 238.673248 156.89064 
L 239.347163 156.138869 
L 239.515642 156.138869 
L 240.358036 159.709782 
L 241.200429 161.213325 
L 242.042823 164.502324 
L 242.716738 165.254096 
L 242.885217 165.160124 
L 243.727611 159.145954 
L 244.233047 160.17964 
L 244.570005 161.119354 
L 245.412399 168.543095 
L 246.254792 167.133524 
L 246.928708 167.133524 
L 247.097186 167.321467 
L 247.93958 170.986352 
L 248.781974 164.596296 
L 249.792847 166.663667 
L 250.466762 167.50941 
L 251.140677 168.918981 
L 251.309156 169.012952 
L 252.151549 166.005867 
L 253.162422 169.106924 
L 254.510252 173.805494 
L 254.678731 174.651237 
L 255.521125 183.766464 
L 256.363519 187.901206 
L 257.205912 197.110404 
L 257.879828 197.48629 
L 258.048306 198.050118 
L 260.23853 227.181255 
L 260.743967 231.691883 
L 261.58636 236.954282 
L 263.271148 248.606737 
L 264.113542 258.661678 
L 264.955936 269.562362 
L 265.629851 275.106675 
L 268.157032 308.936383 
L 269.167905 320.776781 
L 270.178778 334.966464 
L 271.526608 350.283804 
L 273.042917 363.721715 
L 273.716832 368.326314 
L 273.885311 369.36 
L 274.053789 170.23458 
L 276.580971 162.153039 
L 277.423365 161.119354 
L 279.108153 155.57504 
L 279.950546 148.621156 
L 280.287504 148.90307 
L 280.79294 149.56087 
L 281.466855 148.621156 
L 281.635334 148.621156 
L 282.477728 153.507669 
L 283.320122 153.507669 
L 283.825558 153.037812 
L 283.994037 152.943841 
L 284.162516 153.037812 
L 285.004909 156.23284 
L 285.847303 159.615811 
L 287.026655 166.945581 
L 287.70057 169.952666 
L 288.374485 172.583866 
L 289.216879 181.323207 
L 290.059273 184.894121 
L 291.912539 195.794804 
L 293.428848 202.090889 
L 294.271242 205.004002 
L 298.314732 229.342598 
L 299.157126 232.631597 
L 299.494084 233.571311 
L 300.167999 234.980883 
L 301.178871 240.14931 
L 301.684308 241.370938 
L 301.852786 241.934767 
L 302.69518 248.13688 
L 303.537574 250.392194 
L 304.04301 250.580137 
L 305.053883 250.674108 
L 305.222362 250.76808 
L 306.064756 254.620907 
L 306.738671 255.936507 
L 306.907149 256.030479 
L 308.086501 252.365594 
L 308.591937 251.143965 
L 309.097373 249.45248 
L 310.613682 237.800025 
L 313.6463 210.548316 
L 314.825652 193.821405 
L 316.341961 176.060808 
L 317.352833 161.495239 
L 318.532185 146.741728 
L 319.037621 138.660186 
L 320.048494 122.966961 
L 320.55393 116.764848 
L 321.90176 102.95105 
L 322.912633 93.084052 
L 324.260463 84.062797 
L 324.765899 80.397912 
L 325.608293 73.913884 
L 326.282208 70.342971 
L 326.787644 71.000771 
L 326.956123 71.376656 
L 327.124602 71.470628 
L 327.798517 68.839428 
L 328.303953 67.6178 
L 328.80939 66.96 
L 328.977868 67.147943 
L 329.988741 69.5912 
L 330.494177 71.188713 
L 332.178965 77.578769 
L 334.032231 93.647881 
L 335.211583 105.112393 
L 337.233328 122.497104 
L 338.075722 128.135388 
L 340.097467 147.117613 
L 340.771382 152.755898 
L 342.624649 163.656582 
L 343.298564 167.227495 
L 343.972479 169.294866 
L 345.320309 177.000522 
L 345.994224 179.819664 
L 347.005097 183.578521 
L 347.510533 185.270006 
L 348.521406 187.337377 
L 349.026842 188.089149 
L 349.532278 188.277091 
L 349.869236 188.277091 
L 350.71163 187.431349 
L 351.554023 187.807234 
L 351.890981 187.713263 
L 352.733375 187.149434 
L 353.238811 186.679577 
L 353.912726 187.995177 
L 354.081205 188.089149 
L 354.586641 186.773549 
L 355.429035 183.672492 
L 355.765993 182.262921 
L 356.439908 180.947321 
L 356.608386 180.571436 
L 357.45078 177.094493 
L 360.314919 161.589211 
L 360.820356 159.803754 
L 361.999707 153.695612 
L 362.673622 151.158384 
L 363.684495 147.399528 
L 364.863846 142.606986 
L 366.211676 138.472244 
L 366.885591 136.404873 
L 367.727985 132.739988 
L 368.738858 130.202759 
L 369.412773 128.88716 
L 370.929082 127.195674 
L 371.602997 128.041417 
L 371.771476 128.323331 
L 372.108433 128.417303 
L 372.61387 128.793188 
L 373.456263 132.552045 
L 373.9617 132.364102 
L 374.298657 132.458073 
L 375.814966 139.693872 
L 377.331275 147.681442 
L 377.836711 150.594556 
L 378.510627 153.131784 
L 381.037808 164.126439 
L 381.880202 166.663667 
L 382.722596 170.046638 
L 383.56499 170.89238 
L 384.407383 173.147694 
L 385.249777 174.087408 
L 386.092171 176.342722 
L 387.103044 177.376408 
L 387.440001 177.470379 
L 387.945438 177.658322 
L 388.619353 177.564351 
L 389.798704 175.778894 
L 390.472619 175.121094 
L 391.988928 174.275351 
L 393.505237 170.704438 
L 394.684588 167.227495 
L 395.526982 163.844525 
L 396.874812 160.649497 
L 397.21177 159.427868 
L 398.391121 154.635326 
L 399.738952 149.748813 
L 400.244388 148.715127 
L 400.412867 148.24527 
L 401.592218 142.8889 
L 402.097654 141.385357 
L 402.434612 141.291386 
L 402.771569 141.197415 
L 402.940048 141.197415 
L 404.1194 139.787843 
L 404.624836 139.130044 
L 405.46723 139.975786 
L 406.141145 139.317986 
L 406.309624 139.224015 
L 406.81506 139.881815 
L 407.320496 140.539615 
L 407.994411 141.197415 
L 408.836805 141.761243 
L 409.847678 143.828614 
L 410.521593 144.674357 
L 412.037902 148.715127 
L 412.711817 149.654842 
L 413.048774 150.124699 
L 414.059647 152.473984 
L 415.07052 155.481069 
L 416.081392 157.54844 
L 416.755307 158.582126 
L 417.092265 158.86404 
L 417.260744 159.145954 
L 418.440095 162.716868 
L 419.787925 165.911896 
L 420.630319 169.764723 
L 421.80967 172.20798 
L 422.315107 172.86578 
L 422.820543 172.395923 
L 423.325979 172.20798 
L 424.842288 172.959751 
L 426.02164 172.86578 
L 426.695555 172.395923 
L 427.874906 171.174295 
L 428.380342 170.986352 
L 428.885779 170.89238 
L 429.054257 170.798409 
L 429.896651 167.791324 
L 432.086875 162.716868 
L 432.592312 161.401268 
L 433.266227 160.17964 
L 434.277099 157.642411 
L 435.119493 155.950926 
L 435.793408 155.856955 
L 436.635802 153.131784 
L 437.646675 152.098098 
L 438.32059 151.628241 
L 439.331462 149.748813 
L 440.005377 147.681442 
L 441.01625 146.083928 
L 441.353208 145.802014 
L 442.532559 144.392443 
L 442.869517 143.922585 
L 443.206474 143.640671 
L 443.374953 143.452728 
L 443.880389 143.358757 
L 444.217347 143.264786 
L 445.733656 144.2045 
L 446.407571 145.520099 
L 446.744528 146.177899 
L 447.249965 146.271871 
L 448.597795 147.117613 
L 450.114104 150.312641 
L 450.451061 150.782498 
L 450.956497 151.722213 
L 451.96737 156.044897 
L 452.641285 157.360497 
L 453.3152 157.454469 
L 453.483679 157.54844 
L 454.494552 160.649497 
L 455.505424 162.247011 
L 455.842382 162.528925 
L 456.179339 163.186725 
L 456.853254 164.784239 
L 457.864127 166.005867 
L 458.538042 166.945581 
L 459.043478 166.569695 
L 459.211957 166.381753 
L 459.380436 166.381753 
L 460.22283 167.697352 
L 460.559787 167.979267 
L 461.065224 168.449124 
L 461.907617 168.543095 
L 463.423926 169.294866 
L 463.592405 169.294866 
L 464.097841 168.637067 
L 464.434799 168.167209 
L 464.940235 168.355152 
L 465.277193 168.355152 
L 466.119587 167.415438 
L 466.793502 165.817924 
L 466.961981 165.53601 
L 467.804374 166.945581 
L 468.309811 165.911896 
L 468.815247 164.972181 
L 469.320683 164.314382 
L 469.82612 163.656582 
L 470.331556 163.092753 
L 471.17395 160.931411 
L 472.353301 158.770068 
L 473.195695 156.702697 
L 476.396792 148.057328 
L 477.913101 146.365842 
L 478.755494 146.835699 
L 479.260931 146.177899 
L 480.103325 144.956271 
L 480.440282 144.580385 
L 481.282676 145.802014 
L 481.788112 145.895985 
L 483.4729 146.929671 
L 484.146815 147.58747 
L 485.663124 148.527185 
L 487.179433 151.158384 
L 488.021827 153.601641 
L 489.032699 155.481069 
L 489.706614 156.89064 
L 490.885966 158.112268 
L 491.391402 158.488154 
L 492.570754 161.307296 
L 493.07619 162.716868 
L 493.750105 163.374667 
L 494.087062 163.280696 
L 494.592499 162.90481 
L 494.760978 162.716868 
L 495.266414 162.622896 
L 495.434893 162.528925 
L 495.603371 162.622896 
L 496.445765 164.032467 
L 497.11968 164.126439 
L 497.288159 164.22041 
L 498.46751 166.005867 
L 499.815341 165.911896 
L 500.657734 164.032467 
L 501.500128 163.56261 
L 501.837086 163.844525 
L 502.511001 164.126439 
L 503.184916 164.126439 
L 504.02731 162.340982 
L 505.038182 161.871125 
L 505.37514 161.965096 
L 505.712098 162.059068 
L 506.72297 160.837439 
L 507.565364 159.145954 
L 508.239279 158.488154 
L 509.250152 158.394183 
L 509.924067 157.454469 
L 510.766461 157.360497 
L 511.777333 155.199155 
L 512.619727 154.353412 
L 513.293642 154.353412 
L 513.6306 154.071498 
L 514.136036 153.695612 
L 514.97843 151.910155 
L 516.494739 151.158384 
L 516.663218 151.158384 
L 517.000175 151.628241 
L 517.505611 152.286041 
L 518.179527 151.440298 
L 518.348005 151.158384 
L 519.190399 148.527185 
L 520.032793 147.681442 
L 521.212144 147.117613 
L 522.391496 147.211585 
L 522.559975 147.305556 
L 523.23389 146.647756 
L 523.402368 146.647756 
L 524.413241 149.091013 
L 525.087156 150.87647 
L 525.92955 150.970441 
L 526.771944 153.789584 
L 527.445859 154.259441 
L 527.614338 154.447383 
L 527.951295 154.541355 
L 528.456731 154.917241 
L 529.467604 158.488154 
L 529.804562 158.958011 
L 530.141519 159.427868 
L 530.646955 159.615811 
L 531.826307 159.615811 
L 533.511095 162.247011 
L 534.353488 162.153039 
L 536.88067 166.19381 
L 537.386106 165.817924 
L 538.396979 164.784239 
L 538.565458 164.690267 
L 539.407851 166.381753 
L 540.418724 166.287781 
L 540.92416 165.817924 
L 541.261118 165.723953 
L 541.935033 165.723953 
L 542.945906 164.22041 
L 543.619821 163.750553 
L 544.630693 162.716868 
L 545.304608 162.340982 
L 546.147002 160.555525 
L 547.157875 159.333897 
L 547.83179 158.018297 
L 548.168747 157.736383 
L 548.674184 157.172554 
L 549.685056 155.105183 
L 550.695929 153.225755 
L 551.201365 152.19207 
L 552.043759 151.722213 
L 552.717674 150.782498 
L 552.886153 150.594556 
L 553.560068 150.87647 
L 553.728547 150.87647 
L 554.570941 148.809099 
L 555.244856 149.091013 
L 555.413335 149.091013 
L 556.255728 147.775413 
L 557.266601 148.997042 
L 557.940516 150.030727 
L 559.625304 149.184984 
L 560.13074 149.56087 
L 561.47857 150.970441 
L 562.152485 151.440298 
L 563.837273 153.225755 
L 564.679667 153.131784 
L 565.69054 155.011212 
L 566.364455 157.078583 
L 567.03837 157.172554 
L 567.206848 157.266526 
L 568.049242 159.051983 
L 568.723157 158.394183 
L 568.891636 158.394183 
L 570.576424 161.965096 
L 571.418818 162.059068 
L 572.261212 162.622896 
L 573.945999 164.408353 
L 574.788393 164.784239 
L 575.799266 164.314382 
L 576.64166 164.22041 
L 577.315575 163.750553 
L 578.157968 164.596296 
L 578.663405 163.938496 
L 579.000362 163.468639 
L 579.505799 163.374667 
L 580.011235 163.186725 
L 580.348192 163.092753 
L 581.696023 162.340982 
L 582.03298 162.434953 
L 582.369938 162.434953 
L 583.549289 159.427868 
L 584.054725 158.300211 
L 585.065598 157.830354 
L 585.571034 158.018297 
L 585.739513 158.018297 
L 586.581907 156.984612 
L 587.424301 154.823269 
L 588.266695 153.507669 
L 588.772131 153.131784 
L 589.109088 152.849869 
L 589.951482 153.695612 
L 591.467791 150.500584 
L 591.63627 150.312641 
L 592.478664 150.688527 
L 593.152579 150.030727 
L 593.826494 149.56087 
L 593.994973 149.372927 
L 594.163452 149.372927 
L 595.005845 150.312641 
L 595.848239 149.936756 
L 596.353676 150.030727 
L 596.690633 150.124699 
L 598.038463 150.030727 
L 598.375421 149.936756 
L 599.386293 150.406613 
L 600.060209 150.124699 
L 600.734124 150.970441 
L 602.081954 153.037812 
L 602.58739 153.695612 
L 603.429784 155.481069 
L 603.93522 155.856955 
L 605.114572 157.172554 
L 605.620008 158.112268 
L 605.956965 158.582126 
L 606.799359 158.20624 
L 607.473274 158.300211 
L 607.978711 158.676097 
L 609.326541 160.085668 
L 610.674371 159.991697 
L 610.84285 159.897725 
L 611.011329 159.991697 
L 611.853722 162.059068 
L 612.19068 161.965096 
L 612.696116 161.871125 
L 613.53851 163.092753 
L 613.875468 163.56261 
L 614.380904 164.314382 
L 615.054819 164.22041 
L 615.728734 163.938496 
L 616.065692 163.844525 
L 616.739607 163.374667 
L 618.087437 161.965096 
L 618.592873 161.683182 
L 619.435267 162.528925 
L 619.940703 162.340982 
L 621.120055 162.247011 
L 622.636364 160.649497 
L 622.636364 160.649497 
" clip-path="url(#p45682caa9b)" style="fill: none; stroke: #1f77b4; stroke-width: 1.5; stroke-linecap: square"/>
   </g>
   <g id="patch_3">
    <path d="M 90 384.48 
L 90 51.84 
" style="fill: none; stroke: #000000; stroke-width: 0.8; stroke-linejoin: miter; stroke-linecap: square"/>
   </g>
   <g id="patch_4">
    <path d="M 648 384.48 
L 648 51.84 
" style="fill: none; stroke: #000000; stroke-width: 0.8; stroke-linejoin: miter; stroke-linecap: square"/>
   </g>
   <g id="patch_5">
    <path d="M 90 384.48 
L 648 384.48 
" style="fill: none; stroke: #000000; stroke-width: 0.8; stroke-linejoin: miter; stroke-linecap: square"/>
   </g>
   <g id="patch_6">
    <path d="M 90 51.84 
L 648 51.84 
" style="fill: none; stroke: #000000; stroke-width: 0.8; stroke-linejoin: miter; stroke-linecap: square"/>
   </g>
   <g id="text_17">
    <!-- Stability Margin over Time -->
    <g transform="translate(290.173125 45.84) scale(0.12 -0.12)">
     <defs>
      <path id="DejaVuSans-6f" d="M 1959 3097 
Q 1497 3097 1228 2736 
Q 959 2375 959 1747 
Q 959 1119 1226 758 
Q 1494 397 1959 397 
Q 2419 397 2687 759 
Q 2956 1122 2956 1747 
Q 2956 2369 2687 2733 
Q 2419 3097 1959 3097 
z
M 1959 3584 
Q 2709 3584 3137 3096 
Q 3566 2609 3566 1747 
Q 3566 888 3137 398 
Q 2709 -91 1959 -91 
Q 1206 -91 779 398 
Q 353 888 353 1747 
Q 353 2609 779 3096 
Q 1206 3584 1959 3584 
z
" transform="scale(0.015625)"/>
      <path id="DejaVuSans-76" d="M 191 3500 
L 800 3500 
L 1894 563 
L 2988 3500 
L 3597 3500 
L 2284 0 
L 1503 0 
L 191 3500 
z
" transform="scale(0.015625)"/>
     </defs>
     <use xlink:href="#DejaVuSans-53"/>
     <use xlink:href="#DejaVuSans-74" x="63.476562"/>
     <use xlink:href="#DejaVuSans-61" x="102.685547"/>
     <use xlink:href="#DejaVuSans-62" x="163.964844"/>
     <use xlink:href="#DejaVuSans-69" x="227.441406"/>
     <use xlink:href="#DejaVuSans-6c" x="255.224609"/>
     <use xlink:href="#DejaVuSans-69" x="283.007812"/>
     <use xlink:href="#DejaVuSans-74" x="310.791016"/>
     <use xlink:href="#DejaVuSans-79" x="350"/>
     <use xlink:href="#DejaVuSans-20" x="409.179688"/>
     <use xlink:href="#DejaVuSans-4d" x="440.966797"/>
     <use xlink:href="#DejaVuSans-61" x="527.246094"/>
     <use xlink:href="#DejaVuSans-72" x="588.525391"/>
     <use xlink:href="#DejaVuSans-67" x="627.888672"/>
     <use xlink:href="#DejaVuSans-69" x="691.365234"/>
     <use xlink:href="#DejaVuSans-6e" x="719.148438"/>
     <use xlink:href="#DejaVuSans-20" x="782.527344"/>
     <use xlink:href="#DejaVuSans-6f" x="814.314453"/>
     <use xlink:href="#DejaVuSans-76" x="875.496094"/>
     <use xlink:href="#DejaVuSans-65" x="934.675781"/>
     <use xlink:href="#DejaVuSans-72" x="996.199219"/>
     <use xlink:href="#DejaVuSans-20" x="1037.3125"/>
     <use xlink:href="#DejaVuSans-54" x="1069.099609"/>
     <use xlink:href="#DejaVuSans-69" x="1127.058594"/>
     <use xlink:href="#DejaVuSans-6d" x="1154.841797"/>
     <use xlink:href="#DejaVuSans-65" x="1252.253906"/>
    </g>
   </g>
  </g>
 </g>
 <defs>
  <clipPath id="p45682caa9b">
   <rect x="90" y="51.84" width="558" height="332.64"/>
  </clipPath>
 </defs>
</svg>
