<?xml version="1.0" encoding="utf-8" standalone="no"?>
<!DOCTYPE svg PUBLIC "-//W3C//DTD SVG 1.1//EN"
  "http://www.w3.org/Graphics/SVG/1.1/DTD/svg11.dtd">
<svg xmlns:xlink="http://www.w3.org/1999/xlink" width="720pt" height="432pt" viewBox="0 0 720 432" xmlns="http://www.w3.org/2000/svg" version="1.1">
 <metadata>
  <rdf:RDF xmlns:dc="http://purl.org/dc/elements/1.1/" xmlns:cc="http://creativecommons.org/ns#" xmlns:rdf="http://www.w3.org/1999/02/22-rdf-syntax-ns#">
   <cc:Work>
    <dc:type rdf:resource="http://purl.org/dc/dcmitype/StillImage"/>
    <dc:date>2024-10-10T15:58:45.120481</dc:date>
    <dc:format>image/svg+xml</dc:format>
    <dc:creator>
     <cc:Agent>
      <dc:title>Matplotlib v3.9.2, https://matplotlib.org/</dc:title>
     </cc:Agent>
    </dc:creator>
   </cc:Work>
  </rdf:RDF>
 </metadata>
 <defs>
  <style type="text/css">*{stroke-linejoin: round; stroke-linecap: butt}</style>
 </defs>
 <g id="figure_1">
  <g id="patch_1">
   <path d="M 0 432 
L 720 432 
L 720 0 
L 0 0 
z
" style="fill: #ffffff"/>
  </g>
  <g id="axes_1">
   <g id="patch_2">
    <path d="M 90 384.48 
L 648 384.48 
L 648 51.84 
L 90 51.84 
z
" style="fill: #ffffff"/>
   </g>
   <g id="matplotlib.axis_1">
    <g id="xtick_1">
     <g id="line2d_1">
      <path d="M 115.330197 384.48 
L 115.330197 51.84 
" clip-path="url(#pcc97eb18f7)" style="fill: none; stroke: #b0b0b0; stroke-width: 0.8; stroke-linecap: square"/>
     </g>
     <g id="line2d_2">
      <defs>
       <path id="m3aa3678e71" d="M 0 0 
L 0 3.5 
" style="stroke: #000000; stroke-width: 0.8"/>
      </defs>
      <g>
       <use xlink:href="#m3aa3678e71" x="115.330197" y="384.48" style="stroke: #000000; stroke-width: 0.8"/>
      </g>
     </g>
     <g id="text_1">
      <!-- 0 -->
      <g transform="translate(112.148947 399.078438) scale(0.1 -0.1)">
       <defs>
        <path id="DejaVuSans-30" d="M 2034 4250 
Q 1547 4250 1301 3770 
Q 1056 3291 1056 2328 
Q 1056 1369 1301 889 
Q 1547 409 2034 409 
Q 2525 409 2770 889 
Q 3016 1369 3016 2328 
Q 3016 3291 2770 3770 
Q 2525 4250 2034 4250 
z
M 2034 4750 
Q 2819 4750 3233 4129 
Q 3647 3509 3647 2328 
Q 3647 1150 3233 529 
Q 2819 -91 2034 -91 
Q 1250 -91 836 529 
Q 422 1150 422 2328 
Q 422 3509 836 4129 
Q 1250 4750 2034 4750 
z
" transform="scale(0.015625)"/>
       </defs>
       <use xlink:href="#DejaVuSans-30"/>
      </g>
     </g>
    </g>
    <g id="xtick_2">
     <g id="line2d_3">
      <path d="M 198.928208 384.48 
L 198.928208 51.84 
" clip-path="url(#pcc97eb18f7)" style="fill: none; stroke: #b0b0b0; stroke-width: 0.8; stroke-linecap: square"/>
     </g>
     <g id="line2d_4">
      <g>
       <use xlink:href="#m3aa3678e71" x="198.928208" y="384.48" style="stroke: #000000; stroke-width: 0.8"/>
      </g>
     </g>
     <g id="text_2">
      <!-- 5 -->
      <g transform="translate(195.746958 399.078438) scale(0.1 -0.1)">
       <defs>
        <path id="DejaVuSans-35" d="M 691 4666 
L 3169 4666 
L 3169 4134 
L 1269 4134 
L 1269 2991 
Q 1406 3038 1543 3061 
Q 1681 3084 1819 3084 
Q 2600 3084 3056 2656 
Q 3513 2228 3513 1497 
Q 3513 744 3044 326 
Q 2575 -91 1722 -91 
Q 1428 -91 1123 -41 
Q 819 9 494 109 
L 494 744 
Q 775 591 1075 516 
Q 1375 441 1709 441 
Q 2250 441 2565 725 
Q 2881 1009 2881 1497 
Q 2881 1984 2565 2268 
Q 2250 2553 1709 2553 
Q 1456 2553 1204 2497 
Q 953 2441 691 2322 
L 691 4666 
z
" transform="scale(0.015625)"/>
       </defs>
       <use xlink:href="#DejaVuSans-35"/>
      </g>
     </g>
    </g>
    <g id="xtick_3">
     <g id="line2d_5">
      <path d="M 282.526218 384.48 
L 282.526218 51.84 
" clip-path="url(#pcc97eb18f7)" style="fill: none; stroke: #b0b0b0; stroke-width: 0.8; stroke-linecap: square"/>
     </g>
     <g id="line2d_6">
      <g>
       <use xlink:href="#m3aa3678e71" x="282.526218" y="384.48" style="stroke: #000000; stroke-width: 0.8"/>
      </g>
     </g>
     <g id="text_3">
      <!-- 10 -->
      <g transform="translate(276.163718 399.078438) scale(0.1 -0.1)">
       <defs>
        <path id="DejaVuSans-31" d="M 794 531 
L 1825 531 
L 1825 4091 
L 703 3866 
L 703 4441 
L 1819 4666 
L 2450 4666 
L 2450 531 
L 3481 531 
L 3481 0 
L 794 0 
L 794 531 
z
" transform="scale(0.015625)"/>
       </defs>
       <use xlink:href="#DejaVuSans-31"/>
       <use xlink:href="#DejaVuSans-30" x="63.623047"/>
      </g>
     </g>
    </g>
    <g id="xtick_4">
     <g id="line2d_7">
      <path d="M 366.124228 384.48 
L 366.124228 51.84 
" clip-path="url(#pcc97eb18f7)" style="fill: none; stroke: #b0b0b0; stroke-width: 0.8; stroke-linecap: square"/>
     </g>
     <g id="line2d_8">
      <g>
       <use xlink:href="#m3aa3678e71" x="366.124228" y="384.48" style="stroke: #000000; stroke-width: 0.8"/>
      </g>
     </g>
     <g id="text_4">
      <!-- 15 -->
      <g transform="translate(359.761728 399.078438) scale(0.1 -0.1)">
       <use xlink:href="#DejaVuSans-31"/>
       <use xlink:href="#DejaVuSans-35" x="63.623047"/>
      </g>
     </g>
    </g>
    <g id="xtick_5">
     <g id="line2d_9">
      <path d="M 449.722239 384.48 
L 449.722239 51.84 
" clip-path="url(#pcc97eb18f7)" style="fill: none; stroke: #b0b0b0; stroke-width: 0.8; stroke-linecap: square"/>
     </g>
     <g id="line2d_10">
      <g>
       <use xlink:href="#m3aa3678e71" x="449.722239" y="384.48" style="stroke: #000000; stroke-width: 0.8"/>
      </g>
     </g>
     <g id="text_5">
      <!-- 20 -->
      <g transform="translate(443.359739 399.078438) scale(0.1 -0.1)">
       <defs>
        <path id="DejaVuSans-32" d="M 1228 531 
L 3431 531 
L 3431 0 
L 469 0 
L 469 531 
Q 828 903 1448 1529 
Q 2069 2156 2228 2338 
Q 2531 2678 2651 2914 
Q 2772 3150 2772 3378 
Q 2772 3750 2511 3984 
Q 2250 4219 1831 4219 
Q 1534 4219 1204 4116 
Q 875 4013 500 3803 
L 500 4441 
Q 881 4594 1212 4672 
Q 1544 4750 1819 4750 
Q 2544 4750 2975 4387 
Q 3406 4025 3406 3419 
Q 3406 3131 3298 2873 
Q 3191 2616 2906 2266 
Q 2828 2175 2409 1742 
Q 1991 1309 1228 531 
z
" transform="scale(0.015625)"/>
       </defs>
       <use xlink:href="#DejaVuSans-32"/>
       <use xlink:href="#DejaVuSans-30" x="63.623047"/>
      </g>
     </g>
    </g>
    <g id="xtick_6">
     <g id="line2d_11">
      <path d="M 533.320249 384.48 
L 533.320249 51.84 
" clip-path="url(#pcc97eb18f7)" style="fill: none; stroke: #b0b0b0; stroke-width: 0.8; stroke-linecap: square"/>
     </g>
     <g id="line2d_12">
      <g>
       <use xlink:href="#m3aa3678e71" x="533.320249" y="384.48" style="stroke: #000000; stroke-width: 0.8"/>
      </g>
     </g>
     <g id="text_6">
      <!-- 25 -->
      <g transform="translate(526.957749 399.078438) scale(0.1 -0.1)">
       <use xlink:href="#DejaVuSans-32"/>
       <use xlink:href="#DejaVuSans-35" x="63.623047"/>
      </g>
     </g>
    </g>
    <g id="xtick_7">
     <g id="line2d_13">
      <path d="M 616.91826 384.48 
L 616.91826 51.84 
" clip-path="url(#pcc97eb18f7)" style="fill: none; stroke: #b0b0b0; stroke-width: 0.8; stroke-linecap: square"/>
     </g>
     <g id="line2d_14">
      <g>
       <use xlink:href="#m3aa3678e71" x="616.91826" y="384.48" style="stroke: #000000; stroke-width: 0.8"/>
      </g>
     </g>
     <g id="text_7">
      <!-- 30 -->
      <g transform="translate(610.55576 399.078438) scale(0.1 -0.1)">
       <defs>
        <path id="DejaVuSans-33" d="M 2597 2516 
Q 3050 2419 3304 2112 
Q 3559 1806 3559 1356 
Q 3559 666 3084 287 
Q 2609 -91 1734 -91 
Q 1441 -91 1130 -33 
Q 819 25 488 141 
L 488 750 
Q 750 597 1062 519 
Q 1375 441 1716 441 
Q 2309 441 2620 675 
Q 2931 909 2931 1356 
Q 2931 1769 2642 2001 
Q 2353 2234 1838 2234 
L 1294 2234 
L 1294 2753 
L 1863 2753 
Q 2328 2753 2575 2939 
Q 2822 3125 2822 3475 
Q 2822 3834 2567 4026 
Q 2313 4219 1838 4219 
Q 1578 4219 1281 4162 
Q 984 4106 628 3988 
L 628 4550 
Q 988 4650 1302 4700 
Q 1616 4750 1894 4750 
Q 2613 4750 3031 4423 
Q 3450 4097 3450 3541 
Q 3450 3153 3228 2886 
Q 3006 2619 2597 2516 
z
" transform="scale(0.015625)"/>
       </defs>
       <use xlink:href="#DejaVuSans-33"/>
       <use xlink:href="#DejaVuSans-30" x="63.623047"/>
      </g>
     </g>
    </g>
    <g id="text_8">
     <!-- Time (s) -->
     <g transform="translate(348.671094 412.756563) scale(0.1 -0.1)">
      <defs>
       <path id="DejaVuSans-54" d="M -19 4666 
L 3928 4666 
L 3928 4134 
L 2272 4134 
L 2272 0 
L 1638 0 
L 1638 4134 
L -19 4134 
L -19 4666 
z
" transform="scale(0.015625)"/>
       <path id="DejaVuSans-69" d="M 603 3500 
L 1178 3500 
L 1178 0 
L 603 0 
L 603 3500 
z
M 603 4863 
L 1178 4863 
L 1178 4134 
L 603 4134 
L 603 4863 
z
" transform="scale(0.015625)"/>
       <path id="DejaVuSans-6d" d="M 3328 2828 
Q 3544 3216 3844 3400 
Q 4144 3584 4550 3584 
Q 5097 3584 5394 3201 
Q 5691 2819 5691 2113 
L 5691 0 
L 5113 0 
L 5113 2094 
Q 5113 2597 4934 2840 
Q 4756 3084 4391 3084 
Q 3944 3084 3684 2787 
Q 3425 2491 3425 1978 
L 3425 0 
L 2847 0 
L 2847 2094 
Q 2847 2600 2669 2842 
Q 2491 3084 2119 3084 
Q 1678 3084 1418 2786 
Q 1159 2488 1159 1978 
L 1159 0 
L 581 0 
L 581 3500 
L 1159 3500 
L 1159 2956 
Q 1356 3278 1631 3431 
Q 1906 3584 2284 3584 
Q 2666 3584 2933 3390 
Q 3200 3197 3328 2828 
z
" transform="scale(0.015625)"/>
       <path id="DejaVuSans-65" d="M 3597 1894 
L 3597 1613 
L 953 1613 
Q 991 1019 1311 708 
Q 1631 397 2203 397 
Q 2534 397 2845 478 
Q 3156 559 3463 722 
L 3463 178 
Q 3153 47 2828 -22 
Q 2503 -91 2169 -91 
Q 1331 -91 842 396 
Q 353 884 353 1716 
Q 353 2575 817 3079 
Q 1281 3584 2069 3584 
Q 2775 3584 3186 3129 
Q 3597 2675 3597 1894 
z
M 3022 2063 
Q 3016 2534 2758 2815 
Q 2500 3097 2075 3097 
Q 1594 3097 1305 2825 
Q 1016 2553 972 2059 
L 3022 2063 
z
" transform="scale(0.015625)"/>
       <path id="DejaVuSans-20" transform="scale(0.015625)"/>
       <path id="DejaVuSans-28" d="M 1984 4856 
Q 1566 4138 1362 3434 
Q 1159 2731 1159 2009 
Q 1159 1288 1364 580 
Q 1569 -128 1984 -844 
L 1484 -844 
Q 1016 -109 783 600 
Q 550 1309 550 2009 
Q 550 2706 781 3412 
Q 1013 4119 1484 4856 
L 1984 4856 
z
" transform="scale(0.015625)"/>
       <path id="DejaVuSans-73" d="M 2834 3397 
L 2834 2853 
Q 2591 2978 2328 3040 
Q 2066 3103 1784 3103 
Q 1356 3103 1142 2972 
Q 928 2841 928 2578 
Q 928 2378 1081 2264 
Q 1234 2150 1697 2047 
L 1894 2003 
Q 2506 1872 2764 1633 
Q 3022 1394 3022 966 
Q 3022 478 2636 193 
Q 2250 -91 1575 -91 
Q 1294 -91 989 -36 
Q 684 19 347 128 
L 347 722 
Q 666 556 975 473 
Q 1284 391 1588 391 
Q 1994 391 2212 530 
Q 2431 669 2431 922 
Q 2431 1156 2273 1281 
Q 2116 1406 1581 1522 
L 1381 1569 
Q 847 1681 609 1914 
Q 372 2147 372 2553 
Q 372 3047 722 3315 
Q 1072 3584 1716 3584 
Q 2034 3584 2315 3537 
Q 2597 3491 2834 3397 
z
" transform="scale(0.015625)"/>
       <path id="DejaVuSans-29" d="M 513 4856 
L 1013 4856 
Q 1481 4119 1714 3412 
Q 1947 2706 1947 2009 
Q 1947 1309 1714 600 
Q 1481 -109 1013 -844 
L 513 -844 
Q 928 -128 1133 580 
Q 1338 1288 1338 2009 
Q 1338 2731 1133 3434 
Q 928 4138 513 4856 
z
" transform="scale(0.015625)"/>
      </defs>
      <use xlink:href="#DejaVuSans-54"/>
      <use xlink:href="#DejaVuSans-69" x="57.958984"/>
      <use xlink:href="#DejaVuSans-6d" x="85.742188"/>
      <use xlink:href="#DejaVuSans-65" x="183.154297"/>
      <use xlink:href="#DejaVuSans-20" x="244.677734"/>
      <use xlink:href="#DejaVuSans-28" x="276.464844"/>
      <use xlink:href="#DejaVuSans-73" x="315.478516"/>
      <use xlink:href="#DejaVuSans-29" x="367.578125"/>
     </g>
    </g>
   </g>
   <g id="matplotlib.axis_2">
    <g id="ytick_1">
     <g id="line2d_15">
      <path d="M 90 323.738522 
L 648 323.738522 
" clip-path="url(#pcc97eb18f7)" style="fill: none; stroke: #b0b0b0; stroke-width: 0.8; stroke-linecap: square"/>
     </g>
     <g id="line2d_16">
      <defs>
       <path id="meae5e2ef8e" d="M 0 0 
L -3.5 0 
" style="stroke: #000000; stroke-width: 0.8"/>
      </defs>
      <g>
       <use xlink:href="#meae5e2ef8e" x="90" y="323.738522" style="stroke: #000000; stroke-width: 0.8"/>
      </g>
     </g>
     <g id="text_9">
      <!-- 0 -->
      <g transform="translate(76.6375 327.537741) scale(0.1 -0.1)">
       <use xlink:href="#DejaVuSans-30"/>
      </g>
     </g>
    </g>
    <g id="ytick_2">
     <g id="line2d_17">
      <path d="M 90 250.502276 
L 648 250.502276 
" clip-path="url(#pcc97eb18f7)" style="fill: none; stroke: #b0b0b0; stroke-width: 0.8; stroke-linecap: square"/>
     </g>
     <g id="line2d_18">
      <g>
       <use xlink:href="#meae5e2ef8e" x="90" y="250.502276" style="stroke: #000000; stroke-width: 0.8"/>
      </g>
     </g>
     <g id="text_10">
      <!-- 2 -->
      <g transform="translate(76.6375 254.301495) scale(0.1 -0.1)">
       <use xlink:href="#DejaVuSans-32"/>
      </g>
     </g>
    </g>
    <g id="ytick_3">
     <g id="line2d_19">
      <path d="M 90 177.26603 
L 648 177.26603 
" clip-path="url(#pcc97eb18f7)" style="fill: none; stroke: #b0b0b0; stroke-width: 0.8; stroke-linecap: square"/>
     </g>
     <g id="line2d_20">
      <g>
       <use xlink:href="#meae5e2ef8e" x="90" y="177.26603" style="stroke: #000000; stroke-width: 0.8"/>
      </g>
     </g>
     <g id="text_11">
      <!-- 4 -->
      <g transform="translate(76.6375 181.065249) scale(0.1 -0.1)">
       <defs>
        <path id="DejaVuSans-34" d="M 2419 4116 
L 825 1625 
L 2419 1625 
L 2419 4116 
z
M 2253 4666 
L 3047 4666 
L 3047 1625 
L 3713 1625 
L 3713 1100 
L 3047 1100 
L 3047 0 
L 2419 0 
L 2419 1100 
L 313 1100 
L 313 1709 
L 2253 4666 
z
" transform="scale(0.015625)"/>
       </defs>
       <use xlink:href="#DejaVuSans-34"/>
      </g>
     </g>
    </g>
    <g id="ytick_4">
     <g id="line2d_21">
      <path d="M 90 104.029784 
L 648 104.029784 
" clip-path="url(#pcc97eb18f7)" style="fill: none; stroke: #b0b0b0; stroke-width: 0.8; stroke-linecap: square"/>
     </g>
     <g id="line2d_22">
      <g>
       <use xlink:href="#meae5e2ef8e" x="90" y="104.029784" style="stroke: #000000; stroke-width: 0.8"/>
      </g>
     </g>
     <g id="text_12">
      <!-- 6 -->
      <g transform="translate(76.6375 107.829003) scale(0.1 -0.1)">
       <defs>
        <path id="DejaVuSans-36" d="M 2113 2584 
Q 1688 2584 1439 2293 
Q 1191 2003 1191 1497 
Q 1191 994 1439 701 
Q 1688 409 2113 409 
Q 2538 409 2786 701 
Q 3034 994 3034 1497 
Q 3034 2003 2786 2293 
Q 2538 2584 2113 2584 
z
M 3366 4563 
L 3366 3988 
Q 3128 4100 2886 4159 
Q 2644 4219 2406 4219 
Q 1781 4219 1451 3797 
Q 1122 3375 1075 2522 
Q 1259 2794 1537 2939 
Q 1816 3084 2150 3084 
Q 2853 3084 3261 2657 
Q 3669 2231 3669 1497 
Q 3669 778 3244 343 
Q 2819 -91 2113 -91 
Q 1303 -91 875 529 
Q 447 1150 447 2328 
Q 447 3434 972 4092 
Q 1497 4750 2381 4750 
Q 2619 4750 2861 4703 
Q 3103 4656 3366 4563 
z
" transform="scale(0.015625)"/>
       </defs>
       <use xlink:href="#DejaVuSans-36"/>
      </g>
     </g>
    </g>
    <g id="text_13">
     <!-- Acceleration ($\it{g}$) -->
     <g transform="translate(70.5375 258.01) rotate(-90) scale(0.1 -0.1)">
      <defs>
       <path id="DejaVuSans-41" d="M 2188 4044 
L 1331 1722 
L 3047 1722 
L 2188 4044 
z
M 1831 4666 
L 2547 4666 
L 4325 0 
L 3669 0 
L 3244 1197 
L 1141 1197 
L 716 0 
L 50 0 
L 1831 4666 
z
" transform="scale(0.015625)"/>
       <path id="DejaVuSans-63" d="M 3122 3366 
L 3122 2828 
Q 2878 2963 2633 3030 
Q 2388 3097 2138 3097 
Q 1578 3097 1268 2742 
Q 959 2388 959 1747 
Q 959 1106 1268 751 
Q 1578 397 2138 397 
Q 2388 397 2633 464 
Q 2878 531 3122 666 
L 3122 134 
Q 2881 22 2623 -34 
Q 2366 -91 2075 -91 
Q 1284 -91 818 406 
Q 353 903 353 1747 
Q 353 2603 823 3093 
Q 1294 3584 2113 3584 
Q 2378 3584 2631 3529 
Q 2884 3475 3122 3366 
z
" transform="scale(0.015625)"/>
       <path id="DejaVuSans-6c" d="M 603 4863 
L 1178 4863 
L 1178 0 
L 603 0 
L 603 4863 
z
" transform="scale(0.015625)"/>
       <path id="DejaVuSans-72" d="M 2631 2963 
Q 2534 3019 2420 3045 
Q 2306 3072 2169 3072 
Q 1681 3072 1420 2755 
Q 1159 2438 1159 1844 
L 1159 0 
L 581 0 
L 581 3500 
L 1159 3500 
L 1159 2956 
Q 1341 3275 1631 3429 
Q 1922 3584 2338 3584 
Q 2397 3584 2469 3576 
Q 2541 3569 2628 3553 
L 2631 2963 
z
" transform="scale(0.015625)"/>
       <path id="DejaVuSans-61" d="M 2194 1759 
Q 1497 1759 1228 1600 
Q 959 1441 959 1056 
Q 959 750 1161 570 
Q 1363 391 1709 391 
Q 2188 391 2477 730 
Q 2766 1069 2766 1631 
L 2766 1759 
L 2194 1759 
z
M 3341 1997 
L 3341 0 
L 2766 0 
L 2766 531 
Q 2569 213 2275 61 
Q 1981 -91 1556 -91 
Q 1019 -91 701 211 
Q 384 513 384 1019 
Q 384 1609 779 1909 
Q 1175 2209 1959 2209 
L 2766 2209 
L 2766 2266 
Q 2766 2663 2505 2880 
Q 2244 3097 1772 3097 
Q 1472 3097 1187 3025 
Q 903 2953 641 2809 
L 641 3341 
Q 956 3463 1253 3523 
Q 1550 3584 1831 3584 
Q 2591 3584 2966 3190 
Q 3341 2797 3341 1997 
z
" transform="scale(0.015625)"/>
       <path id="DejaVuSans-74" d="M 1172 4494 
L 1172 3500 
L 2356 3500 
L 2356 3053 
L 1172 3053 
L 1172 1153 
Q 1172 725 1289 603 
Q 1406 481 1766 481 
L 2356 481 
L 2356 0 
L 1766 0 
Q 1100 0 847 248 
Q 594 497 594 1153 
L 594 3053 
L 172 3053 
L 172 3500 
L 594 3500 
L 594 4494 
L 1172 4494 
z
" transform="scale(0.015625)"/>
       <path id="DejaVuSans-6f" d="M 1959 3097 
Q 1497 3097 1228 2736 
Q 959 2375 959 1747 
Q 959 1119 1226 758 
Q 1494 397 1959 397 
Q 2419 397 2687 759 
Q 2956 1122 2956 1747 
Q 2956 2369 2687 2733 
Q 2419 3097 1959 3097 
z
M 1959 3584 
Q 2709 3584 3137 3096 
Q 3566 2609 3566 1747 
Q 3566 888 3137 398 
Q 2709 -91 1959 -91 
Q 1206 -91 779 398 
Q 353 888 353 1747 
Q 353 2609 779 3096 
Q 1206 3584 1959 3584 
z
" transform="scale(0.015625)"/>
       <path id="DejaVuSans-6e" d="M 3513 2113 
L 3513 0 
L 2938 0 
L 2938 2094 
Q 2938 2591 2744 2837 
Q 2550 3084 2163 3084 
Q 1697 3084 1428 2787 
Q 1159 2491 1159 1978 
L 1159 0 
L 581 0 
L 581 3500 
L 1159 3500 
L 1159 2956 
Q 1366 3272 1645 3428 
Q 1925 3584 2291 3584 
Q 2894 3584 3203 3211 
Q 3513 2838 3513 2113 
z
" transform="scale(0.015625)"/>
       <path id="DejaVuSans-Oblique-67" d="M 3816 3500 
L 3219 434 
Q 3047 -456 2561 -893 
Q 2075 -1331 1253 -1331 
Q 950 -1331 690 -1286 
Q 431 -1241 206 -1147 
L 313 -588 
Q 525 -725 762 -790 
Q 1000 -856 1269 -856 
Q 1816 -856 2167 -557 
Q 2519 -259 2631 300 
L 2681 563 
Q 2441 288 2122 144 
Q 1803 0 1434 0 
Q 903 0 598 351 
Q 294 703 294 1319 
Q 294 1803 478 2267 
Q 663 2731 997 3091 
Q 1219 3328 1514 3456 
Q 1809 3584 2131 3584 
Q 2484 3584 2746 3420 
Q 3009 3256 3138 2956 
L 3238 3500 
L 3816 3500 
z
M 2950 2216 
Q 2950 2641 2750 2872 
Q 2550 3103 2181 3103 
Q 1953 3103 1747 3012 
Q 1541 2922 1394 2759 
Q 1156 2491 1023 2127 
Q 891 1763 891 1375 
Q 891 944 1092 712 
Q 1294 481 1672 481 
Q 2219 481 2584 976 
Q 2950 1472 2950 2216 
z
" transform="scale(0.015625)"/>
      </defs>
      <use xlink:href="#DejaVuSans-41" transform="translate(0 0.015625)"/>
      <use xlink:href="#DejaVuSans-63" transform="translate(68.408203 0.015625)"/>
      <use xlink:href="#DejaVuSans-63" transform="translate(123.388672 0.015625)"/>
      <use xlink:href="#DejaVuSans-65" transform="translate(178.369141 0.015625)"/>
      <use xlink:href="#DejaVuSans-6c" transform="translate(239.892578 0.015625)"/>
      <use xlink:href="#DejaVuSans-65" transform="translate(267.675781 0.015625)"/>
      <use xlink:href="#DejaVuSans-72" transform="translate(329.199219 0.015625)"/>
      <use xlink:href="#DejaVuSans-61" transform="translate(370.3125 0.015625)"/>
      <use xlink:href="#DejaVuSans-74" transform="translate(431.591797 0.015625)"/>
      <use xlink:href="#DejaVuSans-69" transform="translate(470.800781 0.015625)"/>
      <use xlink:href="#DejaVuSans-6f" transform="translate(498.583984 0.015625)"/>
      <use xlink:href="#DejaVuSans-6e" transform="translate(559.765625 0.015625)"/>
      <use xlink:href="#DejaVuSans-20" transform="translate(623.144531 0.015625)"/>
      <use xlink:href="#DejaVuSans-28" transform="translate(654.931641 0.015625)"/>
      <use xlink:href="#DejaVuSans-Oblique-67" transform="translate(693.945312 0.015625)"/>
      <use xlink:href="#DejaVuSans-29" transform="translate(757.421875 0.015625)"/>
     </g>
    </g>
   </g>
   <g id="line2d_23">
    <path d="M 115.363636 351.681771 
L 115.998981 67.340739 
L 117.102475 66.982396 
L 117.871577 72.85772 
L 118.640678 77.979032 
L 119.576976 82.570295 
L 120.747348 85.575146 
L 121.583328 85.560215 
L 121.91772 85.563948 
L 122.920897 86.295563 
L 123.255289 86.642708 
L 124.927249 89.072718 
L 125.596033 90.282124 
L 126.933601 94.391864 
L 129.274345 103.324297 
L 130.946306 112.603874 
L 134.457422 132.607597 
L 135.79499 140.37915 
L 137.968538 154.380636 
L 138.470126 158.176827 
L 138.637322 161.413108 
L 140.142087 227.990156 
L 142.482831 341.562328 
L 143.318811 361.786282 
L 143.653203 364.272283 
L 144.62294 369.36 
L 146.127704 369.124838 
L 150.976389 368.042345 
L 154.989093 367.61308 
L 157.998622 367.374185 
L 165.188051 366.202107 
L 168.699167 365.937083 
L 171.541499 365.642197 
L 178.062144 364.735142 
L 181.740457 364.432791 
L 189.59867 363.798226 
L 194.280158 363.275643 
L 199.128843 363.055412 
L 202.472763 362.879973 
L 212.838917 362.062505 
L 246.612513 360.662729 
L 262.830527 360.192405 
L 276.5406 359.51678 
L 276.707796 360.016966 
L 280.218913 359.91245 
L 284.733205 359.602633 
L 289.414694 358.770233 
L 291.421046 358.169263 
L 297.440103 355.496625 
L 299.279259 354.279754 
L 304.462336 350.345452 
L 305.799904 349.102451 
L 307.304668 348.064751 
L 307.973452 347.508574 
L 309.143825 346.500735 
L 309.645413 346.24691 
L 311.986157 345.466768 
L 313.156529 345.530225 
L 314.995685 345.873636 
L 316.500449 346.351426 
L 317.169234 346.672441 
L 319.00839 347.482445 
L 319.84437 347.88558 
L 321.349134 348.632127 
L 322.519506 349.266692 
L 323.18829 349.457061 
L 326.197819 350.039368 
L 328.538563 350.054298 
L 330.377719 349.434665 
L 331.380895 348.960607 
L 332.718463 347.986364 
L 334.390424 346.414883 
L 336.062384 344.048329 
L 338.73752 339.352549 
L 341.914245 332.939712 
L 343.251813 330.177489 
L 345.759753 325.787793 
L 346.762929 324.182717 
L 348.100497 322.241696 
L 349.772458 320.356665 
L 351.110026 319.330163 
L 352.113202 318.882235 
L 354.119554 318.382048 
L 356.125906 318.255135 
L 357.296279 318.691865 
L 359.971415 320.11777 
L 362.312159 321.763906 
L 363.482531 322.510452 
L 364.652903 323.152483 
L 367.996824 324.466405 
L 370.170372 324.817282 
L 371.50794 324.690369 
L 372.845508 324.287234 
L 374.350273 323.417507 
L 375.019057 322.842666 
L 375.855037 322.19317 
L 376.523821 321.599665 
L 378.864565 319.03901 
L 380.369329 317.396606 
L 382.375682 315.489179 
L 383.546054 314.593323 
L 384.883622 313.779587 
L 386.555582 313.148755 
L 388.060346 312.879998 
L 389.397915 312.921058 
L 390.735483 313.201013 
L 392.240247 313.734794 
L 393.912207 314.522401 
L 396.420147 316.037891 
L 399.931264 318.266334 
L 401.77042 319.251775 
L 403.609576 319.998322 
L 404.947144 320.296941 
L 406.619105 320.420121 
L 408.123869 320.293208 
L 409.963025 319.863944 
L 411.969377 319.132328 
L 415.64769 317.452597 
L 418.99161 316.06402 
L 420.997962 315.541438 
L 422.001139 315.451852 
L 425.010667 315.485447 
L 426.682627 315.843789 
L 429.023371 316.627663 
L 431.698508 317.818405 
L 439.891113 321.539941 
L 441.730269 321.972939 
L 443.736621 322.267825 
L 445.742974 322.305152 
L 447.916522 322.148377 
L 449.086894 321.92068 
L 457.446695 320.155097 
L 461.292204 319.983391 
L 464.134536 320.338001 
L 468.481632 321.390632 
L 469.317613 321.711647 
L 471.323965 322.35741 
L 473.664709 323.081561 
L 475.671061 323.592945 
L 480.018158 324.361889 
L 483.027686 324.388018 
L 485.702823 324.10433 
L 496.068976 322.364876 
L 497.239348 322.312617 
L 502.924013 322.54778 
L 507.939893 323.335387 
L 509.444658 323.607876 
L 511.618206 324.029675 
L 518.640439 324.716498 
L 520.479595 324.567189 
L 523.489123 324.261105 
L 525.161083 324.033408 
L 526.331456 323.835573 
L 527.334632 323.689996 
L 528.505004 323.428705 
L 529.675376 323.234603 
L 530.845748 323.059164 
L 533.186492 322.6299 
L 536.697609 322.420867 
L 540.710313 322.611236 
L 543.719842 322.977044 
L 549.738899 324.078201 
L 554.754779 324.656775 
L 556.761131 324.667973 
L 558.600288 324.697835 
L 562.612992 324.234976 
L 568.632049 323.327921 
L 569.802421 323.145017 
L 574.651106 322.921053 
L 577.82783 323.018104 
L 581.004554 323.402576 
L 591.537904 324.716498 
L 596.219392 324.716498 
L 598.894529 324.432811 
L 604.913585 323.514558 
L 611.099838 322.656029 
L 612.771798 322.622434 
L 618.790855 322.853864 
L 621.131599 323.219672 
L 622.636364 323.398843 
L 622.636364 323.398843 
" clip-path="url(#pcc97eb18f7)" style="fill: none; stroke: #1f77b4; stroke-width: 1.5; stroke-linecap: square"/>
   </g>
   <g id="line2d_24">
    <path d="M 115.363636 323.738522 
L 119.175706 323.738522 
L 119.309462 322.499254 
L 120.580152 322.35741 
L 121.248936 322.611236 
L 122.084916 323.39511 
L 122.419308 323.723591 
L 122.920897 323.137552 
L 123.924073 321.416761 
L 124.592857 320.03565 
L 125.596033 317.187573 
L 127.435189 310.830727 
L 128.939953 305.530244 
L 130.611913 300.998705 
L 131.447894 299.546671 
L 131.949482 298.975563 
L 132.618266 298.557497 
L 132.952658 298.606022 
L 133.454246 299.132338 
L 134.290226 300.547044 
L 134.791814 301.924423 
L 135.627794 305.156971 
L 137.132558 311.12188 
L 138.135734 314.305903 
L 140.309283 319.703436 
L 140.810871 320.315605 
L 141.312459 320.886713 
L 142.315635 322.6299 
L 142.984419 322.973311 
L 143.318811 322.805338 
L 143.820399 322.122248 
L 144.321987 321.999068 
L 144.62294 321.965473 
L 145.124528 321.640725 
L 145.45892 321.566071 
L 145.960508 321.819897 
L 147.298076 322.947182 
L 147.96686 323.630273 
L 148.970037 322.103584 
L 149.806017 321.487683 
L 150.474801 321.226392 
L 151.143585 321.267452 
L 152.481153 321.461554 
L 153.149937 321.648191 
L 153.818721 322.040128 
L 155.156289 323.592945 
L 155.323485 323.727324 
L 156.159465 323.100224 
L 156.661054 322.611236 
L 157.162642 322.181972 
L 157.831426 322.170774 
L 158.50021 322.420867 
L 159.001798 322.805338 
L 159.837778 323.723591 
L 160.673758 322.853864 
L 161.509738 322.279023 
L 162.512914 321.338374 
L 163.014502 321.069617 
L 163.683286 321.304779 
L 164.184874 321.648191 
L 165.522443 322.682158 
L 166.692815 322.906122 
L 167.194403 323.085293 
L 167.863187 323.727324 
L 168.197579 323.529489 
L 170.371127 322.958381 
L 171.207107 323.044233 
L 171.708695 323.256999 
L 172.210283 323.514558 
L 173.21346 323.451101 
L 174.551028 323.615342 
L 175.387008 323.126354 
L 175.888596 322.939717 
L 176.724576 322.633633 
L 178.062144 322.047593 
L 179.06532 322.06999 
L 180.904477 322.4246 
L 183.078025 323.417507 
L 183.746809 323.73718 
L 184.582789 323.507092 
L 186.087553 323.096492 
L 186.589141 322.980777 
L 187.425121 323.089026 
L 189.59867 323.675065 
L 190.100258 323.410041 
L 191.103434 322.932251 
L 191.939414 322.529116 
L 192.441002 322.35741 
L 194.781746 322.271557 
L 197.456883 322.891191 
L 198.292863 323.514558 
L 199.128843 323.70866 
L 200.132019 323.499627 
L 201.803979 323.368981 
L 202.472763 323.279396 
L 203.475939 323.372714 
L 204.144723 323.428705 
L 204.980704 323.731056 
L 206.81986 323.387645 
L 208.157428 323.35405 
L 211.166956 322.79414 
L 212.002936 322.831468 
L 213.674897 323.115155 
L 215.012465 323.417507 
L 216.015641 323.525756 
L 217.186013 323.734789 
L 221.365914 323.548153 
L 221.867502 323.566816 
L 222.703482 323.555618 
L 223.539462 323.525756 
L 225.211422 323.615342 
L 226.883382 323.477231 
L 229.056931 323.566816 
L 231.230479 323.327921 
L 232.735243 323.365249 
L 234.574399 323.174879 
L 238.252712 323.316723 
L 239.757476 323.242068 
L 242.599808 323.268197 
L 244.940553 323.159948 
L 246.278121 323.260732 
L 247.114101 323.301792 
L 248.117277 323.197275 
L 248.953257 323.223405 
L 255.306706 323.402576 
L 259.31941 323.294327 
L 264.000899 323.089026 
L 269.183976 322.980777 
L 276.5406 322.562711 
L 276.707796 323.301792 
L 279.550129 323.264465 
L 284.900402 322.924786 
L 290.752262 321.898284 
L 292.591418 321.342107 
L 296.938515 319.878875 
L 299.446455 318.703063 
L 304.796728 315.716876 
L 305.799904 315.030053 
L 308.642236 313.122626 
L 309.645413 312.443268 
L 311.150177 311.55861 
L 311.818961 311.256259 
L 314.159705 310.528375 
L 316.333253 310.009525 
L 317.169234 309.994594 
L 318.841194 309.819156 
L 319.84437 309.841552 
L 321.014742 309.834087 
L 322.519506 310.177498 
L 323.021094 310.147637 
L 324.02427 310.106576 
L 325.361839 310.058051 
L 327.368191 309.79676 
L 328.371367 309.695976 
L 328.705759 309.550399 
L 329.541739 309.106204 
L 330.879307 308.751594 
L 331.548091 308.40445 
L 334.724816 306.362644 
L 337.399952 303.977427 
L 338.904716 302.988252 
L 339.740696 302.566453 
L 341.245461 301.946819 
L 342.750225 301.450366 
L 344.422185 301.663132 
L 345.425361 301.887096 
L 346.595733 302.323826 
L 347.933301 302.805348 
L 354.955534 306.134947 
L 355.95871 306.370109 
L 357.296279 306.78071 
L 358.633847 307.064398 
L 362.312159 307.691497 
L 366.324864 307.978918 
L 370.337568 308.355924 
L 375.520645 309.154729 
L 380.536525 310.935243 
L 383.044466 312.290226 
L 386.388386 314.182722 
L 388.394738 315.138302 
L 390.568287 315.94084 
L 392.407443 316.399966 
L 394.580991 316.679921 
L 396.921735 316.784438 
L 406.451909 316.881489 
L 409.127045 317.280892 
L 411.467789 317.852 
L 414.142926 318.736658 
L 417.821238 320.244683 
L 422.669923 322.185705 
L 425.345059 322.921053 
L 427.351411 323.223405 
L 429.190568 323.327921 
L 431.865704 323.219672 
L 435.711212 322.771744 
L 440.894289 322.181972 
L 444.071013 322.06999 
L 446.578954 322.174506 
L 449.588482 322.54778 
L 453.935579 323.432438 
L 455.440343 323.693729 
L 459.620243 322.865062 
L 462.29538 322.54778 
L 465.137712 322.461927 
L 467.31126 322.562711 
L 469.819201 322.838933 
L 475.002277 323.645204 
L 475.838257 323.70866 
L 480.185354 323.238336 
L 483.69647 323.182345 
L 486.538803 323.350318 
L 489.381135 323.648936 
L 490.384311 323.697462 
L 497.072152 322.906122 
L 500.91766 322.756813 
L 503.425601 322.805338 
L 510.280638 323.372714 
L 514.126146 323.716126 
L 518.974831 323.391378 
L 522.987535 323.406309 
L 526.498652 323.6676 
L 527.501828 323.704927 
L 538.369569 322.596305 
L 540.710313 322.592573 
L 544.054234 322.771744 
L 549.070114 323.324188 
L 552.915623 323.737122 
L 557.262719 323.492162 
L 560.60664 323.518291 
L 565.455325 323.630273 
L 574.818302 322.902389 
L 578.496614 322.924786 
L 581.506143 323.100224 
L 585.351651 323.4623 
L 588.026787 323.73659 
L 595.04902 323.298059 
L 598.225745 323.327921 
L 603.074429 323.648936 
L 604.579193 323.682531 
L 614.610955 322.894924 
L 617.620483 322.868795 
L 621.800384 323.06663 
L 622.636364 323.126354 
L 622.636364 323.126354 
" clip-path="url(#pcc97eb18f7)" style="fill: none; stroke: #ff7f0e; stroke-width: 1.5; stroke-linecap: square"/>
   </g>
   <g id="patch_3">
    <path d="M 90 384.48 
L 90 51.84 
" style="fill: none; stroke: #000000; stroke-width: 0.8; stroke-linejoin: miter; stroke-linecap: square"/>
   </g>
   <g id="patch_4">
    <path d="M 648 384.48 
L 648 51.84 
" style="fill: none; stroke: #000000; stroke-width: 0.8; stroke-linejoin: miter; stroke-linecap: square"/>
   </g>
   <g id="patch_5">
    <path d="M 90 384.48 
L 648 384.48 
" style="fill: none; stroke: #000000; stroke-width: 0.8; stroke-linejoin: miter; stroke-linecap: square"/>
   </g>
   <g id="patch_6">
    <path d="M 90 51.84 
L 648 51.84 
" style="fill: none; stroke: #000000; stroke-width: 0.8; stroke-linejoin: miter; stroke-linecap: square"/>
   </g>
   <g id="text_14">
    <!-- Vertical and Lateral Acceleration over Time -->
    <g transform="translate(239.4975 45.84) scale(0.12 -0.12)">
     <defs>
      <path id="DejaVuSans-56" d="M 1831 0 
L 50 4666 
L 709 4666 
L 2188 738 
L 3669 4666 
L 4325 4666 
L 2547 0 
L 1831 0 
z
" transform="scale(0.015625)"/>
      <path id="DejaVuSans-64" d="M 2906 2969 
L 2906 4863 
L 3481 4863 
L 3481 0 
L 2906 0 
L 2906 525 
Q 2725 213 2448 61 
Q 2172 -91 1784 -91 
Q 1150 -91 751 415 
Q 353 922 353 1747 
Q 353 2572 751 3078 
Q 1150 3584 1784 3584 
Q 2172 3584 2448 3432 
Q 2725 3281 2906 2969 
z
M 947 1747 
Q 947 1113 1208 752 
Q 1469 391 1925 391 
Q 2381 391 2643 752 
Q 2906 1113 2906 1747 
Q 2906 2381 2643 2742 
Q 2381 3103 1925 3103 
Q 1469 3103 1208 2742 
Q 947 2381 947 1747 
z
" transform="scale(0.015625)"/>
      <path id="DejaVuSans-4c" d="M 628 4666 
L 1259 4666 
L 1259 531 
L 3531 531 
L 3531 0 
L 628 0 
L 628 4666 
z
" transform="scale(0.015625)"/>
      <path id="DejaVuSans-76" d="M 191 3500 
L 800 3500 
L 1894 563 
L 2988 3500 
L 3597 3500 
L 2284 0 
L 1503 0 
L 191 3500 
z
" transform="scale(0.015625)"/>
     </defs>
     <use xlink:href="#DejaVuSans-56"/>
     <use xlink:href="#DejaVuSans-65" x="60.658203"/>
     <use xlink:href="#DejaVuSans-72" x="122.181641"/>
     <use xlink:href="#DejaVuSans-74" x="163.294922"/>
     <use xlink:href="#DejaVuSans-69" x="202.503906"/>
     <use xlink:href="#DejaVuSans-63" x="230.287109"/>
     <use xlink:href="#DejaVuSans-61" x="285.267578"/>
     <use xlink:href="#DejaVuSans-6c" x="346.546875"/>
     <use xlink:href="#DejaVuSans-20" x="374.330078"/>
     <use xlink:href="#DejaVuSans-61" x="406.117188"/>
     <use xlink:href="#DejaVuSans-6e" x="467.396484"/>
     <use xlink:href="#DejaVuSans-64" x="530.775391"/>
     <use xlink:href="#DejaVuSans-20" x="594.251953"/>
     <use xlink:href="#DejaVuSans-4c" x="626.039062"/>
     <use xlink:href="#DejaVuSans-61" x="681.751953"/>
     <use xlink:href="#DejaVuSans-74" x="743.03125"/>
     <use xlink:href="#DejaVuSans-65" x="782.240234"/>
     <use xlink:href="#DejaVuSans-72" x="843.763672"/>
     <use xlink:href="#DejaVuSans-61" x="884.876953"/>
     <use xlink:href="#DejaVuSans-6c" x="946.15625"/>
     <use xlink:href="#DejaVuSans-20" x="973.939453"/>
     <use xlink:href="#DejaVuSans-41" x="1005.726562"/>
     <use xlink:href="#DejaVuSans-63" x="1072.384766"/>
     <use xlink:href="#DejaVuSans-63" x="1127.365234"/>
     <use xlink:href="#DejaVuSans-65" x="1182.345703"/>
     <use xlink:href="#DejaVuSans-6c" x="1243.869141"/>
     <use xlink:href="#DejaVuSans-65" x="1271.652344"/>
     <use xlink:href="#DejaVuSans-72" x="1333.175781"/>
     <use xlink:href="#DejaVuSans-61" x="1374.289062"/>
     <use xlink:href="#DejaVuSans-74" x="1435.568359"/>
     <use xlink:href="#DejaVuSans-69" x="1474.777344"/>
     <use xlink:href="#DejaVuSans-6f" x="1502.560547"/>
     <use xlink:href="#DejaVuSans-6e" x="1563.742188"/>
     <use xlink:href="#DejaVuSans-20" x="1627.121094"/>
     <use xlink:href="#DejaVuSans-6f" x="1658.908203"/>
     <use xlink:href="#DejaVuSans-76" x="1720.089844"/>
     <use xlink:href="#DejaVuSans-65" x="1779.269531"/>
     <use xlink:href="#DejaVuSans-72" x="1840.792969"/>
     <use xlink:href="#DejaVuSans-20" x="1881.90625"/>
     <use xlink:href="#DejaVuSans-54" x="1913.693359"/>
     <use xlink:href="#DejaVuSans-69" x="1971.652344"/>
     <use xlink:href="#DejaVuSans-6d" x="1999.435547"/>
     <use xlink:href="#DejaVuSans-65" x="2096.847656"/>
    </g>
   </g>
   <g id="legend_1">
    <g id="patch_7">
     <path d="M 506.248438 89.19625 
L 641 89.19625 
Q 643 89.19625 643 87.19625 
L 643 58.84 
Q 643 56.84 641 56.84 
L 506.248438 56.84 
Q 504.248438 56.84 504.248438 58.84 
L 504.248438 87.19625 
Q 504.248438 89.19625 506.248438 89.19625 
z
" style="fill: #ffffff; opacity: 0.8; stroke: #cccccc; stroke-linejoin: miter"/>
    </g>
    <g id="line2d_25">
     <path d="M 508.248438 64.938437 
L 518.248438 64.938437 
L 528.248438 64.938437 
" style="fill: none; stroke: #1f77b4; stroke-width: 1.5; stroke-linecap: square"/>
    </g>
    <g id="text_15">
     <!-- Vertical Acceleration -->
     <g transform="translate(536.248438 68.438437) scale(0.1 -0.1)">
      <use xlink:href="#DejaVuSans-56"/>
      <use xlink:href="#DejaVuSans-65" x="60.658203"/>
      <use xlink:href="#DejaVuSans-72" x="122.181641"/>
      <use xlink:href="#DejaVuSans-74" x="163.294922"/>
      <use xlink:href="#DejaVuSans-69" x="202.503906"/>
      <use xlink:href="#DejaVuSans-63" x="230.287109"/>
      <use xlink:href="#DejaVuSans-61" x="285.267578"/>
      <use xlink:href="#DejaVuSans-6c" x="346.546875"/>
      <use xlink:href="#DejaVuSans-20" x="374.330078"/>
      <use xlink:href="#DejaVuSans-41" x="406.117188"/>
      <use xlink:href="#DejaVuSans-63" x="472.775391"/>
      <use xlink:href="#DejaVuSans-63" x="527.755859"/>
      <use xlink:href="#DejaVuSans-65" x="582.736328"/>
      <use xlink:href="#DejaVuSans-6c" x="644.259766"/>
      <use xlink:href="#DejaVuSans-65" x="672.042969"/>
      <use xlink:href="#DejaVuSans-72" x="733.566406"/>
      <use xlink:href="#DejaVuSans-61" x="774.679688"/>
      <use xlink:href="#DejaVuSans-74" x="835.958984"/>
      <use xlink:href="#DejaVuSans-69" x="875.167969"/>
      <use xlink:href="#DejaVuSans-6f" x="902.951172"/>
      <use xlink:href="#DejaVuSans-6e" x="964.132812"/>
     </g>
    </g>
    <g id="line2d_26">
     <path d="M 508.248438 79.616562 
L 518.248438 79.616562 
L 528.248438 79.616562 
" style="fill: none; stroke: #ff7f0e; stroke-width: 1.5; stroke-linecap: square"/>
    </g>
    <g id="text_16">
     <!-- Lateral Acceleration -->
     <g transform="translate(536.248438 83.116562) scale(0.1 -0.1)">
      <use xlink:href="#DejaVuSans-4c"/>
      <use xlink:href="#DejaVuSans-61" x="55.712891"/>
      <use xlink:href="#DejaVuSans-74" x="116.992188"/>
      <use xlink:href="#DejaVuSans-65" x="156.201172"/>
      <use xlink:href="#DejaVuSans-72" x="217.724609"/>
      <use xlink:href="#DejaVuSans-61" x="258.837891"/>
      <use xlink:href="#DejaVuSans-6c" x="320.117188"/>
      <use xlink:href="#DejaVuSans-20" x="347.900391"/>
      <use xlink:href="#DejaVuSans-41" x="379.6875"/>
      <use xlink:href="#DejaVuSans-63" x="446.345703"/>
      <use xlink:href="#DejaVuSans-63" x="501.326172"/>
      <use xlink:href="#DejaVuSans-65" x="556.306641"/>
      <use xlink:href="#DejaVuSans-6c" x="617.830078"/>
      <use xlink:href="#DejaVuSans-65" x="645.613281"/>
      <use xlink:href="#DejaVuSans-72" x="707.136719"/>
      <use xlink:href="#DejaVuSans-61" x="748.25"/>
      <use xlink:href="#DejaVuSans-74" x="809.529297"/>
      <use xlink:href="#DejaVuSans-69" x="848.738281"/>
      <use xlink:href="#DejaVuSans-6f" x="876.521484"/>
      <use xlink:href="#DejaVuSans-6e" x="937.703125"/>
     </g>
    </g>
   </g>
  </g>
 </g>
 <defs>
  <clipPath id="pcc97eb18f7">
   <rect x="90" y="51.84" width="558" height="332.64"/>
  </clipPath>
 </defs>
</svg>
