<?xml version="1.0" encoding="utf-8" standalone="no"?>
<!DOCTYPE svg PUBLIC "-//W3C//DTD SVG 1.1//EN"
  "http://www.w3.org/Graphics/SVG/1.1/DTD/svg11.dtd">
<svg xmlns:xlink="http://www.w3.org/1999/xlink" width="635.45pt" height="406.751563pt" viewBox="0 0 635.45 406.751563" xmlns="http://www.w3.org/2000/svg" version="1.1">
 <metadata>
  <rdf:RDF xmlns:dc="http://purl.org/dc/elements/1.1/" xmlns:cc="http://creativecommons.org/ns#" xmlns:rdf="http://www.w3.org/1999/02/22-rdf-syntax-ns#">
   <cc:Work>
    <dc:type rdf:resource="http://purl.org/dc/dcmitype/StillImage"/>
    <dc:date>2024-11-12T12:31:31.054611</dc:date>
    <dc:format>image/svg+xml</dc:format>
    <dc:creator>
     <cc:Agent>
      <dc:title>Matplotlib v3.9.2, https://matplotlib.org/</dc:title>
     </cc:Agent>
    </dc:creator>
   </cc:Work>
  </rdf:RDF>
 </metadata>
 <defs>
  <style type="text/css">*{stroke-linejoin: round; stroke-linecap: butt}</style>
 </defs>
 <g id="figure_1">
  <g id="patch_1">
   <path d="M 0 406.751563 
L 635.45 406.751563 
L 635.45 0 
L 0 0 
z
" style="fill: #ffffff"/>
  </g>
  <g id="axes_1">
   <g id="patch_2">
    <path d="M 70.25 359.517188 
L 628.25 359.517188 
L 628.25 26.877187 
L 70.25 26.877187 
z
" style="fill: #ffffff"/>
   </g>
   <g id="matplotlib.axis_1">
    <g id="xtick_1">
     <g id="line2d_1">
      <path d="M 265.262631 359.517188 
L 265.262631 26.877187 
" clip-path="url(#p4a7989b954)" style="fill: none; stroke: #b0b0b0; stroke-width: 0.8; stroke-linecap: square"/>
     </g>
     <g id="line2d_2">
      <defs>
       <path id="m85f52628ec" d="M 0 0 
L 0 3.5 
" style="stroke: #000000; stroke-width: 0.8"/>
      </defs>
      <g>
       <use xlink:href="#m85f52628ec" x="265.262631" y="359.517188" style="stroke: #000000; stroke-width: 0.8"/>
      </g>
     </g>
     <g id="text_1">
      <!-- $\mathdefault{10^{2}}$ -->
      <g transform="translate(252.062631 377.914844) scale(0.15 -0.15)">
       <defs>
        <path id="DejaVuSans-31" d="M 794 531 
L 1825 531 
L 1825 4091 
L 703 3866 
L 703 4441 
L 1819 4666 
L 2450 4666 
L 2450 531 
L 3481 531 
L 3481 0 
L 794 0 
L 794 531 
z
" transform="scale(0.015625)"/>
        <path id="DejaVuSans-30" d="M 2034 4250 
Q 1547 4250 1301 3770 
Q 1056 3291 1056 2328 
Q 1056 1369 1301 889 
Q 1547 409 2034 409 
Q 2525 409 2770 889 
Q 3016 1369 3016 2328 
Q 3016 3291 2770 3770 
Q 2525 4250 2034 4250 
z
M 2034 4750 
Q 2819 4750 3233 4129 
Q 3647 3509 3647 2328 
Q 3647 1150 3233 529 
Q 2819 -91 2034 -91 
Q 1250 -91 836 529 
Q 422 1150 422 2328 
Q 422 3509 836 4129 
Q 1250 4750 2034 4750 
z
" transform="scale(0.015625)"/>
        <path id="DejaVuSans-32" d="M 1228 531 
L 3431 531 
L 3431 0 
L 469 0 
L 469 531 
Q 828 903 1448 1529 
Q 2069 2156 2228 2338 
Q 2531 2678 2651 2914 
Q 2772 3150 2772 3378 
Q 2772 3750 2511 3984 
Q 2250 4219 1831 4219 
Q 1534 4219 1204 4116 
Q 875 4013 500 3803 
L 500 4441 
Q 881 4594 1212 4672 
Q 1544 4750 1819 4750 
Q 2544 4750 2975 4387 
Q 3406 4025 3406 3419 
Q 3406 3131 3298 2873 
Q 3191 2616 2906 2266 
Q 2828 2175 2409 1742 
Q 1991 1309 1228 531 
z
" transform="scale(0.015625)"/>
       </defs>
       <use xlink:href="#DejaVuSans-31" transform="translate(0 0.765625)"/>
       <use xlink:href="#DejaVuSans-30" transform="translate(63.623047 0.765625)"/>
       <use xlink:href="#DejaVuSans-32" transform="translate(128.203125 39.046875) scale(0.7)"/>
      </g>
     </g>
    </g>
    <g id="xtick_2">
     <g id="line2d_3">
      <path d="M 544.262631 359.517188 
L 544.262631 26.877187 
" clip-path="url(#p4a7989b954)" style="fill: none; stroke: #b0b0b0; stroke-width: 0.8; stroke-linecap: square"/>
     </g>
     <g id="line2d_4">
      <g>
       <use xlink:href="#m85f52628ec" x="544.262631" y="359.517188" style="stroke: #000000; stroke-width: 0.8"/>
      </g>
     </g>
     <g id="text_2">
      <!-- $\mathdefault{10^{3}}$ -->
      <g transform="translate(531.062631 377.914844) scale(0.15 -0.15)">
       <defs>
        <path id="DejaVuSans-33" d="M 2597 2516 
Q 3050 2419 3304 2112 
Q 3559 1806 3559 1356 
Q 3559 666 3084 287 
Q 2609 -91 1734 -91 
Q 1441 -91 1130 -33 
Q 819 25 488 141 
L 488 750 
Q 750 597 1062 519 
Q 1375 441 1716 441 
Q 2309 441 2620 675 
Q 2931 909 2931 1356 
Q 2931 1769 2642 2001 
Q 2353 2234 1838 2234 
L 1294 2234 
L 1294 2753 
L 1863 2753 
Q 2328 2753 2575 2939 
Q 2822 3125 2822 3475 
Q 2822 3834 2567 4026 
Q 2313 4219 1838 4219 
Q 1578 4219 1281 4162 
Q 984 4106 628 3988 
L 628 4550 
Q 988 4650 1302 4700 
Q 1616 4750 1894 4750 
Q 2613 4750 3031 4423 
Q 3450 4097 3450 3541 
Q 3450 3153 3228 2886 
Q 3006 2619 2597 2516 
z
" transform="scale(0.015625)"/>
       </defs>
       <use xlink:href="#DejaVuSans-31" transform="translate(0 0.765625)"/>
       <use xlink:href="#DejaVuSans-30" transform="translate(63.623047 0.765625)"/>
       <use xlink:href="#DejaVuSans-33" transform="translate(128.203125 39.046875) scale(0.7)"/>
      </g>
     </g>
    </g>
    <g id="xtick_3">
     <g id="line2d_5">
      <path d="M 70.25 359.517188 
L 70.25 26.877187 
" clip-path="url(#p4a7989b954)" style="fill: none; stroke: #b0b0b0; stroke-width: 0.8; stroke-linecap: square"/>
     </g>
     <g id="line2d_6">
      <defs>
       <path id="m7af3f9fe52" d="M 0 0 
L 0 2 
" style="stroke: #000000; stroke-width: 0.6"/>
      </defs>
      <g>
       <use xlink:href="#m7af3f9fe52" x="70.25" y="359.517188" style="stroke: #000000; stroke-width: 0.6"/>
      </g>
     </g>
    </g>
    <g id="xtick_4">
     <g id="line2d_7">
      <path d="M 119.379461 359.517188 
L 119.379461 26.877187 
" clip-path="url(#p4a7989b954)" style="fill: none; stroke: #b0b0b0; stroke-width: 0.8; stroke-linecap: square"/>
     </g>
     <g id="line2d_8">
      <g>
       <use xlink:href="#m7af3f9fe52" x="119.379461" y="359.517188" style="stroke: #000000; stroke-width: 0.6"/>
      </g>
     </g>
    </g>
    <g id="xtick_5">
     <g id="line2d_9">
      <path d="M 154.237369 359.517188 
L 154.237369 26.877187 
" clip-path="url(#p4a7989b954)" style="fill: none; stroke: #b0b0b0; stroke-width: 0.8; stroke-linecap: square"/>
     </g>
     <g id="line2d_10">
      <g>
       <use xlink:href="#m7af3f9fe52" x="154.237369" y="359.517188" style="stroke: #000000; stroke-width: 0.6"/>
      </g>
     </g>
    </g>
    <g id="xtick_6">
     <g id="line2d_11">
      <path d="M 181.275262 359.517188 
L 181.275262 26.877187 
" clip-path="url(#p4a7989b954)" style="fill: none; stroke: #b0b0b0; stroke-width: 0.8; stroke-linecap: square"/>
     </g>
     <g id="line2d_12">
      <g>
       <use xlink:href="#m7af3f9fe52" x="181.275262" y="359.517188" style="stroke: #000000; stroke-width: 0.6"/>
      </g>
     </g>
    </g>
    <g id="xtick_7">
     <g id="line2d_13">
      <path d="M 203.36683 359.517188 
L 203.36683 26.877187 
" clip-path="url(#p4a7989b954)" style="fill: none; stroke: #b0b0b0; stroke-width: 0.8; stroke-linecap: square"/>
     </g>
     <g id="line2d_14">
      <g>
       <use xlink:href="#m7af3f9fe52" x="203.36683" y="359.517188" style="stroke: #000000; stroke-width: 0.6"/>
      </g>
     </g>
    </g>
    <g id="xtick_8">
     <g id="line2d_15">
      <path d="M 222.044984 359.517188 
L 222.044984 26.877187 
" clip-path="url(#p4a7989b954)" style="fill: none; stroke: #b0b0b0; stroke-width: 0.8; stroke-linecap: square"/>
     </g>
     <g id="line2d_16">
      <g>
       <use xlink:href="#m7af3f9fe52" x="222.044984" y="359.517188" style="stroke: #000000; stroke-width: 0.6"/>
      </g>
     </g>
    </g>
    <g id="xtick_9">
     <g id="line2d_17">
      <path d="M 238.224738 359.517188 
L 238.224738 26.877187 
" clip-path="url(#p4a7989b954)" style="fill: none; stroke: #b0b0b0; stroke-width: 0.8; stroke-linecap: square"/>
     </g>
     <g id="line2d_18">
      <g>
       <use xlink:href="#m7af3f9fe52" x="238.224738" y="359.517188" style="stroke: #000000; stroke-width: 0.6"/>
      </g>
     </g>
    </g>
    <g id="xtick_10">
     <g id="line2d_19">
      <path d="M 252.496291 359.517188 
L 252.496291 26.877187 
" clip-path="url(#p4a7989b954)" style="fill: none; stroke: #b0b0b0; stroke-width: 0.8; stroke-linecap: square"/>
     </g>
     <g id="line2d_20">
      <g>
       <use xlink:href="#m7af3f9fe52" x="252.496291" y="359.517188" style="stroke: #000000; stroke-width: 0.6"/>
      </g>
     </g>
    </g>
    <g id="xtick_11">
     <g id="line2d_21">
      <path d="M 349.25 359.517188 
L 349.25 26.877187 
" clip-path="url(#p4a7989b954)" style="fill: none; stroke: #b0b0b0; stroke-width: 0.8; stroke-linecap: square"/>
     </g>
     <g id="line2d_22">
      <g>
       <use xlink:href="#m7af3f9fe52" x="349.25" y="359.517188" style="stroke: #000000; stroke-width: 0.6"/>
      </g>
     </g>
    </g>
    <g id="xtick_12">
     <g id="line2d_23">
      <path d="M 398.379461 359.517188 
L 398.379461 26.877187 
" clip-path="url(#p4a7989b954)" style="fill: none; stroke: #b0b0b0; stroke-width: 0.8; stroke-linecap: square"/>
     </g>
     <g id="line2d_24">
      <g>
       <use xlink:href="#m7af3f9fe52" x="398.379461" y="359.517188" style="stroke: #000000; stroke-width: 0.6"/>
      </g>
     </g>
    </g>
    <g id="xtick_13">
     <g id="line2d_25">
      <path d="M 433.237369 359.517188 
L 433.237369 26.877187 
" clip-path="url(#p4a7989b954)" style="fill: none; stroke: #b0b0b0; stroke-width: 0.8; stroke-linecap: square"/>
     </g>
     <g id="line2d_26">
      <g>
       <use xlink:href="#m7af3f9fe52" x="433.237369" y="359.517188" style="stroke: #000000; stroke-width: 0.6"/>
      </g>
     </g>
    </g>
    <g id="xtick_14">
     <g id="line2d_27">
      <path d="M 460.275262 359.517188 
L 460.275262 26.877187 
" clip-path="url(#p4a7989b954)" style="fill: none; stroke: #b0b0b0; stroke-width: 0.8; stroke-linecap: square"/>
     </g>
     <g id="line2d_28">
      <g>
       <use xlink:href="#m7af3f9fe52" x="460.275262" y="359.517188" style="stroke: #000000; stroke-width: 0.6"/>
      </g>
     </g>
    </g>
    <g id="xtick_15">
     <g id="line2d_29">
      <path d="M 482.36683 359.517188 
L 482.36683 26.877187 
" clip-path="url(#p4a7989b954)" style="fill: none; stroke: #b0b0b0; stroke-width: 0.8; stroke-linecap: square"/>
     </g>
     <g id="line2d_30">
      <g>
       <use xlink:href="#m7af3f9fe52" x="482.36683" y="359.517188" style="stroke: #000000; stroke-width: 0.6"/>
      </g>
     </g>
    </g>
    <g id="xtick_16">
     <g id="line2d_31">
      <path d="M 501.044984 359.517188 
L 501.044984 26.877187 
" clip-path="url(#p4a7989b954)" style="fill: none; stroke: #b0b0b0; stroke-width: 0.8; stroke-linecap: square"/>
     </g>
     <g id="line2d_32">
      <g>
       <use xlink:href="#m7af3f9fe52" x="501.044984" y="359.517188" style="stroke: #000000; stroke-width: 0.6"/>
      </g>
     </g>
    </g>
    <g id="xtick_17">
     <g id="line2d_33">
      <path d="M 517.224738 359.517188 
L 517.224738 26.877187 
" clip-path="url(#p4a7989b954)" style="fill: none; stroke: #b0b0b0; stroke-width: 0.8; stroke-linecap: square"/>
     </g>
     <g id="line2d_34">
      <g>
       <use xlink:href="#m7af3f9fe52" x="517.224738" y="359.517188" style="stroke: #000000; stroke-width: 0.6"/>
      </g>
     </g>
    </g>
    <g id="xtick_18">
     <g id="line2d_35">
      <path d="M 531.496291 359.517188 
L 531.496291 26.877187 
" clip-path="url(#p4a7989b954)" style="fill: none; stroke: #b0b0b0; stroke-width: 0.8; stroke-linecap: square"/>
     </g>
     <g id="line2d_36">
      <g>
       <use xlink:href="#m7af3f9fe52" x="531.496291" y="359.517188" style="stroke: #000000; stroke-width: 0.6"/>
      </g>
     </g>
    </g>
    <g id="xtick_19">
     <g id="line2d_37">
      <path d="M 628.25 359.517188 
L 628.25 26.877187 
" clip-path="url(#p4a7989b954)" style="fill: none; stroke: #b0b0b0; stroke-width: 0.8; stroke-linecap: square"/>
     </g>
     <g id="line2d_38">
      <g>
       <use xlink:href="#m7af3f9fe52" x="628.25" y="359.517188" style="stroke: #000000; stroke-width: 0.6"/>
      </g>
     </g>
    </g>
    <g id="text_3">
     <!-- frequency [Hz] -->
     <g transform="translate(293.822656 396.432031) scale(0.15 -0.15)">
      <defs>
       <path id="DejaVuSans-66" d="M 2375 4863 
L 2375 4384 
L 1825 4384 
Q 1516 4384 1395 4259 
Q 1275 4134 1275 3809 
L 1275 3500 
L 2222 3500 
L 2222 3053 
L 1275 3053 
L 1275 0 
L 697 0 
L 697 3053 
L 147 3053 
L 147 3500 
L 697 3500 
L 697 3744 
Q 697 4328 969 4595 
Q 1241 4863 1831 4863 
L 2375 4863 
z
" transform="scale(0.015625)"/>
       <path id="DejaVuSans-72" d="M 2631 2963 
Q 2534 3019 2420 3045 
Q 2306 3072 2169 3072 
Q 1681 3072 1420 2755 
Q 1159 2438 1159 1844 
L 1159 0 
L 581 0 
L 581 3500 
L 1159 3500 
L 1159 2956 
Q 1341 3275 1631 3429 
Q 1922 3584 2338 3584 
Q 2397 3584 2469 3576 
Q 2541 3569 2628 3553 
L 2631 2963 
z
" transform="scale(0.015625)"/>
       <path id="DejaVuSans-65" d="M 3597 1894 
L 3597 1613 
L 953 1613 
Q 991 1019 1311 708 
Q 1631 397 2203 397 
Q 2534 397 2845 478 
Q 3156 559 3463 722 
L 3463 178 
Q 3153 47 2828 -22 
Q 2503 -91 2169 -91 
Q 1331 -91 842 396 
Q 353 884 353 1716 
Q 353 2575 817 3079 
Q 1281 3584 2069 3584 
Q 2775 3584 3186 3129 
Q 3597 2675 3597 1894 
z
M 3022 2063 
Q 3016 2534 2758 2815 
Q 2500 3097 2075 3097 
Q 1594 3097 1305 2825 
Q 1016 2553 972 2059 
L 3022 2063 
z
" transform="scale(0.015625)"/>
       <path id="DejaVuSans-71" d="M 947 1747 
Q 947 1113 1208 752 
Q 1469 391 1925 391 
Q 2381 391 2643 752 
Q 2906 1113 2906 1747 
Q 2906 2381 2643 2742 
Q 2381 3103 1925 3103 
Q 1469 3103 1208 2742 
Q 947 2381 947 1747 
z
M 2906 525 
Q 2725 213 2448 61 
Q 2172 -91 1784 -91 
Q 1150 -91 751 415 
Q 353 922 353 1747 
Q 353 2572 751 3078 
Q 1150 3584 1784 3584 
Q 2172 3584 2448 3432 
Q 2725 3281 2906 2969 
L 2906 3500 
L 3481 3500 
L 3481 -1331 
L 2906 -1331 
L 2906 525 
z
" transform="scale(0.015625)"/>
       <path id="DejaVuSans-75" d="M 544 1381 
L 544 3500 
L 1119 3500 
L 1119 1403 
Q 1119 906 1312 657 
Q 1506 409 1894 409 
Q 2359 409 2629 706 
Q 2900 1003 2900 1516 
L 2900 3500 
L 3475 3500 
L 3475 0 
L 2900 0 
L 2900 538 
Q 2691 219 2414 64 
Q 2138 -91 1772 -91 
Q 1169 -91 856 284 
Q 544 659 544 1381 
z
M 1991 3584 
L 1991 3584 
z
" transform="scale(0.015625)"/>
       <path id="DejaVuSans-6e" d="M 3513 2113 
L 3513 0 
L 2938 0 
L 2938 2094 
Q 2938 2591 2744 2837 
Q 2550 3084 2163 3084 
Q 1697 3084 1428 2787 
Q 1159 2491 1159 1978 
L 1159 0 
L 581 0 
L 581 3500 
L 1159 3500 
L 1159 2956 
Q 1366 3272 1645 3428 
Q 1925 3584 2291 3584 
Q 2894 3584 3203 3211 
Q 3513 2838 3513 2113 
z
" transform="scale(0.015625)"/>
       <path id="DejaVuSans-63" d="M 3122 3366 
L 3122 2828 
Q 2878 2963 2633 3030 
Q 2388 3097 2138 3097 
Q 1578 3097 1268 2742 
Q 959 2388 959 1747 
Q 959 1106 1268 751 
Q 1578 397 2138 397 
Q 2388 397 2633 464 
Q 2878 531 3122 666 
L 3122 134 
Q 2881 22 2623 -34 
Q 2366 -91 2075 -91 
Q 1284 -91 818 406 
Q 353 903 353 1747 
Q 353 2603 823 3093 
Q 1294 3584 2113 3584 
Q 2378 3584 2631 3529 
Q 2884 3475 3122 3366 
z
" transform="scale(0.015625)"/>
       <path id="DejaVuSans-79" d="M 2059 -325 
Q 1816 -950 1584 -1140 
Q 1353 -1331 966 -1331 
L 506 -1331 
L 506 -850 
L 844 -850 
Q 1081 -850 1212 -737 
Q 1344 -625 1503 -206 
L 1606 56 
L 191 3500 
L 800 3500 
L 1894 763 
L 2988 3500 
L 3597 3500 
L 2059 -325 
z
" transform="scale(0.015625)"/>
       <path id="DejaVuSans-20" transform="scale(0.015625)"/>
       <path id="DejaVuSans-5b" d="M 550 4863 
L 1875 4863 
L 1875 4416 
L 1125 4416 
L 1125 -397 
L 1875 -397 
L 1875 -844 
L 550 -844 
L 550 4863 
z
" transform="scale(0.015625)"/>
       <path id="DejaVuSans-48" d="M 628 4666 
L 1259 4666 
L 1259 2753 
L 3553 2753 
L 3553 4666 
L 4184 4666 
L 4184 0 
L 3553 0 
L 3553 2222 
L 1259 2222 
L 1259 0 
L 628 0 
L 628 4666 
z
" transform="scale(0.015625)"/>
       <path id="DejaVuSans-7a" d="M 353 3500 
L 3084 3500 
L 3084 2975 
L 922 459 
L 3084 459 
L 3084 0 
L 275 0 
L 275 525 
L 2438 3041 
L 353 3041 
L 353 3500 
z
" transform="scale(0.015625)"/>
       <path id="DejaVuSans-5d" d="M 1947 4863 
L 1947 -844 
L 622 -844 
L 622 -397 
L 1369 -397 
L 1369 4416 
L 622 4416 
L 622 4863 
L 1947 4863 
z
" transform="scale(0.015625)"/>
      </defs>
      <use xlink:href="#DejaVuSans-66"/>
      <use xlink:href="#DejaVuSans-72" x="35.205078"/>
      <use xlink:href="#DejaVuSans-65" x="74.068359"/>
      <use xlink:href="#DejaVuSans-71" x="135.591797"/>
      <use xlink:href="#DejaVuSans-75" x="199.068359"/>
      <use xlink:href="#DejaVuSans-65" x="262.447266"/>
      <use xlink:href="#DejaVuSans-6e" x="323.970703"/>
      <use xlink:href="#DejaVuSans-63" x="387.349609"/>
      <use xlink:href="#DejaVuSans-79" x="442.330078"/>
      <use xlink:href="#DejaVuSans-20" x="501.509766"/>
      <use xlink:href="#DejaVuSans-5b" x="533.296875"/>
      <use xlink:href="#DejaVuSans-48" x="572.310547"/>
      <use xlink:href="#DejaVuSans-7a" x="647.505859"/>
      <use xlink:href="#DejaVuSans-5d" x="699.996094"/>
     </g>
    </g>
   </g>
   <g id="matplotlib.axis_2">
    <g id="ytick_1">
     <g id="line2d_39">
      <path d="M 70.25 359.517188 
L 628.25 359.517188 
" clip-path="url(#p4a7989b954)" style="fill: none; stroke: #b0b0b0; stroke-width: 0.8; stroke-linecap: square"/>
     </g>
     <g id="line2d_40">
      <defs>
       <path id="me453e58664" d="M 0 0 
L -3.5 0 
" style="stroke: #000000; stroke-width: 0.8"/>
      </defs>
      <g>
       <use xlink:href="#me453e58664" x="70.25" y="359.517188" style="stroke: #000000; stroke-width: 0.8"/>
      </g>
     </g>
     <g id="text_4">
      <!-- $\mathdefault{10^{-8}}$ -->
      <g transform="translate(28 365.216016) scale(0.15 -0.15)">
       <defs>
        <path id="DejaVuSans-2212" d="M 678 2272 
L 4684 2272 
L 4684 1741 
L 678 1741 
L 678 2272 
z
" transform="scale(0.015625)"/>
        <path id="DejaVuSans-38" d="M 2034 2216 
Q 1584 2216 1326 1975 
Q 1069 1734 1069 1313 
Q 1069 891 1326 650 
Q 1584 409 2034 409 
Q 2484 409 2743 651 
Q 3003 894 3003 1313 
Q 3003 1734 2745 1975 
Q 2488 2216 2034 2216 
z
M 1403 2484 
Q 997 2584 770 2862 
Q 544 3141 544 3541 
Q 544 4100 942 4425 
Q 1341 4750 2034 4750 
Q 2731 4750 3128 4425 
Q 3525 4100 3525 3541 
Q 3525 3141 3298 2862 
Q 3072 2584 2669 2484 
Q 3125 2378 3379 2068 
Q 3634 1759 3634 1313 
Q 3634 634 3220 271 
Q 2806 -91 2034 -91 
Q 1263 -91 848 271 
Q 434 634 434 1313 
Q 434 1759 690 2068 
Q 947 2378 1403 2484 
z
M 1172 3481 
Q 1172 3119 1398 2916 
Q 1625 2713 2034 2713 
Q 2441 2713 2670 2916 
Q 2900 3119 2900 3481 
Q 2900 3844 2670 4047 
Q 2441 4250 2034 4250 
Q 1625 4250 1398 4047 
Q 1172 3844 1172 3481 
z
" transform="scale(0.015625)"/>
       </defs>
       <use xlink:href="#DejaVuSans-31" transform="translate(0 0.765625)"/>
       <use xlink:href="#DejaVuSans-30" transform="translate(63.623047 0.765625)"/>
       <use xlink:href="#DejaVuSans-2212" transform="translate(128.203125 39.046875) scale(0.7)"/>
       <use xlink:href="#DejaVuSans-38" transform="translate(186.855469 39.046875) scale(0.7)"/>
      </g>
     </g>
    </g>
    <g id="ytick_2">
     <g id="line2d_41">
      <path d="M 70.25 288.423429 
L 628.25 288.423429 
" clip-path="url(#p4a7989b954)" style="fill: none; stroke: #b0b0b0; stroke-width: 0.8; stroke-linecap: square"/>
     </g>
     <g id="line2d_42">
      <g>
       <use xlink:href="#me453e58664" x="70.25" y="288.423429" style="stroke: #000000; stroke-width: 0.8"/>
      </g>
     </g>
     <g id="text_5">
      <!-- $\mathdefault{10^{-6}}$ -->
      <g transform="translate(28 294.122257) scale(0.15 -0.15)">
       <defs>
        <path id="DejaVuSans-36" d="M 2113 2584 
Q 1688 2584 1439 2293 
Q 1191 2003 1191 1497 
Q 1191 994 1439 701 
Q 1688 409 2113 409 
Q 2538 409 2786 701 
Q 3034 994 3034 1497 
Q 3034 2003 2786 2293 
Q 2538 2584 2113 2584 
z
M 3366 4563 
L 3366 3988 
Q 3128 4100 2886 4159 
Q 2644 4219 2406 4219 
Q 1781 4219 1451 3797 
Q 1122 3375 1075 2522 
Q 1259 2794 1537 2939 
Q 1816 3084 2150 3084 
Q 2853 3084 3261 2657 
Q 3669 2231 3669 1497 
Q 3669 778 3244 343 
Q 2819 -91 2113 -91 
Q 1303 -91 875 529 
Q 447 1150 447 2328 
Q 447 3434 972 4092 
Q 1497 4750 2381 4750 
Q 2619 4750 2861 4703 
Q 3103 4656 3366 4563 
z
" transform="scale(0.015625)"/>
       </defs>
       <use xlink:href="#DejaVuSans-31" transform="translate(0 0.765625)"/>
       <use xlink:href="#DejaVuSans-30" transform="translate(63.623047 0.765625)"/>
       <use xlink:href="#DejaVuSans-2212" transform="translate(128.203125 39.046875) scale(0.7)"/>
       <use xlink:href="#DejaVuSans-36" transform="translate(186.855469 39.046875) scale(0.7)"/>
      </g>
     </g>
    </g>
    <g id="ytick_3">
     <g id="line2d_43">
      <path d="M 70.25 217.329671 
L 628.25 217.329671 
" clip-path="url(#p4a7989b954)" style="fill: none; stroke: #b0b0b0; stroke-width: 0.8; stroke-linecap: square"/>
     </g>
     <g id="line2d_44">
      <g>
       <use xlink:href="#me453e58664" x="70.25" y="217.329671" style="stroke: #000000; stroke-width: 0.8"/>
      </g>
     </g>
     <g id="text_6">
      <!-- $\mathdefault{10^{-4}}$ -->
      <g transform="translate(28 223.028499) scale(0.15 -0.15)">
       <defs>
        <path id="DejaVuSans-34" d="M 2419 4116 
L 825 1625 
L 2419 1625 
L 2419 4116 
z
M 2253 4666 
L 3047 4666 
L 3047 1625 
L 3713 1625 
L 3713 1100 
L 3047 1100 
L 3047 0 
L 2419 0 
L 2419 1100 
L 313 1100 
L 313 1709 
L 2253 4666 
z
" transform="scale(0.015625)"/>
       </defs>
       <use xlink:href="#DejaVuSans-31" transform="translate(0 0.684375)"/>
       <use xlink:href="#DejaVuSans-30" transform="translate(63.623047 0.684375)"/>
       <use xlink:href="#DejaVuSans-2212" transform="translate(128.203125 38.965625) scale(0.7)"/>
       <use xlink:href="#DejaVuSans-34" transform="translate(186.855469 38.965625) scale(0.7)"/>
      </g>
     </g>
    </g>
    <g id="ytick_4">
     <g id="line2d_45">
      <path d="M 70.25 146.235913 
L 628.25 146.235913 
" clip-path="url(#p4a7989b954)" style="fill: none; stroke: #b0b0b0; stroke-width: 0.8; stroke-linecap: square"/>
     </g>
     <g id="line2d_46">
      <g>
       <use xlink:href="#me453e58664" x="70.25" y="146.235913" style="stroke: #000000; stroke-width: 0.8"/>
      </g>
     </g>
     <g id="text_7">
      <!-- $\mathdefault{10^{-2}}$ -->
      <g transform="translate(28 151.934741) scale(0.15 -0.15)">
       <use xlink:href="#DejaVuSans-31" transform="translate(0 0.765625)"/>
       <use xlink:href="#DejaVuSans-30" transform="translate(63.623047 0.765625)"/>
       <use xlink:href="#DejaVuSans-2212" transform="translate(128.203125 39.046875) scale(0.7)"/>
       <use xlink:href="#DejaVuSans-32" transform="translate(186.855469 39.046875) scale(0.7)"/>
      </g>
     </g>
    </g>
    <g id="ytick_5">
     <g id="line2d_47">
      <path d="M 70.25 75.142155 
L 628.25 75.142155 
" clip-path="url(#p4a7989b954)" style="fill: none; stroke: #b0b0b0; stroke-width: 0.8; stroke-linecap: square"/>
     </g>
     <g id="line2d_48">
      <g>
       <use xlink:href="#me453e58664" x="70.25" y="75.142155" style="stroke: #000000; stroke-width: 0.8"/>
      </g>
     </g>
     <g id="text_8">
      <!-- $\mathdefault{10^{0}}$ -->
      <g transform="translate(36.85 80.840983) scale(0.15 -0.15)">
       <use xlink:href="#DejaVuSans-31" transform="translate(0 0.765625)"/>
       <use xlink:href="#DejaVuSans-30" transform="translate(63.623047 0.765625)"/>
       <use xlink:href="#DejaVuSans-30" transform="translate(128.203125 39.046875) scale(0.7)"/>
      </g>
     </g>
    </g>
    <g id="text_9">
     <!-- power spectral density [$g^2/Hz$] -->
     <g transform="translate(20.85 307.647188) rotate(-90) scale(0.15 -0.15)">
      <defs>
       <path id="DejaVuSans-70" d="M 1159 525 
L 1159 -1331 
L 581 -1331 
L 581 3500 
L 1159 3500 
L 1159 2969 
Q 1341 3281 1617 3432 
Q 1894 3584 2278 3584 
Q 2916 3584 3314 3078 
Q 3713 2572 3713 1747 
Q 3713 922 3314 415 
Q 2916 -91 2278 -91 
Q 1894 -91 1617 61 
Q 1341 213 1159 525 
z
M 3116 1747 
Q 3116 2381 2855 2742 
Q 2594 3103 2138 3103 
Q 1681 3103 1420 2742 
Q 1159 2381 1159 1747 
Q 1159 1113 1420 752 
Q 1681 391 2138 391 
Q 2594 391 2855 752 
Q 3116 1113 3116 1747 
z
" transform="scale(0.015625)"/>
       <path id="DejaVuSans-6f" d="M 1959 3097 
Q 1497 3097 1228 2736 
Q 959 2375 959 1747 
Q 959 1119 1226 758 
Q 1494 397 1959 397 
Q 2419 397 2687 759 
Q 2956 1122 2956 1747 
Q 2956 2369 2687 2733 
Q 2419 3097 1959 3097 
z
M 1959 3584 
Q 2709 3584 3137 3096 
Q 3566 2609 3566 1747 
Q 3566 888 3137 398 
Q 2709 -91 1959 -91 
Q 1206 -91 779 398 
Q 353 888 353 1747 
Q 353 2609 779 3096 
Q 1206 3584 1959 3584 
z
" transform="scale(0.015625)"/>
       <path id="DejaVuSans-77" d="M 269 3500 
L 844 3500 
L 1563 769 
L 2278 3500 
L 2956 3500 
L 3675 769 
L 4391 3500 
L 4966 3500 
L 4050 0 
L 3372 0 
L 2619 2869 
L 1863 0 
L 1184 0 
L 269 3500 
z
" transform="scale(0.015625)"/>
       <path id="DejaVuSans-73" d="M 2834 3397 
L 2834 2853 
Q 2591 2978 2328 3040 
Q 2066 3103 1784 3103 
Q 1356 3103 1142 2972 
Q 928 2841 928 2578 
Q 928 2378 1081 2264 
Q 1234 2150 1697 2047 
L 1894 2003 
Q 2506 1872 2764 1633 
Q 3022 1394 3022 966 
Q 3022 478 2636 193 
Q 2250 -91 1575 -91 
Q 1294 -91 989 -36 
Q 684 19 347 128 
L 347 722 
Q 666 556 975 473 
Q 1284 391 1588 391 
Q 1994 391 2212 530 
Q 2431 669 2431 922 
Q 2431 1156 2273 1281 
Q 2116 1406 1581 1522 
L 1381 1569 
Q 847 1681 609 1914 
Q 372 2147 372 2553 
Q 372 3047 722 3315 
Q 1072 3584 1716 3584 
Q 2034 3584 2315 3537 
Q 2597 3491 2834 3397 
z
" transform="scale(0.015625)"/>
       <path id="DejaVuSans-74" d="M 1172 4494 
L 1172 3500 
L 2356 3500 
L 2356 3053 
L 1172 3053 
L 1172 1153 
Q 1172 725 1289 603 
Q 1406 481 1766 481 
L 2356 481 
L 2356 0 
L 1766 0 
Q 1100 0 847 248 
Q 594 497 594 1153 
L 594 3053 
L 172 3053 
L 172 3500 
L 594 3500 
L 594 4494 
L 1172 4494 
z
" transform="scale(0.015625)"/>
       <path id="DejaVuSans-61" d="M 2194 1759 
Q 1497 1759 1228 1600 
Q 959 1441 959 1056 
Q 959 750 1161 570 
Q 1363 391 1709 391 
Q 2188 391 2477 730 
Q 2766 1069 2766 1631 
L 2766 1759 
L 2194 1759 
z
M 3341 1997 
L 3341 0 
L 2766 0 
L 2766 531 
Q 2569 213 2275 61 
Q 1981 -91 1556 -91 
Q 1019 -91 701 211 
Q 384 513 384 1019 
Q 384 1609 779 1909 
Q 1175 2209 1959 2209 
L 2766 2209 
L 2766 2266 
Q 2766 2663 2505 2880 
Q 2244 3097 1772 3097 
Q 1472 3097 1187 3025 
Q 903 2953 641 2809 
L 641 3341 
Q 956 3463 1253 3523 
Q 1550 3584 1831 3584 
Q 2591 3584 2966 3190 
Q 3341 2797 3341 1997 
z
" transform="scale(0.015625)"/>
       <path id="DejaVuSans-6c" d="M 603 4863 
L 1178 4863 
L 1178 0 
L 603 0 
L 603 4863 
z
" transform="scale(0.015625)"/>
       <path id="DejaVuSans-64" d="M 2906 2969 
L 2906 4863 
L 3481 4863 
L 3481 0 
L 2906 0 
L 2906 525 
Q 2725 213 2448 61 
Q 2172 -91 1784 -91 
Q 1150 -91 751 415 
Q 353 922 353 1747 
Q 353 2572 751 3078 
Q 1150 3584 1784 3584 
Q 2172 3584 2448 3432 
Q 2725 3281 2906 2969 
z
M 947 1747 
Q 947 1113 1208 752 
Q 1469 391 1925 391 
Q 2381 391 2643 752 
Q 2906 1113 2906 1747 
Q 2906 2381 2643 2742 
Q 2381 3103 1925 3103 
Q 1469 3103 1208 2742 
Q 947 2381 947 1747 
z
" transform="scale(0.015625)"/>
       <path id="DejaVuSans-69" d="M 603 3500 
L 1178 3500 
L 1178 0 
L 603 0 
L 603 3500 
z
M 603 4863 
L 1178 4863 
L 1178 4134 
L 603 4134 
L 603 4863 
z
" transform="scale(0.015625)"/>
       <path id="DejaVuSans-Oblique-67" d="M 3816 3500 
L 3219 434 
Q 3047 -456 2561 -893 
Q 2075 -1331 1253 -1331 
Q 950 -1331 690 -1286 
Q 431 -1241 206 -1147 
L 313 -588 
Q 525 -725 762 -790 
Q 1000 -856 1269 -856 
Q 1816 -856 2167 -557 
Q 2519 -259 2631 300 
L 2681 563 
Q 2441 288 2122 144 
Q 1803 0 1434 0 
Q 903 0 598 351 
Q 294 703 294 1319 
Q 294 1803 478 2267 
Q 663 2731 997 3091 
Q 1219 3328 1514 3456 
Q 1809 3584 2131 3584 
Q 2484 3584 2746 3420 
Q 3009 3256 3138 2956 
L 3238 3500 
L 3816 3500 
z
M 2950 2216 
Q 2950 2641 2750 2872 
Q 2550 3103 2181 3103 
Q 1953 3103 1747 3012 
Q 1541 2922 1394 2759 
Q 1156 2491 1023 2127 
Q 891 1763 891 1375 
Q 891 944 1092 712 
Q 1294 481 1672 481 
Q 2219 481 2584 976 
Q 2950 1472 2950 2216 
z
" transform="scale(0.015625)"/>
       <path id="DejaVuSans-2f" d="M 1625 4666 
L 2156 4666 
L 531 -594 
L 0 -594 
L 1625 4666 
z
" transform="scale(0.015625)"/>
       <path id="DejaVuSans-Oblique-48" d="M 1081 4666 
L 1716 4666 
L 1344 2753 
L 3634 2753 
L 4006 4666 
L 4641 4666 
L 3731 0 
L 3097 0 
L 3531 2222 
L 1241 2222 
L 806 0 
L 172 0 
L 1081 4666 
z
" transform="scale(0.015625)"/>
       <path id="DejaVuSans-Oblique-7a" d="M 744 3500 
L 3475 3500 
L 3372 2975 
L 738 459 
L 2913 459 
L 2822 0 
L -19 0 
L 84 525 
L 2719 3041 
L 653 3041 
L 744 3500 
z
" transform="scale(0.015625)"/>
      </defs>
      <use xlink:href="#DejaVuSans-70" transform="translate(0 0.765625)"/>
      <use xlink:href="#DejaVuSans-6f" transform="translate(63.476562 0.765625)"/>
      <use xlink:href="#DejaVuSans-77" transform="translate(124.658203 0.765625)"/>
      <use xlink:href="#DejaVuSans-65" transform="translate(206.445312 0.765625)"/>
      <use xlink:href="#DejaVuSans-72" transform="translate(267.96875 0.765625)"/>
      <use xlink:href="#DejaVuSans-20" transform="translate(309.082031 0.765625)"/>
      <use xlink:href="#DejaVuSans-73" transform="translate(340.869141 0.765625)"/>
      <use xlink:href="#DejaVuSans-70" transform="translate(392.96875 0.765625)"/>
      <use xlink:href="#DejaVuSans-65" transform="translate(456.445312 0.765625)"/>
      <use xlink:href="#DejaVuSans-63" transform="translate(517.96875 0.765625)"/>
      <use xlink:href="#DejaVuSans-74" transform="translate(572.949219 0.765625)"/>
      <use xlink:href="#DejaVuSans-72" transform="translate(612.158203 0.765625)"/>
      <use xlink:href="#DejaVuSans-61" transform="translate(653.271484 0.765625)"/>
      <use xlink:href="#DejaVuSans-6c" transform="translate(714.550781 0.765625)"/>
      <use xlink:href="#DejaVuSans-20" transform="translate(742.333984 0.765625)"/>
      <use xlink:href="#DejaVuSans-64" transform="translate(774.121094 0.765625)"/>
      <use xlink:href="#DejaVuSans-65" transform="translate(837.597656 0.765625)"/>
      <use xlink:href="#DejaVuSans-6e" transform="translate(899.121094 0.765625)"/>
      <use xlink:href="#DejaVuSans-73" transform="translate(962.5 0.765625)"/>
      <use xlink:href="#DejaVuSans-69" transform="translate(1014.599609 0.765625)"/>
      <use xlink:href="#DejaVuSans-74" transform="translate(1042.382812 0.765625)"/>
      <use xlink:href="#DejaVuSans-79" transform="translate(1081.591797 0.765625)"/>
      <use xlink:href="#DejaVuSans-20" transform="translate(1140.771484 0.765625)"/>
      <use xlink:href="#DejaVuSans-5b" transform="translate(1172.558594 0.765625)"/>
      <use xlink:href="#DejaVuSans-Oblique-67" transform="translate(1211.572266 0.765625)"/>
      <use xlink:href="#DejaVuSans-32" transform="translate(1279.698724 39.046875) scale(0.7)"/>
      <use xlink:href="#DejaVuSans-2f" transform="translate(1326.969232 0.765625)"/>
      <use xlink:href="#DejaVuSans-Oblique-48" transform="translate(1358.910638 0.765625)"/>
      <use xlink:href="#DejaVuSans-Oblique-7a" transform="translate(1434.105951 0.765625)"/>
      <use xlink:href="#DejaVuSans-5d" transform="translate(1486.596185 0.765625)"/>
     </g>
    </g>
   </g>
   <g id="line2d_49">
    <path d="M -1 173.859595 
L 35.392092 175.55085 
L 70.25 168.079817 
L 97.287894 166.454262 
L 119.379461 165.755024 
L 138.057616 165.629439 
L 154.237369 167.332027 
L 168.508923 166.172703 
L 181.275262 167.328541 
L 192.823822 169.353686 
L 203.36683 168.462339 
L 213.065458 164.721447 
L 222.044984 163.127851 
L 230.404724 160.437179 
L 238.224738 156.010083 
L 245.570511 153.166146 
L 252.496291 150.7163 
L 259.047517 148.147826 
L 265.262631 147.515047 
L 271.174446 144.069358 
L 276.81119 143.986239 
L 287.354199 137.317505 
L 292.300525 135.622582 
L 297.052827 134.418958 
L 301.625753 132.421221 
L 306.032353 130.804747 
L 310.284304 129.754932 
L 318.365175 125.418561 
L 322.212106 124.235807 
L 325.940652 124.206911 
L 329.55788 123.715812 
L 333.070247 120.965977 
L 336.48366 120.111425 
L 339.803543 119.577684 
L 343.034886 117.326521 
L 346.182288 117.399075 
L 349.25 115.033557 
L 352.241958 113.853817 
L 355.161814 113.256025 
L 358.012962 112.097188 
L 360.798559 110.128787 
L 363.521554 108.465417 
L 366.184697 107.853543 
L 368.790565 106.777208 
L 371.341568 105.135868 
L 373.839969 103.105138 
L 376.287894 103.346946 
L 378.687342 105.91037 
L 381.040195 103.846386 
L 383.34823 103.642176 
L 387.836453 104.09778 
L 390.019722 106.718091 
L 392.164347 104.833077 
L 394.271673 104.334407 
L 396.342974 102.339567 
L 398.379461 101.814586 
L 400.382286 102.861556 
L 402.352544 102.035704 
L 404.291276 102.587795 
L 406.199475 103.874004 
L 408.078089 103.898189 
L 409.92802 102.915463 
L 411.750132 101.432894 
L 413.545249 101.129691 
L 415.314159 103.916992 
L 417.057616 104.657278 
L 418.776342 103.541853 
L 420.471029 105.393413 
L 422.14234 106.222933 
L 423.790912 105.748361 
L 425.417355 104.825024 
L 427.022255 100.113911 
L 428.606175 99.753721 
L 430.169657 102.091726 
L 431.713221 105.030084 
L 433.237369 104.064592 
L 434.742583 105.481042 
L 436.229327 105.282551 
L 437.69805 104.781152 
L 439.149183 103.751505 
L 440.583143 104.961676 
L 442.00033 103.973692 
L 443.401134 103.94613 
L 444.785928 106.180645 
L 446.155074 105.064314 
L 447.508923 104.870892 
L 448.847811 105.131524 
L 450.172066 102.852202 
L 451.482005 102.258296 
L 452.777934 102.012703 
L 454.060148 104.139595 
L 455.328936 103.184393 
L 456.584576 101.506084 
L 457.827338 101.468876 
L 459.057482 100.01024 
L 460.275262 102.273428 
L 461.480926 102.045407 
L 462.67471 103.119392 
L 463.856848 102.324967 
L 465.027564 103.391231 
L 466.187077 102.342611 
L 467.335599 100.830027 
L 468.473336 99.810179 
L 469.60049 100.77853 
L 470.717255 102.156748 
L 471.823822 100.844219 
L 472.920374 100.112457 
L 474.007091 100.17584 
L 475.084148 100.08483 
L 476.151716 100.287397 
L 478.259041 102.553608 
L 479.299118 101.033543 
L 480.330342 101.042962 
L 481.352865 100.752307 
L 482.36683 98.951388 
L 483.372381 99.71067 
L 484.369655 101.208457 
L 485.358789 101.032959 
L 486.339913 101.59258 
L 487.313156 101.228162 
L 488.278645 102.275418 
L 489.236501 101.498884 
L 490.186844 101.228537 
L 492.065458 102.223932 
L 492.993954 100.052834 
L 493.915389 101.173669 
L 494.82987 100.599443 
L 495.737501 100.513031 
L 497.532618 99.687452 
L 499.301528 98.262471 
L 500.176392 99.674742 
L 501.044984 99.018523 
L 501.907395 98.057452 
L 502.763711 98.918025 
L 503.614017 100.325777 
L 504.458398 99.238137 
L 505.296935 97.919019 
L 506.129709 100.670093 
L 506.956799 101.775289 
L 507.778281 101.219758 
L 509.404724 98.647858 
L 510.209831 99.876167 
L 511.009623 102.822533 
L 511.804172 102.660018 
L 512.593544 97.60186 
L 513.377806 96.027141 
L 514.157025 96.692949 
L 514.931265 96.02446 
L 515.70059 97.343231 
L 516.46506 97.884027 
L 517.224738 98.267512 
L 517.979682 98.121856 
L 518.729951 96.16948 
L 519.475604 96.352946 
L 520.216696 98.038247 
L 520.953283 97.616072 
L 521.685419 97.040399 
L 522.413158 99.105072 
L 523.136552 99.208931 
L 523.855653 98.072607 
L 524.570511 96.577987 
L 525.281177 97.657539 
L 525.987699 96.403199 
L 526.690125 96.9971 
L 527.388503 97.198342 
L 528.773297 93.025298 
L 529.459804 94.925335 
L 530.142443 94.950652 
L 530.821258 93.739519 
L 531.496291 94.509096 
L 532.167585 94.450785 
L 532.83518 94.060974 
L 533.499116 94.85679 
L 534.816175 91.394078 
L 535.469374 88.146386 
L 536.119071 86.626909 
L 536.765302 88.299869 
L 537.408106 89.577505 
L 538.047517 90.125118 
L 538.683572 89.74334 
L 539.316305 88.981776 
L 539.945752 90.004113 
L 540.571945 92.153737 
L 541.194919 91.668217 
L 541.814706 94.058983 
L 542.43134 92.6332 
L 543.044851 91.775104 
L 543.655271 89.2072 
L 544.262631 89.125154 
L 544.866962 90.596697 
L 546.066657 89.598726 
L 546.662079 91.595493 
L 547.25459 91.157707 
L 548.430989 88.881297 
L 549.014933 89.349545 
L 549.596076 90.547665 
L 550.174446 89.896317 
L 550.750067 89.764491 
L 551.322968 89.488591 
L 551.893172 89.692894 
L 552.460705 90.629647 
L 553.025593 90.238606 
L 553.587859 89.175012 
L 554.147528 89.012088 
L 554.704624 89.904066 
L 555.81119 87.627503 
L 556.360707 87.216357 
L 557.452319 87.749339 
L 557.99446 87.481341 
L 558.534185 87.99556 
L 559.071517 87.140099 
L 559.606477 85.837101 
L 560.139085 86.943363 
L 560.669362 86.800812 
L 561.723005 88.627008 
L 562.24641 88.589802 
L 562.767564 88.126568 
L 563.286487 87.446621 
L 563.803196 87.518194 
L 564.317711 88.41735 
L 564.830051 87.030302 
L 565.340233 86.357284 
L 565.848277 86.989109 
L 566.354199 84.589784 
L 566.858017 88.500467 
L 567.35975 88.864723 
L 568.357024 86.639024 
L 568.8526 86.213594 
L 569.346157 87.796919 
L 569.837712 88.137651 
L 570.327281 85.009541 
L 570.81488 86.138191 
L 571.300525 86.921282 
L 571.784231 85.761312 
L 572.266013 86.74735 
L 572.745888 87.011346 
L 573.223869 85.814863 
L 573.699973 84.945169 
L 574.174213 85.52811 
L 574.646604 86.793129 
L 575.11716 87.071242 
L 575.585897 84.863984 
L 576.052827 86.386139 
L 576.517964 86.090154 
L 576.981323 84.615236 
L 577.442916 84.650648 
L 577.902758 84.378458 
L 578.360861 82.72161 
L 578.817239 82.987407 
L 579.271904 83.891143 
L 579.72487 83.220996 
L 580.176149 81.849789 
L 580.625753 81.788553 
L 581.073695 82.382192 
L 581.519987 82.21638 
L 581.964641 81.548673 
L 582.407669 82.197607 
L 583.288896 81.005944 
L 583.727118 81.619559 
L 584.16376 80.059848 
L 584.598835 82.362642 
L 585.032353 81.008598 
L 585.464326 82.170241 
L 585.894764 80.708488 
L 586.323678 81.224102 
L 587.176978 79.614547 
L 587.601386 80.591032 
L 588.445767 80.736518 
L 588.865761 77.431882 
L 589.284304 78.553587 
L 589.701406 80.785012 
L 590.117078 78.098101 
L 590.531328 79.483094 
L 590.944168 79.003052 
L 591.355605 78.171864 
L 591.76565 78.815331 
L 592.174312 76.253684 
L 592.5816 76.280757 
L 592.987524 77.274824 
L 593.795315 77.276896 
L 594.1972 76.775713 
L 594.597756 78.308007 
L 594.996992 78.458336 
L 595.394918 78.978617 
L 595.79154 78.368378 
L 596.580912 81.36542 
L 596.973678 83.796917 
L 597.365175 80.098528 
L 597.755411 74.417377 
L 598.144394 71.168458 
L 598.532133 70.967933 
L 598.918634 72.33884 
L 599.303907 71.996918 
L 599.687958 72.970396 
L 600.070797 73.270841 
L 600.452429 73.097069 
L 600.832863 73.459524 
L 601.212106 73.42737 
L 601.590166 73.775049 
L 601.967051 74.48221 
L 602.342766 74.232056 
L 602.71732 74.124007 
L 603.09072 75.093748 
L 603.462973 75.43856 
L 603.834085 73.870396 
L 604.204065 73.126954 
L 604.572918 73.739342 
L 605.672788 72.006113 
L 606.037204 72.26253 
L 606.400527 71.436093 
L 606.762764 71.589866 
L 607.123921 72.461346 
L 607.484005 70.317602 
L 607.843022 71.052156 
L 608.55788 68.89427 
L 609.268546 67.516859 
L 609.622322 68.719094 
L 609.975068 71.333943 
L 610.32679 71.598814 
L 610.677494 70.047183 
L 611.027186 69.073513 
L 611.375871 69.615239 
L 611.723557 67.334459 
L 612.070247 68.238493 
L 612.415948 68.772244 
L 612.760666 66.770944 
L 613.104405 66.495061 
L 613.447173 65.714186 
L 613.788973 64.002817 
L 614.129812 65.234078 
L 614.469695 65.463526 
L 614.808627 65.855446 
L 615.146614 65.493077 
L 615.819772 61.702146 
L 616.154954 63.45164 
L 616.489211 64.008396 
L 616.822548 63.320892 
L 617.154972 61.879504 
L 617.486485 61.116833 
L 618.475619 57.707987 
L 619.130583 63.154249 
L 619.456743 61.943062 
L 620.106439 57.701899 
L 620.429986 56.929666 
L 620.752671 58.435524 
L 621.395475 53.94031 
L 621.715602 55.327518 
L 622.670941 52.677972 
L 623.303674 51.26717 
L 623.618806 51.663577 
L 623.93312 52.698914 
L 624.559314 50.380831 
L 624.871201 50.385306 
L 625.182288 47.780975 
L 625.492578 47.259084 
L 625.802075 48.420706 
L 626.110784 48.432468 
L 626.725852 45.154301 
L 627.032219 45.726426 
L 627.337814 46.004392 
L 627.64264 45.901133 
L 627.9467 49.15121 
L 628.25 54.305531 
L 628.854331 84.103019 
L 629.15537 86.619259 
L 629.455663 86.603741 
L 629.755214 85.581687 
L 630.054026 86.567515 
L 630.352103 86.479074 
L 630.649448 85.979787 
L 631.241958 88.105817 
L 631.537131 86.559786 
L 631.831586 87.213607 
L 632.125327 89.376701 
L 632.418358 88.930879 
L 632.710681 88.156067 
L 633.293222 89.223829 
L 633.583445 87.905443 
L 633.872975 87.500189 
L 634.161814 88.541854 
L 634.449967 88.79414 
L 634.737436 87.043603 
L 635.595774 89.364535 
L 635.880541 87.847987 
L 636.448074 89.834866 
L 636.45 89.822695 
" clip-path="url(#p4a7989b954)" style="fill: none; stroke: #ff0000; stroke-width: 1.5; stroke-linecap: square"/>
   </g>
   <g id="line2d_50">
    <path d="M 70.017882 407.751563 
L 70.25 171.688287 
L 203.36683 171.688287 
L 376.287894 106.322941 
L 544.262631 106.322944 
L 628.25 127.949669 
L 628.252385 407.751563 
L 628.252385 407.751563 
" clip-path="url(#p4a7989b954)" style="fill: none; stroke-dasharray: 5.55,2.4; stroke-dashoffset: 0; stroke: #000000; stroke-width: 1.5"/>
   </g>
   <g id="line2d_51">
    <path d="M -1 173.201029 
L 18.198374 181.352782 
L 67.327835 196.651439 
L 102.185743 207.274525 
L 129.223636 209.935354 
L 151.315204 214.288226 
L 169.993358 215.928243 
L 186.173111 215.917888 
L 200.444665 216.327471 
L 213.211005 216.469186 
L 224.759564 216.854785 
L 235.302573 214.960054 
L 245.0012 215.030702 
L 253.980727 214.898021 
L 262.340466 213.865583 
L 270.16048 214.725733 
L 277.506254 216.368018 
L 284.432034 217.041343 
L 290.98326 217.104225 
L 297.198374 220.718869 
L 303.110188 219.174202 
L 308.746933 219.533928 
L 314.133071 218.693285 
L 319.289942 213.753711 
L 324.236267 203.832437 
L 328.988569 199.601904 
L 333.561495 195.745767 
L 337.968096 195.523654 
L 346.327835 183.238419 
L 350.300918 191.793231 
L 354.147849 188.306017 
L 357.876394 193.370848 
L 361.493623 202.92757 
L 365.005989 212.57946 
L 368.419403 217.907322 
L 371.739286 219.849568 
L 374.970629 215.967876 
L 378.11803 206.002476 
L 381.185743 203.948198 
L 384.177701 200.358802 
L 387.097557 205.061066 
L 389.948704 213.347714 
L 392.734302 218.294386 
L 395.457296 223.869644 
L 398.12044 223.494129 
L 400.726307 225.744073 
L 403.27731 220.879999 
L 405.775711 215.615587 
L 408.223636 211.787276 
L 410.623084 207.198229 
L 412.975938 211.421421 
L 415.283973 212.201733 
L 417.548864 208.36707 
L 419.772195 203.518771 
L 421.955465 200.47238 
L 424.10009 198.525698 
L 426.207415 196.992673 
L 428.278716 195.84971 
L 430.315204 196.390446 
L 432.318029 197.464528 
L 434.288286 196.64188 
L 436.227018 198.360433 
L 438.135218 202.068645 
L 440.013832 206.658846 
L 441.863763 212.907776 
L 443.685875 218.382265 
L 445.480992 224.373178 
L 448.993358 223.969031 
L 450.712084 230.85984 
L 452.406772 235.845451 
L 454.078083 241.292697 
L 455.726655 240.186516 
L 457.353098 240.622153 
L 458.957997 242.493917 
L 460.541917 243.02015 
L 462.105399 236.231863 
L 463.648964 233.550776 
L 465.173111 233.975065 
L 466.678325 238.272779 
L 468.16507 242.080181 
L 469.633793 241.533691 
L 471.084926 246.124649 
L 472.518885 247.310989 
L 473.936073 245.826602 
L 475.336877 247.117255 
L 476.721671 247.000363 
L 478.090817 252.704039 
L 479.444665 256.067243 
L 480.783554 254.097262 
L 482.107809 254.316436 
L 483.417748 253.180157 
L 484.713676 258.410719 
L 485.995891 263.01111 
L 487.264679 260.004228 
L 488.520319 257.3283 
L 489.76308 258.087953 
L 490.993224 257.257351 
L 492.211005 258.711542 
L 493.416668 259.078545 
L 494.610453 256.340497 
L 495.792591 254.665927 
L 496.963307 252.627869 
L 498.12282 255.75749 
L 499.271341 256.604728 
L 500.409079 253.23327 
L 501.536233 255.253746 
L 502.652998 258.268963 
L 503.759564 258.358941 
L 504.856116 259.894093 
L 505.942833 260.922513 
L 507.019891 259.974744 
L 508.087459 260.701616 
L 509.145703 262.597907 
L 510.194784 263.529896 
L 512.266085 265.635284 
L 513.288607 265.131791 
L 514.302573 266.426289 
L 515.308123 268.289382 
L 516.305398 267.391513 
L 517.294531 266.806844 
L 518.275655 265.428833 
L 519.248899 267.801174 
L 521.172243 268.74762 
L 522.122587 268.859477 
L 523.065534 269.75343 
L 524.0012 270.362767 
L 524.929697 270.408462 
L 525.851132 269.356854 
L 526.765613 269.604015 
L 527.673244 269.104444 
L 529.468361 267.6332 
L 530.356043 269.268794 
L 531.23727 271.653113 
L 532.980727 273.60252 
L 533.843138 274.461976 
L 534.699453 272.406722 
L 535.54976 273.195663 
L 536.39414 273.341201 
L 537.232678 274.28526 
L 538.065452 273.40883 
L 538.892541 274.496478 
L 539.714024 276.055041 
L 540.529974 274.103652 
L 541.340466 276.571037 
L 542.145573 278.640695 
L 542.945366 278.600226 
L 543.739914 279.392725 
L 544.529286 279.355039 
L 545.313549 280.01264 
L 546.092768 282.044257 
L 546.867008 281.329852 
L 548.400803 278.593519 
L 549.16048 278.55593 
L 549.915424 278.09783 
L 550.665694 275.620095 
L 551.411347 276.175264 
L 552.889026 278.602022 
L 553.621162 280.291567 
L 554.348901 280.316076 
L 555.072295 280.460611 
L 555.791396 280.835092 
L 556.506254 283.223577 
L 557.21692 282.795502 
L 557.923442 281.413496 
L 558.625868 285.637163 
L 559.324245 283.795157 
L 560.018621 283.489819 
L 560.709039 284.698725 
L 561.395546 284.742786 
L 562.078186 284.93854 
L 562.757001 287.281985 
L 563.432034 286.703728 
L 564.103327 287.852972 
L 565.434859 285.509798 
L 566.095178 287.967055 
L 566.751917 288.776347 
L 567.405117 287.430092 
L 568.054813 288.65784 
L 568.701045 286.369642 
L 569.98326 290.038924 
L 570.619315 287.015762 
L 571.252048 286.361793 
L 571.881494 288.556232 
L 572.507688 286.762066 
L 573.130662 289.19843 
L 573.750449 289.717649 
L 574.367082 290.017985 
L 574.980593 290.453551 
L 575.591013 297.774836 
L 576.198374 296.388979 
L 576.802705 295.296741 
L 578.0024 290.129696 
L 578.597822 292.515493 
L 579.190332 291.198869 
L 579.77996 288.017499 
L 580.366731 292.865808 
L 580.950676 288.463428 
L 581.531819 280.083037 
L 582.68581 270.650461 
L 583.25871 271.77519 
L 583.828914 262.458493 
L 584.961335 264.536391 
L 585.523602 265.551939 
L 586.083271 263.147801 
L 586.640367 266.103512 
L 587.194913 262.809209 
L 587.746933 260.578708 
L 588.296449 261.68146 
L 588.843485 262.210246 
L 589.388062 265.060028 
L 589.930202 267.246504 
L 590.469928 267.571649 
L 591.00726 264.653465 
L 591.542219 273.193433 
L 592.074827 290.311422 
L 592.605105 281.068153 
L 593.658747 284.076123 
L 594.182153 293.325218 
L 594.703307 294.422183 
L 595.222229 285.709329 
L 595.738939 282.405437 
L 596.253454 285.842359 
L 596.765794 290.022612 
L 597.275976 289.907681 
L 597.784019 287.76525 
L 598.289942 291.635842 
L 598.79376 294.327425 
L 599.295492 294.121051 
L 599.795155 297.038484 
L 600.788343 280.852393 
L 601.2819 284.148956 
L 601.773455 288.333928 
L 602.750623 300.370217 
L 603.236267 297.591426 
L 603.719973 298.56599 
L 604.201756 307.122654 
L 604.68163 295.887494 
L 605.159612 289.775148 
L 605.635715 298.690002 
L 606.109955 296.619305 
L 606.582346 296.691774 
L 607.052903 291.65085 
L 607.521639 285.185006 
L 607.988569 292.940629 
L 608.453707 292.152045 
L 609.378659 305.075512 
L 609.838501 323.124906 
L 610.296604 317.940967 
L 610.752982 323.292847 
L 611.207647 323.758831 
L 611.660613 328.818006 
L 612.111891 327.287586 
L 612.561495 330.565559 
L 613.009437 330.331892 
L 613.455729 331.328958 
L 613.900384 333.562059 
L 614.343412 325.80718 
L 615.224639 321.627222 
L 615.662861 326.305278 
L 616.099503 326.183033 
L 616.534578 327.689485 
L 616.968096 329.861214 
L 617.830506 324.479936 
L 618.259421 326.161235 
L 618.686822 326.440188 
L 619.112721 328.072119 
L 619.537128 322.618516 
L 619.960054 322.424804 
L 620.381509 320.81824 
L 620.801503 323.73393 
L 621.220046 318.354449 
L 621.637149 317.881036 
L 622.052821 320.330769 
L 622.467071 313.388591 
L 622.87991 316.647751 
L 623.291348 316.939406 
L 623.701392 315.720848 
L 624.110054 313.821429 
L 624.517343 318.752235 
L 624.923267 322.14317 
L 625.327835 321.286644 
L 625.731057 330.356868 
L 626.132942 320.920044 
L 626.533498 321.8284 
L 626.932735 318.672195 
L 627.33066 318.554616 
L 627.727283 322.188161 
L 628.122612 317.133621 
L 628.516655 319.546931 
L 628.909421 318.251119 
L 629.300918 309.006139 
L 629.691154 314.202307 
L 630.080137 308.145685 
L 630.467875 313.81068 
L 631.23965 298.302195 
L 631.623701 307.52355 
L 632.006539 310.775863 
L 632.388172 315.398199 
L 632.768606 310.398503 
L 633.147849 303.088761 
L 633.902793 307.276176 
L 634.653063 295.253605 
L 635.026463 305.292525 
L 635.398715 307.630259 
L 635.769828 302.439959 
L 636.139807 315.046841 
L 636.45 310.328701 
L 636.45 310.328701 
" clip-path="url(#p4a7989b954)" style="fill: none; stroke: #008000; stroke-width: 1.5; stroke-linecap: square"/>
   </g>
   <g id="line2d_52">
    <path d="M -1 317.414639 
L 18.198374 320.059287 
L 67.327835 325.298877 
L 102.185743 328.319955 
L 129.223636 334.065914 
L 151.315204 336.987948 
L 169.993358 335.367341 
L 186.173111 334.482442 
L 213.211005 339.783215 
L 224.759564 338.062768 
L 235.302573 338.234329 
L 245.0012 340.25684 
L 253.980727 343.39382 
L 262.340466 345.074875 
L 270.16048 343.377258 
L 277.506254 343.77158 
L 284.432034 340.940253 
L 290.98326 339.568267 
L 297.198374 341.03904 
L 303.110188 343.842202 
L 308.746933 343.647683 
L 314.133071 342.852953 
L 319.289942 341.779992 
L 324.236267 337.940776 
L 333.561495 330.181938 
L 337.968096 328.131557 
L 342.220046 324.659199 
L 346.327835 322.019433 
L 350.300918 321.323658 
L 354.147849 318.487226 
L 357.876394 309.661071 
L 361.493623 303.57864 
L 368.419403 296.210658 
L 371.739286 296.502806 
L 374.970629 311.943197 
L 378.11803 329.162794 
L 381.185743 339.298474 
L 384.177701 330.552976 
L 387.097557 313.039334 
L 389.948704 305.589399 
L 392.734302 305.403675 
L 395.457296 309.369201 
L 398.12044 313.954752 
L 400.726307 325.038011 
L 403.27731 328.181685 
L 405.775711 330.706708 
L 408.223636 329.14599 
L 410.623084 328.036007 
L 412.975938 333.146635 
L 415.283973 335.420331 
L 419.772195 325.557481 
L 421.955465 323.80375 
L 426.207415 305.087859 
L 428.278716 305.364923 
L 430.315204 309.02066 
L 432.318029 315.73107 
L 434.288286 321.330392 
L 436.227018 329.353591 
L 438.135218 333.565221 
L 440.013832 335.950459 
L 441.863763 334.844443 
L 443.685875 336.294868 
L 445.480992 331.644585 
L 447.249901 331.806227 
L 448.993358 334.273711 
L 450.712084 327.609836 
L 452.406772 325.100798 
L 454.078083 331.055833 
L 455.726655 331.573038 
L 457.353098 333.156526 
L 458.957997 334.267982 
L 460.541917 335.808932 
L 462.105399 335.147021 
L 463.648964 330.311066 
L 465.173111 330.272116 
L 466.678325 331.759392 
L 468.16507 331.446434 
L 469.633793 333.421979 
L 471.084926 329.966593 
L 472.518885 329.971893 
L 473.936073 330.111651 
L 475.336877 324.905021 
L 476.721671 324.353013 
L 479.444665 317.711958 
L 480.783554 330.270868 
L 482.107809 317.608053 
L 483.417748 323.454465 
L 484.713676 325.987977 
L 485.995891 326.281515 
L 487.264679 327.993846 
L 488.520319 329.003846 
L 489.76308 333.940744 
L 490.993224 335.631224 
L 492.211005 333.760869 
L 493.416668 332.919588 
L 494.610453 334.316359 
L 495.792591 341.237793 
L 496.963307 340.837362 
L 498.12282 341.794882 
L 499.271341 342.366781 
L 501.536233 335.479643 
L 502.652998 338.12072 
L 503.759564 339.056326 
L 504.856116 339.330009 
L 505.942833 340.067468 
L 507.019891 343.479334 
L 508.087459 344.384983 
L 509.145703 345.775341 
L 510.194784 344.210621 
L 511.23486 343.046962 
L 512.266085 342.410529 
L 513.288607 344.049679 
L 514.302573 344.143894 
L 515.308123 340.715054 
L 516.305398 338.177834 
L 517.294531 337.473434 
L 518.275655 338.628917 
L 519.248899 336.63349 
L 520.214387 331.732803 
L 521.172243 331.478865 
L 522.122587 331.088744 
L 523.065534 329.714893 
L 524.0012 330.070274 
L 524.929697 335.98664 
L 525.851132 339.73718 
L 526.765613 343.929545 
L 527.673244 347.164566 
L 528.574126 349.652377 
L 529.468361 348.683238 
L 530.356043 348.270946 
L 531.23727 346.762848 
L 532.112134 349.835748 
L 532.980727 351.835834 
L 533.843138 348.809316 
L 534.699453 351.056973 
L 535.54976 349.292889 
L 536.39414 349.150362 
L 537.232678 348.522106 
L 538.065452 346.948378 
L 538.892541 348.109945 
L 539.714024 350.166676 
L 541.340466 342.15498 
L 542.145573 340.650054 
L 542.945366 337.736977 
L 543.739914 336.332801 
L 544.529286 338.220548 
L 545.313549 337.637445 
L 546.092768 337.681549 
L 546.867008 342.319471 
L 547.636332 343.562108 
L 548.400803 344.012613 
L 549.915424 350.441787 
L 551.411347 352.308291 
L 552.152439 352.160593 
L 552.889026 351.552959 
L 554.348901 349.982516 
L 555.072295 350.526995 
L 555.791396 354.319842 
L 556.506254 351.283012 
L 557.21692 353.828124 
L 557.923442 354.601514 
L 558.625868 354.713126 
L 559.324245 355.391017 
L 560.018621 355.733807 
L 560.709039 354.204226 
L 561.395546 356.382299 
L 562.078186 355.00931 
L 562.757001 352.567567 
L 563.432034 348.649332 
L 564.103327 348.446295 
L 564.770922 350.698725 
L 565.434859 350.667408 
L 566.095178 351.289956 
L 569.343848 332.402349 
L 569.98326 340.952821 
L 570.619315 343.801447 
L 571.252048 344.373022 
L 571.881494 346.056757 
L 573.130662 344.403724 
L 573.750449 342.068584 
L 574.367082 341.288192 
L 574.980593 342.996617 
L 575.591013 343.440249 
L 576.802705 350.544831 
L 577.404037 350.341592 
L 578.0024 348.384756 
L 578.597822 350.857392 
L 579.190332 347.237054 
L 579.77996 346.22191 
L 580.366731 347.02874 
L 580.950676 344.899157 
L 582.110188 344.56252 
L 582.68581 345.137375 
L 583.25871 344.441013 
L 583.828914 340.275578 
L 584.396448 338.422997 
L 584.961335 339.179738 
L 585.523602 339.673648 
L 586.083271 343.776133 
L 586.640367 344.875372 
L 587.194913 342.229989 
L 587.746933 340.642684 
L 588.296449 345.419149 
L 589.388062 349.757237 
L 589.930202 350.649119 
L 590.469928 350.060526 
L 591.00726 351.644575 
L 591.542219 356.28062 
L 592.074827 357.201672 
L 593.133071 354.047268 
L 593.658747 357.445217 
L 594.703307 356.443447 
L 595.222229 358.675579 
L 595.738939 355.294432 
L 596.253454 356.596452 
L 596.765794 356.242975 
L 597.275976 354.020401 
L 597.784019 355.518372 
L 598.289942 358.091805 
L 598.79376 356.558436 
L 599.295492 357.172362 
L 599.795155 355.389327 
L 600.292767 352.743489 
L 600.788343 354.194079 
L 601.2819 354.623137 
L 601.773455 355.352857 
L 602.263024 356.816447 
L 602.750623 354.885883 
L 603.236267 354.993905 
L 603.719973 358.395154 
L 604.201756 356.544569 
L 604.68163 356.95457 
L 605.159612 355.753687 
L 605.635715 357.967612 
L 606.109955 359.478106 
L 607.052903 356.172768 
L 607.521639 357.367157 
L 607.988569 356.608158 
L 608.453707 353.404413 
L 608.917065 355.763293 
L 609.378659 355.827579 
L 609.838501 353.135775 
L 610.296604 353.441844 
L 610.752982 357.057161 
L 611.207647 356.49755 
L 611.660613 353.689621 
L 612.561495 355.282692 
L 613.009437 354.756916 
L 613.455729 354.678046 
L 613.900384 355.652899 
L 614.784827 350.630381 
L 615.224639 354.757569 
L 615.662861 354.193584 
L 616.099503 352.031295 
L 616.534578 352.354648 
L 616.968096 352.383001 
L 617.400068 350.828153 
L 617.830506 352.36123 
L 618.259421 349.884265 
L 618.686822 350.723794 
L 619.112721 350.274009 
L 619.537128 350.158313 
L 619.960054 352.314492 
L 620.801503 349.113004 
L 621.637149 351.642678 
L 622.052821 349.428523 
L 622.467071 349.099508 
L 622.87991 349.390821 
L 623.291348 351.718551 
L 623.701392 349.47868 
L 624.110054 346.576681 
L 624.517343 346.823322 
L 625.327835 346.982352 
L 625.731057 348.24896 
L 626.132942 347.569704 
L 626.533498 348.41729 
L 626.932735 348.305656 
L 627.33066 345.761779 
L 627.727283 347.240755 
L 628.122612 348.237107 
L 628.516655 344.72465 
L 628.909421 347.689385 
L 629.300918 348.220623 
L 629.691154 347.875877 
L 630.080137 348.805183 
L 630.467875 345.852742 
L 630.854377 346.312517 
L 631.23965 350.782576 
L 632.006539 350.154234 
L 632.388172 350.637401 
L 632.768606 350.614346 
L 633.147849 352.628379 
L 633.525909 351.3123 
L 633.902793 351.462704 
L 634.278509 354.19545 
L 634.653063 354.883852 
L 635.026463 353.769099 
L 635.398715 354.151074 
L 635.769828 353.712556 
L 636.139807 354.448216 
L 636.45 355.340597 
L 636.45 355.340597 
" clip-path="url(#p4a7989b954)" style="fill: none; stroke: #0000ff; stroke-width: 1.5; stroke-linecap: square"/>
   </g>
   <g id="patch_3">
    <path d="M 70.25 359.517188 
L 70.25 26.877188 
" style="fill: none; stroke: #000000; stroke-width: 0.8; stroke-linejoin: miter; stroke-linecap: square"/>
   </g>
   <g id="patch_4">
    <path d="M 628.25 359.517188 
L 628.25 26.877188 
" style="fill: none; stroke: #000000; stroke-width: 0.8; stroke-linejoin: miter; stroke-linecap: square"/>
   </g>
   <g id="patch_5">
    <path d="M 70.25 359.517188 
L 628.25 359.517188 
" style="fill: none; stroke: #000000; stroke-width: 0.8; stroke-linejoin: miter; stroke-linecap: square"/>
   </g>
   <g id="patch_6">
    <path d="M 70.25 26.877187 
L 628.25 26.877187 
" style="fill: none; stroke: #000000; stroke-width: 0.8; stroke-linejoin: miter; stroke-linecap: square"/>
   </g>
   <g id="text_10">
    <!-- random vibration response (z-axis) -->
    <g transform="translate(191.869531 20.877187) scale(0.18 -0.18)">
     <defs>
      <path id="DejaVuSans-6d" d="M 3328 2828 
Q 3544 3216 3844 3400 
Q 4144 3584 4550 3584 
Q 5097 3584 5394 3201 
Q 5691 2819 5691 2113 
L 5691 0 
L 5113 0 
L 5113 2094 
Q 5113 2597 4934 2840 
Q 4756 3084 4391 3084 
Q 3944 3084 3684 2787 
Q 3425 2491 3425 1978 
L 3425 0 
L 2847 0 
L 2847 2094 
Q 2847 2600 2669 2842 
Q 2491 3084 2119 3084 
Q 1678 3084 1418 2786 
Q 1159 2488 1159 1978 
L 1159 0 
L 581 0 
L 581 3500 
L 1159 3500 
L 1159 2956 
Q 1356 3278 1631 3431 
Q 1906 3584 2284 3584 
Q 2666 3584 2933 3390 
Q 3200 3197 3328 2828 
z
" transform="scale(0.015625)"/>
      <path id="DejaVuSans-76" d="M 191 3500 
L 800 3500 
L 1894 563 
L 2988 3500 
L 3597 3500 
L 2284 0 
L 1503 0 
L 191 3500 
z
" transform="scale(0.015625)"/>
      <path id="DejaVuSans-62" d="M 3116 1747 
Q 3116 2381 2855 2742 
Q 2594 3103 2138 3103 
Q 1681 3103 1420 2742 
Q 1159 2381 1159 1747 
Q 1159 1113 1420 752 
Q 1681 391 2138 391 
Q 2594 391 2855 752 
Q 3116 1113 3116 1747 
z
M 1159 2969 
Q 1341 3281 1617 3432 
Q 1894 3584 2278 3584 
Q 2916 3584 3314 3078 
Q 3713 2572 3713 1747 
Q 3713 922 3314 415 
Q 2916 -91 2278 -91 
Q 1894 -91 1617 61 
Q 1341 213 1159 525 
L 1159 0 
L 581 0 
L 581 4863 
L 1159 4863 
L 1159 2969 
z
" transform="scale(0.015625)"/>
      <path id="DejaVuSans-28" d="M 1984 4856 
Q 1566 4138 1362 3434 
Q 1159 2731 1159 2009 
Q 1159 1288 1364 580 
Q 1569 -128 1984 -844 
L 1484 -844 
Q 1016 -109 783 600 
Q 550 1309 550 2009 
Q 550 2706 781 3412 
Q 1013 4119 1484 4856 
L 1984 4856 
z
" transform="scale(0.015625)"/>
      <path id="DejaVuSans-2d" d="M 313 2009 
L 1997 2009 
L 1997 1497 
L 313 1497 
L 313 2009 
z
" transform="scale(0.015625)"/>
      <path id="DejaVuSans-78" d="M 3513 3500 
L 2247 1797 
L 3578 0 
L 2900 0 
L 1881 1375 
L 863 0 
L 184 0 
L 1544 1831 
L 300 3500 
L 978 3500 
L 1906 2253 
L 2834 3500 
L 3513 3500 
z
" transform="scale(0.015625)"/>
      <path id="DejaVuSans-29" d="M 513 4856 
L 1013 4856 
Q 1481 4119 1714 3412 
Q 1947 2706 1947 2009 
Q 1947 1309 1714 600 
Q 1481 -109 1013 -844 
L 513 -844 
Q 928 -128 1133 580 
Q 1338 1288 1338 2009 
Q 1338 2731 1133 3434 
Q 928 4138 513 4856 
z
" transform="scale(0.015625)"/>
     </defs>
     <use xlink:href="#DejaVuSans-72"/>
     <use xlink:href="#DejaVuSans-61" x="41.113281"/>
     <use xlink:href="#DejaVuSans-6e" x="102.392578"/>
     <use xlink:href="#DejaVuSans-64" x="165.771484"/>
     <use xlink:href="#DejaVuSans-6f" x="229.248047"/>
     <use xlink:href="#DejaVuSans-6d" x="290.429688"/>
     <use xlink:href="#DejaVuSans-20" x="387.841797"/>
     <use xlink:href="#DejaVuSans-76" x="419.628906"/>
     <use xlink:href="#DejaVuSans-69" x="478.808594"/>
     <use xlink:href="#DejaVuSans-62" x="506.591797"/>
     <use xlink:href="#DejaVuSans-72" x="570.068359"/>
     <use xlink:href="#DejaVuSans-61" x="611.181641"/>
     <use xlink:href="#DejaVuSans-74" x="672.460938"/>
     <use xlink:href="#DejaVuSans-69" x="711.669922"/>
     <use xlink:href="#DejaVuSans-6f" x="739.453125"/>
     <use xlink:href="#DejaVuSans-6e" x="800.634766"/>
     <use xlink:href="#DejaVuSans-20" x="864.013672"/>
     <use xlink:href="#DejaVuSans-72" x="895.800781"/>
     <use xlink:href="#DejaVuSans-65" x="934.664062"/>
     <use xlink:href="#DejaVuSans-73" x="996.1875"/>
     <use xlink:href="#DejaVuSans-70" x="1048.287109"/>
     <use xlink:href="#DejaVuSans-6f" x="1111.763672"/>
     <use xlink:href="#DejaVuSans-6e" x="1172.945312"/>
     <use xlink:href="#DejaVuSans-73" x="1236.324219"/>
     <use xlink:href="#DejaVuSans-65" x="1288.423828"/>
     <use xlink:href="#DejaVuSans-20" x="1349.947266"/>
     <use xlink:href="#DejaVuSans-28" x="1381.734375"/>
     <use xlink:href="#DejaVuSans-7a" x="1420.748047"/>
     <use xlink:href="#DejaVuSans-2d" x="1473.238281"/>
     <use xlink:href="#DejaVuSans-61" x="1509.322266"/>
     <use xlink:href="#DejaVuSans-78" x="1570.601562"/>
     <use xlink:href="#DejaVuSans-69" x="1629.78125"/>
     <use xlink:href="#DejaVuSans-73" x="1657.564453"/>
     <use xlink:href="#DejaVuSans-29" x="1709.664062"/>
    </g>
   </g>
   <g id="legend_1">
    <g id="patch_7">
     <path d="M 80.75 126.945937 
L 261.364062 126.945937 
Q 264.364062 126.945937 264.364062 123.945937 
L 264.364062 37.377187 
Q 264.364062 34.377187 261.364062 34.377187 
L 80.75 34.377187 
Q 77.75 34.377187 77.75 37.377187 
L 77.75 123.945937 
Q 77.75 126.945937 80.75 126.945937 
z
" style="fill: #ffffff; opacity: 0.8; stroke: #cccccc; stroke-linejoin: miter"/>
    </g>
    <g id="line2d_53">
     <path d="M 83.75 46.524844 
L 98.75 46.524844 
L 113.75 46.524844 
" style="fill: none; stroke: #ff0000; stroke-width: 1.5; stroke-linecap: square"/>
    </g>
    <g id="text_11">
     <!-- shaker table -->
     <g transform="translate(125.75 51.774844) scale(0.15 -0.15)">
      <defs>
       <path id="DejaVuSans-68" d="M 3513 2113 
L 3513 0 
L 2938 0 
L 2938 2094 
Q 2938 2591 2744 2837 
Q 2550 3084 2163 3084 
Q 1697 3084 1428 2787 
Q 1159 2491 1159 1978 
L 1159 0 
L 581 0 
L 581 4863 
L 1159 4863 
L 1159 2956 
Q 1366 3272 1645 3428 
Q 1925 3584 2291 3584 
Q 2894 3584 3203 3211 
Q 3513 2838 3513 2113 
z
" transform="scale(0.015625)"/>
       <path id="DejaVuSans-6b" d="M 581 4863 
L 1159 4863 
L 1159 1991 
L 2875 3500 
L 3609 3500 
L 1753 1863 
L 3688 0 
L 2938 0 
L 1159 1709 
L 1159 0 
L 581 0 
L 581 4863 
z
" transform="scale(0.015625)"/>
      </defs>
      <use xlink:href="#DejaVuSans-73"/>
      <use xlink:href="#DejaVuSans-68" x="52.099609"/>
      <use xlink:href="#DejaVuSans-61" x="115.478516"/>
      <use xlink:href="#DejaVuSans-6b" x="176.757812"/>
      <use xlink:href="#DejaVuSans-65" x="231.042969"/>
      <use xlink:href="#DejaVuSans-72" x="292.566406"/>
      <use xlink:href="#DejaVuSans-20" x="333.679688"/>
      <use xlink:href="#DejaVuSans-74" x="365.466797"/>
      <use xlink:href="#DejaVuSans-61" x="404.675781"/>
      <use xlink:href="#DejaVuSans-62" x="465.955078"/>
      <use xlink:href="#DejaVuSans-6c" x="529.431641"/>
      <use xlink:href="#DejaVuSans-65" x="557.214844"/>
     </g>
    </g>
    <g id="line2d_54">
     <path d="M 83.75 68.542031 
L 98.75 68.542031 
L 113.75 68.542031 
" style="fill: none; stroke-dasharray: 5.55,2.4; stroke-dashoffset: 0; stroke: #000000; stroke-width: 1.5"/>
    </g>
    <g id="text_12">
     <!-- qualification level -->
     <g transform="translate(125.75 73.792031) scale(0.15 -0.15)">
      <use xlink:href="#DejaVuSans-71"/>
      <use xlink:href="#DejaVuSans-75" x="63.476562"/>
      <use xlink:href="#DejaVuSans-61" x="126.855469"/>
      <use xlink:href="#DejaVuSans-6c" x="188.134766"/>
      <use xlink:href="#DejaVuSans-69" x="215.917969"/>
      <use xlink:href="#DejaVuSans-66" x="243.701172"/>
      <use xlink:href="#DejaVuSans-69" x="278.90625"/>
      <use xlink:href="#DejaVuSans-63" x="306.689453"/>
      <use xlink:href="#DejaVuSans-61" x="361.669922"/>
      <use xlink:href="#DejaVuSans-74" x="422.949219"/>
      <use xlink:href="#DejaVuSans-69" x="462.158203"/>
      <use xlink:href="#DejaVuSans-6f" x="489.941406"/>
      <use xlink:href="#DejaVuSans-6e" x="551.123047"/>
      <use xlink:href="#DejaVuSans-20" x="614.501953"/>
      <use xlink:href="#DejaVuSans-6c" x="646.289062"/>
      <use xlink:href="#DejaVuSans-65" x="674.072266"/>
      <use xlink:href="#DejaVuSans-76" x="735.595703"/>
      <use xlink:href="#DejaVuSans-65" x="794.775391"/>
      <use xlink:href="#DejaVuSans-6c" x="856.298828"/>
     </g>
    </g>
    <g id="line2d_55">
     <path d="M 83.75 90.559219 
L 98.75 90.559219 
L 113.75 90.559219 
" style="fill: none; stroke: #008000; stroke-width: 1.5; stroke-linecap: square"/>
    </g>
    <g id="text_13">
     <!-- rocket (launch) -->
     <g transform="translate(125.75 95.809219) scale(0.15 -0.15)">
      <use xlink:href="#DejaVuSans-72"/>
      <use xlink:href="#DejaVuSans-6f" x="38.863281"/>
      <use xlink:href="#DejaVuSans-63" x="100.044922"/>
      <use xlink:href="#DejaVuSans-6b" x="155.025391"/>
      <use xlink:href="#DejaVuSans-65" x="209.310547"/>
      <use xlink:href="#DejaVuSans-74" x="270.833984"/>
      <use xlink:href="#DejaVuSans-20" x="310.042969"/>
      <use xlink:href="#DejaVuSans-28" x="341.830078"/>
      <use xlink:href="#DejaVuSans-6c" x="380.84375"/>
      <use xlink:href="#DejaVuSans-61" x="408.626953"/>
      <use xlink:href="#DejaVuSans-75" x="469.90625"/>
      <use xlink:href="#DejaVuSans-6e" x="533.285156"/>
      <use xlink:href="#DejaVuSans-63" x="596.664062"/>
      <use xlink:href="#DejaVuSans-68" x="651.644531"/>
      <use xlink:href="#DejaVuSans-29" x="715.023438"/>
     </g>
    </g>
    <g id="line2d_56">
     <path d="M 83.75 112.576406 
L 98.75 112.576406 
L 113.75 112.576406 
" style="fill: none; stroke: #0000ff; stroke-width: 1.5; stroke-linecap: square"/>
    </g>
    <g id="text_14">
     <!-- rocket (coast) -->
     <g transform="translate(125.75 117.826406) scale(0.15 -0.15)">
      <use xlink:href="#DejaVuSans-72"/>
      <use xlink:href="#DejaVuSans-6f" x="38.863281"/>
      <use xlink:href="#DejaVuSans-63" x="100.044922"/>
      <use xlink:href="#DejaVuSans-6b" x="155.025391"/>
      <use xlink:href="#DejaVuSans-65" x="209.310547"/>
      <use xlink:href="#DejaVuSans-74" x="270.833984"/>
      <use xlink:href="#DejaVuSans-20" x="310.042969"/>
      <use xlink:href="#DejaVuSans-28" x="341.830078"/>
      <use xlink:href="#DejaVuSans-63" x="380.84375"/>
      <use xlink:href="#DejaVuSans-6f" x="435.824219"/>
      <use xlink:href="#DejaVuSans-61" x="497.005859"/>
      <use xlink:href="#DejaVuSans-73" x="558.285156"/>
      <use xlink:href="#DejaVuSans-74" x="610.384766"/>
      <use xlink:href="#DejaVuSans-29" x="649.59375"/>
     </g>
    </g>
   </g>
  </g>
 </g>
 <defs>
  <clipPath id="p4a7989b954">
   <rect x="70.25" y="26.877187" width="558" height="332.64"/>
  </clipPath>
 </defs>
</svg>
