<?xml version="1.0" encoding="utf-8" standalone="no"?>
<!DOCTYPE svg PUBLIC "-//W3C//DTD SVG 1.1//EN"
  "http://www.w3.org/Graphics/SVG/1.1/DTD/svg11.dtd">
<svg xmlns:xlink="http://www.w3.org/1999/xlink" width="651.078125pt" height="406.751563pt" viewBox="0 0 651.078125 406.751563" xmlns="http://www.w3.org/2000/svg" version="1.1">
 <metadata>
  <rdf:RDF xmlns:dc="http://purl.org/dc/elements/1.1/" xmlns:cc="http://creativecommons.org/ns#" xmlns:rdf="http://www.w3.org/1999/02/22-rdf-syntax-ns#">
   <cc:Work>
    <dc:type rdf:resource="http://purl.org/dc/dcmitype/StillImage"/>
    <dc:date>2024-11-12T18:41:37.513070</dc:date>
    <dc:format>image/svg+xml</dc:format>
    <dc:creator>
     <cc:Agent>
      <dc:title>Matplotlib v3.9.2, https://matplotlib.org/</dc:title>
     </cc:Agent>
    </dc:creator>
   </cc:Work>
  </rdf:RDF>
 </metadata>
 <defs>
  <style type="text/css">*{stroke-linejoin: round; stroke-linecap: butt}</style>
 </defs>
 <g id="figure_1">
  <g id="patch_1">
   <path d="M 0 406.751563 
L 651.078125 406.751563 
L 651.078125 0 
L 0 0 
z
" style="fill: #ffffff"/>
  </g>
  <g id="axes_1">
   <g id="patch_2">
    <path d="M 64.407031 359.517188 
L 622.407031 359.517188 
L 622.407031 26.877187 
L 64.407031 26.877187 
z
" style="fill: #ffffff"/>
   </g>
   <g id="matplotlib.axis_1">
    <g id="xtick_1">
     <g id="line2d_1">
      <path d="M 64.407031 359.517188 
L 64.407031 26.877187 
" clip-path="url(#p66c8e54bb2)" style="fill: none; stroke: #b0b0b0; stroke-width: 0.8; stroke-linecap: square"/>
     </g>
     <g id="line2d_2">
      <defs>
       <path id="m59bd56a902" d="M 0 0 
L 0 3.5 
" style="stroke: #000000; stroke-width: 0.8"/>
      </defs>
      <g>
       <use xlink:href="#m59bd56a902" x="64.407031" y="359.517188" style="stroke: #000000; stroke-width: 0.8"/>
      </g>
     </g>
     <g id="text_1">
      <!-- 0.000 -->
      <g transform="translate(42.935938 377.914844) scale(0.15 -0.15)">
       <defs>
        <path id="DejaVuSans-30" d="M 2034 4250 
Q 1547 4250 1301 3770 
Q 1056 3291 1056 2328 
Q 1056 1369 1301 889 
Q 1547 409 2034 409 
Q 2525 409 2770 889 
Q 3016 1369 3016 2328 
Q 3016 3291 2770 3770 
Q 2525 4250 2034 4250 
z
M 2034 4750 
Q 2819 4750 3233 4129 
Q 3647 3509 3647 2328 
Q 3647 1150 3233 529 
Q 2819 -91 2034 -91 
Q 1250 -91 836 529 
Q 422 1150 422 2328 
Q 422 3509 836 4129 
Q 1250 4750 2034 4750 
z
" transform="scale(0.015625)"/>
        <path id="DejaVuSans-2e" d="M 684 794 
L 1344 794 
L 1344 0 
L 684 0 
L 684 794 
z
" transform="scale(0.015625)"/>
       </defs>
       <use xlink:href="#DejaVuSans-30"/>
       <use xlink:href="#DejaVuSans-2e" x="63.623047"/>
       <use xlink:href="#DejaVuSans-30" x="95.410156"/>
       <use xlink:href="#DejaVuSans-30" x="159.033203"/>
       <use xlink:href="#DejaVuSans-30" x="222.65625"/>
      </g>
     </g>
    </g>
    <g id="xtick_2">
     <g id="line2d_3">
      <path d="M 126.407031 359.517188 
L 126.407031 26.877187 
" clip-path="url(#p66c8e54bb2)" style="fill: none; stroke: #b0b0b0; stroke-width: 0.8; stroke-linecap: square"/>
     </g>
     <g id="line2d_4">
      <g>
       <use xlink:href="#m59bd56a902" x="126.407031" y="359.517188" style="stroke: #000000; stroke-width: 0.8"/>
      </g>
     </g>
     <g id="text_2">
      <!-- 0.005 -->
      <g transform="translate(104.935938 377.914844) scale(0.15 -0.15)">
       <defs>
        <path id="DejaVuSans-35" d="M 691 4666 
L 3169 4666 
L 3169 4134 
L 1269 4134 
L 1269 2991 
Q 1406 3038 1543 3061 
Q 1681 3084 1819 3084 
Q 2600 3084 3056 2656 
Q 3513 2228 3513 1497 
Q 3513 744 3044 326 
Q 2575 -91 1722 -91 
Q 1428 -91 1123 -41 
Q 819 9 494 109 
L 494 744 
Q 775 591 1075 516 
Q 1375 441 1709 441 
Q 2250 441 2565 725 
Q 2881 1009 2881 1497 
Q 2881 1984 2565 2268 
Q 2250 2553 1709 2553 
Q 1456 2553 1204 2497 
Q 953 2441 691 2322 
L 691 4666 
z
" transform="scale(0.015625)"/>
       </defs>
       <use xlink:href="#DejaVuSans-30"/>
       <use xlink:href="#DejaVuSans-2e" x="63.623047"/>
       <use xlink:href="#DejaVuSans-30" x="95.410156"/>
       <use xlink:href="#DejaVuSans-30" x="159.033203"/>
       <use xlink:href="#DejaVuSans-35" x="222.65625"/>
      </g>
     </g>
    </g>
    <g id="xtick_3">
     <g id="line2d_5">
      <path d="M 188.407031 359.517188 
L 188.407031 26.877187 
" clip-path="url(#p66c8e54bb2)" style="fill: none; stroke: #b0b0b0; stroke-width: 0.8; stroke-linecap: square"/>
     </g>
     <g id="line2d_6">
      <g>
       <use xlink:href="#m59bd56a902" x="188.407031" y="359.517188" style="stroke: #000000; stroke-width: 0.8"/>
      </g>
     </g>
     <g id="text_3">
      <!-- 0.010 -->
      <g transform="translate(166.935938 377.914844) scale(0.15 -0.15)">
       <defs>
        <path id="DejaVuSans-31" d="M 794 531 
L 1825 531 
L 1825 4091 
L 703 3866 
L 703 4441 
L 1819 4666 
L 2450 4666 
L 2450 531 
L 3481 531 
L 3481 0 
L 794 0 
L 794 531 
z
" transform="scale(0.015625)"/>
       </defs>
       <use xlink:href="#DejaVuSans-30"/>
       <use xlink:href="#DejaVuSans-2e" x="63.623047"/>
       <use xlink:href="#DejaVuSans-30" x="95.410156"/>
       <use xlink:href="#DejaVuSans-31" x="159.033203"/>
       <use xlink:href="#DejaVuSans-30" x="222.65625"/>
      </g>
     </g>
    </g>
    <g id="xtick_4">
     <g id="line2d_7">
      <path d="M 250.407031 359.517188 
L 250.407031 26.877187 
" clip-path="url(#p66c8e54bb2)" style="fill: none; stroke: #b0b0b0; stroke-width: 0.8; stroke-linecap: square"/>
     </g>
     <g id="line2d_8">
      <g>
       <use xlink:href="#m59bd56a902" x="250.407031" y="359.517188" style="stroke: #000000; stroke-width: 0.8"/>
      </g>
     </g>
     <g id="text_4">
      <!-- 0.015 -->
      <g transform="translate(228.935938 377.914844) scale(0.15 -0.15)">
       <use xlink:href="#DejaVuSans-30"/>
       <use xlink:href="#DejaVuSans-2e" x="63.623047"/>
       <use xlink:href="#DejaVuSans-30" x="95.410156"/>
       <use xlink:href="#DejaVuSans-31" x="159.033203"/>
       <use xlink:href="#DejaVuSans-35" x="222.65625"/>
      </g>
     </g>
    </g>
    <g id="xtick_5">
     <g id="line2d_9">
      <path d="M 312.407031 359.517188 
L 312.407031 26.877187 
" clip-path="url(#p66c8e54bb2)" style="fill: none; stroke: #b0b0b0; stroke-width: 0.8; stroke-linecap: square"/>
     </g>
     <g id="line2d_10">
      <g>
       <use xlink:href="#m59bd56a902" x="312.407031" y="359.517188" style="stroke: #000000; stroke-width: 0.8"/>
      </g>
     </g>
     <g id="text_5">
      <!-- 0.020 -->
      <g transform="translate(290.935938 377.914844) scale(0.15 -0.15)">
       <defs>
        <path id="DejaVuSans-32" d="M 1228 531 
L 3431 531 
L 3431 0 
L 469 0 
L 469 531 
Q 828 903 1448 1529 
Q 2069 2156 2228 2338 
Q 2531 2678 2651 2914 
Q 2772 3150 2772 3378 
Q 2772 3750 2511 3984 
Q 2250 4219 1831 4219 
Q 1534 4219 1204 4116 
Q 875 4013 500 3803 
L 500 4441 
Q 881 4594 1212 4672 
Q 1544 4750 1819 4750 
Q 2544 4750 2975 4387 
Q 3406 4025 3406 3419 
Q 3406 3131 3298 2873 
Q 3191 2616 2906 2266 
Q 2828 2175 2409 1742 
Q 1991 1309 1228 531 
z
" transform="scale(0.015625)"/>
       </defs>
       <use xlink:href="#DejaVuSans-30"/>
       <use xlink:href="#DejaVuSans-2e" x="63.623047"/>
       <use xlink:href="#DejaVuSans-30" x="95.410156"/>
       <use xlink:href="#DejaVuSans-32" x="159.033203"/>
       <use xlink:href="#DejaVuSans-30" x="222.65625"/>
      </g>
     </g>
    </g>
    <g id="xtick_6">
     <g id="line2d_11">
      <path d="M 374.407031 359.517188 
L 374.407031 26.877187 
" clip-path="url(#p66c8e54bb2)" style="fill: none; stroke: #b0b0b0; stroke-width: 0.8; stroke-linecap: square"/>
     </g>
     <g id="line2d_12">
      <g>
       <use xlink:href="#m59bd56a902" x="374.407031" y="359.517188" style="stroke: #000000; stroke-width: 0.8"/>
      </g>
     </g>
     <g id="text_6">
      <!-- 0.025 -->
      <g transform="translate(352.935938 377.914844) scale(0.15 -0.15)">
       <use xlink:href="#DejaVuSans-30"/>
       <use xlink:href="#DejaVuSans-2e" x="63.623047"/>
       <use xlink:href="#DejaVuSans-30" x="95.410156"/>
       <use xlink:href="#DejaVuSans-32" x="159.033203"/>
       <use xlink:href="#DejaVuSans-35" x="222.65625"/>
      </g>
     </g>
    </g>
    <g id="xtick_7">
     <g id="line2d_13">
      <path d="M 436.407031 359.517188 
L 436.407031 26.877187 
" clip-path="url(#p66c8e54bb2)" style="fill: none; stroke: #b0b0b0; stroke-width: 0.8; stroke-linecap: square"/>
     </g>
     <g id="line2d_14">
      <g>
       <use xlink:href="#m59bd56a902" x="436.407031" y="359.517188" style="stroke: #000000; stroke-width: 0.8"/>
      </g>
     </g>
     <g id="text_7">
      <!-- 0.030 -->
      <g transform="translate(414.935938 377.914844) scale(0.15 -0.15)">
       <defs>
        <path id="DejaVuSans-33" d="M 2597 2516 
Q 3050 2419 3304 2112 
Q 3559 1806 3559 1356 
Q 3559 666 3084 287 
Q 2609 -91 1734 -91 
Q 1441 -91 1130 -33 
Q 819 25 488 141 
L 488 750 
Q 750 597 1062 519 
Q 1375 441 1716 441 
Q 2309 441 2620 675 
Q 2931 909 2931 1356 
Q 2931 1769 2642 2001 
Q 2353 2234 1838 2234 
L 1294 2234 
L 1294 2753 
L 1863 2753 
Q 2328 2753 2575 2939 
Q 2822 3125 2822 3475 
Q 2822 3834 2567 4026 
Q 2313 4219 1838 4219 
Q 1578 4219 1281 4162 
Q 984 4106 628 3988 
L 628 4550 
Q 988 4650 1302 4700 
Q 1616 4750 1894 4750 
Q 2613 4750 3031 4423 
Q 3450 4097 3450 3541 
Q 3450 3153 3228 2886 
Q 3006 2619 2597 2516 
z
" transform="scale(0.015625)"/>
       </defs>
       <use xlink:href="#DejaVuSans-30"/>
       <use xlink:href="#DejaVuSans-2e" x="63.623047"/>
       <use xlink:href="#DejaVuSans-30" x="95.410156"/>
       <use xlink:href="#DejaVuSans-33" x="159.033203"/>
       <use xlink:href="#DejaVuSans-30" x="222.65625"/>
      </g>
     </g>
    </g>
    <g id="xtick_8">
     <g id="line2d_15">
      <path d="M 498.407031 359.517188 
L 498.407031 26.877187 
" clip-path="url(#p66c8e54bb2)" style="fill: none; stroke: #b0b0b0; stroke-width: 0.8; stroke-linecap: square"/>
     </g>
     <g id="line2d_16">
      <g>
       <use xlink:href="#m59bd56a902" x="498.407031" y="359.517188" style="stroke: #000000; stroke-width: 0.8"/>
      </g>
     </g>
     <g id="text_8">
      <!-- 0.035 -->
      <g transform="translate(476.935938 377.914844) scale(0.15 -0.15)">
       <use xlink:href="#DejaVuSans-30"/>
       <use xlink:href="#DejaVuSans-2e" x="63.623047"/>
       <use xlink:href="#DejaVuSans-30" x="95.410156"/>
       <use xlink:href="#DejaVuSans-33" x="159.033203"/>
       <use xlink:href="#DejaVuSans-35" x="222.65625"/>
      </g>
     </g>
    </g>
    <g id="xtick_9">
     <g id="line2d_17">
      <path d="M 560.407031 359.517188 
L 560.407031 26.877187 
" clip-path="url(#p66c8e54bb2)" style="fill: none; stroke: #b0b0b0; stroke-width: 0.8; stroke-linecap: square"/>
     </g>
     <g id="line2d_18">
      <g>
       <use xlink:href="#m59bd56a902" x="560.407031" y="359.517188" style="stroke: #000000; stroke-width: 0.8"/>
      </g>
     </g>
     <g id="text_9">
      <!-- 0.040 -->
      <g transform="translate(538.935938 377.914844) scale(0.15 -0.15)">
       <defs>
        <path id="DejaVuSans-34" d="M 2419 4116 
L 825 1625 
L 2419 1625 
L 2419 4116 
z
M 2253 4666 
L 3047 4666 
L 3047 1625 
L 3713 1625 
L 3713 1100 
L 3047 1100 
L 3047 0 
L 2419 0 
L 2419 1100 
L 313 1100 
L 313 1709 
L 2253 4666 
z
" transform="scale(0.015625)"/>
       </defs>
       <use xlink:href="#DejaVuSans-30"/>
       <use xlink:href="#DejaVuSans-2e" x="63.623047"/>
       <use xlink:href="#DejaVuSans-30" x="95.410156"/>
       <use xlink:href="#DejaVuSans-34" x="159.033203"/>
       <use xlink:href="#DejaVuSans-30" x="222.65625"/>
      </g>
     </g>
    </g>
    <g id="xtick_10">
     <g id="line2d_19">
      <path d="M 622.407031 359.517188 
L 622.407031 26.877187 
" clip-path="url(#p66c8e54bb2)" style="fill: none; stroke: #b0b0b0; stroke-width: 0.8; stroke-linecap: square"/>
     </g>
     <g id="line2d_20">
      <g>
       <use xlink:href="#m59bd56a902" x="622.407031" y="359.517188" style="stroke: #000000; stroke-width: 0.8"/>
      </g>
     </g>
     <g id="text_10">
      <!-- 0.045 -->
      <g transform="translate(600.935938 377.914844) scale(0.15 -0.15)">
       <use xlink:href="#DejaVuSans-30"/>
       <use xlink:href="#DejaVuSans-2e" x="63.623047"/>
       <use xlink:href="#DejaVuSans-30" x="95.410156"/>
       <use xlink:href="#DejaVuSans-34" x="159.033203"/>
       <use xlink:href="#DejaVuSans-35" x="222.65625"/>
      </g>
     </g>
    </g>
    <g id="text_11">
     <!-- time [s] -->
     <g transform="translate(314.319922 396.432031) scale(0.15 -0.15)">
      <defs>
       <path id="DejaVuSans-74" d="M 1172 4494 
L 1172 3500 
L 2356 3500 
L 2356 3053 
L 1172 3053 
L 1172 1153 
Q 1172 725 1289 603 
Q 1406 481 1766 481 
L 2356 481 
L 2356 0 
L 1766 0 
Q 1100 0 847 248 
Q 594 497 594 1153 
L 594 3053 
L 172 3053 
L 172 3500 
L 594 3500 
L 594 4494 
L 1172 4494 
z
" transform="scale(0.015625)"/>
       <path id="DejaVuSans-69" d="M 603 3500 
L 1178 3500 
L 1178 0 
L 603 0 
L 603 3500 
z
M 603 4863 
L 1178 4863 
L 1178 4134 
L 603 4134 
L 603 4863 
z
" transform="scale(0.015625)"/>
       <path id="DejaVuSans-6d" d="M 3328 2828 
Q 3544 3216 3844 3400 
Q 4144 3584 4550 3584 
Q 5097 3584 5394 3201 
Q 5691 2819 5691 2113 
L 5691 0 
L 5113 0 
L 5113 2094 
Q 5113 2597 4934 2840 
Q 4756 3084 4391 3084 
Q 3944 3084 3684 2787 
Q 3425 2491 3425 1978 
L 3425 0 
L 2847 0 
L 2847 2094 
Q 2847 2600 2669 2842 
Q 2491 3084 2119 3084 
Q 1678 3084 1418 2786 
Q 1159 2488 1159 1978 
L 1159 0 
L 581 0 
L 581 3500 
L 1159 3500 
L 1159 2956 
Q 1356 3278 1631 3431 
Q 1906 3584 2284 3584 
Q 2666 3584 2933 3390 
Q 3200 3197 3328 2828 
z
" transform="scale(0.015625)"/>
       <path id="DejaVuSans-65" d="M 3597 1894 
L 3597 1613 
L 953 1613 
Q 991 1019 1311 708 
Q 1631 397 2203 397 
Q 2534 397 2845 478 
Q 3156 559 3463 722 
L 3463 178 
Q 3153 47 2828 -22 
Q 2503 -91 2169 -91 
Q 1331 -91 842 396 
Q 353 884 353 1716 
Q 353 2575 817 3079 
Q 1281 3584 2069 3584 
Q 2775 3584 3186 3129 
Q 3597 2675 3597 1894 
z
M 3022 2063 
Q 3016 2534 2758 2815 
Q 2500 3097 2075 3097 
Q 1594 3097 1305 2825 
Q 1016 2553 972 2059 
L 3022 2063 
z
" transform="scale(0.015625)"/>
       <path id="DejaVuSans-20" transform="scale(0.015625)"/>
       <path id="DejaVuSans-5b" d="M 550 4863 
L 1875 4863 
L 1875 4416 
L 1125 4416 
L 1125 -397 
L 1875 -397 
L 1875 -844 
L 550 -844 
L 550 4863 
z
" transform="scale(0.015625)"/>
       <path id="DejaVuSans-73" d="M 2834 3397 
L 2834 2853 
Q 2591 2978 2328 3040 
Q 2066 3103 1784 3103 
Q 1356 3103 1142 2972 
Q 928 2841 928 2578 
Q 928 2378 1081 2264 
Q 1234 2150 1697 2047 
L 1894 2003 
Q 2506 1872 2764 1633 
Q 3022 1394 3022 966 
Q 3022 478 2636 193 
Q 2250 -91 1575 -91 
Q 1294 -91 989 -36 
Q 684 19 347 128 
L 347 722 
Q 666 556 975 473 
Q 1284 391 1588 391 
Q 1994 391 2212 530 
Q 2431 669 2431 922 
Q 2431 1156 2273 1281 
Q 2116 1406 1581 1522 
L 1381 1569 
Q 847 1681 609 1914 
Q 372 2147 372 2553 
Q 372 3047 722 3315 
Q 1072 3584 1716 3584 
Q 2034 3584 2315 3537 
Q 2597 3491 2834 3397 
z
" transform="scale(0.015625)"/>
       <path id="DejaVuSans-5d" d="M 1947 4863 
L 1947 -844 
L 622 -844 
L 622 -397 
L 1369 -397 
L 1369 4416 
L 622 4416 
L 622 4863 
L 1947 4863 
z
" transform="scale(0.015625)"/>
      </defs>
      <use xlink:href="#DejaVuSans-74"/>
      <use xlink:href="#DejaVuSans-69" x="39.208984"/>
      <use xlink:href="#DejaVuSans-6d" x="66.992188"/>
      <use xlink:href="#DejaVuSans-65" x="164.404297"/>
      <use xlink:href="#DejaVuSans-20" x="225.927734"/>
      <use xlink:href="#DejaVuSans-5b" x="257.714844"/>
      <use xlink:href="#DejaVuSans-73" x="296.728516"/>
      <use xlink:href="#DejaVuSans-5d" x="348.828125"/>
     </g>
    </g>
   </g>
   <g id="matplotlib.axis_2">
    <g id="ytick_1">
     <g id="line2d_21">
      <path d="M 64.407031 357.305537 
L 622.407031 357.305537 
" clip-path="url(#p66c8e54bb2)" style="fill: none; stroke: #b0b0b0; stroke-width: 0.8; stroke-linecap: square"/>
     </g>
     <g id="line2d_22">
      <defs>
       <path id="m8dcaa8aa1c" d="M 0 0 
L -3.5 0 
" style="stroke: #000000; stroke-width: 0.8"/>
      </defs>
      <g>
       <use xlink:href="#m8dcaa8aa1c" x="64.407031" y="357.305537" style="stroke: #000000; stroke-width: 0.8"/>
      </g>
     </g>
     <g id="text_12">
      <!-- −30 -->
      <g transform="translate(25.75 363.004365) scale(0.15 -0.15)">
       <defs>
        <path id="DejaVuSans-2212" d="M 678 2272 
L 4684 2272 
L 4684 1741 
L 678 1741 
L 678 2272 
z
" transform="scale(0.015625)"/>
       </defs>
       <use xlink:href="#DejaVuSans-2212"/>
       <use xlink:href="#DejaVuSans-33" x="83.789062"/>
       <use xlink:href="#DejaVuSans-30" x="147.412109"/>
      </g>
     </g>
    </g>
    <g id="ytick_2">
     <g id="line2d_23">
      <path d="M 64.407031 294.338966 
L 622.407031 294.338966 
" clip-path="url(#p66c8e54bb2)" style="fill: none; stroke: #b0b0b0; stroke-width: 0.8; stroke-linecap: square"/>
     </g>
     <g id="line2d_24">
      <g>
       <use xlink:href="#m8dcaa8aa1c" x="64.407031" y="294.338966" style="stroke: #000000; stroke-width: 0.8"/>
      </g>
     </g>
     <g id="text_13">
      <!-- −20 -->
      <g transform="translate(25.75 300.037794) scale(0.15 -0.15)">
       <use xlink:href="#DejaVuSans-2212"/>
       <use xlink:href="#DejaVuSans-32" x="83.789062"/>
       <use xlink:href="#DejaVuSans-30" x="147.412109"/>
      </g>
     </g>
    </g>
    <g id="ytick_3">
     <g id="line2d_25">
      <path d="M 64.407031 231.372396 
L 622.407031 231.372396 
" clip-path="url(#p66c8e54bb2)" style="fill: none; stroke: #b0b0b0; stroke-width: 0.8; stroke-linecap: square"/>
     </g>
     <g id="line2d_26">
      <g>
       <use xlink:href="#m8dcaa8aa1c" x="64.407031" y="231.372396" style="stroke: #000000; stroke-width: 0.8"/>
      </g>
     </g>
     <g id="text_14">
      <!-- −10 -->
      <g transform="translate(25.75 237.071224) scale(0.15 -0.15)">
       <use xlink:href="#DejaVuSans-2212"/>
       <use xlink:href="#DejaVuSans-31" x="83.789062"/>
       <use xlink:href="#DejaVuSans-30" x="147.412109"/>
      </g>
     </g>
    </g>
    <g id="ytick_4">
     <g id="line2d_27">
      <path d="M 64.407031 168.405825 
L 622.407031 168.405825 
" clip-path="url(#p66c8e54bb2)" style="fill: none; stroke: #b0b0b0; stroke-width: 0.8; stroke-linecap: square"/>
     </g>
     <g id="line2d_28">
      <g>
       <use xlink:href="#m8dcaa8aa1c" x="64.407031" y="168.405825" style="stroke: #000000; stroke-width: 0.8"/>
      </g>
     </g>
     <g id="text_15">
      <!-- 0 -->
      <g transform="translate(47.863281 174.104653) scale(0.15 -0.15)">
       <use xlink:href="#DejaVuSans-30"/>
      </g>
     </g>
    </g>
    <g id="ytick_5">
     <g id="line2d_29">
      <path d="M 64.407031 105.439254 
L 622.407031 105.439254 
" clip-path="url(#p66c8e54bb2)" style="fill: none; stroke: #b0b0b0; stroke-width: 0.8; stroke-linecap: square"/>
     </g>
     <g id="line2d_30">
      <g>
       <use xlink:href="#m8dcaa8aa1c" x="64.407031" y="105.439254" style="stroke: #000000; stroke-width: 0.8"/>
      </g>
     </g>
     <g id="text_16">
      <!-- 10 -->
      <g transform="translate(38.319531 111.138083) scale(0.15 -0.15)">
       <use xlink:href="#DejaVuSans-31"/>
       <use xlink:href="#DejaVuSans-30" x="63.623047"/>
      </g>
     </g>
    </g>
    <g id="ytick_6">
     <g id="line2d_31">
      <path d="M 64.407031 42.472684 
L 622.407031 42.472684 
" clip-path="url(#p66c8e54bb2)" style="fill: none; stroke: #b0b0b0; stroke-width: 0.8; stroke-linecap: square"/>
     </g>
     <g id="line2d_32">
      <g>
       <use xlink:href="#m8dcaa8aa1c" x="64.407031" y="42.472684" style="stroke: #000000; stroke-width: 0.8"/>
      </g>
     </g>
     <g id="text_17">
      <!-- 20 -->
      <g transform="translate(38.319531 48.171512) scale(0.15 -0.15)">
       <use xlink:href="#DejaVuSans-32"/>
       <use xlink:href="#DejaVuSans-30" x="63.623047"/>
      </g>
     </g>
    </g>
    <g id="text_18">
     <!-- acceleration [$\it{g}$] -->
     <g transform="translate(18.6 252.447188) rotate(-90) scale(0.15 -0.15)">
      <defs>
       <path id="DejaVuSans-61" d="M 2194 1759 
Q 1497 1759 1228 1600 
Q 959 1441 959 1056 
Q 959 750 1161 570 
Q 1363 391 1709 391 
Q 2188 391 2477 730 
Q 2766 1069 2766 1631 
L 2766 1759 
L 2194 1759 
z
M 3341 1997 
L 3341 0 
L 2766 0 
L 2766 531 
Q 2569 213 2275 61 
Q 1981 -91 1556 -91 
Q 1019 -91 701 211 
Q 384 513 384 1019 
Q 384 1609 779 1909 
Q 1175 2209 1959 2209 
L 2766 2209 
L 2766 2266 
Q 2766 2663 2505 2880 
Q 2244 3097 1772 3097 
Q 1472 3097 1187 3025 
Q 903 2953 641 2809 
L 641 3341 
Q 956 3463 1253 3523 
Q 1550 3584 1831 3584 
Q 2591 3584 2966 3190 
Q 3341 2797 3341 1997 
z
" transform="scale(0.015625)"/>
       <path id="DejaVuSans-63" d="M 3122 3366 
L 3122 2828 
Q 2878 2963 2633 3030 
Q 2388 3097 2138 3097 
Q 1578 3097 1268 2742 
Q 959 2388 959 1747 
Q 959 1106 1268 751 
Q 1578 397 2138 397 
Q 2388 397 2633 464 
Q 2878 531 3122 666 
L 3122 134 
Q 2881 22 2623 -34 
Q 2366 -91 2075 -91 
Q 1284 -91 818 406 
Q 353 903 353 1747 
Q 353 2603 823 3093 
Q 1294 3584 2113 3584 
Q 2378 3584 2631 3529 
Q 2884 3475 3122 3366 
z
" transform="scale(0.015625)"/>
       <path id="DejaVuSans-6c" d="M 603 4863 
L 1178 4863 
L 1178 0 
L 603 0 
L 603 4863 
z
" transform="scale(0.015625)"/>
       <path id="DejaVuSans-72" d="M 2631 2963 
Q 2534 3019 2420 3045 
Q 2306 3072 2169 3072 
Q 1681 3072 1420 2755 
Q 1159 2438 1159 1844 
L 1159 0 
L 581 0 
L 581 3500 
L 1159 3500 
L 1159 2956 
Q 1341 3275 1631 3429 
Q 1922 3584 2338 3584 
Q 2397 3584 2469 3576 
Q 2541 3569 2628 3553 
L 2631 2963 
z
" transform="scale(0.015625)"/>
       <path id="DejaVuSans-6f" d="M 1959 3097 
Q 1497 3097 1228 2736 
Q 959 2375 959 1747 
Q 959 1119 1226 758 
Q 1494 397 1959 397 
Q 2419 397 2687 759 
Q 2956 1122 2956 1747 
Q 2956 2369 2687 2733 
Q 2419 3097 1959 3097 
z
M 1959 3584 
Q 2709 3584 3137 3096 
Q 3566 2609 3566 1747 
Q 3566 888 3137 398 
Q 2709 -91 1959 -91 
Q 1206 -91 779 398 
Q 353 888 353 1747 
Q 353 2609 779 3096 
Q 1206 3584 1959 3584 
z
" transform="scale(0.015625)"/>
       <path id="DejaVuSans-6e" d="M 3513 2113 
L 3513 0 
L 2938 0 
L 2938 2094 
Q 2938 2591 2744 2837 
Q 2550 3084 2163 3084 
Q 1697 3084 1428 2787 
Q 1159 2491 1159 1978 
L 1159 0 
L 581 0 
L 581 3500 
L 1159 3500 
L 1159 2956 
Q 1366 3272 1645 3428 
Q 1925 3584 2291 3584 
Q 2894 3584 3203 3211 
Q 3513 2838 3513 2113 
z
" transform="scale(0.015625)"/>
       <path id="DejaVuSans-Oblique-67" d="M 3816 3500 
L 3219 434 
Q 3047 -456 2561 -893 
Q 2075 -1331 1253 -1331 
Q 950 -1331 690 -1286 
Q 431 -1241 206 -1147 
L 313 -588 
Q 525 -725 762 -790 
Q 1000 -856 1269 -856 
Q 1816 -856 2167 -557 
Q 2519 -259 2631 300 
L 2681 563 
Q 2441 288 2122 144 
Q 1803 0 1434 0 
Q 903 0 598 351 
Q 294 703 294 1319 
Q 294 1803 478 2267 
Q 663 2731 997 3091 
Q 1219 3328 1514 3456 
Q 1809 3584 2131 3584 
Q 2484 3584 2746 3420 
Q 3009 3256 3138 2956 
L 3238 3500 
L 3816 3500 
z
M 2950 2216 
Q 2950 2641 2750 2872 
Q 2550 3103 2181 3103 
Q 1953 3103 1747 3012 
Q 1541 2922 1394 2759 
Q 1156 2491 1023 2127 
Q 891 1763 891 1375 
Q 891 944 1092 712 
Q 1294 481 1672 481 
Q 2219 481 2584 976 
Q 2950 1472 2950 2216 
z
" transform="scale(0.015625)"/>
      </defs>
      <use xlink:href="#DejaVuSans-61" transform="translate(0 0.015625)"/>
      <use xlink:href="#DejaVuSans-63" transform="translate(61.279297 0.015625)"/>
      <use xlink:href="#DejaVuSans-63" transform="translate(116.259766 0.015625)"/>
      <use xlink:href="#DejaVuSans-65" transform="translate(171.240234 0.015625)"/>
      <use xlink:href="#DejaVuSans-6c" transform="translate(232.763672 0.015625)"/>
      <use xlink:href="#DejaVuSans-65" transform="translate(260.546875 0.015625)"/>
      <use xlink:href="#DejaVuSans-72" transform="translate(322.070312 0.015625)"/>
      <use xlink:href="#DejaVuSans-61" transform="translate(363.183594 0.015625)"/>
      <use xlink:href="#DejaVuSans-74" transform="translate(424.462891 0.015625)"/>
      <use xlink:href="#DejaVuSans-69" transform="translate(463.671875 0.015625)"/>
      <use xlink:href="#DejaVuSans-6f" transform="translate(491.455078 0.015625)"/>
      <use xlink:href="#DejaVuSans-6e" transform="translate(552.636719 0.015625)"/>
      <use xlink:href="#DejaVuSans-20" transform="translate(616.015625 0.015625)"/>
      <use xlink:href="#DejaVuSans-5b" transform="translate(647.802734 0.015625)"/>
      <use xlink:href="#DejaVuSans-Oblique-67" transform="translate(686.816406 0.015625)"/>
      <use xlink:href="#DejaVuSans-5d" transform="translate(750.292969 0.015625)"/>
     </g>
    </g>
   </g>
   <g id="line2d_33">
    <path d="M 64.4071 192.639747 
L 66.473767 139.316379 
L 68.540434 26.877188 
L 70.6071 99.641273 
L 72.673767 82.21914 
L 74.740434 28.436536 
L 76.8071 144.293837 
L 78.873767 88.632481 
L 80.940434 58.536212 
L 83.0071 118.273896 
L 85.073767 74.197263 
L 87.140434 68.581732 
L 89.2071 114.435309 
L 91.273767 69.961643 
L 93.340434 77.358668 
L 95.4071 105.751291 
L 97.473767 75.128157 
L 99.540434 73.354339 
L 101.6071 102.975016 
L 103.673767 76.216697 
L 105.740434 81.071972 
L 107.8071 95.515097 
L 109.873767 76.055937 
L 111.940434 92.823683 
L 114.0071 98.277138 
L 116.073767 53.308322 
L 118.140434 121.656101 
L 120.2071 78.216311 
L 122.273767 68.172914 
L 124.340434 107.651952 
L 126.4071 74.0753 
L 128.473767 82.111791 
L 130.540434 99.626333 
L 132.6071 73.369827 
L 134.673767 90.279867 
L 136.740434 90.678741 
L 138.8071 77.042211 
L 140.873767 91.362307 
L 142.940434 95.706641 
L 145.0071 77.132881 
L 147.073767 92.226848 
L 149.140434 87.396386 
L 151.2071 83.610292 
L 153.273767 86.473765 
L 155.340434 85.338914 
L 157.4071 84.747353 
L 159.473767 87.59185 
L 161.540434 82.898604 
L 163.6071 86.165811 
L 165.673767 88.305321 
L 167.740434 85.629487 
L 169.8071 85.533849 
L 171.873767 90.114639 
L 173.940434 81.493818 
L 176.0071 91.733807 
L 178.073767 84.344156 
L 180.140434 86.57166 
L 182.2071 88.437968 
L 184.273767 85.081123 
L 186.340434 84.762188 
L 188.4071 88.407751 
L 190.473767 84.362997 
L 192.540434 90.072345 
L 194.6071 82.672731 
L 196.673767 90.901145 
L 198.740434 94.785903 
L 200.8071 79.025433 
L 202.873767 90.774551 
L 204.940434 93.604155 
L 207.0071 80.343354 
L 209.073767 93.495835 
L 211.140434 86.926039 
L 213.2071 84.976627 
L 215.273767 94.895587 
L 217.340434 83.524522 
L 219.4071 87.05638 
L 221.473767 95.316847 
L 223.540434 85.340057 
L 225.6071 88.924476 
L 227.673767 92.996098 
L 229.740434 86.236535 
L 231.8071 91.652611 
L 233.873767 90.02862 
L 235.940434 86.392616 
L 238.0071 92.937691 
L 240.073767 85.470437 
L 242.140434 90.016417 
L 244.2071 92.967072 
L 246.273767 87.748623 
L 248.340434 91.37669 
L 250.4071 91.855261 
L 252.473767 87.115671 
L 254.540434 92.796897 
L 256.6071 91.874362 
L 258.673767 89.593505 
L 260.740434 94.946038 
L 262.8071 88.564236 
L 264.873767 90.746313 
L 266.940434 93.756979 
L 269.0071 89.267594 
L 271.073767 92.24713 
L 273.140434 90.079436 
L 275.2071 93.022049 
L 277.273767 92.453519 
L 279.340434 92.507092 
L 281.4071 91.533097 
L 283.473767 95.005771 
L 285.540434 92.820907 
L 287.6071 89.593601 
L 289.673767 96.016266 
L 291.740434 90.479943 
L 293.8071 93.794469 
L 295.873767 91.451353 
L 297.940434 92.868187 
L 300.0071 92.843735 
L 302.073767 91.986525 
L 304.140434 93.781508 
L 306.2071 92.575981 
L 308.273767 94.813862 
L 310.340434 90.993487 
L 312.4071 96.742155 
L 314.473767 91.427439 
L 316.540434 94.716274 
L 318.6071 94.588181 
L 320.673767 91.06399 
L 322.740434 97.667515 
L 324.8071 89.613259 
L 326.873767 95.792613 
L 328.940434 91.279217 
L 331.0071 95.295277 
L 333.073767 93.016409 
L 335.140434 93.521537 
L 337.2071 98.102188 
L 339.273767 84.733278 
L 341.340434 110.776977 
L 343.4071 73.818095 
L 345.473767 117.870737 
L 347.540434 63.744799 
L 349.6071 165.065907 
L 351.673767 359.517188 
L 353.740434 236.674828 
L 355.8071 203.752051 
L 357.873767 318.890548 
L 359.940434 237.214506 
L 362.0071 207.601566 
L 364.073767 287.431792 
L 366.140434 216.648531 
L 368.2071 259.388023 
L 370.273767 262.303388 
L 372.340434 239.465751 
L 374.4071 246.23019 
L 376.473767 258.798672 
L 378.540434 241.491652 
L 380.6071 248.57346 
L 382.673767 258.845703 
L 384.740434 240.421452 
L 388.873767 255.947892 
L 390.940434 244.04621 
L 393.0071 252.409558 
L 395.073767 255.343543 
L 397.140434 247.693104 
L 399.2071 243.326335 
L 401.273767 247.357585 
L 403.340434 254.143646 
L 405.4071 249.589754 
L 407.473767 243.378035 
L 409.540434 250.856425 
L 411.6071 245.911591 
L 413.673767 249.129168 
L 415.740434 250.157698 
L 417.8071 248.275152 
L 419.873767 253.833848 
L 421.940434 250.649326 
L 424.0071 248.384904 
L 426.073767 240.341428 
L 428.140434 257.319722 
L 432.273767 242.05902 
L 434.340434 251.049334 
L 436.4071 248.430916 
L 438.473767 250.354699 
L 440.540434 241.35029 
L 442.6071 253.846675 
L 444.673767 248.459538 
L 446.740434 246.355045 
L 448.8071 247.715288 
L 450.873767 245.512381 
L 452.940434 257.201439 
L 455.0071 223.810974 
L 457.073767 102.266113 
L 459.140434 192.488062 
L 461.2071 206.656525 
L 463.273767 114.011013 
L 465.340434 184.843479 
L 467.4071 167.503032 
L 469.473767 145.03213 
L 471.540434 191.778367 
L 473.6071 161.037018 
L 475.673767 161.838063 
L 477.740434 192.31337 
L 479.8071 158.845575 
L 481.873767 164.286415 
L 483.940434 193.535625 
L 486.0071 159.891639 
L 490.140434 180.024207 
L 492.2071 161.302942 
L 494.273767 165.961734 
L 496.340434 162.500915 
L 498.4071 164.858892 
L 500.473767 171.909167 
L 502.540434 168.387286 
L 504.6071 167.710194 
L 506.673767 177.063752 
L 508.740434 166.708352 
L 510.8071 170.774926 
L 512.873767 175.324264 
L 514.940434 166.194662 
L 517.0071 171.607432 
L 519.073767 169.876473 
L 521.140434 166.485948 
L 521.140434 166.485948 
" clip-path="url(#p66c8e54bb2)" style="fill: none; stroke: #ff0000; stroke-width: 1.5; stroke-linecap: square"/>
   </g>
   <g id="line2d_34">
    <path d="M -1 165.226039 
L 0.561173 167.951055 
L 2.421917 164.279096 
L 4.282662 159.159864 
L 6.143406 156.120896 
L 8.00415 155.39265 
L 9.864894 156.203861 
L 11.725639 157.955339 
L 13.586383 161.667244 
L 15.447127 167.213591 
L 17.307872 166.881732 
L 19.168616 163.013116 
L 21.02936 161.273928 
L 22.890104 162.884059 
L 24.750849 162.094358 
L 28.472337 165.133326 
L 30.333082 167.299628 
L 32.193826 167.456339 
L 34.05457 167.029225 
L 35.915315 166.187286 
L 37.776059 164.91516 
L 39.636803 163.086862 
L 41.497547 161.817809 
L 43.358292 161.51975 
L 45.219036 163.504759 
L 47.07978 163.621524 
L 48.940525 164.552573 
L 50.801269 166.940114 
L 52.662013 167.514722 
L 54.522758 167.133699 
L 58.244246 168.249114 
L 60.10499 167.984856 
L 61.965735 167.096826 
L 63.826479 167.440976 
L 67.547968 164.472681 
L 69.408712 161.959156 
L 71.269456 161.535114 
L 74.990945 159.719108 
L 78.712433 159.964929 
L 80.573178 161.747135 
L 82.433922 162.082067 
L 84.294666 162.979316 
L 88.016155 161.802445 
L 89.876899 161.584279 
L 93.598388 160.170805 
L 95.459132 158.244179 
L 97.319876 158.572965 
L 99.180621 158.238034 
L 101.041365 158.901751 
L 102.902109 158.815714 
L 104.762854 157.303912 
L 106.623598 157.706444 
L 108.484342 156.82456 
L 114.066575 155.927311 
L 115.927319 155.364995 
L 117.788064 154.507692 
L 119.648808 154.409363 
L 121.509552 153.496751 
L 123.370297 153.297021 
L 125.231041 152.491956 
L 127.091785 152.117079 
L 128.952529 151.520961 
L 130.813274 150.500803 
L 132.674018 149.941558 
L 134.534762 149.105766 
L 136.395507 148.866088 
L 138.256251 148.242316 
L 140.116995 147.931968 
L 141.97774 147.434178 
L 147.559972 147.50178 
L 149.420717 147.695364 
L 151.281461 147.378869 
L 153.142205 147.46798 
L 155.00295 147.065446 
L 156.863694 146.801189 
L 158.724438 146.327982 
L 160.585183 145.135748 
L 162.445927 143.347396 
L 164.306671 141.113494 
L 168.02816 137.327844 
L 169.888904 136.11717 
L 171.749648 135.333615 
L 173.610393 134.841974 
L 179.192625 134.076853 
L 181.05337 133.947797 
L 182.914114 134.006179 
L 188.496347 133.222623 
L 190.357091 132.558904 
L 192.217836 132.070335 
L 194.07858 131.796858 
L 197.800068 131.90748 
L 199.660813 132.254703 
L 201.521557 133.155023 
L 203.382301 134.248929 
L 205.243046 134.832754 
L 208.964534 134.765154 
L 210.825279 134.473242 
L 214.546767 134.636097 
L 216.407511 134.39335 
L 218.268256 133.75114 
L 220.129 132.930711 
L 221.989744 131.726187 
L 225.711233 127.387436 
L 227.571977 124.803237 
L 229.432722 122.560117 
L 231.293466 120.57818 
L 235.014954 116.008974 
L 236.875699 113.873399 
L 238.736443 112.93928 
L 240.597187 112.779496 
L 244.318676 115.080998 
L 246.17942 115.136309 
L 248.040165 114.555553 
L 249.900909 114.829027 
L 251.761653 116.479108 
L 253.622397 117.708214 
L 255.483142 117.864926 
L 257.343886 118.971124 
L 259.20463 118.464117 
L 261.065375 117.468538 
L 262.926119 117.222716 
L 264.786863 116.187193 
L 266.647607 115.640239 
L 268.508352 114.066984 
L 270.369096 114.245203 
L 272.22984 113.959437 
L 274.090585 114.380409 
L 275.951329 115.385199 
L 277.812073 115.704767 
L 279.672818 116.893931 
L 281.533562 116.771017 
L 283.394306 117.167408 
L 285.25505 116.399213 
L 288.976539 115.197763 
L 290.837283 113.599925 
L 292.698028 112.340089 
L 294.558772 110.914321 
L 296.419516 109.642199 
L 298.280261 107.503549 
L 300.141005 107.30689 
L 302.001749 108.277885 
L 303.862493 110.487206 
L 305.723238 114.128438 
L 307.583982 117.3149 
L 309.444726 121.155861 
L 311.305471 122.692245 
L 313.166215 124.04119 
L 315.026959 124.523616 
L 316.887704 123.236125 
L 318.748448 121.398608 
L 320.609192 118.454896 
L 322.469936 116.162609 
L 324.330681 113.252699 
L 326.191425 109.955618 
L 328.052169 105.3649 
L 331.773658 99.253164 
L 333.634402 97.24972 
L 335.495146 96.678188 
L 337.355891 95.827026 
L 339.216635 97.627673 
L 341.077379 97.618456 
L 342.938124 98.140826 
L 344.798868 99.342276 
L 348.520357 99.351494 
L 350.381101 98.53414 
L 352.241845 99.615751 
L 354.102589 100.552944 
L 355.963334 102.577903 
L 357.824078 104.347817 
L 359.684822 105.263501 
L 361.545567 105.994818 
L 363.406311 105.088351 
L 365.267055 105.389484 
L 367.1278 105.241992 
L 368.988544 105.681399 
L 370.849288 105.331104 
L 372.710032 104.360109 
L 374.570777 103.791646 
L 376.431521 102.648575 
L 378.292265 102.264479 
L 380.15301 100.927823 
L 382.013754 100.565236 
L 383.874498 99.035001 
L 385.735243 96.370906 
L 387.595987 93.952639 
L 389.456731 92.1858 
L 391.317475 92.619058 
L 393.17822 91.389949 
L 395.038964 90.311407 
L 396.899708 88.940955 
L 398.760453 87.100364 
L 400.621197 86.780796 
L 402.481941 86.1263 
L 404.342686 87.392279 
L 406.20343 87.653461 
L 408.064174 86.722417 
L 409.924918 86.80538 
L 411.785663 86.599503 
L 413.646407 87.367695 
L 415.507151 87.896214 
L 417.367896 87.847046 
L 419.22864 88.673624 
L 421.089384 88.956316 
L 422.950128 89.463326 
L 424.810873 89.595451 
L 426.671617 89.361921 
L 428.532361 88.885644 
L 430.393106 87.933084 
L 432.25385 87.46295 
L 434.114594 86.667106 
L 435.975339 87.014326 
L 437.836083 86.627161 
L 439.696827 87.687263 
L 441.557571 88.596804 
L 443.418316 88.811898 
L 445.27906 89.278958 
L 447.139804 88.249584 
L 450.861293 88.483113 
L 452.722037 88.412436 
L 454.582782 88.221925 
L 456.443526 87.748723 
L 458.30427 87.736431 
L 460.165014 87.25093 
L 462.025759 86.906778 
L 465.747247 85.167591 
L 467.607992 85.143013 
L 469.468736 84.657513 
L 471.32948 84.617568 
L 475.050969 83.79714 
L 476.911713 84.264199 
L 478.772457 84.53768 
L 484.35469 88.357131 
L 486.215435 89.42645 
L 488.076179 90.237661 
L 489.936923 90.677068 
L 491.797668 90.713944 
L 493.658412 90.400519 
L 495.519156 90.523433 
L 497.3799 91.389949 
L 499.240645 90.984343 
L 501.101389 91.09804 
L 502.962133 91.780194 
L 504.822878 91.979922 
L 506.683622 91.549733 
L 508.544366 90.468122 
L 510.40511 89.807477 
L 512.265855 88.744295 
L 515.987343 87.825537 
L 517.848088 87.502901 
L 519.708832 87.505969 
L 521.569576 87.303166 
L 523.430321 88.255726 
L 525.291065 88.928663 
L 527.151809 89.844347 
L 529.012553 90.523433 
L 530.873298 91.07653 
L 532.734042 92.228819 
L 534.594786 92.554529 
L 536.455531 93.617705 
L 538.316275 94.33981 
L 540.177019 94.865255 
L 542.037764 95.630372 
L 543.898508 95.725628 
L 547.619996 96.475385 
L 549.480741 96.745785 
L 551.341485 96.791878 
L 553.202229 97.006973 
L 556.923718 95.372259 
L 558.784462 95.200183 
L 560.645207 94.696247 
L 562.505951 95.249351 
L 566.227439 95.777864 
L 568.088184 95.891555 
L 569.948928 95.876194 
L 573.670417 97.931874 
L 577.391905 100.768039 
L 579.252649 102.541027 
L 581.113394 104.519893 
L 582.974138 106.326677 
L 584.834882 108.732658 
L 588.556371 113.268065 
L 590.417115 115.938303 
L 592.27786 119.419745 
L 595.999348 127.28296 
L 597.860092 131.97508 
L 603.442325 148.091752 
L 605.30307 153.220202 
L 607.163814 157.40224 
L 609.024558 160.932851 
L 612.746047 166.660492 
L 614.606791 167.757471 
L 616.467535 167.244318 
L 618.32828 167.760544 
L 620.189024 168.06782 
L 622.049768 166.368579 
L 623.910513 165.953756 
L 625.771257 165.772462 
L 627.632001 164.958178 
L 629.492746 164.355916 
L 631.35349 164.358989 
L 633.214234 164.534136 
L 635.074978 165.406803 
L 636.935723 166.500708 
L 638.796467 168.030947 
L 640.657211 165.074944 
L 642.517956 162.877914 
L 642.517956 162.877914 
" clip-path="url(#p66c8e54bb2)" style="fill: none; stroke: #0000ff; stroke-width: 1.5; stroke-linecap: square"/>
   </g>
   <g id="patch_3">
    <path d="M 64.407031 359.517188 
L 64.407031 26.877188 
" style="fill: none; stroke: #000000; stroke-width: 0.8; stroke-linejoin: miter; stroke-linecap: square"/>
   </g>
   <g id="patch_4">
    <path d="M 622.407031 359.517188 
L 622.407031 26.877188 
" style="fill: none; stroke: #000000; stroke-width: 0.8; stroke-linejoin: miter; stroke-linecap: square"/>
   </g>
   <g id="patch_5">
    <path d="M 64.407031 359.517188 
L 622.407031 359.517188 
" style="fill: none; stroke: #000000; stroke-width: 0.8; stroke-linejoin: miter; stroke-linecap: square"/>
   </g>
   <g id="patch_6">
    <path d="M 64.407031 26.877187 
L 622.407031 26.877187 
" style="fill: none; stroke: #000000; stroke-width: 0.8; stroke-linejoin: miter; stroke-linecap: square"/>
   </g>
   <g id="text_19">
    <!-- shock vibration (z-axis) -->
    <g transform="translate(238.607656 20.877187) scale(0.18 -0.18)">
     <defs>
      <path id="DejaVuSans-68" d="M 3513 2113 
L 3513 0 
L 2938 0 
L 2938 2094 
Q 2938 2591 2744 2837 
Q 2550 3084 2163 3084 
Q 1697 3084 1428 2787 
Q 1159 2491 1159 1978 
L 1159 0 
L 581 0 
L 581 4863 
L 1159 4863 
L 1159 2956 
Q 1366 3272 1645 3428 
Q 1925 3584 2291 3584 
Q 2894 3584 3203 3211 
Q 3513 2838 3513 2113 
z
" transform="scale(0.015625)"/>
      <path id="DejaVuSans-6b" d="M 581 4863 
L 1159 4863 
L 1159 1991 
L 2875 3500 
L 3609 3500 
L 1753 1863 
L 3688 0 
L 2938 0 
L 1159 1709 
L 1159 0 
L 581 0 
L 581 4863 
z
" transform="scale(0.015625)"/>
      <path id="DejaVuSans-76" d="M 191 3500 
L 800 3500 
L 1894 563 
L 2988 3500 
L 3597 3500 
L 2284 0 
L 1503 0 
L 191 3500 
z
" transform="scale(0.015625)"/>
      <path id="DejaVuSans-62" d="M 3116 1747 
Q 3116 2381 2855 2742 
Q 2594 3103 2138 3103 
Q 1681 3103 1420 2742 
Q 1159 2381 1159 1747 
Q 1159 1113 1420 752 
Q 1681 391 2138 391 
Q 2594 391 2855 752 
Q 3116 1113 3116 1747 
z
M 1159 2969 
Q 1341 3281 1617 3432 
Q 1894 3584 2278 3584 
Q 2916 3584 3314 3078 
Q 3713 2572 3713 1747 
Q 3713 922 3314 415 
Q 2916 -91 2278 -91 
Q 1894 -91 1617 61 
Q 1341 213 1159 525 
L 1159 0 
L 581 0 
L 581 4863 
L 1159 4863 
L 1159 2969 
z
" transform="scale(0.015625)"/>
      <path id="DejaVuSans-28" d="M 1984 4856 
Q 1566 4138 1362 3434 
Q 1159 2731 1159 2009 
Q 1159 1288 1364 580 
Q 1569 -128 1984 -844 
L 1484 -844 
Q 1016 -109 783 600 
Q 550 1309 550 2009 
Q 550 2706 781 3412 
Q 1013 4119 1484 4856 
L 1984 4856 
z
" transform="scale(0.015625)"/>
      <path id="DejaVuSans-7a" d="M 353 3500 
L 3084 3500 
L 3084 2975 
L 922 459 
L 3084 459 
L 3084 0 
L 275 0 
L 275 525 
L 2438 3041 
L 353 3041 
L 353 3500 
z
" transform="scale(0.015625)"/>
      <path id="DejaVuSans-2d" d="M 313 2009 
L 1997 2009 
L 1997 1497 
L 313 1497 
L 313 2009 
z
" transform="scale(0.015625)"/>
      <path id="DejaVuSans-78" d="M 3513 3500 
L 2247 1797 
L 3578 0 
L 2900 0 
L 1881 1375 
L 863 0 
L 184 0 
L 1544 1831 
L 300 3500 
L 978 3500 
L 1906 2253 
L 2834 3500 
L 3513 3500 
z
" transform="scale(0.015625)"/>
      <path id="DejaVuSans-29" d="M 513 4856 
L 1013 4856 
Q 1481 4119 1714 3412 
Q 1947 2706 1947 2009 
Q 1947 1309 1714 600 
Q 1481 -109 1013 -844 
L 513 -844 
Q 928 -128 1133 580 
Q 1338 1288 1338 2009 
Q 1338 2731 1133 3434 
Q 928 4138 513 4856 
z
" transform="scale(0.015625)"/>
     </defs>
     <use xlink:href="#DejaVuSans-73"/>
     <use xlink:href="#DejaVuSans-68" x="52.099609"/>
     <use xlink:href="#DejaVuSans-6f" x="115.478516"/>
     <use xlink:href="#DejaVuSans-63" x="176.660156"/>
     <use xlink:href="#DejaVuSans-6b" x="231.640625"/>
     <use xlink:href="#DejaVuSans-20" x="289.550781"/>
     <use xlink:href="#DejaVuSans-76" x="321.337891"/>
     <use xlink:href="#DejaVuSans-69" x="380.517578"/>
     <use xlink:href="#DejaVuSans-62" x="408.300781"/>
     <use xlink:href="#DejaVuSans-72" x="471.777344"/>
     <use xlink:href="#DejaVuSans-61" x="512.890625"/>
     <use xlink:href="#DejaVuSans-74" x="574.169922"/>
     <use xlink:href="#DejaVuSans-69" x="613.378906"/>
     <use xlink:href="#DejaVuSans-6f" x="641.162109"/>
     <use xlink:href="#DejaVuSans-6e" x="702.34375"/>
     <use xlink:href="#DejaVuSans-20" x="765.722656"/>
     <use xlink:href="#DejaVuSans-28" x="797.509766"/>
     <use xlink:href="#DejaVuSans-7a" x="836.523438"/>
     <use xlink:href="#DejaVuSans-2d" x="889.013672"/>
     <use xlink:href="#DejaVuSans-61" x="925.097656"/>
     <use xlink:href="#DejaVuSans-78" x="986.376953"/>
     <use xlink:href="#DejaVuSans-69" x="1045.556641"/>
     <use xlink:href="#DejaVuSans-73" x="1073.339844"/>
     <use xlink:href="#DejaVuSans-29" x="1125.439453"/>
    </g>
   </g>
   <g id="legend_1">
    <g id="patch_7">
     <path d="M 386.501563 352.017188 
L 611.907031 352.017188 
Q 614.907031 352.017188 614.907031 349.017188 
L 614.907031 306.482813 
Q 614.907031 303.482813 611.907031 303.482813 
L 386.501563 303.482813 
Q 383.501563 303.482813 383.501563 306.482813 
L 383.501563 349.017188 
Q 383.501563 352.017188 386.501563 352.017188 
z
" style="fill: #ffffff; opacity: 0.8; stroke: #cccccc; stroke-linejoin: miter"/>
    </g>
    <g id="line2d_35">
     <path d="M 389.501563 315.630469 
L 404.501563 315.630469 
L 419.501563 315.630469 
" style="fill: none; stroke: #ff0000; stroke-width: 1.5; stroke-linecap: square"/>
    </g>
    <g id="text_20">
     <!-- response (shaker table) -->
     <g transform="translate(431.501563 320.880469) scale(0.15 -0.15)">
      <defs>
       <path id="DejaVuSans-70" d="M 1159 525 
L 1159 -1331 
L 581 -1331 
L 581 3500 
L 1159 3500 
L 1159 2969 
Q 1341 3281 1617 3432 
Q 1894 3584 2278 3584 
Q 2916 3584 3314 3078 
Q 3713 2572 3713 1747 
Q 3713 922 3314 415 
Q 2916 -91 2278 -91 
Q 1894 -91 1617 61 
Q 1341 213 1159 525 
z
M 3116 1747 
Q 3116 2381 2855 2742 
Q 2594 3103 2138 3103 
Q 1681 3103 1420 2742 
Q 1159 2381 1159 1747 
Q 1159 1113 1420 752 
Q 1681 391 2138 391 
Q 2594 391 2855 752 
Q 3116 1113 3116 1747 
z
" transform="scale(0.015625)"/>
      </defs>
      <use xlink:href="#DejaVuSans-72"/>
      <use xlink:href="#DejaVuSans-65" x="38.863281"/>
      <use xlink:href="#DejaVuSans-73" x="100.386719"/>
      <use xlink:href="#DejaVuSans-70" x="152.486328"/>
      <use xlink:href="#DejaVuSans-6f" x="215.962891"/>
      <use xlink:href="#DejaVuSans-6e" x="277.144531"/>
      <use xlink:href="#DejaVuSans-73" x="340.523438"/>
      <use xlink:href="#DejaVuSans-65" x="392.623047"/>
      <use xlink:href="#DejaVuSans-20" x="454.146484"/>
      <use xlink:href="#DejaVuSans-28" x="485.933594"/>
      <use xlink:href="#DejaVuSans-73" x="524.947266"/>
      <use xlink:href="#DejaVuSans-68" x="577.046875"/>
      <use xlink:href="#DejaVuSans-61" x="640.425781"/>
      <use xlink:href="#DejaVuSans-6b" x="701.705078"/>
      <use xlink:href="#DejaVuSans-65" x="755.990234"/>
      <use xlink:href="#DejaVuSans-72" x="817.513672"/>
      <use xlink:href="#DejaVuSans-20" x="858.626953"/>
      <use xlink:href="#DejaVuSans-74" x="890.414062"/>
      <use xlink:href="#DejaVuSans-61" x="929.623047"/>
      <use xlink:href="#DejaVuSans-62" x="990.902344"/>
      <use xlink:href="#DejaVuSans-6c" x="1054.378906"/>
      <use xlink:href="#DejaVuSans-65" x="1082.162109"/>
      <use xlink:href="#DejaVuSans-29" x="1143.685547"/>
     </g>
    </g>
    <g id="line2d_36">
     <path d="M 389.501563 337.647656 
L 404.501563 337.647656 
L 419.501563 337.647656 
" style="fill: none; stroke: #0000ff; stroke-width: 1.5; stroke-linecap: square"/>
    </g>
    <g id="text_21">
     <!-- response (pyro, rocket) -->
     <g transform="translate(431.501563 342.897656) scale(0.15 -0.15)">
      <defs>
       <path id="DejaVuSans-79" d="M 2059 -325 
Q 1816 -950 1584 -1140 
Q 1353 -1331 966 -1331 
L 506 -1331 
L 506 -850 
L 844 -850 
Q 1081 -850 1212 -737 
Q 1344 -625 1503 -206 
L 1606 56 
L 191 3500 
L 800 3500 
L 1894 763 
L 2988 3500 
L 3597 3500 
L 2059 -325 
z
" transform="scale(0.015625)"/>
       <path id="DejaVuSans-2c" d="M 750 794 
L 1409 794 
L 1409 256 
L 897 -744 
L 494 -744 
L 750 256 
L 750 794 
z
" transform="scale(0.015625)"/>
      </defs>
      <use xlink:href="#DejaVuSans-72"/>
      <use xlink:href="#DejaVuSans-65" x="38.863281"/>
      <use xlink:href="#DejaVuSans-73" x="100.386719"/>
      <use xlink:href="#DejaVuSans-70" x="152.486328"/>
      <use xlink:href="#DejaVuSans-6f" x="215.962891"/>
      <use xlink:href="#DejaVuSans-6e" x="277.144531"/>
      <use xlink:href="#DejaVuSans-73" x="340.523438"/>
      <use xlink:href="#DejaVuSans-65" x="392.623047"/>
      <use xlink:href="#DejaVuSans-20" x="454.146484"/>
      <use xlink:href="#DejaVuSans-28" x="485.933594"/>
      <use xlink:href="#DejaVuSans-70" x="524.947266"/>
      <use xlink:href="#DejaVuSans-79" x="588.423828"/>
      <use xlink:href="#DejaVuSans-72" x="647.603516"/>
      <use xlink:href="#DejaVuSans-6f" x="686.466797"/>
      <use xlink:href="#DejaVuSans-2c" x="747.648438"/>
      <use xlink:href="#DejaVuSans-20" x="779.435547"/>
      <use xlink:href="#DejaVuSans-72" x="811.222656"/>
      <use xlink:href="#DejaVuSans-6f" x="850.085938"/>
      <use xlink:href="#DejaVuSans-63" x="911.267578"/>
      <use xlink:href="#DejaVuSans-6b" x="966.248047"/>
      <use xlink:href="#DejaVuSans-65" x="1020.533203"/>
      <use xlink:href="#DejaVuSans-74" x="1082.056641"/>
      <use xlink:href="#DejaVuSans-29" x="1121.265625"/>
     </g>
    </g>
   </g>
  </g>
 </g>
 <defs>
  <clipPath id="p66c8e54bb2">
   <rect x="64.407031" y="26.877187" width="558" height="332.64"/>
  </clipPath>
 </defs>
</svg>
