<?xml version="1.0" encoding="utf-8" standalone="no"?>
<!DOCTYPE svg PUBLIC "-//W3C//DTD SVG 1.1//EN"
  "http://www.w3.org/Graphics/SVG/1.1/DTD/svg11.dtd">
<svg xmlns:xlink="http://www.w3.org/1999/xlink" width="646.30625pt" height="240.431563pt" viewBox="0 0 646.30625 240.431563" xmlns="http://www.w3.org/2000/svg" version="1.1">
 <metadata>
  <rdf:RDF xmlns:dc="http://purl.org/dc/elements/1.1/" xmlns:cc="http://creativecommons.org/ns#" xmlns:rdf="http://www.w3.org/1999/02/22-rdf-syntax-ns#">
   <cc:Work>
    <dc:type rdf:resource="http://purl.org/dc/dcmitype/StillImage"/>
    <dc:date>2024-10-07T20:33:04.328104</dc:date>
    <dc:format>image/svg+xml</dc:format>
    <dc:creator>
     <cc:Agent>
      <dc:title>Matplotlib v3.9.2, https://matplotlib.org/</dc:title>
     </cc:Agent>
    </dc:creator>
   </cc:Work>
  </rdf:RDF>
 </metadata>
 <defs>
  <style type="text/css">*{stroke-linejoin: round; stroke-linecap: butt}</style>
 </defs>
 <g id="figure_1">
  <g id="patch_1">
   <path d="M 0 240.431563 
L 646.30625 240.431563 
L 646.30625 0 
L 0 0 
z
" style="fill: #ffffff"/>
  </g>
  <g id="axes_1">
   <g id="patch_2">
    <path d="M 64.407031 193.197188 
L 622.407031 193.197188 
L 622.407031 26.877187 
L 64.407031 26.877187 
z
" style="fill: #ffffff"/>
   </g>
   <g id="matplotlib.axis_1">
    <g id="xtick_1">
     <g id="line2d_1">
      <path d="M 75.348208 193.197188 
L 75.348208 26.877187 
" clip-path="url(#p99d5104d78)" style="fill: none; stroke: #b0b0b0; stroke-width: 0.8; stroke-linecap: square"/>
     </g>
     <g id="line2d_2">
      <defs>
       <path id="m328813899a" d="M 0 0 
L 0 3.5 
" style="stroke: #000000; stroke-width: 0.8"/>
      </defs>
      <g>
       <use xlink:href="#m328813899a" x="75.348208" y="193.197188" style="stroke: #000000; stroke-width: 0.8"/>
      </g>
     </g>
     <g id="text_1">
      <!-- 0.00 -->
      <g transform="translate(58.648989 211.594844) scale(0.15 -0.15)">
       <defs>
        <path id="DejaVuSans-30" d="M 2034 4250 
Q 1547 4250 1301 3770 
Q 1056 3291 1056 2328 
Q 1056 1369 1301 889 
Q 1547 409 2034 409 
Q 2525 409 2770 889 
Q 3016 1369 3016 2328 
Q 3016 3291 2770 3770 
Q 2525 4250 2034 4250 
z
M 2034 4750 
Q 2819 4750 3233 4129 
Q 3647 3509 3647 2328 
Q 3647 1150 3233 529 
Q 2819 -91 2034 -91 
Q 1250 -91 836 529 
Q 422 1150 422 2328 
Q 422 3509 836 4129 
Q 1250 4750 2034 4750 
z
" transform="scale(0.015625)"/>
        <path id="DejaVuSans-2e" d="M 684 794 
L 1344 794 
L 1344 0 
L 684 0 
L 684 794 
z
" transform="scale(0.015625)"/>
       </defs>
       <use xlink:href="#DejaVuSans-30"/>
       <use xlink:href="#DejaVuSans-2e" x="63.623047"/>
       <use xlink:href="#DejaVuSans-30" x="95.410156"/>
       <use xlink:href="#DejaVuSans-30" x="159.033203"/>
      </g>
     </g>
    </g>
    <g id="xtick_2">
     <g id="line2d_3">
      <path d="M 184.759972 193.197188 
L 184.759972 26.877187 
" clip-path="url(#p99d5104d78)" style="fill: none; stroke: #b0b0b0; stroke-width: 0.8; stroke-linecap: square"/>
     </g>
     <g id="line2d_4">
      <g>
       <use xlink:href="#m328813899a" x="184.759972" y="193.197188" style="stroke: #000000; stroke-width: 0.8"/>
      </g>
     </g>
     <g id="text_2">
      <!-- 0.01 -->
      <g transform="translate(168.060754 211.594844) scale(0.15 -0.15)">
       <defs>
        <path id="DejaVuSans-31" d="M 794 531 
L 1825 531 
L 1825 4091 
L 703 3866 
L 703 4441 
L 1819 4666 
L 2450 4666 
L 2450 531 
L 3481 531 
L 3481 0 
L 794 0 
L 794 531 
z
" transform="scale(0.015625)"/>
       </defs>
       <use xlink:href="#DejaVuSans-30"/>
       <use xlink:href="#DejaVuSans-2e" x="63.623047"/>
       <use xlink:href="#DejaVuSans-30" x="95.410156"/>
       <use xlink:href="#DejaVuSans-31" x="159.033203"/>
      </g>
     </g>
    </g>
    <g id="xtick_3">
     <g id="line2d_5">
      <path d="M 294.171737 193.197188 
L 294.171737 26.877187 
" clip-path="url(#p99d5104d78)" style="fill: none; stroke: #b0b0b0; stroke-width: 0.8; stroke-linecap: square"/>
     </g>
     <g id="line2d_6">
      <g>
       <use xlink:href="#m328813899a" x="294.171737" y="193.197188" style="stroke: #000000; stroke-width: 0.8"/>
      </g>
     </g>
     <g id="text_3">
      <!-- 0.02 -->
      <g transform="translate(277.472518 211.594844) scale(0.15 -0.15)">
       <defs>
        <path id="DejaVuSans-32" d="M 1228 531 
L 3431 531 
L 3431 0 
L 469 0 
L 469 531 
Q 828 903 1448 1529 
Q 2069 2156 2228 2338 
Q 2531 2678 2651 2914 
Q 2772 3150 2772 3378 
Q 2772 3750 2511 3984 
Q 2250 4219 1831 4219 
Q 1534 4219 1204 4116 
Q 875 4013 500 3803 
L 500 4441 
Q 881 4594 1212 4672 
Q 1544 4750 1819 4750 
Q 2544 4750 2975 4387 
Q 3406 4025 3406 3419 
Q 3406 3131 3298 2873 
Q 3191 2616 2906 2266 
Q 2828 2175 2409 1742 
Q 1991 1309 1228 531 
z
" transform="scale(0.015625)"/>
       </defs>
       <use xlink:href="#DejaVuSans-30"/>
       <use xlink:href="#DejaVuSans-2e" x="63.623047"/>
       <use xlink:href="#DejaVuSans-30" x="95.410156"/>
       <use xlink:href="#DejaVuSans-32" x="159.033203"/>
      </g>
     </g>
    </g>
    <g id="xtick_4">
     <g id="line2d_7">
      <path d="M 403.583502 193.197188 
L 403.583502 26.877187 
" clip-path="url(#p99d5104d78)" style="fill: none; stroke: #b0b0b0; stroke-width: 0.8; stroke-linecap: square"/>
     </g>
     <g id="line2d_8">
      <g>
       <use xlink:href="#m328813899a" x="403.583502" y="193.197188" style="stroke: #000000; stroke-width: 0.8"/>
      </g>
     </g>
     <g id="text_4">
      <!-- 0.03 -->
      <g transform="translate(386.884283 211.594844) scale(0.15 -0.15)">
       <defs>
        <path id="DejaVuSans-33" d="M 2597 2516 
Q 3050 2419 3304 2112 
Q 3559 1806 3559 1356 
Q 3559 666 3084 287 
Q 2609 -91 1734 -91 
Q 1441 -91 1130 -33 
Q 819 25 488 141 
L 488 750 
Q 750 597 1062 519 
Q 1375 441 1716 441 
Q 2309 441 2620 675 
Q 2931 909 2931 1356 
Q 2931 1769 2642 2001 
Q 2353 2234 1838 2234 
L 1294 2234 
L 1294 2753 
L 1863 2753 
Q 2328 2753 2575 2939 
Q 2822 3125 2822 3475 
Q 2822 3834 2567 4026 
Q 2313 4219 1838 4219 
Q 1578 4219 1281 4162 
Q 984 4106 628 3988 
L 628 4550 
Q 988 4650 1302 4700 
Q 1616 4750 1894 4750 
Q 2613 4750 3031 4423 
Q 3450 4097 3450 3541 
Q 3450 3153 3228 2886 
Q 3006 2619 2597 2516 
z
" transform="scale(0.015625)"/>
       </defs>
       <use xlink:href="#DejaVuSans-30"/>
       <use xlink:href="#DejaVuSans-2e" x="63.623047"/>
       <use xlink:href="#DejaVuSans-30" x="95.410156"/>
       <use xlink:href="#DejaVuSans-33" x="159.033203"/>
      </g>
     </g>
    </g>
    <g id="xtick_5">
     <g id="line2d_9">
      <path d="M 512.995267 193.197188 
L 512.995267 26.877187 
" clip-path="url(#p99d5104d78)" style="fill: none; stroke: #b0b0b0; stroke-width: 0.8; stroke-linecap: square"/>
     </g>
     <g id="line2d_10">
      <g>
       <use xlink:href="#m328813899a" x="512.995267" y="193.197188" style="stroke: #000000; stroke-width: 0.8"/>
      </g>
     </g>
     <g id="text_5">
      <!-- 0.04 -->
      <g transform="translate(496.296048 211.594844) scale(0.15 -0.15)">
       <defs>
        <path id="DejaVuSans-34" d="M 2419 4116 
L 825 1625 
L 2419 1625 
L 2419 4116 
z
M 2253 4666 
L 3047 4666 
L 3047 1625 
L 3713 1625 
L 3713 1100 
L 3047 1100 
L 3047 0 
L 2419 0 
L 2419 1100 
L 313 1100 
L 313 1709 
L 2253 4666 
z
" transform="scale(0.015625)"/>
       </defs>
       <use xlink:href="#DejaVuSans-30"/>
       <use xlink:href="#DejaVuSans-2e" x="63.623047"/>
       <use xlink:href="#DejaVuSans-30" x="95.410156"/>
       <use xlink:href="#DejaVuSans-34" x="159.033203"/>
      </g>
     </g>
    </g>
    <g id="xtick_6">
     <g id="line2d_11">
      <path d="M 622.407031 193.197188 
L 622.407031 26.877187 
" clip-path="url(#p99d5104d78)" style="fill: none; stroke: #b0b0b0; stroke-width: 0.8; stroke-linecap: square"/>
     </g>
     <g id="line2d_12">
      <g>
       <use xlink:href="#m328813899a" x="622.407031" y="193.197188" style="stroke: #000000; stroke-width: 0.8"/>
      </g>
     </g>
     <g id="text_6">
      <!-- 0.05 -->
      <g transform="translate(605.707812 211.594844) scale(0.15 -0.15)">
       <defs>
        <path id="DejaVuSans-35" d="M 691 4666 
L 3169 4666 
L 3169 4134 
L 1269 4134 
L 1269 2991 
Q 1406 3038 1543 3061 
Q 1681 3084 1819 3084 
Q 2600 3084 3056 2656 
Q 3513 2228 3513 1497 
Q 3513 744 3044 326 
Q 2575 -91 1722 -91 
Q 1428 -91 1123 -41 
Q 819 9 494 109 
L 494 744 
Q 775 591 1075 516 
Q 1375 441 1709 441 
Q 2250 441 2565 725 
Q 2881 1009 2881 1497 
Q 2881 1984 2565 2268 
Q 2250 2553 1709 2553 
Q 1456 2553 1204 2497 
Q 953 2441 691 2322 
L 691 4666 
z
" transform="scale(0.015625)"/>
       </defs>
       <use xlink:href="#DejaVuSans-30"/>
       <use xlink:href="#DejaVuSans-2e" x="63.623047"/>
       <use xlink:href="#DejaVuSans-30" x="95.410156"/>
       <use xlink:href="#DejaVuSans-35" x="159.033203"/>
      </g>
     </g>
    </g>
    <g id="text_7">
     <!-- time [s] -->
     <g transform="translate(314.319922 230.112031) scale(0.15 -0.15)">
      <defs>
       <path id="DejaVuSans-74" d="M 1172 4494 
L 1172 3500 
L 2356 3500 
L 2356 3053 
L 1172 3053 
L 1172 1153 
Q 1172 725 1289 603 
Q 1406 481 1766 481 
L 2356 481 
L 2356 0 
L 1766 0 
Q 1100 0 847 248 
Q 594 497 594 1153 
L 594 3053 
L 172 3053 
L 172 3500 
L 594 3500 
L 594 4494 
L 1172 4494 
z
" transform="scale(0.015625)"/>
       <path id="DejaVuSans-69" d="M 603 3500 
L 1178 3500 
L 1178 0 
L 603 0 
L 603 3500 
z
M 603 4863 
L 1178 4863 
L 1178 4134 
L 603 4134 
L 603 4863 
z
" transform="scale(0.015625)"/>
       <path id="DejaVuSans-6d" d="M 3328 2828 
Q 3544 3216 3844 3400 
Q 4144 3584 4550 3584 
Q 5097 3584 5394 3201 
Q 5691 2819 5691 2113 
L 5691 0 
L 5113 0 
L 5113 2094 
Q 5113 2597 4934 2840 
Q 4756 3084 4391 3084 
Q 3944 3084 3684 2787 
Q 3425 2491 3425 1978 
L 3425 0 
L 2847 0 
L 2847 2094 
Q 2847 2600 2669 2842 
Q 2491 3084 2119 3084 
Q 1678 3084 1418 2786 
Q 1159 2488 1159 1978 
L 1159 0 
L 581 0 
L 581 3500 
L 1159 3500 
L 1159 2956 
Q 1356 3278 1631 3431 
Q 1906 3584 2284 3584 
Q 2666 3584 2933 3390 
Q 3200 3197 3328 2828 
z
" transform="scale(0.015625)"/>
       <path id="DejaVuSans-65" d="M 3597 1894 
L 3597 1613 
L 953 1613 
Q 991 1019 1311 708 
Q 1631 397 2203 397 
Q 2534 397 2845 478 
Q 3156 559 3463 722 
L 3463 178 
Q 3153 47 2828 -22 
Q 2503 -91 2169 -91 
Q 1331 -91 842 396 
Q 353 884 353 1716 
Q 353 2575 817 3079 
Q 1281 3584 2069 3584 
Q 2775 3584 3186 3129 
Q 3597 2675 3597 1894 
z
M 3022 2063 
Q 3016 2534 2758 2815 
Q 2500 3097 2075 3097 
Q 1594 3097 1305 2825 
Q 1016 2553 972 2059 
L 3022 2063 
z
" transform="scale(0.015625)"/>
       <path id="DejaVuSans-20" transform="scale(0.015625)"/>
       <path id="DejaVuSans-5b" d="M 550 4863 
L 1875 4863 
L 1875 4416 
L 1125 4416 
L 1125 -397 
L 1875 -397 
L 1875 -844 
L 550 -844 
L 550 4863 
z
" transform="scale(0.015625)"/>
       <path id="DejaVuSans-73" d="M 2834 3397 
L 2834 2853 
Q 2591 2978 2328 3040 
Q 2066 3103 1784 3103 
Q 1356 3103 1142 2972 
Q 928 2841 928 2578 
Q 928 2378 1081 2264 
Q 1234 2150 1697 2047 
L 1894 2003 
Q 2506 1872 2764 1633 
Q 3022 1394 3022 966 
Q 3022 478 2636 193 
Q 2250 -91 1575 -91 
Q 1294 -91 989 -36 
Q 684 19 347 128 
L 347 722 
Q 666 556 975 473 
Q 1284 391 1588 391 
Q 1994 391 2212 530 
Q 2431 669 2431 922 
Q 2431 1156 2273 1281 
Q 2116 1406 1581 1522 
L 1381 1569 
Q 847 1681 609 1914 
Q 372 2147 372 2553 
Q 372 3047 722 3315 
Q 1072 3584 1716 3584 
Q 2034 3584 2315 3537 
Q 2597 3491 2834 3397 
z
" transform="scale(0.015625)"/>
       <path id="DejaVuSans-5d" d="M 1947 4863 
L 1947 -844 
L 622 -844 
L 622 -397 
L 1369 -397 
L 1369 4416 
L 622 4416 
L 622 4863 
L 1947 4863 
z
" transform="scale(0.015625)"/>
      </defs>
      <use xlink:href="#DejaVuSans-74"/>
      <use xlink:href="#DejaVuSans-69" x="39.208984"/>
      <use xlink:href="#DejaVuSans-6d" x="66.992188"/>
      <use xlink:href="#DejaVuSans-65" x="164.404297"/>
      <use xlink:href="#DejaVuSans-20" x="225.927734"/>
      <use xlink:href="#DejaVuSans-5b" x="257.714844"/>
      <use xlink:href="#DejaVuSans-73" x="296.728516"/>
      <use xlink:href="#DejaVuSans-5d" x="348.828125"/>
     </g>
    </g>
   </g>
   <g id="matplotlib.axis_2">
    <g id="ytick_1">
     <g id="line2d_13">
      <path d="M 64.407031 152.509617 
L 622.407031 152.509617 
" clip-path="url(#p99d5104d78)" style="fill: none; stroke: #b0b0b0; stroke-width: 0.8; stroke-linecap: square"/>
     </g>
     <g id="line2d_14">
      <defs>
       <path id="m3eed6d6e91" d="M 0 0 
L -3.5 0 
" style="stroke: #000000; stroke-width: 0.8"/>
      </defs>
      <g>
       <use xlink:href="#m3eed6d6e91" x="64.407031" y="152.509617" style="stroke: #000000; stroke-width: 0.8"/>
      </g>
     </g>
     <g id="text_8">
      <!-- −40 -->
      <g transform="translate(25.75 158.208445) scale(0.15 -0.15)">
       <defs>
        <path id="DejaVuSans-2212" d="M 678 2272 
L 4684 2272 
L 4684 1741 
L 678 1741 
L 678 2272 
z
" transform="scale(0.015625)"/>
       </defs>
       <use xlink:href="#DejaVuSans-2212"/>
       <use xlink:href="#DejaVuSans-34" x="83.789062"/>
       <use xlink:href="#DejaVuSans-30" x="147.412109"/>
      </g>
     </g>
    </g>
    <g id="ytick_2">
     <g id="line2d_15">
      <path d="M 64.407031 93.388474 
L 622.407031 93.388474 
" clip-path="url(#p99d5104d78)" style="fill: none; stroke: #b0b0b0; stroke-width: 0.8; stroke-linecap: square"/>
     </g>
     <g id="line2d_16">
      <g>
       <use xlink:href="#m3eed6d6e91" x="64.407031" y="93.388474" style="stroke: #000000; stroke-width: 0.8"/>
      </g>
     </g>
     <g id="text_9">
      <!-- −20 -->
      <g transform="translate(25.75 99.087302) scale(0.15 -0.15)">
       <use xlink:href="#DejaVuSans-2212"/>
       <use xlink:href="#DejaVuSans-32" x="83.789062"/>
       <use xlink:href="#DejaVuSans-30" x="147.412109"/>
      </g>
     </g>
    </g>
    <g id="ytick_3">
     <g id="line2d_17">
      <path d="M 64.407031 34.26733 
L 622.407031 34.26733 
" clip-path="url(#p99d5104d78)" style="fill: none; stroke: #b0b0b0; stroke-width: 0.8; stroke-linecap: square"/>
     </g>
     <g id="line2d_18">
      <g>
       <use xlink:href="#m3eed6d6e91" x="64.407031" y="34.26733" style="stroke: #000000; stroke-width: 0.8"/>
      </g>
     </g>
     <g id="text_10">
      <!-- 0 -->
      <g transform="translate(47.863281 39.966159) scale(0.15 -0.15)">
       <use xlink:href="#DejaVuSans-30"/>
      </g>
     </g>
    </g>
    <g id="text_11">
     <!-- acceleration [$g$] -->
     <g transform="translate(18.6 169.287187) rotate(-90) scale(0.15 -0.15)">
      <defs>
       <path id="DejaVuSans-61" d="M 2194 1759 
Q 1497 1759 1228 1600 
Q 959 1441 959 1056 
Q 959 750 1161 570 
Q 1363 391 1709 391 
Q 2188 391 2477 730 
Q 2766 1069 2766 1631 
L 2766 1759 
L 2194 1759 
z
M 3341 1997 
L 3341 0 
L 2766 0 
L 2766 531 
Q 2569 213 2275 61 
Q 1981 -91 1556 -91 
Q 1019 -91 701 211 
Q 384 513 384 1019 
Q 384 1609 779 1909 
Q 1175 2209 1959 2209 
L 2766 2209 
L 2766 2266 
Q 2766 2663 2505 2880 
Q 2244 3097 1772 3097 
Q 1472 3097 1187 3025 
Q 903 2953 641 2809 
L 641 3341 
Q 956 3463 1253 3523 
Q 1550 3584 1831 3584 
Q 2591 3584 2966 3190 
Q 3341 2797 3341 1997 
z
" transform="scale(0.015625)"/>
       <path id="DejaVuSans-63" d="M 3122 3366 
L 3122 2828 
Q 2878 2963 2633 3030 
Q 2388 3097 2138 3097 
Q 1578 3097 1268 2742 
Q 959 2388 959 1747 
Q 959 1106 1268 751 
Q 1578 397 2138 397 
Q 2388 397 2633 464 
Q 2878 531 3122 666 
L 3122 134 
Q 2881 22 2623 -34 
Q 2366 -91 2075 -91 
Q 1284 -91 818 406 
Q 353 903 353 1747 
Q 353 2603 823 3093 
Q 1294 3584 2113 3584 
Q 2378 3584 2631 3529 
Q 2884 3475 3122 3366 
z
" transform="scale(0.015625)"/>
       <path id="DejaVuSans-6c" d="M 603 4863 
L 1178 4863 
L 1178 0 
L 603 0 
L 603 4863 
z
" transform="scale(0.015625)"/>
       <path id="DejaVuSans-72" d="M 2631 2963 
Q 2534 3019 2420 3045 
Q 2306 3072 2169 3072 
Q 1681 3072 1420 2755 
Q 1159 2438 1159 1844 
L 1159 0 
L 581 0 
L 581 3500 
L 1159 3500 
L 1159 2956 
Q 1341 3275 1631 3429 
Q 1922 3584 2338 3584 
Q 2397 3584 2469 3576 
Q 2541 3569 2628 3553 
L 2631 2963 
z
" transform="scale(0.015625)"/>
       <path id="DejaVuSans-6f" d="M 1959 3097 
Q 1497 3097 1228 2736 
Q 959 2375 959 1747 
Q 959 1119 1226 758 
Q 1494 397 1959 397 
Q 2419 397 2687 759 
Q 2956 1122 2956 1747 
Q 2956 2369 2687 2733 
Q 2419 3097 1959 3097 
z
M 1959 3584 
Q 2709 3584 3137 3096 
Q 3566 2609 3566 1747 
Q 3566 888 3137 398 
Q 2709 -91 1959 -91 
Q 1206 -91 779 398 
Q 353 888 353 1747 
Q 353 2609 779 3096 
Q 1206 3584 1959 3584 
z
" transform="scale(0.015625)"/>
       <path id="DejaVuSans-6e" d="M 3513 2113 
L 3513 0 
L 2938 0 
L 2938 2094 
Q 2938 2591 2744 2837 
Q 2550 3084 2163 3084 
Q 1697 3084 1428 2787 
Q 1159 2491 1159 1978 
L 1159 0 
L 581 0 
L 581 3500 
L 1159 3500 
L 1159 2956 
Q 1366 3272 1645 3428 
Q 1925 3584 2291 3584 
Q 2894 3584 3203 3211 
Q 3513 2838 3513 2113 
z
" transform="scale(0.015625)"/>
       <path id="DejaVuSans-Oblique-67" d="M 3816 3500 
L 3219 434 
Q 3047 -456 2561 -893 
Q 2075 -1331 1253 -1331 
Q 950 -1331 690 -1286 
Q 431 -1241 206 -1147 
L 313 -588 
Q 525 -725 762 -790 
Q 1000 -856 1269 -856 
Q 1816 -856 2167 -557 
Q 2519 -259 2631 300 
L 2681 563 
Q 2441 288 2122 144 
Q 1803 0 1434 0 
Q 903 0 598 351 
Q 294 703 294 1319 
Q 294 1803 478 2267 
Q 663 2731 997 3091 
Q 1219 3328 1514 3456 
Q 1809 3584 2131 3584 
Q 2484 3584 2746 3420 
Q 3009 3256 3138 2956 
L 3238 3500 
L 3816 3500 
z
M 2950 2216 
Q 2950 2641 2750 2872 
Q 2550 3103 2181 3103 
Q 1953 3103 1747 3012 
Q 1541 2922 1394 2759 
Q 1156 2491 1023 2127 
Q 891 1763 891 1375 
Q 891 944 1092 712 
Q 1294 481 1672 481 
Q 2219 481 2584 976 
Q 2950 1472 2950 2216 
z
" transform="scale(0.015625)"/>
      </defs>
      <use xlink:href="#DejaVuSans-61" transform="translate(0 0.015625)"/>
      <use xlink:href="#DejaVuSans-63" transform="translate(61.279297 0.015625)"/>
      <use xlink:href="#DejaVuSans-63" transform="translate(116.259766 0.015625)"/>
      <use xlink:href="#DejaVuSans-65" transform="translate(171.240234 0.015625)"/>
      <use xlink:href="#DejaVuSans-6c" transform="translate(232.763672 0.015625)"/>
      <use xlink:href="#DejaVuSans-65" transform="translate(260.546875 0.015625)"/>
      <use xlink:href="#DejaVuSans-72" transform="translate(322.070312 0.015625)"/>
      <use xlink:href="#DejaVuSans-61" transform="translate(363.183594 0.015625)"/>
      <use xlink:href="#DejaVuSans-74" transform="translate(424.462891 0.015625)"/>
      <use xlink:href="#DejaVuSans-69" transform="translate(463.671875 0.015625)"/>
      <use xlink:href="#DejaVuSans-6f" transform="translate(491.455078 0.015625)"/>
      <use xlink:href="#DejaVuSans-6e" transform="translate(552.636719 0.015625)"/>
      <use xlink:href="#DejaVuSans-20" transform="translate(616.015625 0.015625)"/>
      <use xlink:href="#DejaVuSans-5b" transform="translate(647.802734 0.015625)"/>
      <use xlink:href="#DejaVuSans-Oblique-67" transform="translate(686.816406 0.015625)"/>
      <use xlink:href="#DejaVuSans-5d" transform="translate(750.292969 0.015625)"/>
     </g>
    </g>
   </g>
   <g id="line2d_19">
    <path d="M 62.583563 34.663936 
L 64.407092 34.449301 
L 66.230622 35.363882 
L 68.054151 35.563264 
L 69.87768 33.469005 
L 71.70121 35.600185 
L 73.524739 34.989427 
L 75.348269 34.581066 
L 77.171798 34.988097 
L 78.995327 44.098896 
L 80.818857 57.460767 
L 82.642386 64.257118 
L 84.465916 74.083308 
L 86.289445 85.932476 
L 88.112974 94.009644 
L 89.936504 100.70052 
L 91.760033 109.815087 
L 93.583563 118.89107 
L 95.407092 125.487305 
L 97.230622 131.20624 
L 99.054151 142.441711 
L 100.87768 147.531509 
L 102.70121 149.723058 
L 104.524739 158.127036 
L 106.348269 163.782832 
L 108.171798 166.897509 
L 109.995327 169.083248 
L 111.818857 174.800577 
L 113.642386 178.673113 
L 115.465916 175.481567 
L 117.289445 181.205103 
L 119.112974 179.886912 
L 120.936504 182.465162 
L 122.760033 178.525076 
L 124.583563 178.882891 
L 126.407092 176.78334 
L 128.230622 175.468342 
L 130.054151 172.584897 
L 131.87768 169.350491 
L 133.70121 163.01707 
L 135.524739 158.549588 
L 137.348269 156.791822 
L 139.171798 147.437346 
L 140.995327 141.18111 
L 142.818857 135.693785 
L 144.642386 129.923682 
L 146.465916 120.180213 
L 148.289445 111.51786 
L 150.112974 106.648367 
L 151.936504 96.276511 
L 153.760033 86.035268 
L 155.583563 77.943129 
L 157.407092 67.941698 
L 159.230622 60.705609 
L 161.054151 47.680152 
L 162.87768 45.644297 
L 164.70121 20.610867 
L 165.447769 -1 
M 168.188934 -1 
L 168.348269 1.984812 
L 169.013734 -1 
M 173.01598 -1 
L 173.818857 22.947607 
L 175.490018 -1 
M 178.526594 -1 
L 179.289445 10.732168 
L 180.323348 -1 
M 183.918852 -1 
L 184.760033 8.930087 
L 185.627315 -1 
M 189.429863 -1 
L 190.230622 4.853249 
L 190.973055 -1 
M 195.104565 -1 
L 195.70121 3.549886 
L 196.361678 -1 
M 200.890029 -1 
L 201.171798 0.047719 
L 201.380935 -1 
M 204.972565 -1 
L 206.642386 1.344399 
L 206.844889 -1 
M 209.532456 -1 
L 210.289445 12.319993 
L 211.480485 -1 
M 215.096351 -1 
L 215.760033 5.745542 
L 216.540383 -1 
M 220.570222 -1 
L 221.230622 1.977798 
L 221.671144 -1 
M 231.154631 -1 
L 232.171798 0.137642 
L 232.40971 -1 
" clip-path="url(#p99d5104d78)" style="fill: none; stroke: #ff0000; stroke-width: 1.5; stroke-linecap: square"/>
   </g>
   <g id="line2d_20">
    <path d="M -1 34.656113 
L 4.237128 34.811174 
L 5.878961 35.08526 
L 9.162628 36.357594 
L 10.804461 36.724003 
L 12.446294 36.611484 
L 14.088127 36.276811 
L 15.72996 36.431164 
L 17.371794 36.00561 
L 19.013627 34.480829 
L 20.65546 36.204683 
L 22.297293 38.607981 
L 23.939126 40.034669 
L 25.58096 40.376554 
L 27.222793 39.99572 
L 28.864626 39.173463 
L 30.506459 37.430855 
L 32.148292 34.827042 
L 33.790126 34.982838 
L 35.431959 36.799016 
L 37.073792 37.615503 
L 38.715625 36.859603 
L 40.357458 37.23034 
L 43.641125 35.803653 
L 45.282958 34.786651 
L 46.924791 34.71308 
L 48.566624 34.913595 
L 50.208458 35.308856 
L 51.850291 35.906074 
L 53.492124 36.764395 
L 55.133957 37.36017 
L 56.775791 37.500098 
L 58.417624 36.568207 
L 60.059457 36.51339 
L 61.70129 36.076296 
L 63.343123 34.95543 
L 64.984957 34.685672 
L 66.62679 34.864549 
L 69.910456 34.340901 
L 71.552289 34.464961 
L 73.194123 34.881859 
L 74.835956 34.720293 
L 78.119622 36.113802 
L 79.761455 37.293813 
L 81.403289 37.492885 
L 84.686955 38.345436 
L 87.970621 38.230031 
L 89.612455 37.393349 
L 91.254288 37.23611 
L 92.896121 36.814884 
L 96.179787 37.367383 
L 97.821621 37.469804 
L 101.105287 38.13338 
L 102.74712 39.037863 
L 104.388953 38.883509 
L 106.030787 39.040748 
L 107.67262 38.729156 
L 109.314453 38.769547 
L 110.956286 39.479285 
L 112.598119 39.29031 
L 114.239953 39.704323 
L 119.165452 40.12555 
L 120.807285 40.389538 
L 122.449119 40.792011 
L 124.090952 40.838173 
L 125.732785 41.266612 
L 127.374618 41.360378 
L 129.016451 41.738328 
L 132.300118 42.194175 
L 133.941951 42.673103 
L 135.583784 42.935649 
L 137.225618 43.328024 
L 138.867451 43.440544 
L 140.509284 43.733382 
L 145.434784 44.102677 
L 150.360283 43.990157 
L 152.002116 44.13874 
L 153.64395 44.096906 
L 158.569449 44.632095 
L 160.211282 45.191806 
L 161.853116 46.031374 
L 163.494949 47.080112 
L 166.778615 48.85734 
L 168.420448 49.425709 
L 170.062282 49.79356 
L 173.345948 50.148428 
L 176.629614 50.383565 
L 184.83878 50.784596 
L 188.122447 51.325554 
L 189.76428 51.453942 
L 193.047946 51.402009 
L 194.68978 51.239 
L 199.615279 50.028697 
L 202.898946 50.060432 
L 204.540779 50.197475 
L 209.466278 50.234981 
L 212.749945 50.921638 
L 214.391778 51.48712 
L 217.675444 53.524009 
L 219.317278 54.737199 
L 225.884611 58.865793 
L 227.526444 59.86837 
L 229.168277 60.306906 
L 230.81011 60.381919 
L 234.093777 59.301445 
L 235.73561 59.275479 
L 237.377443 59.548123 
L 239.019276 59.419737 
L 240.661109 58.645082 
L 242.302943 58.068061 
L 243.944776 57.99449 
L 245.586609 57.475169 
L 247.228442 57.713191 
L 248.870275 58.18058 
L 250.512109 58.295985 
L 252.153942 58.782126 
L 253.795775 59.038902 
L 255.437608 59.777489 
L 257.079441 59.693821 
L 258.721275 59.827978 
L 260.363108 59.630347 
L 262.004941 59.158634 
L 263.646774 59.008608 
L 265.288607 58.450337 
L 266.930441 58.508041 
L 268.572274 58.32195 
L 271.85594 58.984085 
L 273.497773 59.246628 
L 275.139607 59.996757 
L 280.065106 61.854768 
L 281.706939 62.858789 
L 283.348773 62.951113 
L 284.990606 62.495266 
L 286.632439 61.458068 
L 288.274272 59.748638 
L 289.916105 58.252707 
L 291.557939 56.449513 
L 294.841605 55.094953 
L 296.483438 54.868471 
L 298.125271 55.472902 
L 299.767105 56.335551 
L 301.408938 57.71752 
L 303.050771 58.793667 
L 304.692604 60.159767 
L 306.334438 61.70763 
L 307.976271 63.862809 
L 311.259937 66.732052 
L 312.90177 67.672598 
L 314.543604 67.940912 
L 316.185437 68.340502 
L 317.82727 67.495162 
L 319.469103 67.499489 
L 321.110936 67.254255 
L 322.75277 66.690217 
L 326.036436 66.68589 
L 327.678269 67.069608 
L 330.961936 66.121851 
L 334.245602 64.340293 
L 337.529268 63.567085 
L 339.171102 63.992639 
L 340.812935 63.851268 
L 342.454768 63.92051 
L 344.096601 63.714224 
L 345.738434 63.878675 
L 347.380268 64.334522 
L 349.022101 64.601396 
L 350.663934 65.138027 
L 352.305767 65.318347 
L 353.9476 65.945859 
L 355.589434 66.116081 
L 357.231267 66.834472 
L 360.514933 69.22046 
L 362.156766 70.049929 
L 363.7986 69.84653 
L 368.724099 71.573268 
L 370.365932 72.437361 
L 372.007766 72.587386 
L 373.649599 72.894649 
L 375.291432 72.300317 
L 376.933265 72.177701 
L 378.575098 72.614793 
L 380.216932 72.575845 
L 381.858765 72.672497 
L 385.142431 72.063737 
L 386.784264 72.08682 
L 388.426098 71.698771 
L 393.351597 71.266006 
L 394.993431 71.37564 
L 396.635264 71.599235 
L 398.277097 72.046428 
L 399.91893 72.267139 
L 401.560763 72.64076 
L 403.202597 72.477752 
L 404.84443 72.659512 
L 408.128096 71.734835 
L 409.769929 71.633856 
L 411.411763 71.414588 
L 413.053596 71.897843 
L 417.979095 71.821389 
L 419.620929 71.910827 
L 421.262762 72.132979 
L 422.904595 72.13875 
L 427.830095 72.909074 
L 429.471928 73.344729 
L 431.113761 73.356267 
L 432.755594 73.584193 
L 434.397427 73.602945 
L 437.681094 73.988107 
L 440.96476 73.64045 
L 445.89026 71.847353 
L 447.532093 71.345346 
L 449.173926 70.964511 
L 450.815759 70.758225 
L 452.457593 70.740913 
L 454.099426 70.888055 
L 455.741259 70.830351 
L 457.383092 70.423553 
L 459.024925 70.61397 
L 460.666759 70.560593 
L 462.308592 70.240346 
L 463.950425 70.146581 
L 465.592258 70.34854 
L 467.234091 70.856318 
L 468.875925 71.166467 
L 470.517758 71.665593 
L 475.443258 72.248384 
L 478.726924 72.342152 
L 480.368757 71.894959 
L 482.01059 71.579039 
L 485.294257 70.830351 
L 486.93609 70.570691 
L 488.577923 70.029733 
L 490.219756 69.876823 
L 491.86159 69.3777 
L 496.787089 68.432824 
L 498.428922 68.388105 
L 503.354422 67.909178 
L 506.638088 67.786559 
L 509.921755 68.553999 
L 511.563588 68.634783 
L 513.205421 68.871363 
L 514.847254 68.6117 
L 518.130921 68.363582 
L 521.414587 68.31742 
L 526.340087 66.698871 
L 527.98192 66.020872 
L 532.90742 63.411288 
L 539.474752 58.898971 
L 541.116586 57.264557 
L 544.400252 53.573057 
L 546.042085 51.370273 
L 550.967585 43.804067 
L 552.609418 41.396442 
L 554.251251 39.433123 
L 555.893084 37.775626 
L 559.176751 35.086702 
L 560.818584 34.57171 
L 562.460417 34.812617 
L 565.744084 34.426012 
L 567.385917 35.223745 
L 572.311417 35.885878 
L 573.95325 36.168619 
L 577.236916 36.084951 
L 580.520583 35.161715 
L 582.162416 34.443322 
L 583.804249 35.831061 
L 585.446082 36.862488 
L 585.446082 36.862488 
" clip-path="url(#p99d5104d78)" style="fill: none; stroke: #0000ff; stroke-width: 1.5; stroke-linecap: square"/>
   </g>
   <g id="line2d_21">
    <path d="M 75.348208 34.26733 
L 84.657517 73.306628 
L 89.585975 93.022373 
L 93.638262 108.369933 
L 97.252465 121.21886 
L 100.538103 132.091279 
L 103.495178 141.135179 
L 106.23321 148.823965 
L 108.7522 155.273656 
L 111.161668 160.851255 
L 113.461615 165.610694 
L 115.54252 169.423969 
L 117.513903 172.591784 
L 119.375765 175.17691 
L 121.128105 177.242289 
L 122.770925 178.849998 
L 124.304223 180.060385 
L 125.837521 180.988225 
L 127.261297 181.595215 
L 128.685074 181.956009 
L 129.999329 182.070006 
L 131.313585 181.973545 
L 132.62784 181.666766 
L 134.051617 181.097597 
L 135.475394 180.283064 
L 137.008692 179.133043 
L 138.54199 177.702272 
L 140.184809 175.860918 
L 141.93715 173.549717 
L 143.799011 170.707932 
L 145.770395 167.274243 
L 147.851299 163.187811 
L 150.041725 158.389525 
L 152.451193 152.545285 
L 154.970183 145.830809 
L 157.708215 137.87201 
L 160.66529 128.559185 
L 163.841407 117.801747 
L 167.346088 105.129513 
L 171.288854 90.022894 
L 175.99827 71.060421 
L 182.460025 44.021062 
L 184.759972 34.26733 
L 184.759972 34.26733 
" clip-path="url(#p99d5104d78)" style="fill: none; stroke-dasharray: 5.55,2.4; stroke-dashoffset: 0; stroke: #000000; stroke-width: 1.5"/>
   </g>
   <g id="patch_3">
    <path d="M 64.407031 193.197188 
L 64.407031 26.877187 
" style="fill: none; stroke: #000000; stroke-width: 0.8; stroke-linejoin: miter; stroke-linecap: square"/>
   </g>
   <g id="patch_4">
    <path d="M 622.407031 193.197188 
L 622.407031 26.877187 
" style="fill: none; stroke: #000000; stroke-width: 0.8; stroke-linejoin: miter; stroke-linecap: square"/>
   </g>
   <g id="patch_5">
    <path d="M 64.407031 193.197188 
L 622.407031 193.197188 
" style="fill: none; stroke: #000000; stroke-width: 0.8; stroke-linejoin: miter; stroke-linecap: square"/>
   </g>
   <g id="patch_6">
    <path d="M 64.407031 26.877187 
L 622.407031 26.877187 
" style="fill: none; stroke: #000000; stroke-width: 0.8; stroke-linejoin: miter; stroke-linecap: square"/>
   </g>
   <g id="text_12">
    <!-- shock vibration (z-axis) -->
    <g transform="translate(238.607656 20.877187) scale(0.18 -0.18)">
     <defs>
      <path id="DejaVuSans-68" d="M 3513 2113 
L 3513 0 
L 2938 0 
L 2938 2094 
Q 2938 2591 2744 2837 
Q 2550 3084 2163 3084 
Q 1697 3084 1428 2787 
Q 1159 2491 1159 1978 
L 1159 0 
L 581 0 
L 581 4863 
L 1159 4863 
L 1159 2956 
Q 1366 3272 1645 3428 
Q 1925 3584 2291 3584 
Q 2894 3584 3203 3211 
Q 3513 2838 3513 2113 
z
" transform="scale(0.015625)"/>
      <path id="DejaVuSans-6b" d="M 581 4863 
L 1159 4863 
L 1159 1991 
L 2875 3500 
L 3609 3500 
L 1753 1863 
L 3688 0 
L 2938 0 
L 1159 1709 
L 1159 0 
L 581 0 
L 581 4863 
z
" transform="scale(0.015625)"/>
      <path id="DejaVuSans-76" d="M 191 3500 
L 800 3500 
L 1894 563 
L 2988 3500 
L 3597 3500 
L 2284 0 
L 1503 0 
L 191 3500 
z
" transform="scale(0.015625)"/>
      <path id="DejaVuSans-62" d="M 3116 1747 
Q 3116 2381 2855 2742 
Q 2594 3103 2138 3103 
Q 1681 3103 1420 2742 
Q 1159 2381 1159 1747 
Q 1159 1113 1420 752 
Q 1681 391 2138 391 
Q 2594 391 2855 752 
Q 3116 1113 3116 1747 
z
M 1159 2969 
Q 1341 3281 1617 3432 
Q 1894 3584 2278 3584 
Q 2916 3584 3314 3078 
Q 3713 2572 3713 1747 
Q 3713 922 3314 415 
Q 2916 -91 2278 -91 
Q 1894 -91 1617 61 
Q 1341 213 1159 525 
L 1159 0 
L 581 0 
L 581 4863 
L 1159 4863 
L 1159 2969 
z
" transform="scale(0.015625)"/>
      <path id="DejaVuSans-28" d="M 1984 4856 
Q 1566 4138 1362 3434 
Q 1159 2731 1159 2009 
Q 1159 1288 1364 580 
Q 1569 -128 1984 -844 
L 1484 -844 
Q 1016 -109 783 600 
Q 550 1309 550 2009 
Q 550 2706 781 3412 
Q 1013 4119 1484 4856 
L 1984 4856 
z
" transform="scale(0.015625)"/>
      <path id="DejaVuSans-7a" d="M 353 3500 
L 3084 3500 
L 3084 2975 
L 922 459 
L 3084 459 
L 3084 0 
L 275 0 
L 275 525 
L 2438 3041 
L 353 3041 
L 353 3500 
z
" transform="scale(0.015625)"/>
      <path id="DejaVuSans-2d" d="M 313 2009 
L 1997 2009 
L 1997 1497 
L 313 1497 
L 313 2009 
z
" transform="scale(0.015625)"/>
      <path id="DejaVuSans-78" d="M 3513 3500 
L 2247 1797 
L 3578 0 
L 2900 0 
L 1881 1375 
L 863 0 
L 184 0 
L 1544 1831 
L 300 3500 
L 978 3500 
L 1906 2253 
L 2834 3500 
L 3513 3500 
z
" transform="scale(0.015625)"/>
      <path id="DejaVuSans-29" d="M 513 4856 
L 1013 4856 
Q 1481 4119 1714 3412 
Q 1947 2706 1947 2009 
Q 1947 1309 1714 600 
Q 1481 -109 1013 -844 
L 513 -844 
Q 928 -128 1133 580 
Q 1338 1288 1338 2009 
Q 1338 2731 1133 3434 
Q 928 4138 513 4856 
z
" transform="scale(0.015625)"/>
     </defs>
     <use xlink:href="#DejaVuSans-73"/>
     <use xlink:href="#DejaVuSans-68" x="52.099609"/>
     <use xlink:href="#DejaVuSans-6f" x="115.478516"/>
     <use xlink:href="#DejaVuSans-63" x="176.660156"/>
     <use xlink:href="#DejaVuSans-6b" x="231.640625"/>
     <use xlink:href="#DejaVuSans-20" x="289.550781"/>
     <use xlink:href="#DejaVuSans-76" x="321.337891"/>
     <use xlink:href="#DejaVuSans-69" x="380.517578"/>
     <use xlink:href="#DejaVuSans-62" x="408.300781"/>
     <use xlink:href="#DejaVuSans-72" x="471.777344"/>
     <use xlink:href="#DejaVuSans-61" x="512.890625"/>
     <use xlink:href="#DejaVuSans-74" x="574.169922"/>
     <use xlink:href="#DejaVuSans-69" x="613.378906"/>
     <use xlink:href="#DejaVuSans-6f" x="641.162109"/>
     <use xlink:href="#DejaVuSans-6e" x="702.34375"/>
     <use xlink:href="#DejaVuSans-20" x="765.722656"/>
     <use xlink:href="#DejaVuSans-28" x="797.509766"/>
     <use xlink:href="#DejaVuSans-7a" x="836.523438"/>
     <use xlink:href="#DejaVuSans-2d" x="889.013672"/>
     <use xlink:href="#DejaVuSans-61" x="925.097656"/>
     <use xlink:href="#DejaVuSans-78" x="986.376953"/>
     <use xlink:href="#DejaVuSans-69" x="1045.556641"/>
     <use xlink:href="#DejaVuSans-73" x="1073.339844"/>
     <use xlink:href="#DejaVuSans-29" x="1125.439453"/>
    </g>
   </g>
   <g id="legend_1">
    <g id="patch_7">
     <path d="M 386.501563 185.697188 
L 611.907031 185.697188 
Q 614.907031 185.697188 614.907031 182.697188 
L 614.907031 118.145625 
Q 614.907031 115.145625 611.907031 115.145625 
L 386.501563 115.145625 
Q 383.501563 115.145625 383.501563 118.145625 
L 383.501563 182.697188 
Q 383.501563 185.697188 386.501563 185.697188 
z
" style="fill: #ffffff; opacity: 0.8; stroke: #cccccc; stroke-linejoin: miter"/>
    </g>
    <g id="line2d_22">
     <path d="M 389.501563 127.293281 
L 404.501563 127.293281 
L 419.501563 127.293281 
" style="fill: none; stroke: #ff0000; stroke-width: 1.5; stroke-linecap: square"/>
    </g>
    <g id="text_13">
     <!-- response (shaker table) -->
     <g transform="translate(431.501563 132.543281) scale(0.15 -0.15)">
      <defs>
       <path id="DejaVuSans-70" d="M 1159 525 
L 1159 -1331 
L 581 -1331 
L 581 3500 
L 1159 3500 
L 1159 2969 
Q 1341 3281 1617 3432 
Q 1894 3584 2278 3584 
Q 2916 3584 3314 3078 
Q 3713 2572 3713 1747 
Q 3713 922 3314 415 
Q 2916 -91 2278 -91 
Q 1894 -91 1617 61 
Q 1341 213 1159 525 
z
M 3116 1747 
Q 3116 2381 2855 2742 
Q 2594 3103 2138 3103 
Q 1681 3103 1420 2742 
Q 1159 2381 1159 1747 
Q 1159 1113 1420 752 
Q 1681 391 2138 391 
Q 2594 391 2855 752 
Q 3116 1113 3116 1747 
z
" transform="scale(0.015625)"/>
      </defs>
      <use xlink:href="#DejaVuSans-72"/>
      <use xlink:href="#DejaVuSans-65" x="38.863281"/>
      <use xlink:href="#DejaVuSans-73" x="100.386719"/>
      <use xlink:href="#DejaVuSans-70" x="152.486328"/>
      <use xlink:href="#DejaVuSans-6f" x="215.962891"/>
      <use xlink:href="#DejaVuSans-6e" x="277.144531"/>
      <use xlink:href="#DejaVuSans-73" x="340.523438"/>
      <use xlink:href="#DejaVuSans-65" x="392.623047"/>
      <use xlink:href="#DejaVuSans-20" x="454.146484"/>
      <use xlink:href="#DejaVuSans-28" x="485.933594"/>
      <use xlink:href="#DejaVuSans-73" x="524.947266"/>
      <use xlink:href="#DejaVuSans-68" x="577.046875"/>
      <use xlink:href="#DejaVuSans-61" x="640.425781"/>
      <use xlink:href="#DejaVuSans-6b" x="701.705078"/>
      <use xlink:href="#DejaVuSans-65" x="755.990234"/>
      <use xlink:href="#DejaVuSans-72" x="817.513672"/>
      <use xlink:href="#DejaVuSans-20" x="858.626953"/>
      <use xlink:href="#DejaVuSans-74" x="890.414062"/>
      <use xlink:href="#DejaVuSans-61" x="929.623047"/>
      <use xlink:href="#DejaVuSans-62" x="990.902344"/>
      <use xlink:href="#DejaVuSans-6c" x="1054.378906"/>
      <use xlink:href="#DejaVuSans-65" x="1082.162109"/>
      <use xlink:href="#DejaVuSans-29" x="1143.685547"/>
     </g>
    </g>
    <g id="line2d_23">
     <path d="M 389.501563 149.310469 
L 404.501563 149.310469 
L 419.501563 149.310469 
" style="fill: none; stroke: #0000ff; stroke-width: 1.5; stroke-linecap: square"/>
    </g>
    <g id="text_14">
     <!-- response (pyro, rocket) -->
     <g transform="translate(431.501563 154.560469) scale(0.15 -0.15)">
      <defs>
       <path id="DejaVuSans-79" d="M 2059 -325 
Q 1816 -950 1584 -1140 
Q 1353 -1331 966 -1331 
L 506 -1331 
L 506 -850 
L 844 -850 
Q 1081 -850 1212 -737 
Q 1344 -625 1503 -206 
L 1606 56 
L 191 3500 
L 800 3500 
L 1894 763 
L 2988 3500 
L 3597 3500 
L 2059 -325 
z
" transform="scale(0.015625)"/>
       <path id="DejaVuSans-2c" d="M 750 794 
L 1409 794 
L 1409 256 
L 897 -744 
L 494 -744 
L 750 256 
L 750 794 
z
" transform="scale(0.015625)"/>
      </defs>
      <use xlink:href="#DejaVuSans-72"/>
      <use xlink:href="#DejaVuSans-65" x="38.863281"/>
      <use xlink:href="#DejaVuSans-73" x="100.386719"/>
      <use xlink:href="#DejaVuSans-70" x="152.486328"/>
      <use xlink:href="#DejaVuSans-6f" x="215.962891"/>
      <use xlink:href="#DejaVuSans-6e" x="277.144531"/>
      <use xlink:href="#DejaVuSans-73" x="340.523438"/>
      <use xlink:href="#DejaVuSans-65" x="392.623047"/>
      <use xlink:href="#DejaVuSans-20" x="454.146484"/>
      <use xlink:href="#DejaVuSans-28" x="485.933594"/>
      <use xlink:href="#DejaVuSans-70" x="524.947266"/>
      <use xlink:href="#DejaVuSans-79" x="588.423828"/>
      <use xlink:href="#DejaVuSans-72" x="647.603516"/>
      <use xlink:href="#DejaVuSans-6f" x="686.466797"/>
      <use xlink:href="#DejaVuSans-2c" x="747.648438"/>
      <use xlink:href="#DejaVuSans-20" x="779.435547"/>
      <use xlink:href="#DejaVuSans-72" x="811.222656"/>
      <use xlink:href="#DejaVuSans-6f" x="850.085938"/>
      <use xlink:href="#DejaVuSans-63" x="911.267578"/>
      <use xlink:href="#DejaVuSans-6b" x="966.248047"/>
      <use xlink:href="#DejaVuSans-65" x="1020.533203"/>
      <use xlink:href="#DejaVuSans-74" x="1082.056641"/>
      <use xlink:href="#DejaVuSans-29" x="1121.265625"/>
     </g>
    </g>
    <g id="line2d_24">
     <path d="M 389.501563 171.327656 
L 404.501563 171.327656 
L 419.501563 171.327656 
" style="fill: none; stroke-dasharray: 5.55,2.4; stroke-dashoffset: 0; stroke: #000000; stroke-width: 1.5"/>
    </g>
    <g id="text_15">
     <!-- qualification profile -->
     <g transform="translate(431.501563 176.577656) scale(0.15 -0.15)">
      <defs>
       <path id="DejaVuSans-71" d="M 947 1747 
Q 947 1113 1208 752 
Q 1469 391 1925 391 
Q 2381 391 2643 752 
Q 2906 1113 2906 1747 
Q 2906 2381 2643 2742 
Q 2381 3103 1925 3103 
Q 1469 3103 1208 2742 
Q 947 2381 947 1747 
z
M 2906 525 
Q 2725 213 2448 61 
Q 2172 -91 1784 -91 
Q 1150 -91 751 415 
Q 353 922 353 1747 
Q 353 2572 751 3078 
Q 1150 3584 1784 3584 
Q 2172 3584 2448 3432 
Q 2725 3281 2906 2969 
L 2906 3500 
L 3481 3500 
L 3481 -1331 
L 2906 -1331 
L 2906 525 
z
" transform="scale(0.015625)"/>
       <path id="DejaVuSans-75" d="M 544 1381 
L 544 3500 
L 1119 3500 
L 1119 1403 
Q 1119 906 1312 657 
Q 1506 409 1894 409 
Q 2359 409 2629 706 
Q 2900 1003 2900 1516 
L 2900 3500 
L 3475 3500 
L 3475 0 
L 2900 0 
L 2900 538 
Q 2691 219 2414 64 
Q 2138 -91 1772 -91 
Q 1169 -91 856 284 
Q 544 659 544 1381 
z
M 1991 3584 
L 1991 3584 
z
" transform="scale(0.015625)"/>
       <path id="DejaVuSans-66" d="M 2375 4863 
L 2375 4384 
L 1825 4384 
Q 1516 4384 1395 4259 
Q 1275 4134 1275 3809 
L 1275 3500 
L 2222 3500 
L 2222 3053 
L 1275 3053 
L 1275 0 
L 697 0 
L 697 3053 
L 147 3053 
L 147 3500 
L 697 3500 
L 697 3744 
Q 697 4328 969 4595 
Q 1241 4863 1831 4863 
L 2375 4863 
z
" transform="scale(0.015625)"/>
      </defs>
      <use xlink:href="#DejaVuSans-71"/>
      <use xlink:href="#DejaVuSans-75" x="63.476562"/>
      <use xlink:href="#DejaVuSans-61" x="126.855469"/>
      <use xlink:href="#DejaVuSans-6c" x="188.134766"/>
      <use xlink:href="#DejaVuSans-69" x="215.917969"/>
      <use xlink:href="#DejaVuSans-66" x="243.701172"/>
      <use xlink:href="#DejaVuSans-69" x="278.90625"/>
      <use xlink:href="#DejaVuSans-63" x="306.689453"/>
      <use xlink:href="#DejaVuSans-61" x="361.669922"/>
      <use xlink:href="#DejaVuSans-74" x="422.949219"/>
      <use xlink:href="#DejaVuSans-69" x="462.158203"/>
      <use xlink:href="#DejaVuSans-6f" x="489.941406"/>
      <use xlink:href="#DejaVuSans-6e" x="551.123047"/>
      <use xlink:href="#DejaVuSans-20" x="614.501953"/>
      <use xlink:href="#DejaVuSans-70" x="646.289062"/>
      <use xlink:href="#DejaVuSans-72" x="709.765625"/>
      <use xlink:href="#DejaVuSans-6f" x="748.628906"/>
      <use xlink:href="#DejaVuSans-66" x="809.810547"/>
      <use xlink:href="#DejaVuSans-69" x="845.015625"/>
      <use xlink:href="#DejaVuSans-6c" x="872.798828"/>
      <use xlink:href="#DejaVuSans-65" x="900.582031"/>
     </g>
    </g>
   </g>
  </g>
 </g>
 <defs>
  <clipPath id="p99d5104d78">
   <rect x="64.407031" y="26.877187" width="558" height="166.32"/>
  </clipPath>
 </defs>
</svg>
