<?xml version="1.0" encoding="utf-8" standalone="no"?>
<!DOCTYPE svg PUBLIC "-//W3C//DTD SVG 1.1//EN"
  "http://www.w3.org/Graphics/SVG/1.1/DTD/svg11.dtd">
<svg xmlns:xlink="http://www.w3.org/1999/xlink" width="633.2pt" height="406.754375pt" viewBox="0 0 633.2 406.754375" xmlns="http://www.w3.org/2000/svg" version="1.1">
 <metadata>
  <rdf:RDF xmlns:dc="http://purl.org/dc/elements/1.1/" xmlns:cc="http://creativecommons.org/ns#" xmlns:rdf="http://www.w3.org/1999/02/22-rdf-syntax-ns#">
   <cc:Work>
    <dc:type rdf:resource="http://purl.org/dc/dcmitype/StillImage"/>
    <dc:date>2024-11-12T18:46:13.695209</dc:date>
    <dc:format>image/svg+xml</dc:format>
    <dc:creator>
     <cc:Agent>
      <dc:title>Matplotlib v3.9.2, https://matplotlib.org/</dc:title>
     </cc:Agent>
    </dc:creator>
   </cc:Work>
  </rdf:RDF>
 </metadata>
 <defs>
  <style type="text/css">*{stroke-linejoin: round; stroke-linecap: butt}</style>
 </defs>
 <g id="figure_1">
  <g id="patch_1">
   <path d="M 0 406.754375 
L 633.2 406.754375 
L 633.2 0 
L 0 0 
z
" style="fill: #ffffff"/>
  </g>
  <g id="axes_1">
   <g id="patch_2">
    <path d="M 68 359.52 
L 626 359.52 
L 626 26.88 
L 68 26.88 
z
" style="fill: #ffffff"/>
   </g>
   <g id="matplotlib.axis_1">
    <g id="xtick_1">
     <g id="line2d_1">
      <path d="M 93.363636 359.52 
L 93.363636 26.88 
" clip-path="url(#pcebd3dc224)" style="fill: none; stroke: #b0b0b0; stroke-width: 0.8; stroke-linecap: square"/>
     </g>
     <g id="line2d_2">
      <defs>
       <path id="maecf0fe782" d="M 0 0 
L 0 3.5 
" style="stroke: #000000; stroke-width: 0.8"/>
      </defs>
      <g>
       <use xlink:href="#maecf0fe782" x="93.363636" y="359.52" style="stroke: #000000; stroke-width: 0.8"/>
      </g>
     </g>
     <g id="text_1">
      <!-- $\mathdefault{10^{2}}$ -->
      <g transform="translate(80.163636 377.917656) scale(0.15 -0.15)">
       <defs>
        <path id="DejaVuSans-31" d="M 794 531 
L 1825 531 
L 1825 4091 
L 703 3866 
L 703 4441 
L 1819 4666 
L 2450 4666 
L 2450 531 
L 3481 531 
L 3481 0 
L 794 0 
L 794 531 
z
" transform="scale(0.015625)"/>
        <path id="DejaVuSans-30" d="M 2034 4250 
Q 1547 4250 1301 3770 
Q 1056 3291 1056 2328 
Q 1056 1369 1301 889 
Q 1547 409 2034 409 
Q 2525 409 2770 889 
Q 3016 1369 3016 2328 
Q 3016 3291 2770 3770 
Q 2525 4250 2034 4250 
z
M 2034 4750 
Q 2819 4750 3233 4129 
Q 3647 3509 3647 2328 
Q 3647 1150 3233 529 
Q 2819 -91 2034 -91 
Q 1250 -91 836 529 
Q 422 1150 422 2328 
Q 422 3509 836 4129 
Q 1250 4750 2034 4750 
z
" transform="scale(0.015625)"/>
        <path id="DejaVuSans-32" d="M 1228 531 
L 3431 531 
L 3431 0 
L 469 0 
L 469 531 
Q 828 903 1448 1529 
Q 2069 2156 2228 2338 
Q 2531 2678 2651 2914 
Q 2772 3150 2772 3378 
Q 2772 3750 2511 3984 
Q 2250 4219 1831 4219 
Q 1534 4219 1204 4116 
Q 875 4013 500 3803 
L 500 4441 
Q 881 4594 1212 4672 
Q 1544 4750 1819 4750 
Q 2544 4750 2975 4387 
Q 3406 4025 3406 3419 
Q 3406 3131 3298 2873 
Q 3191 2616 2906 2266 
Q 2828 2175 2409 1742 
Q 1991 1309 1228 531 
z
" transform="scale(0.015625)"/>
       </defs>
       <use xlink:href="#DejaVuSans-31" transform="translate(0 0.765625)"/>
       <use xlink:href="#DejaVuSans-30" transform="translate(63.623047 0.765625)"/>
       <use xlink:href="#DejaVuSans-32" transform="translate(128.203125 39.046875) scale(0.7)"/>
      </g>
     </g>
    </g>
    <g id="xtick_2">
     <g id="line2d_3">
      <path d="M 346.132165 359.52 
L 346.132165 26.88 
" clip-path="url(#pcebd3dc224)" style="fill: none; stroke: #b0b0b0; stroke-width: 0.8; stroke-linecap: square"/>
     </g>
     <g id="line2d_4">
      <g>
       <use xlink:href="#maecf0fe782" x="346.132165" y="359.52" style="stroke: #000000; stroke-width: 0.8"/>
      </g>
     </g>
     <g id="text_2">
      <!-- $\mathdefault{10^{3}}$ -->
      <g transform="translate(332.932165 377.917656) scale(0.15 -0.15)">
       <defs>
        <path id="DejaVuSans-33" d="M 2597 2516 
Q 3050 2419 3304 2112 
Q 3559 1806 3559 1356 
Q 3559 666 3084 287 
Q 2609 -91 1734 -91 
Q 1441 -91 1130 -33 
Q 819 25 488 141 
L 488 750 
Q 750 597 1062 519 
Q 1375 441 1716 441 
Q 2309 441 2620 675 
Q 2931 909 2931 1356 
Q 2931 1769 2642 2001 
Q 2353 2234 1838 2234 
L 1294 2234 
L 1294 2753 
L 1863 2753 
Q 2328 2753 2575 2939 
Q 2822 3125 2822 3475 
Q 2822 3834 2567 4026 
Q 2313 4219 1838 4219 
Q 1578 4219 1281 4162 
Q 984 4106 628 3988 
L 628 4550 
Q 988 4650 1302 4700 
Q 1616 4750 1894 4750 
Q 2613 4750 3031 4423 
Q 3450 4097 3450 3541 
Q 3450 3153 3228 2886 
Q 3006 2619 2597 2516 
z
" transform="scale(0.015625)"/>
       </defs>
       <use xlink:href="#DejaVuSans-31" transform="translate(0 0.765625)"/>
       <use xlink:href="#DejaVuSans-30" transform="translate(63.623047 0.765625)"/>
       <use xlink:href="#DejaVuSans-33" transform="translate(128.203125 39.046875) scale(0.7)"/>
      </g>
     </g>
    </g>
    <g id="xtick_3">
     <g id="line2d_5">
      <path d="M 598.900694 359.52 
L 598.900694 26.88 
" clip-path="url(#pcebd3dc224)" style="fill: none; stroke: #b0b0b0; stroke-width: 0.8; stroke-linecap: square"/>
     </g>
     <g id="line2d_6">
      <g>
       <use xlink:href="#maecf0fe782" x="598.900694" y="359.52" style="stroke: #000000; stroke-width: 0.8"/>
      </g>
     </g>
     <g id="text_3">
      <!-- $\mathdefault{10^{4}}$ -->
      <g transform="translate(585.700694 377.917656) scale(0.15 -0.15)">
       <defs>
        <path id="DejaVuSans-34" d="M 2419 4116 
L 825 1625 
L 2419 1625 
L 2419 4116 
z
M 2253 4666 
L 3047 4666 
L 3047 1625 
L 3713 1625 
L 3713 1100 
L 3047 1100 
L 3047 0 
L 2419 0 
L 2419 1100 
L 313 1100 
L 313 1709 
L 2253 4666 
z
" transform="scale(0.015625)"/>
       </defs>
       <use xlink:href="#DejaVuSans-31" transform="translate(0 0.684375)"/>
       <use xlink:href="#DejaVuSans-30" transform="translate(63.623047 0.684375)"/>
       <use xlink:href="#DejaVuSans-34" transform="translate(128.203125 38.965625) scale(0.7)"/>
      </g>
     </g>
    </g>
    <g id="xtick_4">
     <g id="line2d_7">
      <path d="M 68.867835 359.52 
L 68.867835 26.88 
" clip-path="url(#pcebd3dc224)" style="fill: none; stroke: #b0b0b0; stroke-width: 0.8; stroke-linecap: square"/>
     </g>
     <g id="line2d_8">
      <defs>
       <path id="m80348b4068" d="M 0 0 
L 0 2 
" style="stroke: #000000; stroke-width: 0.6"/>
      </defs>
      <g>
       <use xlink:href="#m80348b4068" x="68.867835" y="359.52" style="stroke: #000000; stroke-width: 0.6"/>
      </g>
     </g>
    </g>
    <g id="xtick_5">
     <g id="line2d_9">
      <path d="M 81.797583 359.52 
L 81.797583 26.88 
" clip-path="url(#pcebd3dc224)" style="fill: none; stroke: #b0b0b0; stroke-width: 0.8; stroke-linecap: square"/>
     </g>
     <g id="line2d_10">
      <g>
       <use xlink:href="#m80348b4068" x="81.797583" y="359.52" style="stroke: #000000; stroke-width: 0.6"/>
      </g>
     </g>
    </g>
    <g id="xtick_6">
     <g id="line2d_11">
      <path d="M 169.454545 359.52 
L 169.454545 26.88 
" clip-path="url(#pcebd3dc224)" style="fill: none; stroke: #b0b0b0; stroke-width: 0.8; stroke-linecap: square"/>
     </g>
     <g id="line2d_12">
      <g>
       <use xlink:href="#m80348b4068" x="169.454545" y="359.52" style="stroke: #000000; stroke-width: 0.6"/>
      </g>
     </g>
    </g>
    <g id="xtick_7">
     <g id="line2d_13">
      <path d="M 213.964874 359.52 
L 213.964874 26.88 
" clip-path="url(#pcebd3dc224)" style="fill: none; stroke: #b0b0b0; stroke-width: 0.8; stroke-linecap: square"/>
     </g>
     <g id="line2d_14">
      <g>
       <use xlink:href="#m80348b4068" x="213.964874" y="359.52" style="stroke: #000000; stroke-width: 0.6"/>
      </g>
     </g>
    </g>
    <g id="xtick_8">
     <g id="line2d_15">
      <path d="M 245.545455 359.52 
L 245.545455 26.88 
" clip-path="url(#pcebd3dc224)" style="fill: none; stroke: #b0b0b0; stroke-width: 0.8; stroke-linecap: square"/>
     </g>
     <g id="line2d_16">
      <g>
       <use xlink:href="#m80348b4068" x="245.545455" y="359.52" style="stroke: #000000; stroke-width: 0.6"/>
      </g>
     </g>
    </g>
    <g id="xtick_9">
     <g id="line2d_17">
      <path d="M 270.041256 359.52 
L 270.041256 26.88 
" clip-path="url(#pcebd3dc224)" style="fill: none; stroke: #b0b0b0; stroke-width: 0.8; stroke-linecap: square"/>
     </g>
     <g id="line2d_18">
      <g>
       <use xlink:href="#m80348b4068" x="270.041256" y="359.52" style="stroke: #000000; stroke-width: 0.6"/>
      </g>
     </g>
    </g>
    <g id="xtick_10">
     <g id="line2d_19">
      <path d="M 290.055783 359.52 
L 290.055783 26.88 
" clip-path="url(#pcebd3dc224)" style="fill: none; stroke: #b0b0b0; stroke-width: 0.8; stroke-linecap: square"/>
     </g>
     <g id="line2d_20">
      <g>
       <use xlink:href="#m80348b4068" x="290.055783" y="359.52" style="stroke: #000000; stroke-width: 0.6"/>
      </g>
     </g>
    </g>
    <g id="xtick_11">
     <g id="line2d_21">
      <path d="M 306.977825 359.52 
L 306.977825 26.88 
" clip-path="url(#pcebd3dc224)" style="fill: none; stroke: #b0b0b0; stroke-width: 0.8; stroke-linecap: square"/>
     </g>
     <g id="line2d_22">
      <g>
       <use xlink:href="#m80348b4068" x="306.977825" y="359.52" style="stroke: #000000; stroke-width: 0.6"/>
      </g>
     </g>
    </g>
    <g id="xtick_12">
     <g id="line2d_23">
      <path d="M 321.636364 359.52 
L 321.636364 26.88 
" clip-path="url(#pcebd3dc224)" style="fill: none; stroke: #b0b0b0; stroke-width: 0.8; stroke-linecap: square"/>
     </g>
     <g id="line2d_24">
      <g>
       <use xlink:href="#m80348b4068" x="321.636364" y="359.52" style="stroke: #000000; stroke-width: 0.6"/>
      </g>
     </g>
    </g>
    <g id="xtick_13">
     <g id="line2d_25">
      <path d="M 334.566111 359.52 
L 334.566111 26.88 
" clip-path="url(#pcebd3dc224)" style="fill: none; stroke: #b0b0b0; stroke-width: 0.8; stroke-linecap: square"/>
     </g>
     <g id="line2d_26">
      <g>
       <use xlink:href="#m80348b4068" x="334.566111" y="359.52" style="stroke: #000000; stroke-width: 0.6"/>
      </g>
     </g>
    </g>
    <g id="xtick_14">
     <g id="line2d_27">
      <path d="M 422.223074 359.52 
L 422.223074 26.88 
" clip-path="url(#pcebd3dc224)" style="fill: none; stroke: #b0b0b0; stroke-width: 0.8; stroke-linecap: square"/>
     </g>
     <g id="line2d_28">
      <g>
       <use xlink:href="#m80348b4068" x="422.223074" y="359.52" style="stroke: #000000; stroke-width: 0.6"/>
      </g>
     </g>
    </g>
    <g id="xtick_15">
     <g id="line2d_29">
      <path d="M 466.733403 359.52 
L 466.733403 26.88 
" clip-path="url(#pcebd3dc224)" style="fill: none; stroke: #b0b0b0; stroke-width: 0.8; stroke-linecap: square"/>
     </g>
     <g id="line2d_30">
      <g>
       <use xlink:href="#m80348b4068" x="466.733403" y="359.52" style="stroke: #000000; stroke-width: 0.6"/>
      </g>
     </g>
    </g>
    <g id="xtick_16">
     <g id="line2d_31">
      <path d="M 498.313983 359.52 
L 498.313983 26.88 
" clip-path="url(#pcebd3dc224)" style="fill: none; stroke: #b0b0b0; stroke-width: 0.8; stroke-linecap: square"/>
     </g>
     <g id="line2d_32">
      <g>
       <use xlink:href="#m80348b4068" x="498.313983" y="359.52" style="stroke: #000000; stroke-width: 0.6"/>
      </g>
     </g>
    </g>
    <g id="xtick_17">
     <g id="line2d_33">
      <path d="M 522.809785 359.52 
L 522.809785 26.88 
" clip-path="url(#pcebd3dc224)" style="fill: none; stroke: #b0b0b0; stroke-width: 0.8; stroke-linecap: square"/>
     </g>
     <g id="line2d_34">
      <g>
       <use xlink:href="#m80348b4068" x="522.809785" y="359.52" style="stroke: #000000; stroke-width: 0.6"/>
      </g>
     </g>
    </g>
    <g id="xtick_18">
     <g id="line2d_35">
      <path d="M 542.824312 359.52 
L 542.824312 26.88 
" clip-path="url(#pcebd3dc224)" style="fill: none; stroke: #b0b0b0; stroke-width: 0.8; stroke-linecap: square"/>
     </g>
     <g id="line2d_36">
      <g>
       <use xlink:href="#m80348b4068" x="542.824312" y="359.52" style="stroke: #000000; stroke-width: 0.6"/>
      </g>
     </g>
    </g>
    <g id="xtick_19">
     <g id="line2d_37">
      <path d="M 559.746353 359.52 
L 559.746353 26.88 
" clip-path="url(#pcebd3dc224)" style="fill: none; stroke: #b0b0b0; stroke-width: 0.8; stroke-linecap: square"/>
     </g>
     <g id="line2d_38">
      <g>
       <use xlink:href="#m80348b4068" x="559.746353" y="359.52" style="stroke: #000000; stroke-width: 0.6"/>
      </g>
     </g>
    </g>
    <g id="xtick_20">
     <g id="line2d_39">
      <path d="M 574.404892 359.52 
L 574.404892 26.88 
" clip-path="url(#pcebd3dc224)" style="fill: none; stroke: #b0b0b0; stroke-width: 0.8; stroke-linecap: square"/>
     </g>
     <g id="line2d_40">
      <g>
       <use xlink:href="#m80348b4068" x="574.404892" y="359.52" style="stroke: #000000; stroke-width: 0.6"/>
      </g>
     </g>
    </g>
    <g id="xtick_21">
     <g id="line2d_41">
      <path d="M 587.33464 359.52 
L 587.33464 26.88 
" clip-path="url(#pcebd3dc224)" style="fill: none; stroke: #b0b0b0; stroke-width: 0.8; stroke-linecap: square"/>
     </g>
     <g id="line2d_42">
      <g>
       <use xlink:href="#m80348b4068" x="587.33464" y="359.52" style="stroke: #000000; stroke-width: 0.6"/>
      </g>
     </g>
    </g>
    <g id="text_4">
     <!-- frequency [Hz] -->
     <g transform="translate(291.572656 396.434844) scale(0.15 -0.15)">
      <defs>
       <path id="DejaVuSans-66" d="M 2375 4863 
L 2375 4384 
L 1825 4384 
Q 1516 4384 1395 4259 
Q 1275 4134 1275 3809 
L 1275 3500 
L 2222 3500 
L 2222 3053 
L 1275 3053 
L 1275 0 
L 697 0 
L 697 3053 
L 147 3053 
L 147 3500 
L 697 3500 
L 697 3744 
Q 697 4328 969 4595 
Q 1241 4863 1831 4863 
L 2375 4863 
z
" transform="scale(0.015625)"/>
       <path id="DejaVuSans-72" d="M 2631 2963 
Q 2534 3019 2420 3045 
Q 2306 3072 2169 3072 
Q 1681 3072 1420 2755 
Q 1159 2438 1159 1844 
L 1159 0 
L 581 0 
L 581 3500 
L 1159 3500 
L 1159 2956 
Q 1341 3275 1631 3429 
Q 1922 3584 2338 3584 
Q 2397 3584 2469 3576 
Q 2541 3569 2628 3553 
L 2631 2963 
z
" transform="scale(0.015625)"/>
       <path id="DejaVuSans-65" d="M 3597 1894 
L 3597 1613 
L 953 1613 
Q 991 1019 1311 708 
Q 1631 397 2203 397 
Q 2534 397 2845 478 
Q 3156 559 3463 722 
L 3463 178 
Q 3153 47 2828 -22 
Q 2503 -91 2169 -91 
Q 1331 -91 842 396 
Q 353 884 353 1716 
Q 353 2575 817 3079 
Q 1281 3584 2069 3584 
Q 2775 3584 3186 3129 
Q 3597 2675 3597 1894 
z
M 3022 2063 
Q 3016 2534 2758 2815 
Q 2500 3097 2075 3097 
Q 1594 3097 1305 2825 
Q 1016 2553 972 2059 
L 3022 2063 
z
" transform="scale(0.015625)"/>
       <path id="DejaVuSans-71" d="M 947 1747 
Q 947 1113 1208 752 
Q 1469 391 1925 391 
Q 2381 391 2643 752 
Q 2906 1113 2906 1747 
Q 2906 2381 2643 2742 
Q 2381 3103 1925 3103 
Q 1469 3103 1208 2742 
Q 947 2381 947 1747 
z
M 2906 525 
Q 2725 213 2448 61 
Q 2172 -91 1784 -91 
Q 1150 -91 751 415 
Q 353 922 353 1747 
Q 353 2572 751 3078 
Q 1150 3584 1784 3584 
Q 2172 3584 2448 3432 
Q 2725 3281 2906 2969 
L 2906 3500 
L 3481 3500 
L 3481 -1331 
L 2906 -1331 
L 2906 525 
z
" transform="scale(0.015625)"/>
       <path id="DejaVuSans-75" d="M 544 1381 
L 544 3500 
L 1119 3500 
L 1119 1403 
Q 1119 906 1312 657 
Q 1506 409 1894 409 
Q 2359 409 2629 706 
Q 2900 1003 2900 1516 
L 2900 3500 
L 3475 3500 
L 3475 0 
L 2900 0 
L 2900 538 
Q 2691 219 2414 64 
Q 2138 -91 1772 -91 
Q 1169 -91 856 284 
Q 544 659 544 1381 
z
M 1991 3584 
L 1991 3584 
z
" transform="scale(0.015625)"/>
       <path id="DejaVuSans-6e" d="M 3513 2113 
L 3513 0 
L 2938 0 
L 2938 2094 
Q 2938 2591 2744 2837 
Q 2550 3084 2163 3084 
Q 1697 3084 1428 2787 
Q 1159 2491 1159 1978 
L 1159 0 
L 581 0 
L 581 3500 
L 1159 3500 
L 1159 2956 
Q 1366 3272 1645 3428 
Q 1925 3584 2291 3584 
Q 2894 3584 3203 3211 
Q 3513 2838 3513 2113 
z
" transform="scale(0.015625)"/>
       <path id="DejaVuSans-63" d="M 3122 3366 
L 3122 2828 
Q 2878 2963 2633 3030 
Q 2388 3097 2138 3097 
Q 1578 3097 1268 2742 
Q 959 2388 959 1747 
Q 959 1106 1268 751 
Q 1578 397 2138 397 
Q 2388 397 2633 464 
Q 2878 531 3122 666 
L 3122 134 
Q 2881 22 2623 -34 
Q 2366 -91 2075 -91 
Q 1284 -91 818 406 
Q 353 903 353 1747 
Q 353 2603 823 3093 
Q 1294 3584 2113 3584 
Q 2378 3584 2631 3529 
Q 2884 3475 3122 3366 
z
" transform="scale(0.015625)"/>
       <path id="DejaVuSans-79" d="M 2059 -325 
Q 1816 -950 1584 -1140 
Q 1353 -1331 966 -1331 
L 506 -1331 
L 506 -850 
L 844 -850 
Q 1081 -850 1212 -737 
Q 1344 -625 1503 -206 
L 1606 56 
L 191 3500 
L 800 3500 
L 1894 763 
L 2988 3500 
L 3597 3500 
L 2059 -325 
z
" transform="scale(0.015625)"/>
       <path id="DejaVuSans-20" transform="scale(0.015625)"/>
       <path id="DejaVuSans-5b" d="M 550 4863 
L 1875 4863 
L 1875 4416 
L 1125 4416 
L 1125 -397 
L 1875 -397 
L 1875 -844 
L 550 -844 
L 550 4863 
z
" transform="scale(0.015625)"/>
       <path id="DejaVuSans-48" d="M 628 4666 
L 1259 4666 
L 1259 2753 
L 3553 2753 
L 3553 4666 
L 4184 4666 
L 4184 0 
L 3553 0 
L 3553 2222 
L 1259 2222 
L 1259 0 
L 628 0 
L 628 4666 
z
" transform="scale(0.015625)"/>
       <path id="DejaVuSans-7a" d="M 353 3500 
L 3084 3500 
L 3084 2975 
L 922 459 
L 3084 459 
L 3084 0 
L 275 0 
L 275 525 
L 2438 3041 
L 353 3041 
L 353 3500 
z
" transform="scale(0.015625)"/>
       <path id="DejaVuSans-5d" d="M 1947 4863 
L 1947 -844 
L 622 -844 
L 622 -397 
L 1369 -397 
L 1369 4416 
L 622 4416 
L 622 4863 
L 1947 4863 
z
" transform="scale(0.015625)"/>
      </defs>
      <use xlink:href="#DejaVuSans-66"/>
      <use xlink:href="#DejaVuSans-72" x="35.205078"/>
      <use xlink:href="#DejaVuSans-65" x="74.068359"/>
      <use xlink:href="#DejaVuSans-71" x="135.591797"/>
      <use xlink:href="#DejaVuSans-75" x="199.068359"/>
      <use xlink:href="#DejaVuSans-65" x="262.447266"/>
      <use xlink:href="#DejaVuSans-6e" x="323.970703"/>
      <use xlink:href="#DejaVuSans-63" x="387.349609"/>
      <use xlink:href="#DejaVuSans-79" x="442.330078"/>
      <use xlink:href="#DejaVuSans-20" x="501.509766"/>
      <use xlink:href="#DejaVuSans-5b" x="533.296875"/>
      <use xlink:href="#DejaVuSans-48" x="572.310547"/>
      <use xlink:href="#DejaVuSans-7a" x="647.505859"/>
      <use xlink:href="#DejaVuSans-5d" x="699.996094"/>
     </g>
    </g>
   </g>
   <g id="matplotlib.axis_2">
    <g id="ytick_1">
     <g id="line2d_43">
      <path d="M 68 326.728144 
L 626 326.728144 
" clip-path="url(#pcebd3dc224)" style="fill: none; stroke: #b0b0b0; stroke-width: 0.8; stroke-linecap: square"/>
     </g>
     <g id="line2d_44">
      <defs>
       <path id="mf8a489e46c" d="M 0 0 
L -3.5 0 
" style="stroke: #000000; stroke-width: 0.8"/>
      </defs>
      <g>
       <use xlink:href="#mf8a489e46c" x="68" y="326.728144" style="stroke: #000000; stroke-width: 0.8"/>
      </g>
     </g>
     <g id="text_5">
      <!-- $\mathdefault{10^{-3}}$ -->
      <g transform="translate(25.75 332.426972) scale(0.15 -0.15)">
       <defs>
        <path id="DejaVuSans-2212" d="M 678 2272 
L 4684 2272 
L 4684 1741 
L 678 1741 
L 678 2272 
z
" transform="scale(0.015625)"/>
       </defs>
       <use xlink:href="#DejaVuSans-31" transform="translate(0 0.765625)"/>
       <use xlink:href="#DejaVuSans-30" transform="translate(63.623047 0.765625)"/>
       <use xlink:href="#DejaVuSans-2212" transform="translate(128.203125 39.046875) scale(0.7)"/>
       <use xlink:href="#DejaVuSans-33" transform="translate(186.855469 39.046875) scale(0.7)"/>
      </g>
     </g>
    </g>
    <g id="ytick_2">
     <g id="line2d_45">
      <path d="M 68 277.337011 
L 626 277.337011 
" clip-path="url(#pcebd3dc224)" style="fill: none; stroke: #b0b0b0; stroke-width: 0.8; stroke-linecap: square"/>
     </g>
     <g id="line2d_46">
      <g>
       <use xlink:href="#mf8a489e46c" x="68" y="277.337011" style="stroke: #000000; stroke-width: 0.8"/>
      </g>
     </g>
     <g id="text_6">
      <!-- $\mathdefault{10^{-2}}$ -->
      <g transform="translate(25.75 283.035839) scale(0.15 -0.15)">
       <use xlink:href="#DejaVuSans-31" transform="translate(0 0.765625)"/>
       <use xlink:href="#DejaVuSans-30" transform="translate(63.623047 0.765625)"/>
       <use xlink:href="#DejaVuSans-2212" transform="translate(128.203125 39.046875) scale(0.7)"/>
       <use xlink:href="#DejaVuSans-32" transform="translate(186.855469 39.046875) scale(0.7)"/>
      </g>
     </g>
    </g>
    <g id="ytick_3">
     <g id="line2d_47">
      <path d="M 68 227.945877 
L 626 227.945877 
" clip-path="url(#pcebd3dc224)" style="fill: none; stroke: #b0b0b0; stroke-width: 0.8; stroke-linecap: square"/>
     </g>
     <g id="line2d_48">
      <g>
       <use xlink:href="#mf8a489e46c" x="68" y="227.945877" style="stroke: #000000; stroke-width: 0.8"/>
      </g>
     </g>
     <g id="text_7">
      <!-- $\mathdefault{10^{-1}}$ -->
      <g transform="translate(25.75 233.644705) scale(0.15 -0.15)">
       <use xlink:href="#DejaVuSans-31" transform="translate(0 0.684375)"/>
       <use xlink:href="#DejaVuSans-30" transform="translate(63.623047 0.684375)"/>
       <use xlink:href="#DejaVuSans-2212" transform="translate(128.203125 38.965625) scale(0.7)"/>
       <use xlink:href="#DejaVuSans-31" transform="translate(186.855469 38.965625) scale(0.7)"/>
      </g>
     </g>
    </g>
    <g id="ytick_4">
     <g id="line2d_49">
      <path d="M 68 178.554744 
L 626 178.554744 
" clip-path="url(#pcebd3dc224)" style="fill: none; stroke: #b0b0b0; stroke-width: 0.8; stroke-linecap: square"/>
     </g>
     <g id="line2d_50">
      <g>
       <use xlink:href="#mf8a489e46c" x="68" y="178.554744" style="stroke: #000000; stroke-width: 0.8"/>
      </g>
     </g>
     <g id="text_8">
      <!-- $\mathdefault{10^{0}}$ -->
      <g transform="translate(34.6 184.253572) scale(0.15 -0.15)">
       <use xlink:href="#DejaVuSans-31" transform="translate(0 0.765625)"/>
       <use xlink:href="#DejaVuSans-30" transform="translate(63.623047 0.765625)"/>
       <use xlink:href="#DejaVuSans-30" transform="translate(128.203125 39.046875) scale(0.7)"/>
      </g>
     </g>
    </g>
    <g id="ytick_5">
     <g id="line2d_51">
      <path d="M 68 129.16361 
L 626 129.16361 
" clip-path="url(#pcebd3dc224)" style="fill: none; stroke: #b0b0b0; stroke-width: 0.8; stroke-linecap: square"/>
     </g>
     <g id="line2d_52">
      <g>
       <use xlink:href="#mf8a489e46c" x="68" y="129.16361" style="stroke: #000000; stroke-width: 0.8"/>
      </g>
     </g>
     <g id="text_9">
      <!-- $\mathdefault{10^{1}}$ -->
      <g transform="translate(34.6 134.862439) scale(0.15 -0.15)">
       <use xlink:href="#DejaVuSans-31" transform="translate(0 0.684375)"/>
       <use xlink:href="#DejaVuSans-30" transform="translate(63.623047 0.684375)"/>
       <use xlink:href="#DejaVuSans-31" transform="translate(128.203125 38.965625) scale(0.7)"/>
      </g>
     </g>
    </g>
    <g id="ytick_6">
     <g id="line2d_53">
      <path d="M 68 79.772477 
L 626 79.772477 
" clip-path="url(#pcebd3dc224)" style="fill: none; stroke: #b0b0b0; stroke-width: 0.8; stroke-linecap: square"/>
     </g>
     <g id="line2d_54">
      <g>
       <use xlink:href="#mf8a489e46c" x="68" y="79.772477" style="stroke: #000000; stroke-width: 0.8"/>
      </g>
     </g>
     <g id="text_10">
      <!-- $\mathdefault{10^{2}}$ -->
      <g transform="translate(34.6 85.471305) scale(0.15 -0.15)">
       <use xlink:href="#DejaVuSans-31" transform="translate(0 0.765625)"/>
       <use xlink:href="#DejaVuSans-30" transform="translate(63.623047 0.765625)"/>
       <use xlink:href="#DejaVuSans-32" transform="translate(128.203125 39.046875) scale(0.7)"/>
      </g>
     </g>
    </g>
    <g id="ytick_7">
     <g id="line2d_55">
      <path d="M 68 30.381344 
L 626 30.381344 
" clip-path="url(#pcebd3dc224)" style="fill: none; stroke: #b0b0b0; stroke-width: 0.8; stroke-linecap: square"/>
     </g>
     <g id="line2d_56">
      <g>
       <use xlink:href="#mf8a489e46c" x="68" y="30.381344" style="stroke: #000000; stroke-width: 0.8"/>
      </g>
     </g>
     <g id="text_11">
      <!-- $\mathdefault{10^{3}}$ -->
      <g transform="translate(34.6 36.080172) scale(0.15 -0.15)">
       <use xlink:href="#DejaVuSans-31" transform="translate(0 0.765625)"/>
       <use xlink:href="#DejaVuSans-30" transform="translate(63.623047 0.765625)"/>
       <use xlink:href="#DejaVuSans-33" transform="translate(128.203125 39.046875) scale(0.7)"/>
      </g>
     </g>
    </g>
    <g id="ytick_8">
     <g id="line2d_57">
      <path d="M 68 352.553718 
L 626 352.553718 
" clip-path="url(#pcebd3dc224)" style="fill: none; stroke: #b0b0b0; stroke-width: 0.8; stroke-linecap: square"/>
     </g>
     <g id="line2d_58">
      <defs>
       <path id="m80e3e831e3" d="M 0 0 
L -2 0 
" style="stroke: #000000; stroke-width: 0.6"/>
      </defs>
      <g>
       <use xlink:href="#m80e3e831e3" x="68" y="352.553718" style="stroke: #000000; stroke-width: 0.6"/>
      </g>
     </g>
    </g>
    <g id="ytick_9">
     <g id="line2d_59">
      <path d="M 68 346.382852 
L 626 346.382852 
" clip-path="url(#pcebd3dc224)" style="fill: none; stroke: #b0b0b0; stroke-width: 0.8; stroke-linecap: square"/>
     </g>
     <g id="line2d_60">
      <g>
       <use xlink:href="#m80e3e831e3" x="68" y="346.382852" style="stroke: #000000; stroke-width: 0.6"/>
      </g>
     </g>
    </g>
    <g id="ytick_10">
     <g id="line2d_61">
      <path d="M 68 341.596357 
L 626 341.596357 
" clip-path="url(#pcebd3dc224)" style="fill: none; stroke: #b0b0b0; stroke-width: 0.8; stroke-linecap: square"/>
     </g>
     <g id="line2d_62">
      <g>
       <use xlink:href="#m80e3e831e3" x="68" y="341.596357" style="stroke: #000000; stroke-width: 0.6"/>
      </g>
     </g>
    </g>
    <g id="ytick_11">
     <g id="line2d_63">
      <path d="M 68 337.685505 
L 626 337.685505 
" clip-path="url(#pcebd3dc224)" style="fill: none; stroke: #b0b0b0; stroke-width: 0.8; stroke-linecap: square"/>
     </g>
     <g id="line2d_64">
      <g>
       <use xlink:href="#m80e3e831e3" x="68" y="337.685505" style="stroke: #000000; stroke-width: 0.6"/>
      </g>
     </g>
    </g>
    <g id="ytick_12">
     <g id="line2d_65">
      <path d="M 68 334.378927 
L 626 334.378927 
" clip-path="url(#pcebd3dc224)" style="fill: none; stroke: #b0b0b0; stroke-width: 0.8; stroke-linecap: square"/>
     </g>
     <g id="line2d_66">
      <g>
       <use xlink:href="#m80e3e831e3" x="68" y="334.378927" style="stroke: #000000; stroke-width: 0.6"/>
      </g>
     </g>
    </g>
    <g id="ytick_13">
     <g id="line2d_67">
      <path d="M 68 331.514639 
L 626 331.514639 
" clip-path="url(#pcebd3dc224)" style="fill: none; stroke: #b0b0b0; stroke-width: 0.8; stroke-linecap: square"/>
     </g>
     <g id="line2d_68">
      <g>
       <use xlink:href="#m80e3e831e3" x="68" y="331.514639" style="stroke: #000000; stroke-width: 0.6"/>
      </g>
     </g>
    </g>
    <g id="ytick_14">
     <g id="line2d_69">
      <path d="M 68 328.988158 
L 626 328.988158 
" clip-path="url(#pcebd3dc224)" style="fill: none; stroke: #b0b0b0; stroke-width: 0.8; stroke-linecap: square"/>
     </g>
     <g id="line2d_70">
      <g>
       <use xlink:href="#m80e3e831e3" x="68" y="328.988158" style="stroke: #000000; stroke-width: 0.6"/>
      </g>
     </g>
    </g>
    <g id="ytick_15">
     <g id="line2d_71">
      <path d="M 68 311.859931 
L 626 311.859931 
" clip-path="url(#pcebd3dc224)" style="fill: none; stroke: #b0b0b0; stroke-width: 0.8; stroke-linecap: square"/>
     </g>
     <g id="line2d_72">
      <g>
       <use xlink:href="#m80e3e831e3" x="68" y="311.859931" style="stroke: #000000; stroke-width: 0.6"/>
      </g>
     </g>
    </g>
    <g id="ytick_16">
     <g id="line2d_73">
      <path d="M 68 303.162585 
L 626 303.162585 
" clip-path="url(#pcebd3dc224)" style="fill: none; stroke: #b0b0b0; stroke-width: 0.8; stroke-linecap: square"/>
     </g>
     <g id="line2d_74">
      <g>
       <use xlink:href="#m80e3e831e3" x="68" y="303.162585" style="stroke: #000000; stroke-width: 0.6"/>
      </g>
     </g>
    </g>
    <g id="ytick_17">
     <g id="line2d_75">
      <path d="M 68 296.991719 
L 626 296.991719 
" clip-path="url(#pcebd3dc224)" style="fill: none; stroke: #b0b0b0; stroke-width: 0.8; stroke-linecap: square"/>
     </g>
     <g id="line2d_76">
      <g>
       <use xlink:href="#m80e3e831e3" x="68" y="296.991719" style="stroke: #000000; stroke-width: 0.6"/>
      </g>
     </g>
    </g>
    <g id="ytick_18">
     <g id="line2d_77">
      <path d="M 68 292.205223 
L 626 292.205223 
" clip-path="url(#pcebd3dc224)" style="fill: none; stroke: #b0b0b0; stroke-width: 0.8; stroke-linecap: square"/>
     </g>
     <g id="line2d_78">
      <g>
       <use xlink:href="#m80e3e831e3" x="68" y="292.205223" style="stroke: #000000; stroke-width: 0.6"/>
      </g>
     </g>
    </g>
    <g id="ytick_19">
     <g id="line2d_79">
      <path d="M 68 288.294372 
L 626 288.294372 
" clip-path="url(#pcebd3dc224)" style="fill: none; stroke: #b0b0b0; stroke-width: 0.8; stroke-linecap: square"/>
     </g>
     <g id="line2d_80">
      <g>
       <use xlink:href="#m80e3e831e3" x="68" y="288.294372" style="stroke: #000000; stroke-width: 0.6"/>
      </g>
     </g>
    </g>
    <g id="ytick_20">
     <g id="line2d_81">
      <path d="M 68 284.987794 
L 626 284.987794 
" clip-path="url(#pcebd3dc224)" style="fill: none; stroke: #b0b0b0; stroke-width: 0.8; stroke-linecap: square"/>
     </g>
     <g id="line2d_82">
      <g>
       <use xlink:href="#m80e3e831e3" x="68" y="284.987794" style="stroke: #000000; stroke-width: 0.6"/>
      </g>
     </g>
    </g>
    <g id="ytick_21">
     <g id="line2d_83">
      <path d="M 68 282.123506 
L 626 282.123506 
" clip-path="url(#pcebd3dc224)" style="fill: none; stroke: #b0b0b0; stroke-width: 0.8; stroke-linecap: square"/>
     </g>
     <g id="line2d_84">
      <g>
       <use xlink:href="#m80e3e831e3" x="68" y="282.123506" style="stroke: #000000; stroke-width: 0.6"/>
      </g>
     </g>
    </g>
    <g id="ytick_22">
     <g id="line2d_85">
      <path d="M 68 279.597025 
L 626 279.597025 
" clip-path="url(#pcebd3dc224)" style="fill: none; stroke: #b0b0b0; stroke-width: 0.8; stroke-linecap: square"/>
     </g>
     <g id="line2d_86">
      <g>
       <use xlink:href="#m80e3e831e3" x="68" y="279.597025" style="stroke: #000000; stroke-width: 0.6"/>
      </g>
     </g>
    </g>
    <g id="ytick_23">
     <g id="line2d_87">
      <path d="M 68 262.468798 
L 626 262.468798 
" clip-path="url(#pcebd3dc224)" style="fill: none; stroke: #b0b0b0; stroke-width: 0.8; stroke-linecap: square"/>
     </g>
     <g id="line2d_88">
      <g>
       <use xlink:href="#m80e3e831e3" x="68" y="262.468798" style="stroke: #000000; stroke-width: 0.6"/>
      </g>
     </g>
    </g>
    <g id="ytick_24">
     <g id="line2d_89">
      <path d="M 68 253.771451 
L 626 253.771451 
" clip-path="url(#pcebd3dc224)" style="fill: none; stroke: #b0b0b0; stroke-width: 0.8; stroke-linecap: square"/>
     </g>
     <g id="line2d_90">
      <g>
       <use xlink:href="#m80e3e831e3" x="68" y="253.771451" style="stroke: #000000; stroke-width: 0.6"/>
      </g>
     </g>
    </g>
    <g id="ytick_25">
     <g id="line2d_91">
      <path d="M 68 247.600585 
L 626 247.600585 
" clip-path="url(#pcebd3dc224)" style="fill: none; stroke: #b0b0b0; stroke-width: 0.8; stroke-linecap: square"/>
     </g>
     <g id="line2d_92">
      <g>
       <use xlink:href="#m80e3e831e3" x="68" y="247.600585" style="stroke: #000000; stroke-width: 0.6"/>
      </g>
     </g>
    </g>
    <g id="ytick_26">
     <g id="line2d_93">
      <path d="M 68 242.81409 
L 626 242.81409 
" clip-path="url(#pcebd3dc224)" style="fill: none; stroke: #b0b0b0; stroke-width: 0.8; stroke-linecap: square"/>
     </g>
     <g id="line2d_94">
      <g>
       <use xlink:href="#m80e3e831e3" x="68" y="242.81409" style="stroke: #000000; stroke-width: 0.6"/>
      </g>
     </g>
    </g>
    <g id="ytick_27">
     <g id="line2d_95">
      <path d="M 68 238.903238 
L 626 238.903238 
" clip-path="url(#pcebd3dc224)" style="fill: none; stroke: #b0b0b0; stroke-width: 0.8; stroke-linecap: square"/>
     </g>
     <g id="line2d_96">
      <g>
       <use xlink:href="#m80e3e831e3" x="68" y="238.903238" style="stroke: #000000; stroke-width: 0.6"/>
      </g>
     </g>
    </g>
    <g id="ytick_28">
     <g id="line2d_97">
      <path d="M 68 235.596661 
L 626 235.596661 
" clip-path="url(#pcebd3dc224)" style="fill: none; stroke: #b0b0b0; stroke-width: 0.8; stroke-linecap: square"/>
     </g>
     <g id="line2d_98">
      <g>
       <use xlink:href="#m80e3e831e3" x="68" y="235.596661" style="stroke: #000000; stroke-width: 0.6"/>
      </g>
     </g>
    </g>
    <g id="ytick_29">
     <g id="line2d_99">
      <path d="M 68 232.732373 
L 626 232.732373 
" clip-path="url(#pcebd3dc224)" style="fill: none; stroke: #b0b0b0; stroke-width: 0.8; stroke-linecap: square"/>
     </g>
     <g id="line2d_100">
      <g>
       <use xlink:href="#m80e3e831e3" x="68" y="232.732373" style="stroke: #000000; stroke-width: 0.6"/>
      </g>
     </g>
    </g>
    <g id="ytick_30">
     <g id="line2d_101">
      <path d="M 68 230.205892 
L 626 230.205892 
" clip-path="url(#pcebd3dc224)" style="fill: none; stroke: #b0b0b0; stroke-width: 0.8; stroke-linecap: square"/>
     </g>
     <g id="line2d_102">
      <g>
       <use xlink:href="#m80e3e831e3" x="68" y="230.205892" style="stroke: #000000; stroke-width: 0.6"/>
      </g>
     </g>
    </g>
    <g id="ytick_31">
     <g id="line2d_103">
      <path d="M 68 213.077665 
L 626 213.077665 
" clip-path="url(#pcebd3dc224)" style="fill: none; stroke: #b0b0b0; stroke-width: 0.8; stroke-linecap: square"/>
     </g>
     <g id="line2d_104">
      <g>
       <use xlink:href="#m80e3e831e3" x="68" y="213.077665" style="stroke: #000000; stroke-width: 0.6"/>
      </g>
     </g>
    </g>
    <g id="ytick_32">
     <g id="line2d_105">
      <path d="M 68 204.380318 
L 626 204.380318 
" clip-path="url(#pcebd3dc224)" style="fill: none; stroke: #b0b0b0; stroke-width: 0.8; stroke-linecap: square"/>
     </g>
     <g id="line2d_106">
      <g>
       <use xlink:href="#m80e3e831e3" x="68" y="204.380318" style="stroke: #000000; stroke-width: 0.6"/>
      </g>
     </g>
    </g>
    <g id="ytick_33">
     <g id="line2d_107">
      <path d="M 68 198.209452 
L 626 198.209452 
" clip-path="url(#pcebd3dc224)" style="fill: none; stroke: #b0b0b0; stroke-width: 0.8; stroke-linecap: square"/>
     </g>
     <g id="line2d_108">
      <g>
       <use xlink:href="#m80e3e831e3" x="68" y="198.209452" style="stroke: #000000; stroke-width: 0.6"/>
      </g>
     </g>
    </g>
    <g id="ytick_34">
     <g id="line2d_109">
      <path d="M 68 193.422957 
L 626 193.422957 
" clip-path="url(#pcebd3dc224)" style="fill: none; stroke: #b0b0b0; stroke-width: 0.8; stroke-linecap: square"/>
     </g>
     <g id="line2d_110">
      <g>
       <use xlink:href="#m80e3e831e3" x="68" y="193.422957" style="stroke: #000000; stroke-width: 0.6"/>
      </g>
     </g>
    </g>
    <g id="ytick_35">
     <g id="line2d_111">
      <path d="M 68 189.512105 
L 626 189.512105 
" clip-path="url(#pcebd3dc224)" style="fill: none; stroke: #b0b0b0; stroke-width: 0.8; stroke-linecap: square"/>
     </g>
     <g id="line2d_112">
      <g>
       <use xlink:href="#m80e3e831e3" x="68" y="189.512105" style="stroke: #000000; stroke-width: 0.6"/>
      </g>
     </g>
    </g>
    <g id="ytick_36">
     <g id="line2d_113">
      <path d="M 68 186.205527 
L 626 186.205527 
" clip-path="url(#pcebd3dc224)" style="fill: none; stroke: #b0b0b0; stroke-width: 0.8; stroke-linecap: square"/>
     </g>
     <g id="line2d_114">
      <g>
       <use xlink:href="#m80e3e831e3" x="68" y="186.205527" style="stroke: #000000; stroke-width: 0.6"/>
      </g>
     </g>
    </g>
    <g id="ytick_37">
     <g id="line2d_115">
      <path d="M 68 183.341239 
L 626 183.341239 
" clip-path="url(#pcebd3dc224)" style="fill: none; stroke: #b0b0b0; stroke-width: 0.8; stroke-linecap: square"/>
     </g>
     <g id="line2d_116">
      <g>
       <use xlink:href="#m80e3e831e3" x="68" y="183.341239" style="stroke: #000000; stroke-width: 0.6"/>
      </g>
     </g>
    </g>
    <g id="ytick_38">
     <g id="line2d_117">
      <path d="M 68 180.814758 
L 626 180.814758 
" clip-path="url(#pcebd3dc224)" style="fill: none; stroke: #b0b0b0; stroke-width: 0.8; stroke-linecap: square"/>
     </g>
     <g id="line2d_118">
      <g>
       <use xlink:href="#m80e3e831e3" x="68" y="180.814758" style="stroke: #000000; stroke-width: 0.6"/>
      </g>
     </g>
    </g>
    <g id="ytick_39">
     <g id="line2d_119">
      <path d="M 68 163.686531 
L 626 163.686531 
" clip-path="url(#pcebd3dc224)" style="fill: none; stroke: #b0b0b0; stroke-width: 0.8; stroke-linecap: square"/>
     </g>
     <g id="line2d_120">
      <g>
       <use xlink:href="#m80e3e831e3" x="68" y="163.686531" style="stroke: #000000; stroke-width: 0.6"/>
      </g>
     </g>
    </g>
    <g id="ytick_40">
     <g id="line2d_121">
      <path d="M 68 154.989184 
L 626 154.989184 
" clip-path="url(#pcebd3dc224)" style="fill: none; stroke: #b0b0b0; stroke-width: 0.8; stroke-linecap: square"/>
     </g>
     <g id="line2d_122">
      <g>
       <use xlink:href="#m80e3e831e3" x="68" y="154.989184" style="stroke: #000000; stroke-width: 0.6"/>
      </g>
     </g>
    </g>
    <g id="ytick_41">
     <g id="line2d_123">
      <path d="M 68 148.818319 
L 626 148.818319 
" clip-path="url(#pcebd3dc224)" style="fill: none; stroke: #b0b0b0; stroke-width: 0.8; stroke-linecap: square"/>
     </g>
     <g id="line2d_124">
      <g>
       <use xlink:href="#m80e3e831e3" x="68" y="148.818319" style="stroke: #000000; stroke-width: 0.6"/>
      </g>
     </g>
    </g>
    <g id="ytick_42">
     <g id="line2d_125">
      <path d="M 68 144.031823 
L 626 144.031823 
" clip-path="url(#pcebd3dc224)" style="fill: none; stroke: #b0b0b0; stroke-width: 0.8; stroke-linecap: square"/>
     </g>
     <g id="line2d_126">
      <g>
       <use xlink:href="#m80e3e831e3" x="68" y="144.031823" style="stroke: #000000; stroke-width: 0.6"/>
      </g>
     </g>
    </g>
    <g id="ytick_43">
     <g id="line2d_127">
      <path d="M 68 140.120972 
L 626 140.120972 
" clip-path="url(#pcebd3dc224)" style="fill: none; stroke: #b0b0b0; stroke-width: 0.8; stroke-linecap: square"/>
     </g>
     <g id="line2d_128">
      <g>
       <use xlink:href="#m80e3e831e3" x="68" y="140.120972" style="stroke: #000000; stroke-width: 0.6"/>
      </g>
     </g>
    </g>
    <g id="ytick_44">
     <g id="line2d_129">
      <path d="M 68 136.814394 
L 626 136.814394 
" clip-path="url(#pcebd3dc224)" style="fill: none; stroke: #b0b0b0; stroke-width: 0.8; stroke-linecap: square"/>
     </g>
     <g id="line2d_130">
      <g>
       <use xlink:href="#m80e3e831e3" x="68" y="136.814394" style="stroke: #000000; stroke-width: 0.6"/>
      </g>
     </g>
    </g>
    <g id="ytick_45">
     <g id="line2d_131">
      <path d="M 68 133.950106 
L 626 133.950106 
" clip-path="url(#pcebd3dc224)" style="fill: none; stroke: #b0b0b0; stroke-width: 0.8; stroke-linecap: square"/>
     </g>
     <g id="line2d_132">
      <g>
       <use xlink:href="#m80e3e831e3" x="68" y="133.950106" style="stroke: #000000; stroke-width: 0.6"/>
      </g>
     </g>
    </g>
    <g id="ytick_46">
     <g id="line2d_133">
      <path d="M 68 131.423625 
L 626 131.423625 
" clip-path="url(#pcebd3dc224)" style="fill: none; stroke: #b0b0b0; stroke-width: 0.8; stroke-linecap: square"/>
     </g>
     <g id="line2d_134">
      <g>
       <use xlink:href="#m80e3e831e3" x="68" y="131.423625" style="stroke: #000000; stroke-width: 0.6"/>
      </g>
     </g>
    </g>
    <g id="ytick_47">
     <g id="line2d_135">
      <path d="M 68 114.295398 
L 626 114.295398 
" clip-path="url(#pcebd3dc224)" style="fill: none; stroke: #b0b0b0; stroke-width: 0.8; stroke-linecap: square"/>
     </g>
     <g id="line2d_136">
      <g>
       <use xlink:href="#m80e3e831e3" x="68" y="114.295398" style="stroke: #000000; stroke-width: 0.6"/>
      </g>
     </g>
    </g>
    <g id="ytick_48">
     <g id="line2d_137">
      <path d="M 68 105.598051 
L 626 105.598051 
" clip-path="url(#pcebd3dc224)" style="fill: none; stroke: #b0b0b0; stroke-width: 0.8; stroke-linecap: square"/>
     </g>
     <g id="line2d_138">
      <g>
       <use xlink:href="#m80e3e831e3" x="68" y="105.598051" style="stroke: #000000; stroke-width: 0.6"/>
      </g>
     </g>
    </g>
    <g id="ytick_49">
     <g id="line2d_139">
      <path d="M 68 99.427185 
L 626 99.427185 
" clip-path="url(#pcebd3dc224)" style="fill: none; stroke: #b0b0b0; stroke-width: 0.8; stroke-linecap: square"/>
     </g>
     <g id="line2d_140">
      <g>
       <use xlink:href="#m80e3e831e3" x="68" y="99.427185" style="stroke: #000000; stroke-width: 0.6"/>
      </g>
     </g>
    </g>
    <g id="ytick_50">
     <g id="line2d_141">
      <path d="M 68 94.64069 
L 626 94.64069 
" clip-path="url(#pcebd3dc224)" style="fill: none; stroke: #b0b0b0; stroke-width: 0.8; stroke-linecap: square"/>
     </g>
     <g id="line2d_142">
      <g>
       <use xlink:href="#m80e3e831e3" x="68" y="94.64069" style="stroke: #000000; stroke-width: 0.6"/>
      </g>
     </g>
    </g>
    <g id="ytick_51">
     <g id="line2d_143">
      <path d="M 68 90.729838 
L 626 90.729838 
" clip-path="url(#pcebd3dc224)" style="fill: none; stroke: #b0b0b0; stroke-width: 0.8; stroke-linecap: square"/>
     </g>
     <g id="line2d_144">
      <g>
       <use xlink:href="#m80e3e831e3" x="68" y="90.729838" style="stroke: #000000; stroke-width: 0.6"/>
      </g>
     </g>
    </g>
    <g id="ytick_52">
     <g id="line2d_145">
      <path d="M 68 87.42326 
L 626 87.42326 
" clip-path="url(#pcebd3dc224)" style="fill: none; stroke: #b0b0b0; stroke-width: 0.8; stroke-linecap: square"/>
     </g>
     <g id="line2d_146">
      <g>
       <use xlink:href="#m80e3e831e3" x="68" y="87.42326" style="stroke: #000000; stroke-width: 0.6"/>
      </g>
     </g>
    </g>
    <g id="ytick_53">
     <g id="line2d_147">
      <path d="M 68 84.558972 
L 626 84.558972 
" clip-path="url(#pcebd3dc224)" style="fill: none; stroke: #b0b0b0; stroke-width: 0.8; stroke-linecap: square"/>
     </g>
     <g id="line2d_148">
      <g>
       <use xlink:href="#m80e3e831e3" x="68" y="84.558972" style="stroke: #000000; stroke-width: 0.6"/>
      </g>
     </g>
    </g>
    <g id="ytick_54">
     <g id="line2d_149">
      <path d="M 68 82.032491 
L 626 82.032491 
" clip-path="url(#pcebd3dc224)" style="fill: none; stroke: #b0b0b0; stroke-width: 0.8; stroke-linecap: square"/>
     </g>
     <g id="line2d_150">
      <g>
       <use xlink:href="#m80e3e831e3" x="68" y="82.032491" style="stroke: #000000; stroke-width: 0.6"/>
      </g>
     </g>
    </g>
    <g id="ytick_55">
     <g id="line2d_151">
      <path d="M 68 64.904264 
L 626 64.904264 
" clip-path="url(#pcebd3dc224)" style="fill: none; stroke: #b0b0b0; stroke-width: 0.8; stroke-linecap: square"/>
     </g>
     <g id="line2d_152">
      <g>
       <use xlink:href="#m80e3e831e3" x="68" y="64.904264" style="stroke: #000000; stroke-width: 0.6"/>
      </g>
     </g>
    </g>
    <g id="ytick_56">
     <g id="line2d_153">
      <path d="M 68 56.206918 
L 626 56.206918 
" clip-path="url(#pcebd3dc224)" style="fill: none; stroke: #b0b0b0; stroke-width: 0.8; stroke-linecap: square"/>
     </g>
     <g id="line2d_154">
      <g>
       <use xlink:href="#m80e3e831e3" x="68" y="56.206918" style="stroke: #000000; stroke-width: 0.6"/>
      </g>
     </g>
    </g>
    <g id="ytick_57">
     <g id="line2d_155">
      <path d="M 68 50.036052 
L 626 50.036052 
" clip-path="url(#pcebd3dc224)" style="fill: none; stroke: #b0b0b0; stroke-width: 0.8; stroke-linecap: square"/>
     </g>
     <g id="line2d_156">
      <g>
       <use xlink:href="#m80e3e831e3" x="68" y="50.036052" style="stroke: #000000; stroke-width: 0.6"/>
      </g>
     </g>
    </g>
    <g id="ytick_58">
     <g id="line2d_157">
      <path d="M 68 45.249556 
L 626 45.249556 
" clip-path="url(#pcebd3dc224)" style="fill: none; stroke: #b0b0b0; stroke-width: 0.8; stroke-linecap: square"/>
     </g>
     <g id="line2d_158">
      <g>
       <use xlink:href="#m80e3e831e3" x="68" y="45.249556" style="stroke: #000000; stroke-width: 0.6"/>
      </g>
     </g>
    </g>
    <g id="ytick_59">
     <g id="line2d_159">
      <path d="M 68 41.338705 
L 626 41.338705 
" clip-path="url(#pcebd3dc224)" style="fill: none; stroke: #b0b0b0; stroke-width: 0.8; stroke-linecap: square"/>
     </g>
     <g id="line2d_160">
      <g>
       <use xlink:href="#m80e3e831e3" x="68" y="41.338705" style="stroke: #000000; stroke-width: 0.6"/>
      </g>
     </g>
    </g>
    <g id="ytick_60">
     <g id="line2d_161">
      <path d="M 68 38.032127 
L 626 38.032127 
" clip-path="url(#pcebd3dc224)" style="fill: none; stroke: #b0b0b0; stroke-width: 0.8; stroke-linecap: square"/>
     </g>
     <g id="line2d_162">
      <g>
       <use xlink:href="#m80e3e831e3" x="68" y="38.032127" style="stroke: #000000; stroke-width: 0.6"/>
      </g>
     </g>
    </g>
    <g id="ytick_61">
     <g id="line2d_163">
      <path d="M 68 35.167839 
L 626 35.167839 
" clip-path="url(#pcebd3dc224)" style="fill: none; stroke: #b0b0b0; stroke-width: 0.8; stroke-linecap: square"/>
     </g>
     <g id="line2d_164">
      <g>
       <use xlink:href="#m80e3e831e3" x="68" y="35.167839" style="stroke: #000000; stroke-width: 0.6"/>
      </g>
     </g>
    </g>
    <g id="ytick_62">
     <g id="line2d_165">
      <path d="M 68 32.641358 
L 626 32.641358 
" clip-path="url(#pcebd3dc224)" style="fill: none; stroke: #b0b0b0; stroke-width: 0.8; stroke-linecap: square"/>
     </g>
     <g id="line2d_166">
      <g>
       <use xlink:href="#m80e3e831e3" x="68" y="32.641358" style="stroke: #000000; stroke-width: 0.6"/>
      </g>
     </g>
    </g>
    <g id="text_12">
     <!-- peak acceleration [$g$] -->
     <g transform="translate(18.6 273.15) rotate(-90) scale(0.15 -0.15)">
      <defs>
       <path id="DejaVuSans-70" d="M 1159 525 
L 1159 -1331 
L 581 -1331 
L 581 3500 
L 1159 3500 
L 1159 2969 
Q 1341 3281 1617 3432 
Q 1894 3584 2278 3584 
Q 2916 3584 3314 3078 
Q 3713 2572 3713 1747 
Q 3713 922 3314 415 
Q 2916 -91 2278 -91 
Q 1894 -91 1617 61 
Q 1341 213 1159 525 
z
M 3116 1747 
Q 3116 2381 2855 2742 
Q 2594 3103 2138 3103 
Q 1681 3103 1420 2742 
Q 1159 2381 1159 1747 
Q 1159 1113 1420 752 
Q 1681 391 2138 391 
Q 2594 391 2855 752 
Q 3116 1113 3116 1747 
z
" transform="scale(0.015625)"/>
       <path id="DejaVuSans-61" d="M 2194 1759 
Q 1497 1759 1228 1600 
Q 959 1441 959 1056 
Q 959 750 1161 570 
Q 1363 391 1709 391 
Q 2188 391 2477 730 
Q 2766 1069 2766 1631 
L 2766 1759 
L 2194 1759 
z
M 3341 1997 
L 3341 0 
L 2766 0 
L 2766 531 
Q 2569 213 2275 61 
Q 1981 -91 1556 -91 
Q 1019 -91 701 211 
Q 384 513 384 1019 
Q 384 1609 779 1909 
Q 1175 2209 1959 2209 
L 2766 2209 
L 2766 2266 
Q 2766 2663 2505 2880 
Q 2244 3097 1772 3097 
Q 1472 3097 1187 3025 
Q 903 2953 641 2809 
L 641 3341 
Q 956 3463 1253 3523 
Q 1550 3584 1831 3584 
Q 2591 3584 2966 3190 
Q 3341 2797 3341 1997 
z
" transform="scale(0.015625)"/>
       <path id="DejaVuSans-6b" d="M 581 4863 
L 1159 4863 
L 1159 1991 
L 2875 3500 
L 3609 3500 
L 1753 1863 
L 3688 0 
L 2938 0 
L 1159 1709 
L 1159 0 
L 581 0 
L 581 4863 
z
" transform="scale(0.015625)"/>
       <path id="DejaVuSans-6c" d="M 603 4863 
L 1178 4863 
L 1178 0 
L 603 0 
L 603 4863 
z
" transform="scale(0.015625)"/>
       <path id="DejaVuSans-74" d="M 1172 4494 
L 1172 3500 
L 2356 3500 
L 2356 3053 
L 1172 3053 
L 1172 1153 
Q 1172 725 1289 603 
Q 1406 481 1766 481 
L 2356 481 
L 2356 0 
L 1766 0 
Q 1100 0 847 248 
Q 594 497 594 1153 
L 594 3053 
L 172 3053 
L 172 3500 
L 594 3500 
L 594 4494 
L 1172 4494 
z
" transform="scale(0.015625)"/>
       <path id="DejaVuSans-69" d="M 603 3500 
L 1178 3500 
L 1178 0 
L 603 0 
L 603 3500 
z
M 603 4863 
L 1178 4863 
L 1178 4134 
L 603 4134 
L 603 4863 
z
" transform="scale(0.015625)"/>
       <path id="DejaVuSans-6f" d="M 1959 3097 
Q 1497 3097 1228 2736 
Q 959 2375 959 1747 
Q 959 1119 1226 758 
Q 1494 397 1959 397 
Q 2419 397 2687 759 
Q 2956 1122 2956 1747 
Q 2956 2369 2687 2733 
Q 2419 3097 1959 3097 
z
M 1959 3584 
Q 2709 3584 3137 3096 
Q 3566 2609 3566 1747 
Q 3566 888 3137 398 
Q 2709 -91 1959 -91 
Q 1206 -91 779 398 
Q 353 888 353 1747 
Q 353 2609 779 3096 
Q 1206 3584 1959 3584 
z
" transform="scale(0.015625)"/>
       <path id="DejaVuSans-Oblique-67" d="M 3816 3500 
L 3219 434 
Q 3047 -456 2561 -893 
Q 2075 -1331 1253 -1331 
Q 950 -1331 690 -1286 
Q 431 -1241 206 -1147 
L 313 -588 
Q 525 -725 762 -790 
Q 1000 -856 1269 -856 
Q 1816 -856 2167 -557 
Q 2519 -259 2631 300 
L 2681 563 
Q 2441 288 2122 144 
Q 1803 0 1434 0 
Q 903 0 598 351 
Q 294 703 294 1319 
Q 294 1803 478 2267 
Q 663 2731 997 3091 
Q 1219 3328 1514 3456 
Q 1809 3584 2131 3584 
Q 2484 3584 2746 3420 
Q 3009 3256 3138 2956 
L 3238 3500 
L 3816 3500 
z
M 2950 2216 
Q 2950 2641 2750 2872 
Q 2550 3103 2181 3103 
Q 1953 3103 1747 3012 
Q 1541 2922 1394 2759 
Q 1156 2491 1023 2127 
Q 891 1763 891 1375 
Q 891 944 1092 712 
Q 1294 481 1672 481 
Q 2219 481 2584 976 
Q 2950 1472 2950 2216 
z
" transform="scale(0.015625)"/>
      </defs>
      <use xlink:href="#DejaVuSans-70" transform="translate(0 0.015625)"/>
      <use xlink:href="#DejaVuSans-65" transform="translate(63.476562 0.015625)"/>
      <use xlink:href="#DejaVuSans-61" transform="translate(125 0.015625)"/>
      <use xlink:href="#DejaVuSans-6b" transform="translate(186.279297 0.015625)"/>
      <use xlink:href="#DejaVuSans-20" transform="translate(244.189453 0.015625)"/>
      <use xlink:href="#DejaVuSans-61" transform="translate(275.976562 0.015625)"/>
      <use xlink:href="#DejaVuSans-63" transform="translate(337.255859 0.015625)"/>
      <use xlink:href="#DejaVuSans-63" transform="translate(392.236328 0.015625)"/>
      <use xlink:href="#DejaVuSans-65" transform="translate(447.216797 0.015625)"/>
      <use xlink:href="#DejaVuSans-6c" transform="translate(508.740234 0.015625)"/>
      <use xlink:href="#DejaVuSans-65" transform="translate(536.523438 0.015625)"/>
      <use xlink:href="#DejaVuSans-72" transform="translate(598.046875 0.015625)"/>
      <use xlink:href="#DejaVuSans-61" transform="translate(639.160156 0.015625)"/>
      <use xlink:href="#DejaVuSans-74" transform="translate(700.439453 0.015625)"/>
      <use xlink:href="#DejaVuSans-69" transform="translate(739.648438 0.015625)"/>
      <use xlink:href="#DejaVuSans-6f" transform="translate(767.431641 0.015625)"/>
      <use xlink:href="#DejaVuSans-6e" transform="translate(828.613281 0.015625)"/>
      <use xlink:href="#DejaVuSans-20" transform="translate(891.992188 0.015625)"/>
      <use xlink:href="#DejaVuSans-5b" transform="translate(923.779297 0.015625)"/>
      <use xlink:href="#DejaVuSans-Oblique-67" transform="translate(962.792969 0.015625)"/>
      <use xlink:href="#DejaVuSans-5d" transform="translate(1026.269531 0.015625)"/>
     </g>
    </g>
   </g>
   <g id="line2d_167">
    <path d="M 93.363636 121.550194 
L 99.704545 122.640166 
L 106.045455 122.39131 
L 112.386364 122.365974 
L 118.727273 121.915566 
L 125.068182 120.862288 
L 131.409091 119.15624 
L 137.75 117.841216 
L 144.090909 117.586507 
L 150.431818 118.26631 
L 156.772727 118.813264 
L 163.113636 118.985621 
L 169.454545 118.538761 
L 175.795455 116.606285 
L 182.136364 115.065374 
L 188.477273 114.970406 
L 194.818182 116.006619 
L 201.159091 117.905085 
L 207.5 119.466672 
L 213.840909 120.252688 
L 220.181818 120.728312 
L 226.522727 119.679811 
L 232.863636 118.868644 
L 239.204545 117.362508 
L 245.545455 118.032409 
L 251.886364 119.34912 
L 258.227273 120.597495 
L 264.568182 121.711382 
L 270.909091 121.98112 
L 277.25 122.18996 
L 283.590909 122.475452 
L 289.931818 122.240878 
L 296.272727 122.10002 
L 302.613636 122.372313 
L 308.954545 122.236247 
L 315.295455 121.934749 
L 321.636364 122.499654 
L 327.977273 122.669791 
L 334.318182 122.821244 
L 340.659091 122.522278 
L 347 122.238631 
L 353.340909 122.145232 
L 359.681818 122.514247 
L 366.022727 122.829284 
L 372.363636 122.616351 
L 378.704545 122.506221 
L 385.045455 122.586589 
L 391.386364 122.691587 
L 397.727273 122.750979 
L 404.068182 122.801758 
L 410.409091 122.83648 
L 416.75 122.82691 
L 423.090909 122.844718 
L 429.431818 122.844643 
L 435.772727 122.757893 
L 442.113636 122.790655 
L 448.454545 122.819971 
L 454.795455 122.747441 
L 461.136364 122.658425 
L 467.477273 122.782324 
L 473.818182 122.799174 
L 480.159091 122.834899 
L 486.5 122.863358 
L 492.840909 122.858788 
L 499.181818 122.854258 
L 505.522727 122.817554 
L 511.863636 122.802878 
L 518.204545 122.820582 
L 524.545455 122.828728 
L 530.886364 122.812069 
L 537.227273 122.812105 
L 543.568182 122.825555 
L 549.909091 122.827274 
L 556.25 122.82661 
L 562.590909 122.82633 
L 568.931818 122.834402 
L 575.272727 122.830775 
L 581.613636 122.829595 
L 587.954545 122.827212 
L 594.295455 122.816816 
L 600.636364 122.830164 
" clip-path="url(#pcebd3dc224)" style="fill: none; stroke: #1f77b4; stroke-width: 1.5; stroke-linecap: square"/>
   </g>
   <g id="line2d_168">
    <path d="M 93.363636 142.782043 
L 99.704545 141.416833 
L 106.045455 137.014018 
L 112.386364 136.175181 
L 118.727273 137.782217 
L 125.068182 140.346085 
L 131.409091 139.50085 
L 137.75 134.010872 
L 144.090909 134.579261 
L 150.431818 141.731887 
L 156.772727 145.781618 
L 163.113636 141.757528 
L 169.454545 136.971039 
L 175.795455 134.313018 
L 182.136364 142.240575 
L 188.477273 152.558946 
L 194.818182 145.461262 
L 201.159091 159.986113 
L 207.5 166.721284 
L 213.840909 156.001893 
L 220.181818 155.735481 
L 226.522727 153.066312 
L 232.863636 162.674398 
L 239.204545 157.599767 
L 245.545455 164.496292 
L 251.886364 163.323334 
L 258.227273 168.764406 
L 264.568182 169.102171 
L 270.909091 171.885163 
L 277.25 180.264528 
L 283.590909 174.916631 
L 289.931818 169.889977 
L 296.272727 162.689395 
L 302.613636 158.914202 
L 308.954545 157.87178 
L 315.295455 157.938594 
L 321.636364 158.509922 
L 327.977273 158.697947 
L 334.318182 162.579939 
L 340.659091 168.05932 
L 347 175.193291 
L 353.340909 182.789401 
L 359.681818 192.453323 
L 366.022727 212.223573 
L 372.363636 212.050505 
L 378.704545 229.556756 
L 385.045455 210.511669 
L 391.386364 191.288034 
L 397.727273 183.078296 
L 404.068182 178.2362 
L 410.409091 182.652962 
L 416.75 197.532709 
L 423.090909 211.724633 
L 429.431818 203.998237 
L 435.772727 209.102783 
L 442.113636 205.107044 
L 448.454545 223.270284 
L 454.795455 248.030072 
L 461.136364 239.341761 
L 467.477273 246.297436 
L 473.818182 247.877464 
L 480.159091 319.204108 
L 486.5 299.502223 
L 492.840909 283.375136 
L 499.181818 276.93049 
L 505.522727 274.774551 
L 511.863636 275.770789 
L 518.204545 279.874787 
L 524.545455 260.670487 
L 530.886364 302.49992 
L 537.227273 344.4 
L 543.568182 319.089841 
L 549.909091 307.294557 
L 556.25 302.518168 
L 562.590909 297.587866 
L 568.931818 291.002945 
L 575.272727 284.744474 
L 581.613636 281.226462 
L 587.954545 284.50581 
L 594.295455 290.181848 
L 600.636364 311.3766 
" clip-path="url(#pcebd3dc224)" style="fill: none; stroke: #ff7f0e; stroke-width: 1.5; stroke-linecap: square"/>
   </g>
   <g id="line2d_169">
    <path d="M 93.363636 60.586825 
L 99.704545 60.56373 
L 106.045455 60.551598 
L 112.386364 60.525997 
L 118.727273 60.518165 
L 125.068182 60.500267 
L 131.409091 60.495981 
L 137.75 60.484449 
L 144.090909 60.491899 
L 150.431818 60.459517 
L 156.772727 60.46549 
L 163.113636 60.479056 
L 169.454545 60.41874 
L 175.795455 60.430799 
L 182.136364 60.372115 
L 188.477273 60.337608 
L 194.818182 60.20877 
L 201.159091 60.182591 
L 207.5 60.077733 
L 213.840909 60.085423 
L 220.181818 59.913043 
L 226.522727 59.64143 
L 232.863636 59.422939 
L 239.204545 59.44368 
L 245.545455 59.113231 
L 251.886364 59.085691 
L 258.227273 58.532797 
L 264.568182 58.2139 
L 270.909091 58.035397 
L 277.25 57.310698 
L 283.590909 56.821049 
L 289.931818 56.608952 
L 296.272727 56.726538 
L 302.613636 57.238504 
L 308.954545 56.946193 
L 315.295455 56.829232 
L 321.636364 57.089982 
L 327.977273 57.389487 
L 334.318182 56.653897 
L 340.659091 56.203774 
L 347 56.100001 
L 353.340909 56.419983 
L 359.681818 57.251903 
L 366.022727 55.932253 
L 372.363636 54.830837 
L 378.704545 53.986981 
L 385.045455 53.44521 
L 391.386364 53.255392 
L 397.727273 53.472399 
L 404.068182 53.611916 
L 410.409091 50.549988 
L 416.75 50.95569 
L 423.090909 51.530963 
L 429.431818 47.137511 
L 435.772727 48.332435 
L 442.113636 51.610783 
L 448.454545 54.586327 
L 454.795455 57.067436 
L 461.136364 59.953936 
L 467.477273 62.490112 
L 473.818182 63.344922 
L 480.159091 61.872867 
L 486.5 62.154742 
L 492.840909 60.130002 
L 499.181818 59.378296 
L 505.522727 59.269739 
L 511.863636 58.451183 
L 518.204545 60.113856 
L 524.545455 60.298983 
L 530.886364 60.837895 
L 537.227273 61.622159 
L 543.568182 62.481335 
L 549.909091 62.786929 
L 556.25 62.899649 
L 562.590909 63.760651 
L 568.931818 63.15677 
L 575.272727 62.169678 
L 581.613636 61.447577 
L 587.954545 62.42703 
L 594.295455 62.573728 
L 600.636364 62.165656 
" clip-path="url(#pcebd3dc224)" style="fill: none; stroke: #2ca02c; stroke-width: 1.5; stroke-linecap: square"/>
   </g>
   <g id="line2d_170">
    <path d="M 93.363636 52.625459 
L 99.704545 50.75406 
L 106.045455 50.56129 
L 112.386364 52.278776 
L 118.727273 55.26163 
L 125.068182 56.350149 
L 131.409091 53.800887 
L 137.75 51.40695 
L 144.090909 51.513239 
L 150.431818 54.124206 
L 156.772727 55.390709 
L 163.113636 52.899651 
L 169.454545 51.783427 
L 175.795455 53.914221 
L 182.136364 54.394226 
L 188.477273 52.114078 
L 194.818182 52.9794 
L 201.159091 54.127255 
L 207.5 52.195087 
L 213.840909 53.34324 
L 220.181818 53.027894 
L 226.522727 52.306671 
L 232.863636 53.028338 
L 239.204545 52.234911 
L 245.545455 52.792199 
L 251.886364 52.289157 
L 258.227273 52.195505 
L 264.568182 51.908303 
L 270.909091 51.840258 
L 277.25 51.616723 
L 283.590909 51.458855 
L 289.931818 51.576135 
L 296.272727 51.951409 
L 302.613636 51.540835 
L 308.954545 51.575623 
L 315.295455 51.969333 
L 321.636364 50.731584 
L 327.977273 49.911612 
L 334.318182 49.38218 
L 340.659091 49.225498 
L 347 49.447618 
L 353.340909 50.16981 
L 359.681818 49.479829 
L 366.022727 48.110154 
L 372.363636 47.001997 
L 378.704545 46.218988 
L 385.045455 45.729692 
L 391.386364 45.575497 
L 397.727273 45.604826 
L 404.068182 44.377563 
L 410.409091 42 
L 416.75 42.105798 
L 423.090909 44.955292 
L 429.431818 47.309981 
L 435.772727 47.650288 
L 442.113636 48.054281 
L 448.454545 49.004797 
L 454.795455 49.067199 
L 461.136364 52.123985 
L 467.477273 56.395492 
L 473.818182 60.857404 
L 480.159091 62.692523 
L 486.5 59.880041 
L 492.840909 57.081985 
L 499.181818 55.223296 
L 505.522727 53.753926 
L 511.863636 53.415298 
L 518.204545 53.253315 
L 524.545455 53.42475 
L 530.886364 54.026107 
L 537.227273 54.964632 
L 543.568182 56.062752 
L 549.909091 57.065476 
L 556.25 57.673045 
L 562.590909 57.655073 
L 568.931818 57.024731 
L 575.272727 56.008918 
L 581.613636 55.125715 
L 587.954545 56.069449 
L 594.295455 56.509103 
L 600.636364 55.61309 
" clip-path="url(#pcebd3dc224)" style="fill: none; stroke: #d62728; stroke-width: 1.5; stroke-linecap: square"/>
   </g>
   <g id="patch_3">
    <path d="M 68 359.52 
L 68 26.88 
" style="fill: none; stroke: #000000; stroke-width: 0.8; stroke-linejoin: miter; stroke-linecap: square"/>
   </g>
   <g id="patch_4">
    <path d="M 626 359.52 
L 626 26.88 
" style="fill: none; stroke: #000000; stroke-width: 0.8; stroke-linejoin: miter; stroke-linecap: square"/>
   </g>
   <g id="patch_5">
    <path d="M 68 359.52 
L 626 359.52 
" style="fill: none; stroke: #000000; stroke-width: 0.8; stroke-linejoin: miter; stroke-linecap: square"/>
   </g>
   <g id="patch_6">
    <path d="M 68 26.88 
L 626 26.88 
" style="fill: none; stroke: #000000; stroke-width: 0.8; stroke-linejoin: miter; stroke-linecap: square"/>
   </g>
   <g id="text_13">
    <!-- shock response spectrum, $Q=10.0$ (z-axis) -->
    <g transform="translate(151.7 20.88) scale(0.18 -0.18)">
     <defs>
      <path id="DejaVuSans-73" d="M 2834 3397 
L 2834 2853 
Q 2591 2978 2328 3040 
Q 2066 3103 1784 3103 
Q 1356 3103 1142 2972 
Q 928 2841 928 2578 
Q 928 2378 1081 2264 
Q 1234 2150 1697 2047 
L 1894 2003 
Q 2506 1872 2764 1633 
Q 3022 1394 3022 966 
Q 3022 478 2636 193 
Q 2250 -91 1575 -91 
Q 1294 -91 989 -36 
Q 684 19 347 128 
L 347 722 
Q 666 556 975 473 
Q 1284 391 1588 391 
Q 1994 391 2212 530 
Q 2431 669 2431 922 
Q 2431 1156 2273 1281 
Q 2116 1406 1581 1522 
L 1381 1569 
Q 847 1681 609 1914 
Q 372 2147 372 2553 
Q 372 3047 722 3315 
Q 1072 3584 1716 3584 
Q 2034 3584 2315 3537 
Q 2597 3491 2834 3397 
z
" transform="scale(0.015625)"/>
      <path id="DejaVuSans-68" d="M 3513 2113 
L 3513 0 
L 2938 0 
L 2938 2094 
Q 2938 2591 2744 2837 
Q 2550 3084 2163 3084 
Q 1697 3084 1428 2787 
Q 1159 2491 1159 1978 
L 1159 0 
L 581 0 
L 581 4863 
L 1159 4863 
L 1159 2956 
Q 1366 3272 1645 3428 
Q 1925 3584 2291 3584 
Q 2894 3584 3203 3211 
Q 3513 2838 3513 2113 
z
" transform="scale(0.015625)"/>
      <path id="DejaVuSans-6d" d="M 3328 2828 
Q 3544 3216 3844 3400 
Q 4144 3584 4550 3584 
Q 5097 3584 5394 3201 
Q 5691 2819 5691 2113 
L 5691 0 
L 5113 0 
L 5113 2094 
Q 5113 2597 4934 2840 
Q 4756 3084 4391 3084 
Q 3944 3084 3684 2787 
Q 3425 2491 3425 1978 
L 3425 0 
L 2847 0 
L 2847 2094 
Q 2847 2600 2669 2842 
Q 2491 3084 2119 3084 
Q 1678 3084 1418 2786 
Q 1159 2488 1159 1978 
L 1159 0 
L 581 0 
L 581 3500 
L 1159 3500 
L 1159 2956 
Q 1356 3278 1631 3431 
Q 1906 3584 2284 3584 
Q 2666 3584 2933 3390 
Q 3200 3197 3328 2828 
z
" transform="scale(0.015625)"/>
      <path id="DejaVuSans-2c" d="M 750 794 
L 1409 794 
L 1409 256 
L 897 -744 
L 494 -744 
L 750 256 
L 750 794 
z
" transform="scale(0.015625)"/>
      <path id="DejaVuSans-Oblique-51" d="M 2309 -84 
Q 2275 -88 2237 -89 
Q 2200 -91 2125 -91 
Q 1250 -91 756 411 
Q 263 913 263 1797 
Q 263 2319 452 2844 
Q 641 3369 978 3788 
Q 1369 4269 1858 4509 
Q 2347 4750 2938 4750 
Q 3794 4750 4287 4245 
Q 4781 3741 4781 2869 
Q 4781 1928 4265 1147 
Q 3750 366 2919 44 
L 3553 -825 
L 2847 -825 
L 2309 -84 
z
M 2919 4238 
Q 2400 4238 2003 3986 
Q 1606 3734 1313 3219 
Q 1125 2891 1026 2522 
Q 928 2153 928 1778 
Q 928 1128 1239 775 
Q 1550 422 2119 422 
Q 2631 422 3032 676 
Q 3434 931 3719 1434 
Q 3909 1772 4009 2142 
Q 4109 2513 4109 2881 
Q 4109 3528 3796 3883 
Q 3484 4238 2919 4238 
z
" transform="scale(0.015625)"/>
      <path id="DejaVuSans-3d" d="M 678 2906 
L 4684 2906 
L 4684 2381 
L 678 2381 
L 678 2906 
z
M 678 1631 
L 4684 1631 
L 4684 1100 
L 678 1100 
L 678 1631 
z
" transform="scale(0.015625)"/>
      <path id="DejaVuSans-2e" d="M 684 794 
L 1344 794 
L 1344 0 
L 684 0 
L 684 794 
z
" transform="scale(0.015625)"/>
      <path id="DejaVuSans-28" d="M 1984 4856 
Q 1566 4138 1362 3434 
Q 1159 2731 1159 2009 
Q 1159 1288 1364 580 
Q 1569 -128 1984 -844 
L 1484 -844 
Q 1016 -109 783 600 
Q 550 1309 550 2009 
Q 550 2706 781 3412 
Q 1013 4119 1484 4856 
L 1984 4856 
z
" transform="scale(0.015625)"/>
      <path id="DejaVuSans-2d" d="M 313 2009 
L 1997 2009 
L 1997 1497 
L 313 1497 
L 313 2009 
z
" transform="scale(0.015625)"/>
      <path id="DejaVuSans-78" d="M 3513 3500 
L 2247 1797 
L 3578 0 
L 2900 0 
L 1881 1375 
L 863 0 
L 184 0 
L 1544 1831 
L 300 3500 
L 978 3500 
L 1906 2253 
L 2834 3500 
L 3513 3500 
z
" transform="scale(0.015625)"/>
      <path id="DejaVuSans-29" d="M 513 4856 
L 1013 4856 
Q 1481 4119 1714 3412 
Q 1947 2706 1947 2009 
Q 1947 1309 1714 600 
Q 1481 -109 1013 -844 
L 513 -844 
Q 928 -128 1133 580 
Q 1338 1288 1338 2009 
Q 1338 2731 1133 3434 
Q 928 4138 513 4856 
z
" transform="scale(0.015625)"/>
     </defs>
     <use xlink:href="#DejaVuSans-73" transform="translate(0 0.015625)"/>
     <use xlink:href="#DejaVuSans-68" transform="translate(52.099609 0.015625)"/>
     <use xlink:href="#DejaVuSans-6f" transform="translate(115.478516 0.015625)"/>
     <use xlink:href="#DejaVuSans-63" transform="translate(176.660156 0.015625)"/>
     <use xlink:href="#DejaVuSans-6b" transform="translate(231.640625 0.015625)"/>
     <use xlink:href="#DejaVuSans-20" transform="translate(289.550781 0.015625)"/>
     <use xlink:href="#DejaVuSans-72" transform="translate(321.337891 0.015625)"/>
     <use xlink:href="#DejaVuSans-65" transform="translate(362.451172 0.015625)"/>
     <use xlink:href="#DejaVuSans-73" transform="translate(423.974609 0.015625)"/>
     <use xlink:href="#DejaVuSans-70" transform="translate(476.074219 0.015625)"/>
     <use xlink:href="#DejaVuSans-6f" transform="translate(539.550781 0.015625)"/>
     <use xlink:href="#DejaVuSans-6e" transform="translate(600.732422 0.015625)"/>
     <use xlink:href="#DejaVuSans-73" transform="translate(664.111328 0.015625)"/>
     <use xlink:href="#DejaVuSans-65" transform="translate(716.210938 0.015625)"/>
     <use xlink:href="#DejaVuSans-20" transform="translate(777.734375 0.015625)"/>
     <use xlink:href="#DejaVuSans-73" transform="translate(809.521484 0.015625)"/>
     <use xlink:href="#DejaVuSans-70" transform="translate(861.621094 0.015625)"/>
     <use xlink:href="#DejaVuSans-65" transform="translate(925.097656 0.015625)"/>
     <use xlink:href="#DejaVuSans-63" transform="translate(986.621094 0.015625)"/>
     <use xlink:href="#DejaVuSans-74" transform="translate(1041.601562 0.015625)"/>
     <use xlink:href="#DejaVuSans-72" transform="translate(1080.810547 0.015625)"/>
     <use xlink:href="#DejaVuSans-75" transform="translate(1121.923828 0.015625)"/>
     <use xlink:href="#DejaVuSans-6d" transform="translate(1185.302734 0.015625)"/>
     <use xlink:href="#DejaVuSans-2c" transform="translate(1282.714844 0.015625)"/>
     <use xlink:href="#DejaVuSans-20" transform="translate(1314.501953 0.015625)"/>
     <use xlink:href="#DejaVuSans-Oblique-51" transform="translate(1346.289062 0.015625)"/>
     <use xlink:href="#DejaVuSans-3d" transform="translate(1444.482422 0.015625)"/>
     <use xlink:href="#DejaVuSans-31" transform="translate(1547.753906 0.015625)"/>
     <use xlink:href="#DejaVuSans-30" transform="translate(1611.376953 0.015625)"/>
     <use xlink:href="#DejaVuSans-2e" transform="translate(1675 0.015625)"/>
     <use xlink:href="#DejaVuSans-30" transform="translate(1706.787109 0.015625)"/>
     <use xlink:href="#DejaVuSans-20" transform="translate(1770.410156 0.015625)"/>
     <use xlink:href="#DejaVuSans-28" transform="translate(1802.197266 0.015625)"/>
     <use xlink:href="#DejaVuSans-7a" transform="translate(1841.210938 0.015625)"/>
     <use xlink:href="#DejaVuSans-2d" transform="translate(1893.701172 0.015625)"/>
     <use xlink:href="#DejaVuSans-61" transform="translate(1929.785156 0.015625)"/>
     <use xlink:href="#DejaVuSans-78" transform="translate(1991.064453 0.015625)"/>
     <use xlink:href="#DejaVuSans-69" transform="translate(2050.244141 0.015625)"/>
     <use xlink:href="#DejaVuSans-73" transform="translate(2078.027344 0.015625)"/>
     <use xlink:href="#DejaVuSans-29" transform="translate(2130.126953 0.015625)"/>
    </g>
   </g>
   <g id="legend_1">
    <g id="patch_7">
     <path d="M 78.5 352.02 
L 411.809375 352.02 
Q 414.809375 352.02 414.809375 349.02 
L 414.809375 262.45125 
Q 414.809375 259.45125 411.809375 259.45125 
L 78.5 259.45125 
Q 75.5 259.45125 75.5 262.45125 
L 75.5 349.02 
Q 75.5 352.02 78.5 352.02 
z
" style="fill: #ffffff; opacity: 0.8; stroke: #cccccc; stroke-linejoin: miter"/>
    </g>
    <g id="line2d_171">
     <path d="M 81.5 271.598906 
L 96.5 271.598906 
L 111.5 271.598906 
" style="fill: none; stroke: #1f77b4; stroke-width: 1.5; stroke-linecap: square"/>
    </g>
    <g id="text_14">
     <!-- Rocket, Peak Positive Accel (G) -->
     <g transform="translate(123.5 276.848906) scale(0.15 -0.15)">
      <defs>
       <path id="DejaVuSans-52" d="M 2841 2188 
Q 3044 2119 3236 1894 
Q 3428 1669 3622 1275 
L 4263 0 
L 3584 0 
L 2988 1197 
Q 2756 1666 2539 1819 
Q 2322 1972 1947 1972 
L 1259 1972 
L 1259 0 
L 628 0 
L 628 4666 
L 2053 4666 
Q 2853 4666 3247 4331 
Q 3641 3997 3641 3322 
Q 3641 2881 3436 2590 
Q 3231 2300 2841 2188 
z
M 1259 4147 
L 1259 2491 
L 2053 2491 
Q 2509 2491 2742 2702 
Q 2975 2913 2975 3322 
Q 2975 3731 2742 3939 
Q 2509 4147 2053 4147 
L 1259 4147 
z
" transform="scale(0.015625)"/>
       <path id="DejaVuSans-50" d="M 1259 4147 
L 1259 2394 
L 2053 2394 
Q 2494 2394 2734 2622 
Q 2975 2850 2975 3272 
Q 2975 3691 2734 3919 
Q 2494 4147 2053 4147 
L 1259 4147 
z
M 628 4666 
L 2053 4666 
Q 2838 4666 3239 4311 
Q 3641 3956 3641 3272 
Q 3641 2581 3239 2228 
Q 2838 1875 2053 1875 
L 1259 1875 
L 1259 0 
L 628 0 
L 628 4666 
z
" transform="scale(0.015625)"/>
       <path id="DejaVuSans-76" d="M 191 3500 
L 800 3500 
L 1894 563 
L 2988 3500 
L 3597 3500 
L 2284 0 
L 1503 0 
L 191 3500 
z
" transform="scale(0.015625)"/>
       <path id="DejaVuSans-41" d="M 2188 4044 
L 1331 1722 
L 3047 1722 
L 2188 4044 
z
M 1831 4666 
L 2547 4666 
L 4325 0 
L 3669 0 
L 3244 1197 
L 1141 1197 
L 716 0 
L 50 0 
L 1831 4666 
z
" transform="scale(0.015625)"/>
       <path id="DejaVuSans-47" d="M 3809 666 
L 3809 1919 
L 2778 1919 
L 2778 2438 
L 4434 2438 
L 4434 434 
Q 4069 175 3628 42 
Q 3188 -91 2688 -91 
Q 1594 -91 976 548 
Q 359 1188 359 2328 
Q 359 3472 976 4111 
Q 1594 4750 2688 4750 
Q 3144 4750 3555 4637 
Q 3966 4525 4313 4306 
L 4313 3634 
Q 3963 3931 3569 4081 
Q 3175 4231 2741 4231 
Q 1884 4231 1454 3753 
Q 1025 3275 1025 2328 
Q 1025 1384 1454 906 
Q 1884 428 2741 428 
Q 3075 428 3337 486 
Q 3600 544 3809 666 
z
" transform="scale(0.015625)"/>
      </defs>
      <use xlink:href="#DejaVuSans-52"/>
      <use xlink:href="#DejaVuSans-6f" x="64.982422"/>
      <use xlink:href="#DejaVuSans-63" x="126.164062"/>
      <use xlink:href="#DejaVuSans-6b" x="181.144531"/>
      <use xlink:href="#DejaVuSans-65" x="235.429688"/>
      <use xlink:href="#DejaVuSans-74" x="296.953125"/>
      <use xlink:href="#DejaVuSans-2c" x="336.162109"/>
      <use xlink:href="#DejaVuSans-20" x="367.949219"/>
      <use xlink:href="#DejaVuSans-50" x="399.736328"/>
      <use xlink:href="#DejaVuSans-65" x="456.414062"/>
      <use xlink:href="#DejaVuSans-61" x="517.9375"/>
      <use xlink:href="#DejaVuSans-6b" x="579.216797"/>
      <use xlink:href="#DejaVuSans-20" x="637.126953"/>
      <use xlink:href="#DejaVuSans-50" x="668.914062"/>
      <use xlink:href="#DejaVuSans-6f" x="725.591797"/>
      <use xlink:href="#DejaVuSans-73" x="786.773438"/>
      <use xlink:href="#DejaVuSans-69" x="838.873047"/>
      <use xlink:href="#DejaVuSans-74" x="866.65625"/>
      <use xlink:href="#DejaVuSans-69" x="905.865234"/>
      <use xlink:href="#DejaVuSans-76" x="933.648438"/>
      <use xlink:href="#DejaVuSans-65" x="992.828125"/>
      <use xlink:href="#DejaVuSans-20" x="1054.351562"/>
      <use xlink:href="#DejaVuSans-41" x="1086.138672"/>
      <use xlink:href="#DejaVuSans-63" x="1152.796875"/>
      <use xlink:href="#DejaVuSans-63" x="1207.777344"/>
      <use xlink:href="#DejaVuSans-65" x="1262.757812"/>
      <use xlink:href="#DejaVuSans-6c" x="1324.28125"/>
      <use xlink:href="#DejaVuSans-20" x="1352.064453"/>
      <use xlink:href="#DejaVuSans-28" x="1383.851562"/>
      <use xlink:href="#DejaVuSans-47" x="1422.865234"/>
      <use xlink:href="#DejaVuSans-29" x="1500.355469"/>
     </g>
    </g>
    <g id="line2d_172">
     <path d="M 81.5 293.616094 
L 96.5 293.616094 
L 111.5 293.616094 
" style="fill: none; stroke: #ff7f0e; stroke-width: 1.5; stroke-linecap: square"/>
    </g>
    <g id="text_15">
     <!-- Rocket, Peak Negative Accel (G) -->
     <g transform="translate(123.5 298.866094) scale(0.15 -0.15)">
      <defs>
       <path id="DejaVuSans-4e" d="M 628 4666 
L 1478 4666 
L 3547 763 
L 3547 4666 
L 4159 4666 
L 4159 0 
L 3309 0 
L 1241 3903 
L 1241 0 
L 628 0 
L 628 4666 
z
" transform="scale(0.015625)"/>
       <path id="DejaVuSans-67" d="M 2906 1791 
Q 2906 2416 2648 2759 
Q 2391 3103 1925 3103 
Q 1463 3103 1205 2759 
Q 947 2416 947 1791 
Q 947 1169 1205 825 
Q 1463 481 1925 481 
Q 2391 481 2648 825 
Q 2906 1169 2906 1791 
z
M 3481 434 
Q 3481 -459 3084 -895 
Q 2688 -1331 1869 -1331 
Q 1566 -1331 1297 -1286 
Q 1028 -1241 775 -1147 
L 775 -588 
Q 1028 -725 1275 -790 
Q 1522 -856 1778 -856 
Q 2344 -856 2625 -561 
Q 2906 -266 2906 331 
L 2906 616 
Q 2728 306 2450 153 
Q 2172 0 1784 0 
Q 1141 0 747 490 
Q 353 981 353 1791 
Q 353 2603 747 3093 
Q 1141 3584 1784 3584 
Q 2172 3584 2450 3431 
Q 2728 3278 2906 2969 
L 2906 3500 
L 3481 3500 
L 3481 434 
z
" transform="scale(0.015625)"/>
      </defs>
      <use xlink:href="#DejaVuSans-52"/>
      <use xlink:href="#DejaVuSans-6f" x="64.982422"/>
      <use xlink:href="#DejaVuSans-63" x="126.164062"/>
      <use xlink:href="#DejaVuSans-6b" x="181.144531"/>
      <use xlink:href="#DejaVuSans-65" x="235.429688"/>
      <use xlink:href="#DejaVuSans-74" x="296.953125"/>
      <use xlink:href="#DejaVuSans-2c" x="336.162109"/>
      <use xlink:href="#DejaVuSans-20" x="367.949219"/>
      <use xlink:href="#DejaVuSans-50" x="399.736328"/>
      <use xlink:href="#DejaVuSans-65" x="456.414062"/>
      <use xlink:href="#DejaVuSans-61" x="517.9375"/>
      <use xlink:href="#DejaVuSans-6b" x="579.216797"/>
      <use xlink:href="#DejaVuSans-20" x="637.126953"/>
      <use xlink:href="#DejaVuSans-4e" x="668.914062"/>
      <use xlink:href="#DejaVuSans-65" x="743.71875"/>
      <use xlink:href="#DejaVuSans-67" x="805.242188"/>
      <use xlink:href="#DejaVuSans-61" x="868.71875"/>
      <use xlink:href="#DejaVuSans-74" x="929.998047"/>
      <use xlink:href="#DejaVuSans-69" x="969.207031"/>
      <use xlink:href="#DejaVuSans-76" x="996.990234"/>
      <use xlink:href="#DejaVuSans-65" x="1056.169922"/>
      <use xlink:href="#DejaVuSans-20" x="1117.693359"/>
      <use xlink:href="#DejaVuSans-41" x="1149.480469"/>
      <use xlink:href="#DejaVuSans-63" x="1216.138672"/>
      <use xlink:href="#DejaVuSans-63" x="1271.119141"/>
      <use xlink:href="#DejaVuSans-65" x="1326.099609"/>
      <use xlink:href="#DejaVuSans-6c" x="1387.623047"/>
      <use xlink:href="#DejaVuSans-20" x="1415.40625"/>
      <use xlink:href="#DejaVuSans-28" x="1447.193359"/>
      <use xlink:href="#DejaVuSans-47" x="1486.207031"/>
      <use xlink:href="#DejaVuSans-29" x="1563.697266"/>
     </g>
    </g>
    <g id="line2d_173">
     <path d="M 81.5 315.633281 
L 96.5 315.633281 
L 111.5 315.633281 
" style="fill: none; stroke: #2ca02c; stroke-width: 1.5; stroke-linecap: square"/>
    </g>
    <g id="text_16">
     <!-- Shaker Table, Peak Positive Accel (G) -->
     <g transform="translate(123.5 320.883281) scale(0.15 -0.15)">
      <defs>
       <path id="DejaVuSans-53" d="M 3425 4513 
L 3425 3897 
Q 3066 4069 2747 4153 
Q 2428 4238 2131 4238 
Q 1616 4238 1336 4038 
Q 1056 3838 1056 3469 
Q 1056 3159 1242 3001 
Q 1428 2844 1947 2747 
L 2328 2669 
Q 3034 2534 3370 2195 
Q 3706 1856 3706 1288 
Q 3706 609 3251 259 
Q 2797 -91 1919 -91 
Q 1588 -91 1214 -16 
Q 841 59 441 206 
L 441 856 
Q 825 641 1194 531 
Q 1563 422 1919 422 
Q 2459 422 2753 634 
Q 3047 847 3047 1241 
Q 3047 1584 2836 1778 
Q 2625 1972 2144 2069 
L 1759 2144 
Q 1053 2284 737 2584 
Q 422 2884 422 3419 
Q 422 4038 858 4394 
Q 1294 4750 2059 4750 
Q 2388 4750 2728 4690 
Q 3069 4631 3425 4513 
z
" transform="scale(0.015625)"/>
       <path id="DejaVuSans-54" d="M -19 4666 
L 3928 4666 
L 3928 4134 
L 2272 4134 
L 2272 0 
L 1638 0 
L 1638 4134 
L -19 4134 
L -19 4666 
z
" transform="scale(0.015625)"/>
       <path id="DejaVuSans-62" d="M 3116 1747 
Q 3116 2381 2855 2742 
Q 2594 3103 2138 3103 
Q 1681 3103 1420 2742 
Q 1159 2381 1159 1747 
Q 1159 1113 1420 752 
Q 1681 391 2138 391 
Q 2594 391 2855 752 
Q 3116 1113 3116 1747 
z
M 1159 2969 
Q 1341 3281 1617 3432 
Q 1894 3584 2278 3584 
Q 2916 3584 3314 3078 
Q 3713 2572 3713 1747 
Q 3713 922 3314 415 
Q 2916 -91 2278 -91 
Q 1894 -91 1617 61 
Q 1341 213 1159 525 
L 1159 0 
L 581 0 
L 581 4863 
L 1159 4863 
L 1159 2969 
z
" transform="scale(0.015625)"/>
      </defs>
      <use xlink:href="#DejaVuSans-53"/>
      <use xlink:href="#DejaVuSans-68" x="63.476562"/>
      <use xlink:href="#DejaVuSans-61" x="126.855469"/>
      <use xlink:href="#DejaVuSans-6b" x="188.134766"/>
      <use xlink:href="#DejaVuSans-65" x="242.419922"/>
      <use xlink:href="#DejaVuSans-72" x="303.943359"/>
      <use xlink:href="#DejaVuSans-20" x="345.056641"/>
      <use xlink:href="#DejaVuSans-54" x="376.84375"/>
      <use xlink:href="#DejaVuSans-61" x="421.427734"/>
      <use xlink:href="#DejaVuSans-62" x="482.707031"/>
      <use xlink:href="#DejaVuSans-6c" x="546.183594"/>
      <use xlink:href="#DejaVuSans-65" x="573.966797"/>
      <use xlink:href="#DejaVuSans-2c" x="635.490234"/>
      <use xlink:href="#DejaVuSans-20" x="667.277344"/>
      <use xlink:href="#DejaVuSans-50" x="699.064453"/>
      <use xlink:href="#DejaVuSans-65" x="755.742188"/>
      <use xlink:href="#DejaVuSans-61" x="817.265625"/>
      <use xlink:href="#DejaVuSans-6b" x="878.544922"/>
      <use xlink:href="#DejaVuSans-20" x="936.455078"/>
      <use xlink:href="#DejaVuSans-50" x="968.242188"/>
      <use xlink:href="#DejaVuSans-6f" x="1024.919922"/>
      <use xlink:href="#DejaVuSans-73" x="1086.101562"/>
      <use xlink:href="#DejaVuSans-69" x="1138.201172"/>
      <use xlink:href="#DejaVuSans-74" x="1165.984375"/>
      <use xlink:href="#DejaVuSans-69" x="1205.193359"/>
      <use xlink:href="#DejaVuSans-76" x="1232.976562"/>
      <use xlink:href="#DejaVuSans-65" x="1292.15625"/>
      <use xlink:href="#DejaVuSans-20" x="1353.679688"/>
      <use xlink:href="#DejaVuSans-41" x="1385.466797"/>
      <use xlink:href="#DejaVuSans-63" x="1452.125"/>
      <use xlink:href="#DejaVuSans-63" x="1507.105469"/>
      <use xlink:href="#DejaVuSans-65" x="1562.085938"/>
      <use xlink:href="#DejaVuSans-6c" x="1623.609375"/>
      <use xlink:href="#DejaVuSans-20" x="1651.392578"/>
      <use xlink:href="#DejaVuSans-28" x="1683.179688"/>
      <use xlink:href="#DejaVuSans-47" x="1722.193359"/>
      <use xlink:href="#DejaVuSans-29" x="1799.683594"/>
     </g>
    </g>
    <g id="line2d_174">
     <path d="M 81.5 337.650469 
L 96.5 337.650469 
L 111.5 337.650469 
" style="fill: none; stroke: #d62728; stroke-width: 1.5; stroke-linecap: square"/>
    </g>
    <g id="text_17">
     <!-- Shaker Table, Peak Negative Accel (G) -->
     <g transform="translate(123.5 342.900469) scale(0.15 -0.15)">
      <use xlink:href="#DejaVuSans-53"/>
      <use xlink:href="#DejaVuSans-68" x="63.476562"/>
      <use xlink:href="#DejaVuSans-61" x="126.855469"/>
      <use xlink:href="#DejaVuSans-6b" x="188.134766"/>
      <use xlink:href="#DejaVuSans-65" x="242.419922"/>
      <use xlink:href="#DejaVuSans-72" x="303.943359"/>
      <use xlink:href="#DejaVuSans-20" x="345.056641"/>
      <use xlink:href="#DejaVuSans-54" x="376.84375"/>
      <use xlink:href="#DejaVuSans-61" x="421.427734"/>
      <use xlink:href="#DejaVuSans-62" x="482.707031"/>
      <use xlink:href="#DejaVuSans-6c" x="546.183594"/>
      <use xlink:href="#DejaVuSans-65" x="573.966797"/>
      <use xlink:href="#DejaVuSans-2c" x="635.490234"/>
      <use xlink:href="#DejaVuSans-20" x="667.277344"/>
      <use xlink:href="#DejaVuSans-50" x="699.064453"/>
      <use xlink:href="#DejaVuSans-65" x="755.742188"/>
      <use xlink:href="#DejaVuSans-61" x="817.265625"/>
      <use xlink:href="#DejaVuSans-6b" x="878.544922"/>
      <use xlink:href="#DejaVuSans-20" x="936.455078"/>
      <use xlink:href="#DejaVuSans-4e" x="968.242188"/>
      <use xlink:href="#DejaVuSans-65" x="1043.046875"/>
      <use xlink:href="#DejaVuSans-67" x="1104.570312"/>
      <use xlink:href="#DejaVuSans-61" x="1168.046875"/>
      <use xlink:href="#DejaVuSans-74" x="1229.326172"/>
      <use xlink:href="#DejaVuSans-69" x="1268.535156"/>
      <use xlink:href="#DejaVuSans-76" x="1296.318359"/>
      <use xlink:href="#DejaVuSans-65" x="1355.498047"/>
      <use xlink:href="#DejaVuSans-20" x="1417.021484"/>
      <use xlink:href="#DejaVuSans-41" x="1448.808594"/>
      <use xlink:href="#DejaVuSans-63" x="1515.466797"/>
      <use xlink:href="#DejaVuSans-63" x="1570.447266"/>
      <use xlink:href="#DejaVuSans-65" x="1625.427734"/>
      <use xlink:href="#DejaVuSans-6c" x="1686.951172"/>
      <use xlink:href="#DejaVuSans-20" x="1714.734375"/>
      <use xlink:href="#DejaVuSans-28" x="1746.521484"/>
      <use xlink:href="#DejaVuSans-47" x="1785.535156"/>
      <use xlink:href="#DejaVuSans-29" x="1863.025391"/>
     </g>
    </g>
   </g>
  </g>
 </g>
 <defs>
  <clipPath id="pcebd3dc224">
   <rect x="68" y="26.88" width="558" height="332.64"/>
  </clipPath>
 </defs>
</svg>
