<?xml version="1.0" encoding="utf-8" standalone="no"?>
<!DOCTYPE svg PUBLIC "-//W3C//DTD SVG 1.1//EN"
  "http://www.w3.org/Graphics/SVG/1.1/DTD/svg11.dtd">
<svg xmlns:xlink="http://www.w3.org/1999/xlink" width="951.8375pt" height="406.751563pt" viewBox="0 0 951.8375 406.751563" xmlns="http://www.w3.org/2000/svg" version="1.1">
 <metadata>
  <rdf:RDF xmlns:dc="http://purl.org/dc/elements/1.1/" xmlns:cc="http://creativecommons.org/ns#" xmlns:rdf="http://www.w3.org/1999/02/22-rdf-syntax-ns#">
   <cc:Work>
    <dc:type rdf:resource="http://purl.org/dc/dcmitype/StillImage"/>
    <dc:date>2024-11-11T17:08:21.045094</dc:date>
    <dc:format>image/svg+xml</dc:format>
    <dc:creator>
     <cc:Agent>
      <dc:title>Matplotlib v3.9.2, https://matplotlib.org/</dc:title>
     </cc:Agent>
    </dc:creator>
   </cc:Work>
  </rdf:RDF>
 </metadata>
 <defs>
  <style type="text/css">*{stroke-linejoin: round; stroke-linecap: butt}</style>
 </defs>
 <g id="figure_1">
  <g id="patch_1">
   <path d="M 0 406.751563 
L 951.8375 406.751563 
L 951.8375 0 
L 0 0 
z
" style="fill: #ffffff"/>
  </g>
  <g id="axes_1">
   <g id="patch_2">
    <path d="M 51.8375 359.517188 
L 944.6375 359.517188 
L 944.6375 26.877187 
L 51.8375 26.877187 
z
" style="fill: #ffffff"/>
   </g>
   <g id="matplotlib.axis_1">
    <g id="xtick_1">
     <g id="line2d_1">
      <path d="M 60.590441 359.517188 
L 60.590441 26.877187 
" clip-path="url(#p106211f378)" style="fill: none; stroke: #b0b0b0; stroke-width: 0.8; stroke-linecap: square"/>
     </g>
     <g id="line2d_2">
      <defs>
       <path id="m7b8c989054" d="M 0 0 
L 0 3.5 
" style="stroke: #000000; stroke-width: 0.8"/>
      </defs>
      <g>
       <use xlink:href="#m7b8c989054" x="60.590441" y="359.517188" style="stroke: #000000; stroke-width: 0.8"/>
      </g>
     </g>
     <g id="text_1">
      <!-- 0.00 -->
      <g transform="translate(43.891222 377.914844) scale(0.15 -0.15)">
       <defs>
        <path id="DejaVuSans-30" d="M 2034 4250 
Q 1547 4250 1301 3770 
Q 1056 3291 1056 2328 
Q 1056 1369 1301 889 
Q 1547 409 2034 409 
Q 2525 409 2770 889 
Q 3016 1369 3016 2328 
Q 3016 3291 2770 3770 
Q 2525 4250 2034 4250 
z
M 2034 4750 
Q 2819 4750 3233 4129 
Q 3647 3509 3647 2328 
Q 3647 1150 3233 529 
Q 2819 -91 2034 -91 
Q 1250 -91 836 529 
Q 422 1150 422 2328 
Q 422 3509 836 4129 
Q 1250 4750 2034 4750 
z
" transform="scale(0.015625)"/>
        <path id="DejaVuSans-2e" d="M 684 794 
L 1344 794 
L 1344 0 
L 684 0 
L 684 794 
z
" transform="scale(0.015625)"/>
       </defs>
       <use xlink:href="#DejaVuSans-30"/>
       <use xlink:href="#DejaVuSans-2e" x="63.623047"/>
       <use xlink:href="#DejaVuSans-30" x="95.410156"/>
       <use xlink:href="#DejaVuSans-30" x="159.033203"/>
      </g>
     </g>
    </g>
    <g id="xtick_2">
     <g id="line2d_3">
      <path d="M 255.347036 359.517188 
L 255.347036 26.877187 
" clip-path="url(#p106211f378)" style="fill: none; stroke: #b0b0b0; stroke-width: 0.8; stroke-linecap: square"/>
     </g>
     <g id="line2d_4">
      <g>
       <use xlink:href="#m7b8c989054" x="255.347036" y="359.517188" style="stroke: #000000; stroke-width: 0.8"/>
      </g>
     </g>
     <g id="text_2">
      <!-- 0.02 -->
      <g transform="translate(238.647817 377.914844) scale(0.15 -0.15)">
       <defs>
        <path id="DejaVuSans-32" d="M 1228 531 
L 3431 531 
L 3431 0 
L 469 0 
L 469 531 
Q 828 903 1448 1529 
Q 2069 2156 2228 2338 
Q 2531 2678 2651 2914 
Q 2772 3150 2772 3378 
Q 2772 3750 2511 3984 
Q 2250 4219 1831 4219 
Q 1534 4219 1204 4116 
Q 875 4013 500 3803 
L 500 4441 
Q 881 4594 1212 4672 
Q 1544 4750 1819 4750 
Q 2544 4750 2975 4387 
Q 3406 4025 3406 3419 
Q 3406 3131 3298 2873 
Q 3191 2616 2906 2266 
Q 2828 2175 2409 1742 
Q 1991 1309 1228 531 
z
" transform="scale(0.015625)"/>
       </defs>
       <use xlink:href="#DejaVuSans-30"/>
       <use xlink:href="#DejaVuSans-2e" x="63.623047"/>
       <use xlink:href="#DejaVuSans-30" x="95.410156"/>
       <use xlink:href="#DejaVuSans-32" x="159.033203"/>
      </g>
     </g>
    </g>
    <g id="xtick_3">
     <g id="line2d_5">
      <path d="M 450.10363 359.517188 
L 450.10363 26.877187 
" clip-path="url(#p106211f378)" style="fill: none; stroke: #b0b0b0; stroke-width: 0.8; stroke-linecap: square"/>
     </g>
     <g id="line2d_6">
      <g>
       <use xlink:href="#m7b8c989054" x="450.10363" y="359.517188" style="stroke: #000000; stroke-width: 0.8"/>
      </g>
     </g>
     <g id="text_3">
      <!-- 0.04 -->
      <g transform="translate(433.404411 377.914844) scale(0.15 -0.15)">
       <defs>
        <path id="DejaVuSans-34" d="M 2419 4116 
L 825 1625 
L 2419 1625 
L 2419 4116 
z
M 2253 4666 
L 3047 4666 
L 3047 1625 
L 3713 1625 
L 3713 1100 
L 3047 1100 
L 3047 0 
L 2419 0 
L 2419 1100 
L 313 1100 
L 313 1709 
L 2253 4666 
z
" transform="scale(0.015625)"/>
       </defs>
       <use xlink:href="#DejaVuSans-30"/>
       <use xlink:href="#DejaVuSans-2e" x="63.623047"/>
       <use xlink:href="#DejaVuSans-30" x="95.410156"/>
       <use xlink:href="#DejaVuSans-34" x="159.033203"/>
      </g>
     </g>
    </g>
    <g id="xtick_4">
     <g id="line2d_7">
      <path d="M 644.860224 359.517188 
L 644.860224 26.877187 
" clip-path="url(#p106211f378)" style="fill: none; stroke: #b0b0b0; stroke-width: 0.8; stroke-linecap: square"/>
     </g>
     <g id="line2d_8">
      <g>
       <use xlink:href="#m7b8c989054" x="644.860224" y="359.517188" style="stroke: #000000; stroke-width: 0.8"/>
      </g>
     </g>
     <g id="text_4">
      <!-- 0.06 -->
      <g transform="translate(628.161005 377.914844) scale(0.15 -0.15)">
       <defs>
        <path id="DejaVuSans-36" d="M 2113 2584 
Q 1688 2584 1439 2293 
Q 1191 2003 1191 1497 
Q 1191 994 1439 701 
Q 1688 409 2113 409 
Q 2538 409 2786 701 
Q 3034 994 3034 1497 
Q 3034 2003 2786 2293 
Q 2538 2584 2113 2584 
z
M 3366 4563 
L 3366 3988 
Q 3128 4100 2886 4159 
Q 2644 4219 2406 4219 
Q 1781 4219 1451 3797 
Q 1122 3375 1075 2522 
Q 1259 2794 1537 2939 
Q 1816 3084 2150 3084 
Q 2853 3084 3261 2657 
Q 3669 2231 3669 1497 
Q 3669 778 3244 343 
Q 2819 -91 2113 -91 
Q 1303 -91 875 529 
Q 447 1150 447 2328 
Q 447 3434 972 4092 
Q 1497 4750 2381 4750 
Q 2619 4750 2861 4703 
Q 3103 4656 3366 4563 
z
" transform="scale(0.015625)"/>
       </defs>
       <use xlink:href="#DejaVuSans-30"/>
       <use xlink:href="#DejaVuSans-2e" x="63.623047"/>
       <use xlink:href="#DejaVuSans-30" x="95.410156"/>
       <use xlink:href="#DejaVuSans-36" x="159.033203"/>
      </g>
     </g>
    </g>
    <g id="xtick_5">
     <g id="line2d_9">
      <path d="M 839.616818 359.517188 
L 839.616818 26.877187 
" clip-path="url(#p106211f378)" style="fill: none; stroke: #b0b0b0; stroke-width: 0.8; stroke-linecap: square"/>
     </g>
     <g id="line2d_10">
      <g>
       <use xlink:href="#m7b8c989054" x="839.616818" y="359.517188" style="stroke: #000000; stroke-width: 0.8"/>
      </g>
     </g>
     <g id="text_5">
      <!-- 0.08 -->
      <g transform="translate(822.9176 377.914844) scale(0.15 -0.15)">
       <defs>
        <path id="DejaVuSans-38" d="M 2034 2216 
Q 1584 2216 1326 1975 
Q 1069 1734 1069 1313 
Q 1069 891 1326 650 
Q 1584 409 2034 409 
Q 2484 409 2743 651 
Q 3003 894 3003 1313 
Q 3003 1734 2745 1975 
Q 2488 2216 2034 2216 
z
M 1403 2484 
Q 997 2584 770 2862 
Q 544 3141 544 3541 
Q 544 4100 942 4425 
Q 1341 4750 2034 4750 
Q 2731 4750 3128 4425 
Q 3525 4100 3525 3541 
Q 3525 3141 3298 2862 
Q 3072 2584 2669 2484 
Q 3125 2378 3379 2068 
Q 3634 1759 3634 1313 
Q 3634 634 3220 271 
Q 2806 -91 2034 -91 
Q 1263 -91 848 271 
Q 434 634 434 1313 
Q 434 1759 690 2068 
Q 947 2378 1403 2484 
z
M 1172 3481 
Q 1172 3119 1398 2916 
Q 1625 2713 2034 2713 
Q 2441 2713 2670 2916 
Q 2900 3119 2900 3481 
Q 2900 3844 2670 4047 
Q 2441 4250 2034 4250 
Q 1625 4250 1398 4047 
Q 1172 3844 1172 3481 
z
" transform="scale(0.015625)"/>
       </defs>
       <use xlink:href="#DejaVuSans-30"/>
       <use xlink:href="#DejaVuSans-2e" x="63.623047"/>
       <use xlink:href="#DejaVuSans-30" x="95.410156"/>
       <use xlink:href="#DejaVuSans-38" x="159.033203"/>
      </g>
     </g>
    </g>
    <g id="text_6">
     <!-- time after launch [s] -->
     <g transform="translate(421.576953 396.432031) scale(0.15 -0.15)">
      <defs>
       <path id="DejaVuSans-74" d="M 1172 4494 
L 1172 3500 
L 2356 3500 
L 2356 3053 
L 1172 3053 
L 1172 1153 
Q 1172 725 1289 603 
Q 1406 481 1766 481 
L 2356 481 
L 2356 0 
L 1766 0 
Q 1100 0 847 248 
Q 594 497 594 1153 
L 594 3053 
L 172 3053 
L 172 3500 
L 594 3500 
L 594 4494 
L 1172 4494 
z
" transform="scale(0.015625)"/>
       <path id="DejaVuSans-69" d="M 603 3500 
L 1178 3500 
L 1178 0 
L 603 0 
L 603 3500 
z
M 603 4863 
L 1178 4863 
L 1178 4134 
L 603 4134 
L 603 4863 
z
" transform="scale(0.015625)"/>
       <path id="DejaVuSans-6d" d="M 3328 2828 
Q 3544 3216 3844 3400 
Q 4144 3584 4550 3584 
Q 5097 3584 5394 3201 
Q 5691 2819 5691 2113 
L 5691 0 
L 5113 0 
L 5113 2094 
Q 5113 2597 4934 2840 
Q 4756 3084 4391 3084 
Q 3944 3084 3684 2787 
Q 3425 2491 3425 1978 
L 3425 0 
L 2847 0 
L 2847 2094 
Q 2847 2600 2669 2842 
Q 2491 3084 2119 3084 
Q 1678 3084 1418 2786 
Q 1159 2488 1159 1978 
L 1159 0 
L 581 0 
L 581 3500 
L 1159 3500 
L 1159 2956 
Q 1356 3278 1631 3431 
Q 1906 3584 2284 3584 
Q 2666 3584 2933 3390 
Q 3200 3197 3328 2828 
z
" transform="scale(0.015625)"/>
       <path id="DejaVuSans-65" d="M 3597 1894 
L 3597 1613 
L 953 1613 
Q 991 1019 1311 708 
Q 1631 397 2203 397 
Q 2534 397 2845 478 
Q 3156 559 3463 722 
L 3463 178 
Q 3153 47 2828 -22 
Q 2503 -91 2169 -91 
Q 1331 -91 842 396 
Q 353 884 353 1716 
Q 353 2575 817 3079 
Q 1281 3584 2069 3584 
Q 2775 3584 3186 3129 
Q 3597 2675 3597 1894 
z
M 3022 2063 
Q 3016 2534 2758 2815 
Q 2500 3097 2075 3097 
Q 1594 3097 1305 2825 
Q 1016 2553 972 2059 
L 3022 2063 
z
" transform="scale(0.015625)"/>
       <path id="DejaVuSans-20" transform="scale(0.015625)"/>
       <path id="DejaVuSans-61" d="M 2194 1759 
Q 1497 1759 1228 1600 
Q 959 1441 959 1056 
Q 959 750 1161 570 
Q 1363 391 1709 391 
Q 2188 391 2477 730 
Q 2766 1069 2766 1631 
L 2766 1759 
L 2194 1759 
z
M 3341 1997 
L 3341 0 
L 2766 0 
L 2766 531 
Q 2569 213 2275 61 
Q 1981 -91 1556 -91 
Q 1019 -91 701 211 
Q 384 513 384 1019 
Q 384 1609 779 1909 
Q 1175 2209 1959 2209 
L 2766 2209 
L 2766 2266 
Q 2766 2663 2505 2880 
Q 2244 3097 1772 3097 
Q 1472 3097 1187 3025 
Q 903 2953 641 2809 
L 641 3341 
Q 956 3463 1253 3523 
Q 1550 3584 1831 3584 
Q 2591 3584 2966 3190 
Q 3341 2797 3341 1997 
z
" transform="scale(0.015625)"/>
       <path id="DejaVuSans-66" d="M 2375 4863 
L 2375 4384 
L 1825 4384 
Q 1516 4384 1395 4259 
Q 1275 4134 1275 3809 
L 1275 3500 
L 2222 3500 
L 2222 3053 
L 1275 3053 
L 1275 0 
L 697 0 
L 697 3053 
L 147 3053 
L 147 3500 
L 697 3500 
L 697 3744 
Q 697 4328 969 4595 
Q 1241 4863 1831 4863 
L 2375 4863 
z
" transform="scale(0.015625)"/>
       <path id="DejaVuSans-72" d="M 2631 2963 
Q 2534 3019 2420 3045 
Q 2306 3072 2169 3072 
Q 1681 3072 1420 2755 
Q 1159 2438 1159 1844 
L 1159 0 
L 581 0 
L 581 3500 
L 1159 3500 
L 1159 2956 
Q 1341 3275 1631 3429 
Q 1922 3584 2338 3584 
Q 2397 3584 2469 3576 
Q 2541 3569 2628 3553 
L 2631 2963 
z
" transform="scale(0.015625)"/>
       <path id="DejaVuSans-6c" d="M 603 4863 
L 1178 4863 
L 1178 0 
L 603 0 
L 603 4863 
z
" transform="scale(0.015625)"/>
       <path id="DejaVuSans-75" d="M 544 1381 
L 544 3500 
L 1119 3500 
L 1119 1403 
Q 1119 906 1312 657 
Q 1506 409 1894 409 
Q 2359 409 2629 706 
Q 2900 1003 2900 1516 
L 2900 3500 
L 3475 3500 
L 3475 0 
L 2900 0 
L 2900 538 
Q 2691 219 2414 64 
Q 2138 -91 1772 -91 
Q 1169 -91 856 284 
Q 544 659 544 1381 
z
M 1991 3584 
L 1991 3584 
z
" transform="scale(0.015625)"/>
       <path id="DejaVuSans-6e" d="M 3513 2113 
L 3513 0 
L 2938 0 
L 2938 2094 
Q 2938 2591 2744 2837 
Q 2550 3084 2163 3084 
Q 1697 3084 1428 2787 
Q 1159 2491 1159 1978 
L 1159 0 
L 581 0 
L 581 3500 
L 1159 3500 
L 1159 2956 
Q 1366 3272 1645 3428 
Q 1925 3584 2291 3584 
Q 2894 3584 3203 3211 
Q 3513 2838 3513 2113 
z
" transform="scale(0.015625)"/>
       <path id="DejaVuSans-63" d="M 3122 3366 
L 3122 2828 
Q 2878 2963 2633 3030 
Q 2388 3097 2138 3097 
Q 1578 3097 1268 2742 
Q 959 2388 959 1747 
Q 959 1106 1268 751 
Q 1578 397 2138 397 
Q 2388 397 2633 464 
Q 2878 531 3122 666 
L 3122 134 
Q 2881 22 2623 -34 
Q 2366 -91 2075 -91 
Q 1284 -91 818 406 
Q 353 903 353 1747 
Q 353 2603 823 3093 
Q 1294 3584 2113 3584 
Q 2378 3584 2631 3529 
Q 2884 3475 3122 3366 
z
" transform="scale(0.015625)"/>
       <path id="DejaVuSans-68" d="M 3513 2113 
L 3513 0 
L 2938 0 
L 2938 2094 
Q 2938 2591 2744 2837 
Q 2550 3084 2163 3084 
Q 1697 3084 1428 2787 
Q 1159 2491 1159 1978 
L 1159 0 
L 581 0 
L 581 4863 
L 1159 4863 
L 1159 2956 
Q 1366 3272 1645 3428 
Q 1925 3584 2291 3584 
Q 2894 3584 3203 3211 
Q 3513 2838 3513 2113 
z
" transform="scale(0.015625)"/>
       <path id="DejaVuSans-5b" d="M 550 4863 
L 1875 4863 
L 1875 4416 
L 1125 4416 
L 1125 -397 
L 1875 -397 
L 1875 -844 
L 550 -844 
L 550 4863 
z
" transform="scale(0.015625)"/>
       <path id="DejaVuSans-73" d="M 2834 3397 
L 2834 2853 
Q 2591 2978 2328 3040 
Q 2066 3103 1784 3103 
Q 1356 3103 1142 2972 
Q 928 2841 928 2578 
Q 928 2378 1081 2264 
Q 1234 2150 1697 2047 
L 1894 2003 
Q 2506 1872 2764 1633 
Q 3022 1394 3022 966 
Q 3022 478 2636 193 
Q 2250 -91 1575 -91 
Q 1294 -91 989 -36 
Q 684 19 347 128 
L 347 722 
Q 666 556 975 473 
Q 1284 391 1588 391 
Q 1994 391 2212 530 
Q 2431 669 2431 922 
Q 2431 1156 2273 1281 
Q 2116 1406 1581 1522 
L 1381 1569 
Q 847 1681 609 1914 
Q 372 2147 372 2553 
Q 372 3047 722 3315 
Q 1072 3584 1716 3584 
Q 2034 3584 2315 3537 
Q 2597 3491 2834 3397 
z
" transform="scale(0.015625)"/>
       <path id="DejaVuSans-5d" d="M 1947 4863 
L 1947 -844 
L 622 -844 
L 622 -397 
L 1369 -397 
L 1369 4416 
L 622 4416 
L 622 4863 
L 1947 4863 
z
" transform="scale(0.015625)"/>
      </defs>
      <use xlink:href="#DejaVuSans-74"/>
      <use xlink:href="#DejaVuSans-69" x="39.208984"/>
      <use xlink:href="#DejaVuSans-6d" x="66.992188"/>
      <use xlink:href="#DejaVuSans-65" x="164.404297"/>
      <use xlink:href="#DejaVuSans-20" x="225.927734"/>
      <use xlink:href="#DejaVuSans-61" x="257.714844"/>
      <use xlink:href="#DejaVuSans-66" x="318.994141"/>
      <use xlink:href="#DejaVuSans-74" x="352.449219"/>
      <use xlink:href="#DejaVuSans-65" x="391.658203"/>
      <use xlink:href="#DejaVuSans-72" x="453.181641"/>
      <use xlink:href="#DejaVuSans-20" x="494.294922"/>
      <use xlink:href="#DejaVuSans-6c" x="526.082031"/>
      <use xlink:href="#DejaVuSans-61" x="553.865234"/>
      <use xlink:href="#DejaVuSans-75" x="615.144531"/>
      <use xlink:href="#DejaVuSans-6e" x="678.523438"/>
      <use xlink:href="#DejaVuSans-63" x="741.902344"/>
      <use xlink:href="#DejaVuSans-68" x="796.882812"/>
      <use xlink:href="#DejaVuSans-20" x="860.261719"/>
      <use xlink:href="#DejaVuSans-5b" x="892.048828"/>
      <use xlink:href="#DejaVuSans-73" x="931.0625"/>
      <use xlink:href="#DejaVuSans-5d" x="983.162109"/>
     </g>
    </g>
   </g>
   <g id="matplotlib.axis_2">
    <g id="ytick_1">
     <g id="line2d_11">
      <path d="M 51.8375 356.265965 
L 944.6375 356.265965 
" clip-path="url(#p106211f378)" style="fill: none; stroke: #b0b0b0; stroke-width: 0.8; stroke-linecap: square"/>
     </g>
     <g id="line2d_12">
      <defs>
       <path id="mfbeebd1a36" d="M 0 0 
L -3.5 0 
" style="stroke: #000000; stroke-width: 0.8"/>
      </defs>
      <g>
       <use xlink:href="#mfbeebd1a36" x="51.8375" y="356.265965" style="stroke: #000000; stroke-width: 0.8"/>
      </g>
     </g>
     <g id="text_7">
      <!-- 0 -->
      <g transform="translate(35.29375 361.964793) scale(0.15 -0.15)">
       <use xlink:href="#DejaVuSans-30"/>
      </g>
     </g>
    </g>
    <g id="ytick_2">
     <g id="line2d_13">
      <path d="M 51.8375 315.47154 
L 944.6375 315.47154 
" clip-path="url(#p106211f378)" style="fill: none; stroke: #b0b0b0; stroke-width: 0.8; stroke-linecap: square"/>
     </g>
     <g id="line2d_14">
      <g>
       <use xlink:href="#mfbeebd1a36" x="51.8375" y="315.47154" style="stroke: #000000; stroke-width: 0.8"/>
      </g>
     </g>
     <g id="text_8">
      <!-- 2 -->
      <g transform="translate(35.29375 321.170368) scale(0.15 -0.15)">
       <use xlink:href="#DejaVuSans-32"/>
      </g>
     </g>
    </g>
    <g id="ytick_3">
     <g id="line2d_15">
      <path d="M 51.8375 274.677116 
L 944.6375 274.677116 
" clip-path="url(#p106211f378)" style="fill: none; stroke: #b0b0b0; stroke-width: 0.8; stroke-linecap: square"/>
     </g>
     <g id="line2d_16">
      <g>
       <use xlink:href="#mfbeebd1a36" x="51.8375" y="274.677116" style="stroke: #000000; stroke-width: 0.8"/>
      </g>
     </g>
     <g id="text_9">
      <!-- 4 -->
      <g transform="translate(35.29375 280.375944) scale(0.15 -0.15)">
       <use xlink:href="#DejaVuSans-34"/>
      </g>
     </g>
    </g>
    <g id="ytick_4">
     <g id="line2d_17">
      <path d="M 51.8375 233.882691 
L 944.6375 233.882691 
" clip-path="url(#p106211f378)" style="fill: none; stroke: #b0b0b0; stroke-width: 0.8; stroke-linecap: square"/>
     </g>
     <g id="line2d_18">
      <g>
       <use xlink:href="#mfbeebd1a36" x="51.8375" y="233.882691" style="stroke: #000000; stroke-width: 0.8"/>
      </g>
     </g>
     <g id="text_10">
      <!-- 6 -->
      <g transform="translate(35.29375 239.581519) scale(0.15 -0.15)">
       <use xlink:href="#DejaVuSans-36"/>
      </g>
     </g>
    </g>
    <g id="ytick_5">
     <g id="line2d_19">
      <path d="M 51.8375 193.088267 
L 944.6375 193.088267 
" clip-path="url(#p106211f378)" style="fill: none; stroke: #b0b0b0; stroke-width: 0.8; stroke-linecap: square"/>
     </g>
     <g id="line2d_20">
      <g>
       <use xlink:href="#mfbeebd1a36" x="51.8375" y="193.088267" style="stroke: #000000; stroke-width: 0.8"/>
      </g>
     </g>
     <g id="text_11">
      <!-- 8 -->
      <g transform="translate(35.29375 198.787095) scale(0.15 -0.15)">
       <use xlink:href="#DejaVuSans-38"/>
      </g>
     </g>
    </g>
    <g id="ytick_6">
     <g id="line2d_21">
      <path d="M 51.8375 152.293842 
L 944.6375 152.293842 
" clip-path="url(#p106211f378)" style="fill: none; stroke: #b0b0b0; stroke-width: 0.8; stroke-linecap: square"/>
     </g>
     <g id="line2d_22">
      <g>
       <use xlink:href="#mfbeebd1a36" x="51.8375" y="152.293842" style="stroke: #000000; stroke-width: 0.8"/>
      </g>
     </g>
     <g id="text_12">
      <!-- 10 -->
      <g transform="translate(25.75 157.99267) scale(0.15 -0.15)">
       <defs>
        <path id="DejaVuSans-31" d="M 794 531 
L 1825 531 
L 1825 4091 
L 703 3866 
L 703 4441 
L 1819 4666 
L 2450 4666 
L 2450 531 
L 3481 531 
L 3481 0 
L 794 0 
L 794 531 
z
" transform="scale(0.015625)"/>
       </defs>
       <use xlink:href="#DejaVuSans-31"/>
       <use xlink:href="#DejaVuSans-30" x="63.623047"/>
      </g>
     </g>
    </g>
    <g id="ytick_7">
     <g id="line2d_23">
      <path d="M 51.8375 111.499418 
L 944.6375 111.499418 
" clip-path="url(#p106211f378)" style="fill: none; stroke: #b0b0b0; stroke-width: 0.8; stroke-linecap: square"/>
     </g>
     <g id="line2d_24">
      <g>
       <use xlink:href="#mfbeebd1a36" x="51.8375" y="111.499418" style="stroke: #000000; stroke-width: 0.8"/>
      </g>
     </g>
     <g id="text_13">
      <!-- 12 -->
      <g transform="translate(25.75 117.198246) scale(0.15 -0.15)">
       <use xlink:href="#DejaVuSans-31"/>
       <use xlink:href="#DejaVuSans-32" x="63.623047"/>
      </g>
     </g>
    </g>
    <g id="ytick_8">
     <g id="line2d_25">
      <path d="M 51.8375 70.704993 
L 944.6375 70.704993 
" clip-path="url(#p106211f378)" style="fill: none; stroke: #b0b0b0; stroke-width: 0.8; stroke-linecap: square"/>
     </g>
     <g id="line2d_26">
      <g>
       <use xlink:href="#mfbeebd1a36" x="51.8375" y="70.704993" style="stroke: #000000; stroke-width: 0.8"/>
      </g>
     </g>
     <g id="text_14">
      <!-- 14 -->
      <g transform="translate(25.75 76.403821) scale(0.15 -0.15)">
       <use xlink:href="#DejaVuSans-31"/>
       <use xlink:href="#DejaVuSans-34" x="63.623047"/>
      </g>
     </g>
    </g>
    <g id="ytick_9">
     <g id="line2d_27">
      <path d="M 51.8375 29.910569 
L 944.6375 29.910569 
" clip-path="url(#p106211f378)" style="fill: none; stroke: #b0b0b0; stroke-width: 0.8; stroke-linecap: square"/>
     </g>
     <g id="line2d_28">
      <g>
       <use xlink:href="#mfbeebd1a36" x="51.8375" y="29.910569" style="stroke: #000000; stroke-width: 0.8"/>
      </g>
     </g>
     <g id="text_15">
      <!-- 16 -->
      <g transform="translate(25.75 35.609397) scale(0.15 -0.15)">
       <use xlink:href="#DejaVuSans-31"/>
       <use xlink:href="#DejaVuSans-36" x="63.623047"/>
      </g>
     </g>
    </g>
    <g id="text_16">
     <!-- acceleration [$\it{g}$] -->
     <g transform="translate(18.6 252.447188) rotate(-90) scale(0.15 -0.15)">
      <defs>
       <path id="DejaVuSans-6f" d="M 1959 3097 
Q 1497 3097 1228 2736 
Q 959 2375 959 1747 
Q 959 1119 1226 758 
Q 1494 397 1959 397 
Q 2419 397 2687 759 
Q 2956 1122 2956 1747 
Q 2956 2369 2687 2733 
Q 2419 3097 1959 3097 
z
M 1959 3584 
Q 2709 3584 3137 3096 
Q 3566 2609 3566 1747 
Q 3566 888 3137 398 
Q 2709 -91 1959 -91 
Q 1206 -91 779 398 
Q 353 888 353 1747 
Q 353 2609 779 3096 
Q 1206 3584 1959 3584 
z
" transform="scale(0.015625)"/>
       <path id="DejaVuSans-Oblique-67" d="M 3816 3500 
L 3219 434 
Q 3047 -456 2561 -893 
Q 2075 -1331 1253 -1331 
Q 950 -1331 690 -1286 
Q 431 -1241 206 -1147 
L 313 -588 
Q 525 -725 762 -790 
Q 1000 -856 1269 -856 
Q 1816 -856 2167 -557 
Q 2519 -259 2631 300 
L 2681 563 
Q 2441 288 2122 144 
Q 1803 0 1434 0 
Q 903 0 598 351 
Q 294 703 294 1319 
Q 294 1803 478 2267 
Q 663 2731 997 3091 
Q 1219 3328 1514 3456 
Q 1809 3584 2131 3584 
Q 2484 3584 2746 3420 
Q 3009 3256 3138 2956 
L 3238 3500 
L 3816 3500 
z
M 2950 2216 
Q 2950 2641 2750 2872 
Q 2550 3103 2181 3103 
Q 1953 3103 1747 3012 
Q 1541 2922 1394 2759 
Q 1156 2491 1023 2127 
Q 891 1763 891 1375 
Q 891 944 1092 712 
Q 1294 481 1672 481 
Q 2219 481 2584 976 
Q 2950 1472 2950 2216 
z
" transform="scale(0.015625)"/>
      </defs>
      <use xlink:href="#DejaVuSans-61" transform="translate(0 0.015625)"/>
      <use xlink:href="#DejaVuSans-63" transform="translate(61.279297 0.015625)"/>
      <use xlink:href="#DejaVuSans-63" transform="translate(116.259766 0.015625)"/>
      <use xlink:href="#DejaVuSans-65" transform="translate(171.240234 0.015625)"/>
      <use xlink:href="#DejaVuSans-6c" transform="translate(232.763672 0.015625)"/>
      <use xlink:href="#DejaVuSans-65" transform="translate(260.546875 0.015625)"/>
      <use xlink:href="#DejaVuSans-72" transform="translate(322.070312 0.015625)"/>
      <use xlink:href="#DejaVuSans-61" transform="translate(363.183594 0.015625)"/>
      <use xlink:href="#DejaVuSans-74" transform="translate(424.462891 0.015625)"/>
      <use xlink:href="#DejaVuSans-69" transform="translate(463.671875 0.015625)"/>
      <use xlink:href="#DejaVuSans-6f" transform="translate(491.455078 0.015625)"/>
      <use xlink:href="#DejaVuSans-6e" transform="translate(552.636719 0.015625)"/>
      <use xlink:href="#DejaVuSans-20" transform="translate(616.015625 0.015625)"/>
      <use xlink:href="#DejaVuSans-5b" transform="translate(647.802734 0.015625)"/>
      <use xlink:href="#DejaVuSans-Oblique-67" transform="translate(686.816406 0.015625)"/>
      <use xlink:href="#DejaVuSans-5d" transform="translate(750.292969 0.015625)"/>
     </g>
    </g>
   </g>
   <g id="line2d_29">
    <path d="M 60.590441 160.075777 
L 62.0517 344.261634 
L 63.512959 75.21931 
L 64.974218 30.138364 
L 66.435477 97.237185 
L 67.896736 118.886794 
L 69.357995 51.170818 
L 70.819254 30.138364 
L 72.280513 305.31226 
L 73.741772 54.963245 
L 75.203031 316.84876 
L 76.66429 300.594139 
L 78.125549 79.161012 
L 79.586808 30.178182 
L 81.048067 75.259109 
L 82.509326 187.438896 
L 85.431844 30.178182 
L 86.893102 43.41679 
L 89.81562 272.315282 
L 91.276879 233.047382 
L 92.738138 250.884664 
L 94.199397 282.55778 
L 95.660656 149.116598 
L 97.121915 184.920578 
L 98.583174 165.620074 
L 100.044433 64.837448 
L 101.505692 147.942045 
L 102.966951 198.945533 
L 104.42821 135.39027 
L 105.889469 330.176952 
L 107.350728 315.196422 
L 108.811987 344.918588 
L 110.273246 262.480888 
L 111.734505 241.358837 
L 113.195764 321.716187 
L 114.657023 317.376314 
L 116.118282 96.331401 
L 117.579541 59.462364 
L 119.0408 320.66108 
L 120.502059 256.936601 
L 121.963318 337.164547 
L 124.885835 30.178182 
L 126.347094 222.964147 
L 127.808353 230.140859 
L 129.269612 110.047789 
L 130.730871 48.6326 
L 132.19213 30.138364 
L 133.653389 243.588498 
L 135.114648 112.177904 
L 136.575907 101.109229 
L 138.037166 320.730757 
L 139.498425 240.632206 
L 140.959684 56.983864 
L 142.420943 135.221037 
L 143.882202 337.522885 
L 145.343461 252.536998 
L 146.80472 342.788466 
L 148.265979 241.916255 
L 149.727238 331.948736 
L 151.188497 306.91483 
L 152.649756 335.989993 
L 154.111015 243.996611 
L 155.572274 254.239109 
L 157.033533 283.782106 
L 158.494792 221.958808 
L 159.956051 258.957229 
L 161.417309 324.672478 
L 162.878568 174.349583 
L 164.339827 154.163195 
L 165.801086 347.456817 
L 167.262345 105.8174 
L 168.723604 30.178182 
L 170.184863 35.901632 
L 171.646122 98.531193 
L 173.107381 279.08389 
L 174.56864 32.328196 
L 176.029899 65.922424 
L 177.491158 308.019706 
L 178.952417 220.575223 
L 180.413676 167.123094 
L 181.874935 178.540154 
L 183.336194 325.389154 
L 186.258712 198.009871 
L 187.719971 102.58241 
L 189.18123 181.396899 
L 190.642489 142.298232 
L 192.103748 30.138364 
L 193.565007 247.102206 
L 195.026266 244.733191 
L 196.487525 295.368375 
L 197.948784 169.621513 
L 199.410042 287.435164 
L 200.871301 256.807196 
L 202.33256 220.634941 
L 203.793819 351.876321 
L 205.255078 91.513735 
L 206.716337 30.178182 
L 208.177596 42.202419 
L 209.638855 30.178182 
L 211.100114 287.385396 
L 212.561373 104.194925 
L 214.022632 146.707775 
L 215.483891 309.502826 
L 216.94515 70.969002 
L 218.406409 30.178182 
L 219.867668 173.105353 
L 221.328927 173.792185 
L 222.790186 30.138364 
L 224.251445 199.074928 
L 225.712704 309.054904 
L 227.173963 224.238236 
L 228.635222 40.998007 
L 230.096481 229.225105 
L 231.55774 355.390027 
L 233.018999 267.318453 
L 234.480258 268.702037 
L 235.941516 211.099164 
L 237.402775 206.430812 
L 238.864034 213.368643 
L 240.325293 54.117159 
L 241.786552 30.178182 
L 243.247811 293.915113 
L 244.70907 255.254398 
L 246.170329 236.799981 
L 247.631588 149.345549 
L 249.092847 338.249515 
L 250.554106 266.004546 
L 252.015365 332.436473 
L 253.476624 292.38222 
L 254.937883 269.856681 
L 256.399142 349.338092 
L 257.860401 273.300712 
L 259.32166 311.941518 
L 260.782919 321.128911 
L 262.244178 98.879579 
L 263.705437 30.138364 
L 265.166696 301.280957 
L 266.627955 78.96194 
L 268.089214 184.084451 
L 269.550473 252.586766 
L 271.011732 239.338209 
L 272.472991 30.178182 
L 273.934249 242.015791 
L 275.395508 231.653848 
L 276.856767 304.68517 
L 278.318026 67.793729 
L 279.779285 350.433015 
L 281.240544 49.090482 
L 282.701803 209.128304 
L 284.163062 109.380876 
L 285.624321 30.178182 
L 287.08558 275.361154 
L 288.546839 30.138364 
L 290.008098 44.282775 
L 291.469357 343.166712 
L 292.930616 202.51896 
L 294.391875 278.805186 
L 295.853134 72.880145 
L 297.314393 70.740071 
L 298.775652 346.242448 
L 300.236911 202.907154 
L 301.69817 227.692217 
L 303.159429 30.178182 
L 304.620688 345.844295 
L 306.081947 123.614864 
L 307.543206 298.434156 
L 309.004465 55.172277 
L 310.465724 346.590833 
L 311.926982 35.802096 
L 313.388241 98.949256 
L 314.8495 309.592412 
L 316.310759 258.290316 
L 317.772018 170.308325 
L 319.233277 225.552143 
L 320.694536 200.060359 
L 322.155795 123.20676 
L 323.617054 177.833443 
L 325.078313 127.307735 
L 326.539572 264.690639 
L 329.46209 50.543723 
L 330.923349 309.751671 
L 332.384608 91.613271 
L 333.845867 290.6403 
L 335.307126 267.706657 
L 336.768385 336.029809 
L 338.229644 243.807489 
L 339.690903 119.23518 
L 341.152162 250.685592 
L 342.613421 146.050821 
L 344.07468 210.153553 
L 345.535939 164.276308 
L 346.997198 316.66959 
L 348.458456 70.132895 
L 349.919715 30.178182 
L 351.380974 247.719341 
L 352.842233 308.029655 
L 354.303492 302.236523 
L 355.764751 44.491807 
L 357.22601 82.744408 
L 358.687269 351.637429 
L 360.148528 284.399241 
L 361.609787 146.448985 
L 363.071046 220.007856 
L 364.532305 174.080834 
L 365.993564 279.969784 
L 367.454823 137.719456 
L 368.916082 293.049128 
L 370.377341 71.655834 
L 371.8386 30.178182 
L 374.761118 300.235799 
L 376.222377 313.50427 
L 379.144895 257.215309 
L 380.606154 216.603643 
L 382.067413 263.41655 
L 383.528672 43.605902 
L 384.989931 108.992672 
L 386.451189 303.998352 
L 387.912448 55.719735 
L 389.373707 147.374688 
L 390.834966 255.572925 
L 392.296225 264.252666 
L 393.757484 283.035566 
L 395.218743 210.681101 
L 396.680002 187.687726 
L 398.141261 272.713436 
L 399.60252 60.636917 
L 401.063779 120.708341 
L 402.525038 327.17089 
L 403.986297 341.37502 
L 405.447556 89.473197 
L 406.908815 30.178182 
L 408.370074 180.38162 
L 409.831333 239.55719 
L 411.292592 198.089498 
L 412.753851 265.198288 
L 414.21511 226.577392 
L 415.676369 43.426729 
L 417.137628 30.138364 
L 418.598887 329.221383 
L 420.060146 181.785104 
L 421.521405 182.471916 
L 422.982664 30.138364 
L 424.443922 173.334304 
L 425.905181 334.088809 
L 427.36644 347.785294 
L 428.827699 328.514659 
L 430.288958 215.578394 
L 431.750217 312.946852 
L 433.211476 123.077365 
L 434.672735 297.617939 
L 436.133994 36.787517 
L 437.595253 238.442365 
L 439.056512 266.980027 
L 440.517771 205.385664 
L 441.97903 30.178182 
L 444.901548 315.42536 
L 446.362807 343.156758 
L 447.824066 202.937023 
L 449.285325 158.184553 
L 450.746584 293.407468 
L 452.207843 273.081726 
L 453.669102 72.969741 
L 455.130361 30.178182 
L 456.59162 38.479688 
L 458.052879 305.272446 
L 459.514138 166.824486 
L 460.975396 301.45017 
L 462.436655 332.655457 
L 463.897914 177.923019 
L 465.359173 187.040732 
L 466.820432 355.718504 
L 468.281691 286.250656 
L 469.74295 194.287131 
L 471.204209 227.393599 
L 472.665468 63.29461 
L 474.126727 286.877746 
L 475.587986 58.029022 
L 477.049245 230.081141 
L 478.510504 280.278352 
L 479.971763 276.515803 
L 481.433022 349.527215 
L 482.894281 302.355969 
L 484.35554 153.735192 
L 485.816799 135.907869 
L 487.278058 304.953919 
L 488.739317 300.07654 
L 490.200576 281.522582 
L 491.661835 285.096013 
L 493.123094 347.785294 
L 494.584353 226.756555 
L 496.045612 333.143195 
L 497.506871 58.546621 
L 498.968129 30.178182 
L 500.429388 34.647443 
L 501.890647 30.178182 
L 503.351906 235.306901 
L 504.813165 102.920836 
L 506.274424 109.092208 
L 507.735683 291.456517 
L 509.196942 259.285706 
L 510.658201 316.649684 
L 512.11946 316.828851 
L 513.580719 355.847904 
L 515.041978 79.051536 
L 516.503237 30.138364 
L 517.964496 191.679226 
L 519.425755 30.178182 
L 520.887014 293.666268 
L 522.348273 130.542745 
L 523.809532 352.155029 
L 525.270791 205.704182 
L 526.73205 340.628483 
L 528.193309 262.451029 
L 529.654568 341.474559 
L 531.115827 322.651847 
L 532.577086 351.37863 
L 534.038345 91.872081 
L 535.499604 36.588445 
L 536.960862 167.879603 
L 538.422121 104.085429 
L 539.88338 185.049972 
L 541.344639 121.395173 
L 542.805898 30.138364 
L 544.267157 214.901532 
L 545.728416 184.034673 
L 547.189675 354.185612 
L 548.650934 156.064378 
L 550.112193 130.791595 
L 551.573452 30.178182 
L 553.034711 116.866175 
L 554.49597 291.585917 
L 555.957229 93.315383 
L 558.879747 262.809364 
L 560.341006 197.721203 
L 561.802265 55.231995 
L 563.263524 211.925331 
L 564.724783 141.054002 
L 566.186042 30.178182 
L 567.647301 155.885226 
L 569.10856 258.887552 
L 570.569819 32.796037 
L 572.031078 32.328196 
L 573.492336 123.147043 
L 574.953595 353.996489 
L 576.414854 311.244746 
L 577.876113 196.068869 
L 579.337372 30.178182 
L 580.798631 180.899219 
L 582.25989 269.518254 
L 583.721149 320.382373 
L 585.182408 148.419846 
L 586.643667 221.520835 
L 588.104926 315.68416 
L 589.566185 355.589104 
L 591.027444 302.276337 
L 592.488703 210.581565 
L 593.949962 47.408269 
L 595.411221 30.178182 
L 596.87248 317.714743 
L 598.333739 39.465109 
L 599.794998 312.110731 
L 601.256257 236.600909 
L 602.717516 185.687007 
L 604.178775 30.138364 
L 605.640034 343.345881 
L 607.101293 143.35333 
L 608.562552 335.989993 
L 610.023811 351.796691 
L 611.485069 190.863009 
L 612.946328 348.611462 
L 614.407587 212.821185 
L 615.868846 296.373709 
L 617.330105 240.05489 
L 618.791364 160.404264 
L 620.252623 54.475505 
L 621.713882 317.605253 
L 623.175141 91.583412 
L 624.6364 134.812933 
L 626.097659 72.402364 
L 627.558918 30.178182 
L 629.020177 170.378003 
L 630.481436 198.258711 
L 631.942695 56.735014 
L 633.403954 89.811624 
L 634.865213 163.400363 
L 636.326472 320.14348 
L 637.787731 332.536012 
L 639.24899 340.996775 
L 640.710249 264.601052 
L 642.171508 334.546686 
L 643.632767 334.068903 
L 645.094026 280.357983 
L 646.555285 293.725991 
L 648.016544 318.122852 
L 649.477802 351.448306 
L 650.939061 341.265528 
L 652.40032 319.974265 
L 653.861579 351.58766 
L 655.322838 311.9017 
L 656.784097 260.500077 
L 658.245356 132.433969 
L 659.706615 266.243436 
L 661.167874 349.855692 
L 662.629133 295.786433 
L 664.090392 316.181852 
L 665.551651 347.098479 
L 667.01291 278.844999 
L 668.474169 195.322329 
L 669.935428 283.772151 
L 671.396687 52.305552 
L 672.857946 217.758287 
L 675.780464 30.178182 
L 677.241723 299.986954 
L 678.702982 30.864995 
L 680.164241 33.871054 
L 681.6255 354.046259 
L 683.086759 34.587725 
L 684.548018 113.372376 
L 686.009276 236.093259 
L 687.470535 108.574609 
L 688.931794 30.178182 
L 690.393053 329.330876 
L 691.854312 129.328374 
L 693.315571 316.142036 
L 694.77683 173.214848 
L 696.238089 353.449028 
L 697.699348 265.178379 
L 699.160607 215.339504 
L 700.621866 92.429498 
L 702.083125 304.077984 
L 703.544384 195.252652 
L 706.466902 339.633099 
L 707.928161 304.715029 
L 709.38942 250.944392 
L 710.850679 233.425626 
L 712.311938 321.367804 
L 713.773197 271.678238 
L 715.234456 307.900255 
L 716.695715 334.258025 
L 718.156974 210.511888 
L 719.618233 191.221344 
L 721.079492 354.782843 
L 722.540751 316.918438 
L 724.002009 238.55186 
L 725.463268 223.302574 
L 726.924527 321.576833 
L 728.385786 180.63047 
L 729.847045 54.575041 
L 731.308304 30.178182 
L 732.769563 243.379466 
L 734.230822 99.924737 
L 735.692081 30.138364 
L 737.15334 148.539281 
L 738.614599 299.369819 
L 740.075858 272.544223 
L 741.537117 291.685453 
L 742.998376 62.906406 
L 744.459635 100.531912 
L 745.920894 290.550713 
L 747.382153 353.419167 
L 748.843412 325.697722 
L 750.304671 277.222525 
L 751.76593 264.451748 
L 753.227189 351.000384 
L 754.688448 119.832416 
L 756.149707 30.138364 
L 757.610966 190.295641 
L 759.072225 326.414401 
L 760.533484 351.687199 
L 761.994742 264.720497 
L 763.456001 321.089095 
L 764.91726 316.968206 
L 766.378519 127.228118 
L 767.839778 30.178182 
L 769.301037 37.862533 
L 770.762296 104.045611 
L 772.223555 338.239561 
L 773.684814 225.462557 
L 775.146073 295.35842 
L 776.607332 213.289016 
L 778.068591 264.173039 
L 779.52985 97.705026 
L 780.991109 30.138364 
L 782.452368 42.899191 
L 783.913627 314.808223 
L 785.374886 130.622382 
L 786.836145 246.634375 
L 788.297404 268.13467 
L 789.758663 228.717466 
L 791.219922 194.356808 
L 792.681181 348.273031 
L 794.14244 321.556926 
L 795.603699 139.471346 
L 797.064958 30.178182 
L 798.526216 75.069997 
L 799.987475 209.874844 
L 801.448734 355.021735 
L 802.909993 352.055491 
L 804.371252 321.546972 
L 805.832511 187.170127 
L 807.29377 33.821276 
L 808.755029 303.918721 
L 810.216288 73.606775 
L 811.677547 98.640688 
L 813.138806 202.419414 
L 814.600065 71.287529 
L 816.061324 30.178182 
L 817.522583 325.598184 
L 818.983842 30.138364 
L 820.445101 35.821995 
L 823.367619 231.992274 
L 824.828878 212.751508 
L 826.290137 345.864203 
L 827.751396 191.261163 
L 829.212655 223.660909 
L 830.673914 295.995464 
L 832.135173 326.503985 
L 833.596432 165.132334 
L 835.057691 195.949424 
L 836.518949 267.985356 
L 837.980208 59.203575 
L 839.441467 161.459361 
L 840.902726 308.537305 
L 842.363985 292.38222 
L 843.825244 204.579397 
L 845.286503 36.498868 
L 846.747762 187.59815 
L 848.209021 124.45099 
L 849.67028 30.138364 
L 851.131539 305.342123 
L 852.592798 111.52095 
L 854.054057 295.019989 
L 855.515316 30.138364 
L 856.976575 182.491835 
L 858.437834 319.148096 
L 859.899093 301.032107 
L 861.360352 339.19513 
L 862.821611 76.363984 
L 864.28287 48.244396 
L 865.744129 248.097586 
L 867.205388 249.640434 
L 868.666647 189.210675 
L 870.127906 246.465162 
L 871.589165 248.187173 
L 873.050423 285.125872 
L 874.511682 264.869811 
L 875.972941 200.936293 
L 877.4342 273.728725 
L 880.356718 103.418536 
L 881.817977 345.54568 
L 883.279236 64.976803 
L 884.740495 136.923148 
L 886.201754 333.810103 
L 887.663013 242.732472 
L 889.124272 181.466577 
L 890.585531 331.879058 
L 892.04679 226.975546 
L 893.508049 351.060107 
L 894.969308 328.007014 
L 896.430567 223.979436 
L 897.891826 304.744892 
L 899.353085 141.60146 
L 900.814344 101.726384 
L 902.275603 236.541181 
L 903.736862 235.267092 
L 905.198121 305.113183 
L 906.65938 237.06873 
L 908.120639 265.208238 
L 909.581898 353.886997 
L 911.043156 278.317446 
L 912.504415 188.404417 
L 913.965674 322.164109 
L 915.426933 132.16522 
L 916.888192 253.97035 
L 918.349451 331.371411 
L 919.81071 167.939321 
L 921.271969 210.780647 
L 922.733228 232.57955 
L 924.194487 147.484183 
L 925.655746 266.950158 
L 927.117005 333.57121 
L 928.578264 352.851798 
L 930.039523 319.118234 
L 931.500782 280.357983 
L 932.962041 346.222541 
L 934.4233 293.397514 
L 935.884559 246.315848 
L 935.884559 246.315848 
" clip-path="url(#p106211f378)" style="fill: none; stroke: #0000ff; stroke-width: 1.5; stroke-linecap: square"/>
   </g>
   <g id="line2d_30">
    <path d="M 60.590441 344.022742 
L 62.0517 329.261199 
L 63.512959 342.718789 
L 64.974218 332.954073 
L 66.435477 331.132518 
L 67.896736 319.586065 
L 69.357995 289.983346 
L 70.819254 355.748365 
L 72.280513 299.180696 
L 73.741772 326.454214 
L 76.66429 350.164261 
L 78.125549 289.147225 
L 79.586808 333.939503 
L 81.048067 305.561105 
L 82.509326 307.65141 
L 83.970585 312.349626 
L 85.431844 314.121405 
L 86.893102 328.484797 
L 88.354361 307.462288 
L 89.81562 349.218646 
L 91.276879 313.613761 
L 92.738138 351.418445 
L 94.199397 331.451043 
L 95.660656 335.681424 
L 97.121915 320.541634 
L 98.583174 347.277648 
L 100.044433 355.698596 
L 101.505692 342.599343 
L 102.966951 339.354391 
L 104.42821 345.595449 
L 105.889469 308.298409 
L 107.350728 343.226434 
L 108.811987 342.231051 
L 110.273246 323.179401 
L 111.734505 281.18415 
L 113.195764 323.189355 
L 114.657023 348.740862 
L 117.579541 313.982056 
L 119.0408 302.485368 
L 120.502059 318.968928 
L 121.963318 347.546401 
L 123.424577 347.188063 
L 124.885835 331.311689 
L 126.347094 351.766829 
L 127.808353 331.142473 
L 129.269612 353.648105 
L 130.730871 343.515097 
L 132.19213 340.290053 
L 133.653389 318.909205 
L 135.114648 320.322651 
L 136.575907 344.38108 
L 138.037166 327.449599 
L 139.498425 339.32453 
L 140.959684 329.619537 
L 142.420943 321.109004 
L 143.882202 325.548416 
L 145.343461 355.678688 
L 146.80472 317.565437 
L 148.265979 330.595013 
L 149.727238 338.767115 
L 151.188497 337.393485 
L 152.649756 298.424202 
L 154.111015 323.179401 
L 155.572274 317.525621 
L 157.033533 293.526914 
L 158.494792 330.823951 
L 159.956051 353.94672 
L 161.417309 339.702776 
L 162.878568 341.096313 
L 164.339827 350.771445 
L 165.801086 332.008458 
L 167.262345 348.143632 
L 168.723604 355.559242 
L 170.184863 351.756876 
L 171.646122 352.055491 
L 173.107381 341.026637 
L 174.56864 326.912091 
L 176.029899 352.513367 
L 177.491158 347.665847 
L 178.952417 322.602079 
L 180.413676 332.884395 
L 181.874935 297.319326 
L 183.336194 243.817438 
L 184.797453 303.132367 
L 186.258712 327.469506 
L 187.719971 304.605538 
L 189.18123 347.864924 
L 190.642489 345.147526 
L 192.103748 315.723976 
L 193.565007 342.92782 
L 195.026266 345.047987 
L 196.487525 355.818042 
L 197.948784 341.952343 
L 199.410042 317.256867 
L 200.871301 323.806493 
L 202.33256 326.792645 
L 203.793819 329.510044 
L 205.255078 344.420895 
L 206.716337 329.460276 
L 208.177596 345.505864 
L 209.638855 338.558083 
L 211.100114 342.868096 
L 212.561373 333.282549 
L 214.022632 339.274761 
L 215.483891 351.836506 
L 216.94515 331.062844 
L 218.406409 342.320636 
L 219.867668 326.842413 
L 221.328927 335.970086 
L 222.790186 352.742306 
L 224.251445 349.4874 
L 225.712704 323.856264 
L 227.173963 313.842701 
L 228.635222 347.088525 
L 230.096481 301.280957 
L 231.55774 321.059234 
L 233.018999 351.557799 
L 234.480258 353.180275 
L 235.941516 328.654013 
L 237.402775 356.256011 
L 238.864034 293.019269 
L 240.325293 295.657033 
L 241.786552 331.242012 
L 243.247811 336.895793 
L 244.70907 350.154308 
L 246.170329 317.34645 
L 247.631588 320.432141 
L 249.092847 349.367954 
L 250.554106 349.168877 
L 252.015365 304.665261 
L 253.476624 310.508166 
L 254.937883 345.864203 
L 256.399142 319.277495 
L 257.860401 320.790479 
L 259.32166 327.688492 
L 260.782919 342.808374 
L 262.244178 312.946852 
L 263.705437 308.756286 
L 265.166696 333.491579 
L 266.627955 320.471957 
L 268.089214 341.464605 
L 269.550473 329.360737 
L 271.011732 340.857421 
L 272.472991 355.768273 
L 273.934249 311.692673 
L 275.395508 302.485368 
L 276.856767 344.022742 
L 278.318026 317.754559 
L 279.779285 336.089532 
L 281.240544 345.306787 
L 282.701803 295.537588 
L 284.163062 291.556053 
L 285.624321 342.091698 
L 287.08558 302.963154 
L 288.546839 346.312125 
L 290.008098 283.901551 
L 291.469357 343.853527 
L 292.930616 286.200888 
L 294.391875 296.134819 
L 295.853134 333.053611 
L 297.314393 327.389876 
L 298.775652 344.162096 
L 300.236911 346.043372 
L 301.69817 347.12834 
L 303.159429 355.987257 
L 304.620688 297.558217 
L 306.081947 334.248071 
L 307.543206 294.24359 
L 309.004465 319.874726 
L 310.465724 337.602516 
L 311.926982 321.984941 
L 313.388241 282.488103 
L 314.8495 289.26667 
L 316.310759 331.938781 
L 317.772018 307.790765 
L 319.233277 336.935609 
L 320.694536 287.952763 
L 322.155795 355.907627 
L 323.617054 289.386115 
L 325.078313 310.149825 
L 326.539572 347.267694 
L 328.000831 319.536297 
L 329.46209 306.884966 
L 330.923349 344.908634 
L 332.384608 341.972251 
L 333.845867 333.581165 
L 335.307126 351.060107 
L 336.768385 316.759174 
L 338.229644 303.460844 
L 339.690903 348.292939 
L 341.152162 335.910362 
L 342.613421 356.106703 
L 344.07468 342.400266 
L 345.535939 354.603674 
L 346.997198 339.32453 
L 348.458456 339.852083 
L 349.919715 349.576985 
L 351.380974 331.570488 
L 352.842233 337.682146 
L 354.303492 348.472108 
L 355.764751 310.189643 
L 357.22601 316.062407 
L 358.687269 346.501248 
L 360.148528 338.518269 
L 361.609787 351.229322 
L 363.071046 343.017404 
L 364.532305 298.842265 
L 365.993564 320.233064 
L 367.454823 336.885839 
L 368.916082 327.290338 
L 370.377341 350.283707 
L 371.8386 336.437916 
L 373.299859 339.981484 
L 374.761118 329.987827 
L 376.222377 338.846746 
L 377.683636 336.865932 
L 379.144895 330.147091 
L 380.606154 307.999796 
L 382.067413 351.687199 
L 383.528672 335.382809 
L 384.989931 338.448592 
L 386.451189 347.198017 
L 387.912448 349.079293 
L 389.373707 323.886125 
L 390.834966 335.960132 
L 392.296225 315.893191 
L 393.757484 320.601357 
L 395.218743 337.084915 
L 396.680002 301.828415 
L 398.141261 335.233501 
L 399.60252 347.655894 
L 401.063779 338.667577 
L 402.525038 346.033418 
L 403.986297 340.389591 
L 405.447556 352.174937 
L 406.908815 335.223549 
L 408.370074 353.249952 
L 409.831333 345.057942 
L 411.292592 327.121122 
L 412.753851 325.409061 
L 414.21511 351.080014 
L 415.676369 330.744319 
L 417.137628 340.82756 
L 418.598887 321.95508 
L 420.060146 343.345881 
L 421.521405 319.695558 
L 422.982664 331.08275 
L 424.443922 298.026048 
L 425.905181 346.640602 
L 427.36644 297.438771 
L 428.827699 308.019706 
L 430.288958 341.544236 
L 431.750217 333.372133 
L 433.211476 337.463161 
L 434.672735 355.658781 
L 436.133994 350.622138 
L 437.595253 352.274475 
L 439.056512 322.512495 
L 440.517771 309.343562 
L 441.97903 307.800719 
L 443.440289 350.303615 
L 444.901548 328.743597 
L 446.362807 356.017119 
L 447.824066 316.659636 
L 449.285325 346.302171 
L 450.746584 342.231051 
L 452.207843 310.03038 
L 453.669102 341.205806 
L 455.130361 354.066166 
L 456.59162 342.838235 
L 458.052879 346.471386 
L 459.514138 350.801307 
L 460.975396 348.800585 
L 462.436655 321.138865 
L 463.897914 342.957681 
L 465.359173 339.643052 
L 466.820432 329.211428 
L 468.281691 342.917866 
L 469.74295 351.71706 
L 471.204209 342.53962 
L 472.665468 334.307796 
L 474.126727 306.566444 
L 475.587986 319.914542 
L 477.049245 324.901417 
L 478.510504 331.849197 
L 479.971763 349.447585 
L 481.433022 329.987827 
L 482.894281 318.371697 
L 484.35554 272.524314 
L 485.816799 335.771009 
L 487.278058 335.671471 
L 488.739317 299.150832 
L 490.200576 340.300006 
L 491.661835 355.071504 
L 493.123094 353.648105 
L 494.584353 350.154308 
L 496.045612 344.739419 
L 497.506871 346.959125 
L 498.968129 328.385259 
L 500.429388 337.622424 
L 501.890647 343.455373 
L 503.351906 336.418008 
L 504.813165 349.845738 
L 506.274424 350.124446 
L 507.735683 345.764664 
L 509.196942 335.950178 
L 510.658201 353.269859 
L 512.11946 315.873282 
L 513.580719 289.943533 
L 515.041978 350.333477 
L 516.503237 345.834341 
L 517.964496 349.8756 
L 519.425755 326.175508 
L 520.887014 328.056782 
L 522.348273 302.684445 
L 523.809532 355.91758 
L 525.270791 350.582322 
L 526.73205 330.724412 
L 528.193309 324.324092 
L 529.654568 326.075969 
L 531.115827 316.25153 
L 532.577086 356.017119 
L 534.038345 352.642767 
L 535.499604 342.340543 
L 536.960862 307.860442 
L 538.422121 349.955231 
L 539.88338 353.628197 
L 541.344639 335.93027 
L 542.805898 345.41628 
L 544.267157 353.030967 
L 545.728416 328.375307 
L 547.189675 352.005722 
L 548.650934 340.737975 
L 550.112193 293.407468 
L 551.573452 335.85064 
L 553.034711 324.762062 
L 554.49597 293.327837 
L 555.957229 336.149255 
L 557.418488 355.111319 
L 558.879747 321.706233 
L 560.341006 327.897521 
L 561.802265 339.772452 
L 563.263524 287.017101 
L 564.724783 271.309942 
L 566.186042 310.279225 
L 567.647301 342.858143 
L 569.10856 332.745041 
L 570.569819 320.790479 
L 572.031078 312.638285 
L 573.492336 349.945277 
L 574.953595 341.613913 
L 576.414854 339.424069 
L 577.876113 328.644059 
L 579.337372 279.362598 
L 580.798631 293.387559 
L 582.25989 322.721524 
L 583.721149 285.693244 
L 585.182408 313.603806 
L 586.643667 330.983212 
L 588.104926 329.171612 
L 589.566185 351.637429 
L 591.027444 328.604245 
L 592.488703 301.300861 
L 593.949962 297.826971 
L 595.411221 333.87978 
L 596.87248 339.682868 
L 598.333739 323.915986 
L 599.794998 344.918588 
L 601.256257 356.196288 
L 602.717516 333.15315 
L 604.178775 319.15805 
L 605.640034 317.595298 
L 607.101293 295.398233 
L 608.562552 347.984371 
L 610.023811 325.389154 
L 611.485069 345.904018 
L 612.946328 354.265243 
L 614.407587 308.646795 
L 615.868846 313.036439 
L 617.330105 309.393335 
L 618.791364 338.508315 
L 620.252623 348.989708 
L 621.713882 306.218058 
L 623.175141 322.164109 
L 624.6364 333.839964 
L 626.097659 338.627761 
L 627.558918 326.6732 
L 629.020177 317.625159 
L 630.481436 340.081021 
L 631.942695 346.779956 
L 633.403954 345.67508 
L 634.865213 339.732637 
L 636.326472 320.979604 
L 637.787731 343.18662 
L 639.24899 350.711722 
L 640.710249 329.599628 
L 642.171508 332.63555 
L 643.632767 340.538898 
L 645.094026 342.479897 
L 646.555285 335.342994 
L 648.016544 327.150984 
L 649.477802 338.627761 
L 650.939061 351.527937 
L 652.40032 344.04265 
L 653.861579 348.273031 
L 655.322838 340.449314 
L 656.784097 328.156321 
L 658.245356 346.322079 
L 659.706615 344.550296 
L 661.167874 338.916423 
L 662.629133 355.180996 
L 664.090392 346.809817 
L 665.551651 355.390027 
L 667.01291 353.867089 
L 668.474169 354.683304 
L 669.935428 347.51654 
L 671.396687 345.167434 
L 672.857946 336.109439 
L 674.319205 348.770724 
L 675.780464 341.803035 
L 677.241723 331.311689 
L 678.702982 334.088809 
L 680.164241 337.184454 
L 681.6255 355.479612 
L 683.086759 322.363186 
L 684.548018 319.576111 
L 686.009276 321.925219 
L 687.470535 279.531817 
L 688.931794 313.50427 
L 690.393053 340.280098 
L 691.854312 302.923336 
L 693.315571 343.60468 
L 694.77683 349.467492 
L 696.238089 341.16599 
L 697.699348 325.399109 
L 699.160607 338.329145 
L 700.621866 313.235516 
L 702.083125 352.821936 
L 703.544384 355.609011 
L 705.005643 342.340543 
L 706.466902 352.592998 
L 707.928161 334.108719 
L 709.38942 349.845738 
L 710.850679 354.125889 
L 712.311938 344.63988 
L 713.773197 340.409498 
L 716.695715 353.906905 
L 718.156974 344.311403 
L 719.618233 323.836354 
L 721.079492 346.690371 
L 722.540751 350.263799 
L 724.002009 341.872713 
L 725.463268 355.658781 
L 726.924527 351.11983 
L 728.385786 342.669019 
L 729.847045 352.254567 
L 731.308304 351.71706 
L 732.769563 354.324966 
L 734.230822 347.506586 
L 735.692081 336.368239 
L 737.15334 340.847468 
L 738.614599 331.232057 
L 740.075858 320.243019 
L 741.537117 348.462154 
L 742.998376 311.89175 
L 744.459635 333.969364 
L 745.920894 321.566881 
L 747.382153 310.677379 
L 748.843412 344.918588 
L 750.304671 353.658059 
L 751.76593 341.703497 
L 753.227189 345.515819 
L 754.688448 350.761491 
L 756.149707 306.198149 
L 757.610966 297.120249 
L 759.072225 344.908634 
L 760.533484 330.017691 
L 761.994742 333.87978 
L 763.456001 347.894786 
L 764.91726 346.312125 
L 766.378519 339.573375 
L 767.839778 339.593283 
L 769.301037 340.061114 
L 770.762296 349.248508 
L 772.223555 352.712444 
L 773.684814 349.109154 
L 775.146073 349.666569 
L 776.607332 342.549574 
L 779.52985 343.574819 
L 780.991109 339.424069 
L 782.452368 310.070193 
L 783.913627 351.398537 
L 785.374886 315.913098 
L 786.836145 347.884832 
L 788.297404 297.578126 
L 789.758663 294.263499 
L 791.219922 350.791353 
L 792.681181 306.42709 
L 794.14244 319.257589 
L 795.603699 348.064001 
L 797.064958 349.178831 
L 798.526216 324.742155 
L 799.987475 321.457388 
L 801.448734 355.638873 
L 802.909993 331.301734 
L 804.371252 351.985814 
L 805.832511 351.030245 
L 807.29377 350.880938 
L 808.755029 314.758452 
L 810.216288 319.546249 
L 811.677547 350.73163 
L 813.138806 345.097757 
L 814.600065 338.627761 
L 816.061324 354.036305 
L 817.522583 322.482634 
L 818.983842 323.159494 
L 820.445101 354.324966 
L 821.90636 339.2449 
L 823.367619 339.71273 
L 824.828878 348.143632 
L 826.290137 316.948299 
L 827.751396 317.645066 
L 829.212655 337.901131 
L 830.673914 319.277495 
L 832.135173 334.258025 
L 833.596432 336.75644 
L 835.057691 326.265092 
L 836.518949 323.448155 
L 837.980208 356.216196 
L 839.441467 337.463161 
L 840.902726 310.52807 
L 842.363985 311.433873 
L 843.825244 327.947292 
L 845.286503 352.423783 
L 846.747762 298.941801 
L 848.209021 281.423046 
L 849.67028 331.65012 
L 851.131539 302.20666 
L 852.592798 341.096313 
L 854.054057 318.899251 
L 855.515316 341.156036 
L 856.976575 264.979297 
L 858.437834 332.466335 
L 859.899093 314.539468 
L 861.360352 298.08577 
L 862.821611 349.646662 
L 864.28287 329.251244 
L 865.744129 325.677815 
L 867.205388 324.762062 
L 868.666647 344.490572 
L 870.127906 354.374735 
L 871.589165 349.069339 
L 873.050423 353.966628 
L 874.511682 327.210706 
L 875.972941 315.106838 
L 877.4342 319.944403 
L 878.895459 347.456817 
L 880.356718 349.576985 
L 881.817977 348.63137 
L 883.279236 339.503699 
L 884.740495 329.669305 
L 886.201754 347.635986 
L 887.663013 346.799863 
L 889.124272 353.68792 
L 890.585531 329.121844 
L 892.04679 318.232342 
L 893.508049 354.603674 
L 894.969308 347.695709 
L 896.430567 350.592276 
L 897.891826 354.942104 
L 899.353085 348.442247 
L 900.814344 343.485235 
L 902.275603 354.93215 
L 903.736862 349.776062 
L 905.198121 338.229608 
L 906.65938 345.008173 
L 908.120639 355.718504 
L 909.581898 333.183011 
L 911.043156 340.389591 
L 912.504415 351.209414 
L 913.965674 332.237396 
L 915.426933 334.934885 
L 916.888192 343.554911 
L 918.349451 346.959125 
L 919.81071 341.763221 
L 921.271969 338.408777 
L 922.733228 344.56025 
L 924.194487 348.63137 
L 925.655746 334.258025 
L 927.117005 349.855692 
L 928.578264 355.678688 
L 930.039523 348.661231 
L 931.500782 329.987827 
L 932.962041 335.780963 
L 934.4233 342.559527 
L 935.884559 337.065009 
L 935.884559 337.065009 
" clip-path="url(#p106211f378)" style="fill: none; stroke: #008000; stroke-width: 1.5; stroke-linecap: square"/>
   </g>
   <g id="line2d_31">
    <path d="M 60.590441 294.323222 
L 62.0517 279.223244 
L 63.512959 332.575825 
L 64.974218 277.560956 
L 67.896736 353.389305 
L 69.357995 327.817892 
L 70.819254 291.26739 
L 72.280513 338.030531 
L 73.741772 330.256581 
L 75.203031 330.883673 
L 76.66429 353.618244 
L 78.125549 345.28688 
L 79.586808 325.966476 
L 82.509326 345.296834 
L 83.970585 338.179839 
L 85.431844 348.870262 
L 86.893102 301.032107 
L 88.354361 352.184891 
L 89.81562 350.253845 
L 91.276879 345.187342 
L 92.738138 285.394626 
L 94.199397 305.790045 
L 95.660656 335.333039 
L 97.121915 318.720083 
L 98.583174 327.648676 
L 100.044433 311.443823 
L 101.505692 343.26625 
L 102.966951 269.468486 
L 104.42821 245.280649 
L 105.889469 316.679545 
L 107.350728 347.536447 
L 108.811987 343.803757 
L 110.273246 304.675215 
L 111.734505 336.716624 
L 113.195764 337.841407 
L 114.657023 306.42709 
L 116.118282 343.146804 
L 117.579541 296.164683 
L 119.0408 319.715465 
L 120.502059 323.448155 
L 121.963318 323.866216 
L 123.424577 341.982204 
L 124.885835 345.933879 
L 126.347094 349.338092 
L 127.808353 354.59372 
L 129.269612 340.280098 
L 130.730871 343.594727 
L 132.19213 334.37747 
L 135.114648 280.148952 
L 136.575907 291.466467 
L 138.037166 296.124864 
L 139.498425 356.027073 
L 140.959684 336.5275 
L 142.420943 318.859435 
L 143.882202 351.58766 
L 145.343461 346.700325 
L 146.80472 327.658631 
L 148.265979 311.463732 
L 149.727238 331.222105 
L 151.188497 354.892335 
L 152.649756 332.605689 
L 154.111015 325.976431 
L 155.572274 333.670749 
L 157.033533 329.052167 
L 158.494792 308.91555 
L 159.956051 311.045669 
L 161.417309 354.942104 
L 162.878568 352.821936 
L 164.339827 351.11983 
L 165.801086 319.516388 
L 167.262345 318.600635 
L 170.184863 354.275197 
L 171.646122 325.737538 
L 173.107381 306.237967 
L 176.029899 279.123708 
L 177.491158 325.100494 
L 178.952417 309.194258 
L 180.413676 285.006426 
L 181.874935 351.906183 
L 183.336194 325.2498 
L 184.797453 341.106267 
L 186.258712 318.809667 
L 187.719971 308.91555 
L 189.18123 348.253124 
L 190.642489 356.256011 
L 192.103748 332.098042 
L 193.565007 336.089532 
L 195.026266 325.637999 
L 196.487525 329.729027 
L 197.948784 324.075247 
L 199.410042 286.16107 
L 200.871301 318.262206 
L 202.33256 345.854249 
L 203.793819 335.014517 
L 205.255078 349.148969 
L 206.716337 344.530388 
L 208.177596 311.742441 
L 209.638855 321.178679 
L 211.100114 316.380929 
L 212.561373 300.026772 
L 214.022632 329.29106 
L 215.483891 333.859871 
L 216.94515 334.536734 
L 218.406409 318.521006 
L 219.867668 336.099486 
L 221.328927 318.471235 
L 222.790186 287.564564 
L 224.251445 336.5275 
L 225.712704 324.254418 
L 227.173963 330.107275 
L 228.635222 341.693544 
L 230.096481 346.113048 
L 231.55774 323.597464 
L 233.018999 313.912379 
L 234.480258 338.956237 
L 235.941516 350.492738 
L 237.402775 350.08463 
L 238.864034 351.995768 
L 240.325293 332.685318 
L 241.786552 349.925369 
L 243.247811 342.639158 
L 244.70907 301.340679 
L 246.170329 297.150113 
L 247.631588 317.037883 
L 249.092847 355.041643 
L 250.554106 356.256011 
L 252.015365 316.789035 
L 253.476624 330.067459 
L 254.937883 352.70249 
L 256.399142 317.764514 
L 257.860401 343.415558 
L 259.32166 356.056934 
L 260.782919 314.111456 
L 262.244178 299.7182 
L 263.705437 346.969079 
L 265.166696 325.3792 
L 266.627955 292.322497 
L 268.089214 327.927382 
L 269.550473 344.271589 
L 271.011732 331.34155 
L 272.472991 355.250673 
L 273.934249 316.231623 
L 275.395508 311.344287 
L 276.856767 315.803608 
L 278.318026 350.492738 
L 279.779285 307.969933 
L 281.240544 294.223681 
L 282.701803 313.335052 
L 284.163062 318.282113 
L 285.624321 312.837362 
L 287.08558 328.624152 
L 288.546839 321.706233 
L 290.008098 343.226434 
L 291.469357 298.991569 
L 292.930616 317.943681 
L 294.391875 298.822356 
L 295.853134 317.336498 
L 297.314393 311.971377 
L 298.775652 315.574669 
L 300.236911 291.476421 
L 301.69817 347.347324 
L 303.159429 331.490859 
L 304.620688 347.048709 
L 306.081947 297.448726 
L 307.543206 319.984219 
L 309.004465 332.63555 
L 310.465724 338.88656 
L 311.926982 298.185311 
L 313.388241 311.354242 
L 314.8495 306.417135 
L 316.310759 320.740711 
L 317.772018 349.258462 
L 319.233277 338.199745 
L 320.694536 303.849043 
L 322.155795 331.460995 
L 323.617054 348.581601 
L 325.078313 350.044815 
L 326.539572 336.31847 
L 328.000831 344.211865 
L 329.46209 287.2759 
L 330.923349 329.490137 
L 332.384608 327.320199 
L 333.845867 318.789757 
L 335.307126 329.251244 
L 336.768385 290.7697 
L 338.229644 318.073081 
L 339.690903 336.298562 
L 341.152162 335.303178 
L 342.613421 353.140459 
L 344.07468 341.753266 
L 345.535939 305.899536 
L 346.997198 333.740426 
L 348.458456 333.849919 
L 349.919715 332.436473 
L 351.380974 318.142758 
L 352.842233 355.628919 
L 354.303492 300.862894 
L 355.764751 295.756574 
L 357.22601 304.038166 
L 358.687269 345.804479 
L 360.148528 348.910077 
L 361.609787 314.629052 
L 363.071046 348.253124 
L 364.532305 348.790631 
L 365.993564 347.526493 
L 367.454823 315.385544 
L 368.916082 317.78442 
L 370.377341 349.4874 
L 371.8386 355.937488 
L 373.299859 331.570488 
L 374.761118 335.571932 
L 377.683636 285.275181 
L 379.144895 301.280957 
L 380.606154 348.183447 
L 382.067413 338.120115 
L 383.528672 344.858865 
L 384.989931 345.326695 
L 386.451189 347.317463 
L 387.912448 315.972821 
L 389.373707 337.821499 
L 390.834966 309.681994 
L 392.296225 326.006292 
L 393.757484 323.32871 
L 395.218743 344.600064 
L 396.680002 332.645503 
L 398.141261 352.344152 
L 399.60252 345.306787 
L 401.063779 346.580879 
L 402.525038 331.819336 
L 403.986297 348.591554 
L 405.447556 302.993013 
L 406.908815 303.271722 
L 408.370074 343.803757 
L 409.831333 332.048274 
L 411.292592 308.975272 
L 412.753851 294.37299 
L 414.21511 347.685755 
L 415.676369 336.437916 
L 417.137628 347.12834 
L 418.598887 328.912813 
L 420.060146 321.676371 
L 421.521405 305.690504 
L 422.982664 354.474274 
L 424.443922 343.594727 
L 425.905181 348.382524 
L 427.36644 339.66296 
L 428.827699 349.925369 
L 430.288958 337.6921 
L 431.750217 342.977589 
L 433.211476 312.777639 
L 434.672735 306.845153 
L 436.133994 347.417001 
L 437.595253 317.834191 
L 439.056512 338.090254 
L 440.517771 311.14521 
L 441.97903 313.683438 
L 443.440289 343.86348 
L 444.901548 313.195702 
L 446.362807 341.384975 
L 447.824066 302.375878 
L 449.285325 330.057504 
L 450.746584 333.919594 
L 452.207843 308.258596 
L 453.669102 309.602362 
L 455.130361 311.264655 
L 456.59162 337.871269 
L 458.052879 339.254853 
L 459.514138 340.947006 
L 460.975396 342.957681 
L 462.436655 343.594727 
L 463.897914 331.052889 
L 465.359173 339.672914 
L 466.820432 311.9017 
L 468.281691 342.002112 
L 469.74295 309.512781 
L 471.204209 320.27288 
L 472.665468 339.374299 
L 474.126727 320.780527 
L 475.587986 317.933729 
L 477.049245 307.153721 
L 478.510504 334.914979 
L 479.971763 290.87919 
L 481.433022 327.369967 
L 482.894281 327.797983 
L 484.35554 326.75283 
L 485.816799 345.555633 
L 487.278058 354.484228 
L 488.739317 355.549288 
L 490.200576 336.467778 
L 491.661835 337.045101 
L 493.123094 331.331595 
L 494.584353 327.429692 
L 496.045612 335.910362 
L 497.506871 320.870111 
L 498.968129 355.83795 
L 500.429388 352.453644 
L 501.890647 347.188063 
L 503.351906 319.605972 
L 504.813165 279.282967 
L 506.274424 315.256145 
L 507.735683 328.295675 
L 509.196942 308.806059 
L 510.658201 316.779083 
L 512.11946 354.454366 
L 513.580719 334.417286 
L 515.041978 343.823665 
L 516.503237 344.400988 
L 517.964496 322.403002 
L 520.887014 308.91555 
L 522.348273 347.088525 
L 523.809532 342.300728 
L 525.270791 345.077849 
L 526.73205 342.718789 
L 528.193309 343.644496 
L 529.654568 333.730471 
L 531.115827 330.863767 
L 532.577086 346.760048 
L 534.038345 346.132956 
L 535.499604 353.906905 
L 536.960862 328.892906 
L 538.422121 356.196288 
L 539.88338 309.891025 
L 541.344639 296.562837 
L 542.805898 323.030094 
L 544.267157 354.653443 
L 545.728416 350.622138 
L 547.189675 345.575541 
L 548.650934 310.856547 
L 550.112193 313.076252 
L 551.573452 349.567031 
L 553.034711 348.432293 
L 554.49597 341.03659 
L 555.957229 346.809817 
L 557.418488 325.259755 
L 558.879747 298.732769 
L 560.341006 346.123002 
L 561.802265 310.378766 
L 563.263524 340.558805 
L 564.724783 350.572368 
L 566.186042 336.786301 
L 567.647301 343.435466 
L 569.10856 353.588382 
L 570.569819 312.857271 
L 572.031078 287.922899 
L 573.492336 319.377034 
L 574.953595 293.905158 
L 576.414854 254.657172 
L 577.876113 294.183867 
L 579.337372 346.14291 
L 580.798631 334.954795 
L 582.25989 350.821215 
L 583.721149 353.677966 
L 585.182408 354.175658 
L 586.643667 336.975423 
L 588.104926 353.797413 
L 589.566185 350.204076 
L 591.027444 346.202633 
L 592.488703 322.831017 
L 593.949962 336.83607 
L 595.411221 352.772167 
L 598.333739 331.47095 
L 599.794998 330.057504 
L 601.256257 343.624588 
L 602.717516 315.485083 
L 604.178775 313.056348 
L 605.640034 345.396372 
L 607.101293 347.934601 
L 608.562552 346.033418 
L 610.023811 331.689933 
L 611.485069 350.791353 
L 612.946328 329.748937 
L 614.407587 301.310816 
L 615.868846 330.545242 
L 617.330105 346.292217 
L 618.791364 344.689649 
L 620.252623 344.311403 
L 621.713882 330.575106 
L 623.175141 352.10526 
L 624.6364 310.080148 
L 626.097659 312.359576 
L 627.558918 338.289331 
L 629.020177 306.387276 
L 630.481436 335.59184 
L 631.942695 346.839678 
L 633.403954 341.94239 
L 634.865213 317.933729 
L 637.787731 343.355834 
L 639.24899 337.124731 
L 640.710249 324.164831 
L 642.171508 337.721962 
L 643.632767 340.548852 
L 645.094026 330.933444 
L 646.555285 287.564564 
L 648.016544 305.600923 
L 649.477802 350.104538 
L 650.939061 355.340258 
L 652.40032 351.388584 
L 653.861579 352.921475 
L 655.322838 316.998067 
L 656.784097 313.116071 
L 658.245356 333.491579 
L 659.706615 349.885553 
L 661.167874 342.201189 
L 662.629133 329.748937 
L 664.090392 292.660929 
L 665.551651 326.563707 
L 667.01291 321.178679 
L 668.474169 317.34645 
L 669.935428 346.053325 
L 671.396687 353.677966 
L 672.857946 333.810103 
L 674.319205 285.344858 
L 675.780464 296.941081 
L 677.241723 334.168441 
L 678.702982 310.378766 
L 680.164241 295.61722 
L 681.6255 348.302893 
L 683.086759 329.360737 
L 684.548018 323.32871 
L 686.009276 339.653007 
L 687.470535 320.939788 
L 688.931794 319.625881 
L 690.393053 320.004126 
L 691.854312 326.513939 
L 693.315571 350.492738 
L 694.77683 338.090254 
L 696.238089 335.492302 
L 697.699348 346.809817 
L 699.160607 344.530388 
L 700.621866 353.210136 
L 702.083125 352.174937 
L 703.544384 353.508751 
L 705.005643 342.937774 
L 706.466902 339.19513 
L 707.928161 350.423061 
L 709.38942 352.36406 
L 710.850679 347.108433 
L 712.311938 346.093141 
L 713.773197 350.821215 
L 715.234456 324.115063 
L 716.695715 337.632377 
L 718.156974 330.415842 
L 719.618233 321.118956 
L 721.079492 355.867811 
L 722.540751 337.960854 
L 724.002009 352.553183 
L 725.463268 334.457102 
L 726.924527 342.708835 
L 728.385786 339.961576 
L 729.847045 341.16599 
L 731.308304 312.946852 
L 732.769563 345.187342 
L 735.692081 281.462859 
L 737.15334 318.630496 
L 738.614599 351.32886 
L 740.075858 325.349339 
L 741.537117 310.896365 
L 742.998376 337.244178 
L 744.459635 348.044093 
L 745.920894 356.206242 
L 747.382153 327.04149 
L 748.843412 340.319914 
L 750.304671 350.34343 
L 751.76593 352.513367 
L 753.227189 334.327702 
L 754.688448 350.293661 
L 756.149707 328.584336 
L 757.610966 298.483924 
L 759.072225 324.164831 
L 760.533484 354.145797 
L 761.994742 327.310245 
L 763.456001 352.951336 
L 764.91726 336.656901 
L 766.378519 348.63137 
L 767.839778 317.077699 
L 769.301037 298.08577 
L 770.762296 343.415558 
L 772.223555 327.857705 
L 773.684814 311.055624 
L 775.146073 340.986821 
L 776.607332 315.106838 
L 778.068591 341.046543 
L 779.52985 319.85482 
L 780.991109 267.577253 
L 782.452368 314.011915 
L 783.913627 325.637999 
L 785.374886 321.089095 
L 786.836145 315.664253 
L 788.297404 343.425511 
L 789.758663 345.28688 
L 791.219922 347.586217 
L 792.681181 337.911084 
L 794.14244 321.417572 
L 795.603699 337.542792 
L 797.064958 341.643774 
L 798.526216 355.688642 
L 799.987475 345.615356 
L 801.448734 311.951472 
L 802.909993 293.427373 
L 804.371252 293.755849 
L 805.832511 336.875885 
L 807.29377 351.010338 
L 808.755029 351.418445 
L 810.216288 344.480619 
L 811.677547 333.57121 
L 813.138806 326.683152 
L 814.600065 320.690941 
L 816.061324 348.790631 
L 817.522583 329.450321 
L 818.983842 350.841122 
L 820.445101 351.517983 
L 821.90636 316.958251 
L 823.367619 351.080014 
L 824.828878 354.444412 
L 826.290137 355.021735 
L 827.751396 352.981198 
L 829.212655 328.275768 
L 830.673914 314.300578 
L 832.135173 302.485368 
L 833.596432 330.395936 
L 835.057691 342.579435 
L 836.518949 343.037312 
L 837.980208 331.39132 
L 839.441467 309.40329 
L 840.902726 309.542639 
L 842.363985 325.319477 
L 843.825244 326.285001 
L 845.286503 351.229322 
L 846.747762 330.107275 
L 848.209021 349.925369 
L 849.67028 296.154728 
L 851.131539 337.592561 
L 852.592798 352.015675 
L 854.054057 329.16166 
L 855.515316 352.792075 
L 856.976575 333.750381 
L 858.437834 332.973979 
L 859.899093 336.537455 
L 861.360352 312.727871 
L 862.821611 283.483488 
L 864.28287 303.560385 
L 865.744129 343.684311 
L 867.205388 354.862474 
L 868.666647 339.702776 
L 870.127906 332.207535 
L 871.589165 337.084915 
L 873.050423 298.434156 
L 874.511682 287.813409 
L 875.972941 354.583766 
L 877.4342 330.495474 
L 878.895459 293.36765 
L 880.356718 324.244463 
L 881.817977 314.499653 
L 883.279236 290.401409 
L 884.740495 329.788752 
L 886.201754 344.76928 
L 887.663013 339.284714 
L 889.124272 309.920889 
L 890.585531 340.031253 
L 892.04679 340.787744 
L 893.508049 322.94051 
L 894.969308 345.904018 
L 896.430567 351.836506 
L 897.891826 331.421182 
L 899.353085 317.854098 
L 900.814344 299.568896 
L 902.275603 310.936178 
L 903.736862 316.400836 
L 905.198121 317.834191 
L 906.65938 338.070346 
L 908.120639 346.690371 
L 909.581898 332.944118 
L 911.043156 310.189643 
L 912.504415 307.263211 
L 913.965674 344.470664 
L 915.426933 348.422339 
L 916.888192 332.625596 
L 918.349451 311.394055 
L 919.81071 328.484797 
L 921.271969 336.218931 
L 922.733228 337.6921 
L 924.194487 353.458982 
L 925.655746 353.727736 
L 927.117005 319.138143 
L 928.578264 321.965032 
L 930.039523 326.175508 
L 931.500782 331.998504 
L 932.962041 342.897958 
L 934.4233 355.818042 
L 935.884559 347.635986 
L 935.884559 347.635986 
" clip-path="url(#p106211f378)" style="fill: none; stroke: #ff0000; stroke-width: 1.5; stroke-linecap: square"/>
   </g>
   <g id="patch_3">
    <path d="M 51.8375 359.517188 
L 51.8375 26.877187 
" style="fill: none; stroke: #000000; stroke-width: 0.8; stroke-linejoin: miter; stroke-linecap: square"/>
   </g>
   <g id="patch_4">
    <path d="M 944.6375 359.517188 
L 944.6375 26.877187 
" style="fill: none; stroke: #000000; stroke-width: 0.8; stroke-linejoin: miter; stroke-linecap: square"/>
   </g>
   <g id="patch_5">
    <path d="M 51.8375 359.517188 
L 944.6375 359.517188 
" style="fill: none; stroke: #000000; stroke-width: 0.8; stroke-linejoin: miter; stroke-linecap: square"/>
   </g>
   <g id="patch_6">
    <path d="M 51.8375 26.877187 
L 944.6375 26.877187 
" style="fill: none; stroke: #000000; stroke-width: 0.8; stroke-linejoin: miter; stroke-linecap: square"/>
   </g>
   <g id="text_17">
    <!-- acceleration from LSM6DSOX -->
    <g transform="translate(366.595625 20.877187) scale(0.18 -0.18)">
     <defs>
      <path id="DejaVuSans-4c" d="M 628 4666 
L 1259 4666 
L 1259 531 
L 3531 531 
L 3531 0 
L 628 0 
L 628 4666 
z
" transform="scale(0.015625)"/>
      <path id="DejaVuSans-53" d="M 3425 4513 
L 3425 3897 
Q 3066 4069 2747 4153 
Q 2428 4238 2131 4238 
Q 1616 4238 1336 4038 
Q 1056 3838 1056 3469 
Q 1056 3159 1242 3001 
Q 1428 2844 1947 2747 
L 2328 2669 
Q 3034 2534 3370 2195 
Q 3706 1856 3706 1288 
Q 3706 609 3251 259 
Q 2797 -91 1919 -91 
Q 1588 -91 1214 -16 
Q 841 59 441 206 
L 441 856 
Q 825 641 1194 531 
Q 1563 422 1919 422 
Q 2459 422 2753 634 
Q 3047 847 3047 1241 
Q 3047 1584 2836 1778 
Q 2625 1972 2144 2069 
L 1759 2144 
Q 1053 2284 737 2584 
Q 422 2884 422 3419 
Q 422 4038 858 4394 
Q 1294 4750 2059 4750 
Q 2388 4750 2728 4690 
Q 3069 4631 3425 4513 
z
" transform="scale(0.015625)"/>
      <path id="DejaVuSans-4d" d="M 628 4666 
L 1569 4666 
L 2759 1491 
L 3956 4666 
L 4897 4666 
L 4897 0 
L 4281 0 
L 4281 4097 
L 3078 897 
L 2444 897 
L 1241 4097 
L 1241 0 
L 628 0 
L 628 4666 
z
" transform="scale(0.015625)"/>
      <path id="DejaVuSans-44" d="M 1259 4147 
L 1259 519 
L 2022 519 
Q 2988 519 3436 956 
Q 3884 1394 3884 2338 
Q 3884 3275 3436 3711 
Q 2988 4147 2022 4147 
L 1259 4147 
z
M 628 4666 
L 1925 4666 
Q 3281 4666 3915 4102 
Q 4550 3538 4550 2338 
Q 4550 1131 3912 565 
Q 3275 0 1925 0 
L 628 0 
L 628 4666 
z
" transform="scale(0.015625)"/>
      <path id="DejaVuSans-4f" d="M 2522 4238 
Q 1834 4238 1429 3725 
Q 1025 3213 1025 2328 
Q 1025 1447 1429 934 
Q 1834 422 2522 422 
Q 3209 422 3611 934 
Q 4013 1447 4013 2328 
Q 4013 3213 3611 3725 
Q 3209 4238 2522 4238 
z
M 2522 4750 
Q 3503 4750 4090 4092 
Q 4678 3434 4678 2328 
Q 4678 1225 4090 567 
Q 3503 -91 2522 -91 
Q 1538 -91 948 565 
Q 359 1222 359 2328 
Q 359 3434 948 4092 
Q 1538 4750 2522 4750 
z
" transform="scale(0.015625)"/>
      <path id="DejaVuSans-58" d="M 403 4666 
L 1081 4666 
L 2241 2931 
L 3406 4666 
L 4084 4666 
L 2584 2425 
L 4184 0 
L 3506 0 
L 2194 1984 
L 872 0 
L 191 0 
L 1856 2491 
L 403 4666 
z
" transform="scale(0.015625)"/>
     </defs>
     <use xlink:href="#DejaVuSans-61"/>
     <use xlink:href="#DejaVuSans-63" x="61.279297"/>
     <use xlink:href="#DejaVuSans-63" x="116.259766"/>
     <use xlink:href="#DejaVuSans-65" x="171.240234"/>
     <use xlink:href="#DejaVuSans-6c" x="232.763672"/>
     <use xlink:href="#DejaVuSans-65" x="260.546875"/>
     <use xlink:href="#DejaVuSans-72" x="322.070312"/>
     <use xlink:href="#DejaVuSans-61" x="363.183594"/>
     <use xlink:href="#DejaVuSans-74" x="424.462891"/>
     <use xlink:href="#DejaVuSans-69" x="463.671875"/>
     <use xlink:href="#DejaVuSans-6f" x="491.455078"/>
     <use xlink:href="#DejaVuSans-6e" x="552.636719"/>
     <use xlink:href="#DejaVuSans-20" x="616.015625"/>
     <use xlink:href="#DejaVuSans-66" x="647.802734"/>
     <use xlink:href="#DejaVuSans-72" x="683.007812"/>
     <use xlink:href="#DejaVuSans-6f" x="721.871094"/>
     <use xlink:href="#DejaVuSans-6d" x="783.052734"/>
     <use xlink:href="#DejaVuSans-20" x="880.464844"/>
     <use xlink:href="#DejaVuSans-4c" x="912.251953"/>
     <use xlink:href="#DejaVuSans-53" x="967.964844"/>
     <use xlink:href="#DejaVuSans-4d" x="1031.441406"/>
     <use xlink:href="#DejaVuSans-36" x="1117.720703"/>
     <use xlink:href="#DejaVuSans-44" x="1181.34375"/>
     <use xlink:href="#DejaVuSans-53" x="1258.345703"/>
     <use xlink:href="#DejaVuSans-4f" x="1321.822266"/>
     <use xlink:href="#DejaVuSans-58" x="1394.158203"/>
    </g>
   </g>
   <g id="legend_1">
    <g id="patch_7">
     <path d="M 62.3375 104.92875 
L 119.215625 104.92875 
Q 122.215625 104.92875 122.215625 101.92875 
L 122.215625 37.377187 
Q 122.215625 34.377187 119.215625 34.377187 
L 62.3375 34.377187 
Q 59.3375 34.377187 59.3375 37.377187 
L 59.3375 101.92875 
Q 59.3375 104.92875 62.3375 104.92875 
z
" style="fill: #ffffff; opacity: 0.8; stroke: #cccccc; stroke-linejoin: miter"/>
    </g>
    <g id="line2d_32">
     <path d="M 65.3375 46.524844 
L 80.3375 46.524844 
L 95.3375 46.524844 
" style="fill: none; stroke: #0000ff; stroke-width: 1.5; stroke-linecap: square"/>
    </g>
    <g id="text_18">
     <!-- z -->
     <g transform="translate(107.3375 51.774844) scale(0.15 -0.15)">
      <defs>
       <path id="DejaVuSans-7a" d="M 353 3500 
L 3084 3500 
L 3084 2975 
L 922 459 
L 3084 459 
L 3084 0 
L 275 0 
L 275 525 
L 2438 3041 
L 353 3041 
L 353 3500 
z
" transform="scale(0.015625)"/>
      </defs>
      <use xlink:href="#DejaVuSans-7a"/>
     </g>
    </g>
    <g id="line2d_33">
     <path d="M 65.3375 68.542031 
L 80.3375 68.542031 
L 95.3375 68.542031 
" style="fill: none; stroke: #008000; stroke-width: 1.5; stroke-linecap: square"/>
    </g>
    <g id="text_19">
     <!-- y -->
     <g transform="translate(107.3375 73.792031) scale(0.15 -0.15)">
      <defs>
       <path id="DejaVuSans-79" d="M 2059 -325 
Q 1816 -950 1584 -1140 
Q 1353 -1331 966 -1331 
L 506 -1331 
L 506 -850 
L 844 -850 
Q 1081 -850 1212 -737 
Q 1344 -625 1503 -206 
L 1606 56 
L 191 3500 
L 800 3500 
L 1894 763 
L 2988 3500 
L 3597 3500 
L 2059 -325 
z
" transform="scale(0.015625)"/>
      </defs>
      <use xlink:href="#DejaVuSans-79"/>
     </g>
    </g>
    <g id="line2d_34">
     <path d="M 65.3375 90.559219 
L 80.3375 90.559219 
L 95.3375 90.559219 
" style="fill: none; stroke: #ff0000; stroke-width: 1.5; stroke-linecap: square"/>
    </g>
    <g id="text_20">
     <!-- x -->
     <g transform="translate(107.3375 95.809219) scale(0.15 -0.15)">
      <defs>
       <path id="DejaVuSans-78" d="M 3513 3500 
L 2247 1797 
L 3578 0 
L 2900 0 
L 1881 1375 
L 863 0 
L 184 0 
L 1544 1831 
L 300 3500 
L 978 3500 
L 1906 2253 
L 2834 3500 
L 3513 3500 
z
" transform="scale(0.015625)"/>
      </defs>
      <use xlink:href="#DejaVuSans-78"/>
     </g>
    </g>
   </g>
  </g>
 </g>
 <defs>
  <clipPath id="p106211f378">
   <rect x="51.8375" y="26.877187" width="892.8" height="332.64"/>
  </clipPath>
 </defs>
</svg>
